%TF.GenerationSoftware,KiCad,Pcbnew,10.0.1*%
%TF.CreationDate,2026-05-07T12:10:43+08:00*%
%TF.ProjectId,EnvDaqBox,456e7644-6171-4426-9f78-2e6b69636164,v0.0.1*%
%TF.SameCoordinates,Original*%
%TF.FileFunction,Legend,Top*%
%TF.FilePolarity,Positive*%
%FSLAX46Y46*%
G04 Gerber Fmt 4.6, Leading zero omitted, Abs format (unit mm)*
G04 Created by KiCad (PCBNEW 10.0.1) date 2026-05-07 12:10:43*
%MOMM*%
%LPD*%
G01*
G04 APERTURE LIST*
%ADD10C,1.000000*%
%ADD11C,0.150000*%
%ADD12C,0.120000*%
%ADD13C,0.152400*%
%ADD14C,0.254000*%
%ADD15C,0.152000*%
%ADD16C,0.300000*%
%ADD17C,0.304800*%
%ADD18C,0.250000*%
G04 APERTURE END LIST*
D10*
X103210000Y-123380000D02*
G75*
G02*
X99849940Y-123380000I-1680030J0D01*
G01*
X99849940Y-123380000D02*
G75*
G02*
X103210000Y-123380000I1680030J0D01*
G01*
X103180060Y-131490000D02*
G75*
G02*
X99820000Y-131490000I-1680030J0D01*
G01*
X99820000Y-131490000D02*
G75*
G02*
X103180060Y-131490000I1680030J0D01*
G01*
D11*
X119954819Y-73642857D02*
X119478628Y-73976190D01*
X119954819Y-74214285D02*
X118954819Y-74214285D01*
X118954819Y-74214285D02*
X118954819Y-73833333D01*
X118954819Y-73833333D02*
X119002438Y-73738095D01*
X119002438Y-73738095D02*
X119050057Y-73690476D01*
X119050057Y-73690476D02*
X119145295Y-73642857D01*
X119145295Y-73642857D02*
X119288152Y-73642857D01*
X119288152Y-73642857D02*
X119383390Y-73690476D01*
X119383390Y-73690476D02*
X119431009Y-73738095D01*
X119431009Y-73738095D02*
X119478628Y-73833333D01*
X119478628Y-73833333D02*
X119478628Y-74214285D01*
X119954819Y-72690476D02*
X119954819Y-73261904D01*
X119954819Y-72976190D02*
X118954819Y-72976190D01*
X118954819Y-72976190D02*
X119097676Y-73071428D01*
X119097676Y-73071428D02*
X119192914Y-73166666D01*
X119192914Y-73166666D02*
X119240533Y-73261904D01*
X119288152Y-71833333D02*
X119954819Y-71833333D01*
X118907200Y-72071428D02*
X119621485Y-72309523D01*
X119621485Y-72309523D02*
X119621485Y-71690476D01*
X137857142Y-87859580D02*
X137809523Y-87907200D01*
X137809523Y-87907200D02*
X137666666Y-87954819D01*
X137666666Y-87954819D02*
X137571428Y-87954819D01*
X137571428Y-87954819D02*
X137428571Y-87907200D01*
X137428571Y-87907200D02*
X137333333Y-87811961D01*
X137333333Y-87811961D02*
X137285714Y-87716723D01*
X137285714Y-87716723D02*
X137238095Y-87526247D01*
X137238095Y-87526247D02*
X137238095Y-87383390D01*
X137238095Y-87383390D02*
X137285714Y-87192914D01*
X137285714Y-87192914D02*
X137333333Y-87097676D01*
X137333333Y-87097676D02*
X137428571Y-87002438D01*
X137428571Y-87002438D02*
X137571428Y-86954819D01*
X137571428Y-86954819D02*
X137666666Y-86954819D01*
X137666666Y-86954819D02*
X137809523Y-87002438D01*
X137809523Y-87002438D02*
X137857142Y-87050057D01*
X138238095Y-87050057D02*
X138285714Y-87002438D01*
X138285714Y-87002438D02*
X138380952Y-86954819D01*
X138380952Y-86954819D02*
X138619047Y-86954819D01*
X138619047Y-86954819D02*
X138714285Y-87002438D01*
X138714285Y-87002438D02*
X138761904Y-87050057D01*
X138761904Y-87050057D02*
X138809523Y-87145295D01*
X138809523Y-87145295D02*
X138809523Y-87240533D01*
X138809523Y-87240533D02*
X138761904Y-87383390D01*
X138761904Y-87383390D02*
X138190476Y-87954819D01*
X138190476Y-87954819D02*
X138809523Y-87954819D01*
X139285714Y-87954819D02*
X139476190Y-87954819D01*
X139476190Y-87954819D02*
X139571428Y-87907200D01*
X139571428Y-87907200D02*
X139619047Y-87859580D01*
X139619047Y-87859580D02*
X139714285Y-87716723D01*
X139714285Y-87716723D02*
X139761904Y-87526247D01*
X139761904Y-87526247D02*
X139761904Y-87145295D01*
X139761904Y-87145295D02*
X139714285Y-87050057D01*
X139714285Y-87050057D02*
X139666666Y-87002438D01*
X139666666Y-87002438D02*
X139571428Y-86954819D01*
X139571428Y-86954819D02*
X139380952Y-86954819D01*
X139380952Y-86954819D02*
X139285714Y-87002438D01*
X139285714Y-87002438D02*
X139238095Y-87050057D01*
X139238095Y-87050057D02*
X139190476Y-87145295D01*
X139190476Y-87145295D02*
X139190476Y-87383390D01*
X139190476Y-87383390D02*
X139238095Y-87478628D01*
X139238095Y-87478628D02*
X139285714Y-87526247D01*
X139285714Y-87526247D02*
X139380952Y-87573866D01*
X139380952Y-87573866D02*
X139571428Y-87573866D01*
X139571428Y-87573866D02*
X139666666Y-87526247D01*
X139666666Y-87526247D02*
X139714285Y-87478628D01*
X139714285Y-87478628D02*
X139761904Y-87383390D01*
X128549580Y-125492857D02*
X128597200Y-125540476D01*
X128597200Y-125540476D02*
X128644819Y-125683333D01*
X128644819Y-125683333D02*
X128644819Y-125778571D01*
X128644819Y-125778571D02*
X128597200Y-125921428D01*
X128597200Y-125921428D02*
X128501961Y-126016666D01*
X128501961Y-126016666D02*
X128406723Y-126064285D01*
X128406723Y-126064285D02*
X128216247Y-126111904D01*
X128216247Y-126111904D02*
X128073390Y-126111904D01*
X128073390Y-126111904D02*
X127882914Y-126064285D01*
X127882914Y-126064285D02*
X127787676Y-126016666D01*
X127787676Y-126016666D02*
X127692438Y-125921428D01*
X127692438Y-125921428D02*
X127644819Y-125778571D01*
X127644819Y-125778571D02*
X127644819Y-125683333D01*
X127644819Y-125683333D02*
X127692438Y-125540476D01*
X127692438Y-125540476D02*
X127740057Y-125492857D01*
X128644819Y-124540476D02*
X128644819Y-125111904D01*
X128644819Y-124826190D02*
X127644819Y-124826190D01*
X127644819Y-124826190D02*
X127787676Y-124921428D01*
X127787676Y-124921428D02*
X127882914Y-125016666D01*
X127882914Y-125016666D02*
X127930533Y-125111904D01*
X128644819Y-123588095D02*
X128644819Y-124159523D01*
X128644819Y-123873809D02*
X127644819Y-123873809D01*
X127644819Y-123873809D02*
X127787676Y-123969047D01*
X127787676Y-123969047D02*
X127882914Y-124064285D01*
X127882914Y-124064285D02*
X127930533Y-124159523D01*
X173857142Y-89954819D02*
X173523809Y-89478628D01*
X173285714Y-89954819D02*
X173285714Y-88954819D01*
X173285714Y-88954819D02*
X173666666Y-88954819D01*
X173666666Y-88954819D02*
X173761904Y-89002438D01*
X173761904Y-89002438D02*
X173809523Y-89050057D01*
X173809523Y-89050057D02*
X173857142Y-89145295D01*
X173857142Y-89145295D02*
X173857142Y-89288152D01*
X173857142Y-89288152D02*
X173809523Y-89383390D01*
X173809523Y-89383390D02*
X173761904Y-89431009D01*
X173761904Y-89431009D02*
X173666666Y-89478628D01*
X173666666Y-89478628D02*
X173285714Y-89478628D01*
X174238095Y-89050057D02*
X174285714Y-89002438D01*
X174285714Y-89002438D02*
X174380952Y-88954819D01*
X174380952Y-88954819D02*
X174619047Y-88954819D01*
X174619047Y-88954819D02*
X174714285Y-89002438D01*
X174714285Y-89002438D02*
X174761904Y-89050057D01*
X174761904Y-89050057D02*
X174809523Y-89145295D01*
X174809523Y-89145295D02*
X174809523Y-89240533D01*
X174809523Y-89240533D02*
X174761904Y-89383390D01*
X174761904Y-89383390D02*
X174190476Y-89954819D01*
X174190476Y-89954819D02*
X174809523Y-89954819D01*
X175142857Y-88954819D02*
X175809523Y-88954819D01*
X175809523Y-88954819D02*
X175380952Y-89954819D01*
X168754819Y-70502857D02*
X168278628Y-70836190D01*
X168754819Y-71074285D02*
X167754819Y-71074285D01*
X167754819Y-71074285D02*
X167754819Y-70693333D01*
X167754819Y-70693333D02*
X167802438Y-70598095D01*
X167802438Y-70598095D02*
X167850057Y-70550476D01*
X167850057Y-70550476D02*
X167945295Y-70502857D01*
X167945295Y-70502857D02*
X168088152Y-70502857D01*
X168088152Y-70502857D02*
X168183390Y-70550476D01*
X168183390Y-70550476D02*
X168231009Y-70598095D01*
X168231009Y-70598095D02*
X168278628Y-70693333D01*
X168278628Y-70693333D02*
X168278628Y-71074285D01*
X167850057Y-70121904D02*
X167802438Y-70074285D01*
X167802438Y-70074285D02*
X167754819Y-69979047D01*
X167754819Y-69979047D02*
X167754819Y-69740952D01*
X167754819Y-69740952D02*
X167802438Y-69645714D01*
X167802438Y-69645714D02*
X167850057Y-69598095D01*
X167850057Y-69598095D02*
X167945295Y-69550476D01*
X167945295Y-69550476D02*
X168040533Y-69550476D01*
X168040533Y-69550476D02*
X168183390Y-69598095D01*
X168183390Y-69598095D02*
X168754819Y-70169523D01*
X168754819Y-70169523D02*
X168754819Y-69550476D01*
X167850057Y-69169523D02*
X167802438Y-69121904D01*
X167802438Y-69121904D02*
X167754819Y-69026666D01*
X167754819Y-69026666D02*
X167754819Y-68788571D01*
X167754819Y-68788571D02*
X167802438Y-68693333D01*
X167802438Y-68693333D02*
X167850057Y-68645714D01*
X167850057Y-68645714D02*
X167945295Y-68598095D01*
X167945295Y-68598095D02*
X168040533Y-68598095D01*
X168040533Y-68598095D02*
X168183390Y-68645714D01*
X168183390Y-68645714D02*
X168754819Y-69217142D01*
X168754819Y-69217142D02*
X168754819Y-68598095D01*
X169761905Y-87954819D02*
X169761905Y-86954819D01*
X169761905Y-86954819D02*
X170000000Y-86954819D01*
X170000000Y-86954819D02*
X170142857Y-87002438D01*
X170142857Y-87002438D02*
X170238095Y-87097676D01*
X170238095Y-87097676D02*
X170285714Y-87192914D01*
X170285714Y-87192914D02*
X170333333Y-87383390D01*
X170333333Y-87383390D02*
X170333333Y-87526247D01*
X170333333Y-87526247D02*
X170285714Y-87716723D01*
X170285714Y-87716723D02*
X170238095Y-87811961D01*
X170238095Y-87811961D02*
X170142857Y-87907200D01*
X170142857Y-87907200D02*
X170000000Y-87954819D01*
X170000000Y-87954819D02*
X169761905Y-87954819D01*
X171190476Y-86954819D02*
X171000000Y-86954819D01*
X171000000Y-86954819D02*
X170904762Y-87002438D01*
X170904762Y-87002438D02*
X170857143Y-87050057D01*
X170857143Y-87050057D02*
X170761905Y-87192914D01*
X170761905Y-87192914D02*
X170714286Y-87383390D01*
X170714286Y-87383390D02*
X170714286Y-87764342D01*
X170714286Y-87764342D02*
X170761905Y-87859580D01*
X170761905Y-87859580D02*
X170809524Y-87907200D01*
X170809524Y-87907200D02*
X170904762Y-87954819D01*
X170904762Y-87954819D02*
X171095238Y-87954819D01*
X171095238Y-87954819D02*
X171190476Y-87907200D01*
X171190476Y-87907200D02*
X171238095Y-87859580D01*
X171238095Y-87859580D02*
X171285714Y-87764342D01*
X171285714Y-87764342D02*
X171285714Y-87526247D01*
X171285714Y-87526247D02*
X171238095Y-87431009D01*
X171238095Y-87431009D02*
X171190476Y-87383390D01*
X171190476Y-87383390D02*
X171095238Y-87335771D01*
X171095238Y-87335771D02*
X170904762Y-87335771D01*
X170904762Y-87335771D02*
X170809524Y-87383390D01*
X170809524Y-87383390D02*
X170761905Y-87431009D01*
X170761905Y-87431009D02*
X170714286Y-87526247D01*
X121549580Y-125492857D02*
X121597200Y-125540476D01*
X121597200Y-125540476D02*
X121644819Y-125683333D01*
X121644819Y-125683333D02*
X121644819Y-125778571D01*
X121644819Y-125778571D02*
X121597200Y-125921428D01*
X121597200Y-125921428D02*
X121501961Y-126016666D01*
X121501961Y-126016666D02*
X121406723Y-126064285D01*
X121406723Y-126064285D02*
X121216247Y-126111904D01*
X121216247Y-126111904D02*
X121073390Y-126111904D01*
X121073390Y-126111904D02*
X120882914Y-126064285D01*
X120882914Y-126064285D02*
X120787676Y-126016666D01*
X120787676Y-126016666D02*
X120692438Y-125921428D01*
X120692438Y-125921428D02*
X120644819Y-125778571D01*
X120644819Y-125778571D02*
X120644819Y-125683333D01*
X120644819Y-125683333D02*
X120692438Y-125540476D01*
X120692438Y-125540476D02*
X120740057Y-125492857D01*
X121644819Y-124540476D02*
X121644819Y-125111904D01*
X121644819Y-124826190D02*
X120644819Y-124826190D01*
X120644819Y-124826190D02*
X120787676Y-124921428D01*
X120787676Y-124921428D02*
X120882914Y-125016666D01*
X120882914Y-125016666D02*
X120930533Y-125111904D01*
X120644819Y-124207142D02*
X120644819Y-123588095D01*
X120644819Y-123588095D02*
X121025771Y-123921428D01*
X121025771Y-123921428D02*
X121025771Y-123778571D01*
X121025771Y-123778571D02*
X121073390Y-123683333D01*
X121073390Y-123683333D02*
X121121009Y-123635714D01*
X121121009Y-123635714D02*
X121216247Y-123588095D01*
X121216247Y-123588095D02*
X121454342Y-123588095D01*
X121454342Y-123588095D02*
X121549580Y-123635714D01*
X121549580Y-123635714D02*
X121597200Y-123683333D01*
X121597200Y-123683333D02*
X121644819Y-123778571D01*
X121644819Y-123778571D02*
X121644819Y-124064285D01*
X121644819Y-124064285D02*
X121597200Y-124159523D01*
X121597200Y-124159523D02*
X121549580Y-124207142D01*
X125454819Y-98238094D02*
X124454819Y-98238094D01*
X124454819Y-98238094D02*
X124454819Y-97999999D01*
X124454819Y-97999999D02*
X124502438Y-97857142D01*
X124502438Y-97857142D02*
X124597676Y-97761904D01*
X124597676Y-97761904D02*
X124692914Y-97714285D01*
X124692914Y-97714285D02*
X124883390Y-97666666D01*
X124883390Y-97666666D02*
X125026247Y-97666666D01*
X125026247Y-97666666D02*
X125216723Y-97714285D01*
X125216723Y-97714285D02*
X125311961Y-97761904D01*
X125311961Y-97761904D02*
X125407200Y-97857142D01*
X125407200Y-97857142D02*
X125454819Y-97999999D01*
X125454819Y-97999999D02*
X125454819Y-98238094D01*
X124454819Y-97333332D02*
X124454819Y-96714285D01*
X124454819Y-96714285D02*
X124835771Y-97047618D01*
X124835771Y-97047618D02*
X124835771Y-96904761D01*
X124835771Y-96904761D02*
X124883390Y-96809523D01*
X124883390Y-96809523D02*
X124931009Y-96761904D01*
X124931009Y-96761904D02*
X125026247Y-96714285D01*
X125026247Y-96714285D02*
X125264342Y-96714285D01*
X125264342Y-96714285D02*
X125359580Y-96761904D01*
X125359580Y-96761904D02*
X125407200Y-96809523D01*
X125407200Y-96809523D02*
X125454819Y-96904761D01*
X125454819Y-96904761D02*
X125454819Y-97190475D01*
X125454819Y-97190475D02*
X125407200Y-97285713D01*
X125407200Y-97285713D02*
X125359580Y-97333332D01*
X133859580Y-118422857D02*
X133907200Y-118470476D01*
X133907200Y-118470476D02*
X133954819Y-118613333D01*
X133954819Y-118613333D02*
X133954819Y-118708571D01*
X133954819Y-118708571D02*
X133907200Y-118851428D01*
X133907200Y-118851428D02*
X133811961Y-118946666D01*
X133811961Y-118946666D02*
X133716723Y-118994285D01*
X133716723Y-118994285D02*
X133526247Y-119041904D01*
X133526247Y-119041904D02*
X133383390Y-119041904D01*
X133383390Y-119041904D02*
X133192914Y-118994285D01*
X133192914Y-118994285D02*
X133097676Y-118946666D01*
X133097676Y-118946666D02*
X133002438Y-118851428D01*
X133002438Y-118851428D02*
X132954819Y-118708571D01*
X132954819Y-118708571D02*
X132954819Y-118613333D01*
X132954819Y-118613333D02*
X133002438Y-118470476D01*
X133002438Y-118470476D02*
X133050057Y-118422857D01*
X132954819Y-118089523D02*
X132954819Y-117470476D01*
X132954819Y-117470476D02*
X133335771Y-117803809D01*
X133335771Y-117803809D02*
X133335771Y-117660952D01*
X133335771Y-117660952D02*
X133383390Y-117565714D01*
X133383390Y-117565714D02*
X133431009Y-117518095D01*
X133431009Y-117518095D02*
X133526247Y-117470476D01*
X133526247Y-117470476D02*
X133764342Y-117470476D01*
X133764342Y-117470476D02*
X133859580Y-117518095D01*
X133859580Y-117518095D02*
X133907200Y-117565714D01*
X133907200Y-117565714D02*
X133954819Y-117660952D01*
X133954819Y-117660952D02*
X133954819Y-117946666D01*
X133954819Y-117946666D02*
X133907200Y-118041904D01*
X133907200Y-118041904D02*
X133859580Y-118089523D01*
X133954819Y-116518095D02*
X133954819Y-117089523D01*
X133954819Y-116803809D02*
X132954819Y-116803809D01*
X132954819Y-116803809D02*
X133097676Y-116899047D01*
X133097676Y-116899047D02*
X133192914Y-116994285D01*
X133192914Y-116994285D02*
X133240533Y-117089523D01*
X168833333Y-116699580D02*
X168785714Y-116747200D01*
X168785714Y-116747200D02*
X168642857Y-116794819D01*
X168642857Y-116794819D02*
X168547619Y-116794819D01*
X168547619Y-116794819D02*
X168404762Y-116747200D01*
X168404762Y-116747200D02*
X168309524Y-116651961D01*
X168309524Y-116651961D02*
X168261905Y-116556723D01*
X168261905Y-116556723D02*
X168214286Y-116366247D01*
X168214286Y-116366247D02*
X168214286Y-116223390D01*
X168214286Y-116223390D02*
X168261905Y-116032914D01*
X168261905Y-116032914D02*
X168309524Y-115937676D01*
X168309524Y-115937676D02*
X168404762Y-115842438D01*
X168404762Y-115842438D02*
X168547619Y-115794819D01*
X168547619Y-115794819D02*
X168642857Y-115794819D01*
X168642857Y-115794819D02*
X168785714Y-115842438D01*
X168785714Y-115842438D02*
X168833333Y-115890057D01*
X169785714Y-116794819D02*
X169214286Y-116794819D01*
X169500000Y-116794819D02*
X169500000Y-115794819D01*
X169500000Y-115794819D02*
X169404762Y-115937676D01*
X169404762Y-115937676D02*
X169309524Y-116032914D01*
X169309524Y-116032914D02*
X169214286Y-116080533D01*
X156357142Y-123454819D02*
X156023809Y-122978628D01*
X155785714Y-123454819D02*
X155785714Y-122454819D01*
X155785714Y-122454819D02*
X156166666Y-122454819D01*
X156166666Y-122454819D02*
X156261904Y-122502438D01*
X156261904Y-122502438D02*
X156309523Y-122550057D01*
X156309523Y-122550057D02*
X156357142Y-122645295D01*
X156357142Y-122645295D02*
X156357142Y-122788152D01*
X156357142Y-122788152D02*
X156309523Y-122883390D01*
X156309523Y-122883390D02*
X156261904Y-122931009D01*
X156261904Y-122931009D02*
X156166666Y-122978628D01*
X156166666Y-122978628D02*
X155785714Y-122978628D01*
X156690476Y-122454819D02*
X157309523Y-122454819D01*
X157309523Y-122454819D02*
X156976190Y-122835771D01*
X156976190Y-122835771D02*
X157119047Y-122835771D01*
X157119047Y-122835771D02*
X157214285Y-122883390D01*
X157214285Y-122883390D02*
X157261904Y-122931009D01*
X157261904Y-122931009D02*
X157309523Y-123026247D01*
X157309523Y-123026247D02*
X157309523Y-123264342D01*
X157309523Y-123264342D02*
X157261904Y-123359580D01*
X157261904Y-123359580D02*
X157214285Y-123407200D01*
X157214285Y-123407200D02*
X157119047Y-123454819D01*
X157119047Y-123454819D02*
X156833333Y-123454819D01*
X156833333Y-123454819D02*
X156738095Y-123407200D01*
X156738095Y-123407200D02*
X156690476Y-123359580D01*
X157642857Y-122454819D02*
X158261904Y-122454819D01*
X158261904Y-122454819D02*
X157928571Y-122835771D01*
X157928571Y-122835771D02*
X158071428Y-122835771D01*
X158071428Y-122835771D02*
X158166666Y-122883390D01*
X158166666Y-122883390D02*
X158214285Y-122931009D01*
X158214285Y-122931009D02*
X158261904Y-123026247D01*
X158261904Y-123026247D02*
X158261904Y-123264342D01*
X158261904Y-123264342D02*
X158214285Y-123359580D01*
X158214285Y-123359580D02*
X158166666Y-123407200D01*
X158166666Y-123407200D02*
X158071428Y-123454819D01*
X158071428Y-123454819D02*
X157785714Y-123454819D01*
X157785714Y-123454819D02*
X157690476Y-123407200D01*
X157690476Y-123407200D02*
X157642857Y-123359580D01*
X161238095Y-108954819D02*
X161238095Y-109764342D01*
X161238095Y-109764342D02*
X161285714Y-109859580D01*
X161285714Y-109859580D02*
X161333333Y-109907200D01*
X161333333Y-109907200D02*
X161428571Y-109954819D01*
X161428571Y-109954819D02*
X161619047Y-109954819D01*
X161619047Y-109954819D02*
X161714285Y-109907200D01*
X161714285Y-109907200D02*
X161761904Y-109859580D01*
X161761904Y-109859580D02*
X161809523Y-109764342D01*
X161809523Y-109764342D02*
X161809523Y-108954819D01*
X162238095Y-109050057D02*
X162285714Y-109002438D01*
X162285714Y-109002438D02*
X162380952Y-108954819D01*
X162380952Y-108954819D02*
X162619047Y-108954819D01*
X162619047Y-108954819D02*
X162714285Y-109002438D01*
X162714285Y-109002438D02*
X162761904Y-109050057D01*
X162761904Y-109050057D02*
X162809523Y-109145295D01*
X162809523Y-109145295D02*
X162809523Y-109240533D01*
X162809523Y-109240533D02*
X162761904Y-109383390D01*
X162761904Y-109383390D02*
X162190476Y-109954819D01*
X162190476Y-109954819D02*
X162809523Y-109954819D01*
X145238095Y-115454819D02*
X145238095Y-116264342D01*
X145238095Y-116264342D02*
X145285714Y-116359580D01*
X145285714Y-116359580D02*
X145333333Y-116407200D01*
X145333333Y-116407200D02*
X145428571Y-116454819D01*
X145428571Y-116454819D02*
X145619047Y-116454819D01*
X145619047Y-116454819D02*
X145714285Y-116407200D01*
X145714285Y-116407200D02*
X145761904Y-116359580D01*
X145761904Y-116359580D02*
X145809523Y-116264342D01*
X145809523Y-116264342D02*
X145809523Y-115454819D01*
X146190476Y-115454819D02*
X146857142Y-115454819D01*
X146857142Y-115454819D02*
X146428571Y-116454819D01*
X124857142Y-104359580D02*
X124809523Y-104407200D01*
X124809523Y-104407200D02*
X124666666Y-104454819D01*
X124666666Y-104454819D02*
X124571428Y-104454819D01*
X124571428Y-104454819D02*
X124428571Y-104407200D01*
X124428571Y-104407200D02*
X124333333Y-104311961D01*
X124333333Y-104311961D02*
X124285714Y-104216723D01*
X124285714Y-104216723D02*
X124238095Y-104026247D01*
X124238095Y-104026247D02*
X124238095Y-103883390D01*
X124238095Y-103883390D02*
X124285714Y-103692914D01*
X124285714Y-103692914D02*
X124333333Y-103597676D01*
X124333333Y-103597676D02*
X124428571Y-103502438D01*
X124428571Y-103502438D02*
X124571428Y-103454819D01*
X124571428Y-103454819D02*
X124666666Y-103454819D01*
X124666666Y-103454819D02*
X124809523Y-103502438D01*
X124809523Y-103502438D02*
X124857142Y-103550057D01*
X125238095Y-103550057D02*
X125285714Y-103502438D01*
X125285714Y-103502438D02*
X125380952Y-103454819D01*
X125380952Y-103454819D02*
X125619047Y-103454819D01*
X125619047Y-103454819D02*
X125714285Y-103502438D01*
X125714285Y-103502438D02*
X125761904Y-103550057D01*
X125761904Y-103550057D02*
X125809523Y-103645295D01*
X125809523Y-103645295D02*
X125809523Y-103740533D01*
X125809523Y-103740533D02*
X125761904Y-103883390D01*
X125761904Y-103883390D02*
X125190476Y-104454819D01*
X125190476Y-104454819D02*
X125809523Y-104454819D01*
X126142857Y-103454819D02*
X126761904Y-103454819D01*
X126761904Y-103454819D02*
X126428571Y-103835771D01*
X126428571Y-103835771D02*
X126571428Y-103835771D01*
X126571428Y-103835771D02*
X126666666Y-103883390D01*
X126666666Y-103883390D02*
X126714285Y-103931009D01*
X126714285Y-103931009D02*
X126761904Y-104026247D01*
X126761904Y-104026247D02*
X126761904Y-104264342D01*
X126761904Y-104264342D02*
X126714285Y-104359580D01*
X126714285Y-104359580D02*
X126666666Y-104407200D01*
X126666666Y-104407200D02*
X126571428Y-104454819D01*
X126571428Y-104454819D02*
X126285714Y-104454819D01*
X126285714Y-104454819D02*
X126190476Y-104407200D01*
X126190476Y-104407200D02*
X126142857Y-104359580D01*
X148499580Y-135396666D02*
X148547200Y-135444285D01*
X148547200Y-135444285D02*
X148594819Y-135587142D01*
X148594819Y-135587142D02*
X148594819Y-135682380D01*
X148594819Y-135682380D02*
X148547200Y-135825237D01*
X148547200Y-135825237D02*
X148451961Y-135920475D01*
X148451961Y-135920475D02*
X148356723Y-135968094D01*
X148356723Y-135968094D02*
X148166247Y-136015713D01*
X148166247Y-136015713D02*
X148023390Y-136015713D01*
X148023390Y-136015713D02*
X147832914Y-135968094D01*
X147832914Y-135968094D02*
X147737676Y-135920475D01*
X147737676Y-135920475D02*
X147642438Y-135825237D01*
X147642438Y-135825237D02*
X147594819Y-135682380D01*
X147594819Y-135682380D02*
X147594819Y-135587142D01*
X147594819Y-135587142D02*
X147642438Y-135444285D01*
X147642438Y-135444285D02*
X147690057Y-135396666D01*
X147594819Y-135063332D02*
X147594819Y-134396666D01*
X147594819Y-134396666D02*
X148594819Y-134825237D01*
X88931009Y-92833333D02*
X88931009Y-93166666D01*
X89454819Y-93166666D02*
X88454819Y-93166666D01*
X88454819Y-93166666D02*
X88454819Y-92690476D01*
X88454819Y-91833333D02*
X88454819Y-92309523D01*
X88454819Y-92309523D02*
X88931009Y-92357142D01*
X88931009Y-92357142D02*
X88883390Y-92309523D01*
X88883390Y-92309523D02*
X88835771Y-92214285D01*
X88835771Y-92214285D02*
X88835771Y-91976190D01*
X88835771Y-91976190D02*
X88883390Y-91880952D01*
X88883390Y-91880952D02*
X88931009Y-91833333D01*
X88931009Y-91833333D02*
X89026247Y-91785714D01*
X89026247Y-91785714D02*
X89264342Y-91785714D01*
X89264342Y-91785714D02*
X89359580Y-91833333D01*
X89359580Y-91833333D02*
X89407200Y-91880952D01*
X89407200Y-91880952D02*
X89454819Y-91976190D01*
X89454819Y-91976190D02*
X89454819Y-92214285D01*
X89454819Y-92214285D02*
X89407200Y-92309523D01*
X89407200Y-92309523D02*
X89359580Y-92357142D01*
X145859580Y-94142857D02*
X145907200Y-94190476D01*
X145907200Y-94190476D02*
X145954819Y-94333333D01*
X145954819Y-94333333D02*
X145954819Y-94428571D01*
X145954819Y-94428571D02*
X145907200Y-94571428D01*
X145907200Y-94571428D02*
X145811961Y-94666666D01*
X145811961Y-94666666D02*
X145716723Y-94714285D01*
X145716723Y-94714285D02*
X145526247Y-94761904D01*
X145526247Y-94761904D02*
X145383390Y-94761904D01*
X145383390Y-94761904D02*
X145192914Y-94714285D01*
X145192914Y-94714285D02*
X145097676Y-94666666D01*
X145097676Y-94666666D02*
X145002438Y-94571428D01*
X145002438Y-94571428D02*
X144954819Y-94428571D01*
X144954819Y-94428571D02*
X144954819Y-94333333D01*
X144954819Y-94333333D02*
X145002438Y-94190476D01*
X145002438Y-94190476D02*
X145050057Y-94142857D01*
X145954819Y-93190476D02*
X145954819Y-93761904D01*
X145954819Y-93476190D02*
X144954819Y-93476190D01*
X144954819Y-93476190D02*
X145097676Y-93571428D01*
X145097676Y-93571428D02*
X145192914Y-93666666D01*
X145192914Y-93666666D02*
X145240533Y-93761904D01*
X145288152Y-92333333D02*
X145954819Y-92333333D01*
X144907200Y-92571428D02*
X145621485Y-92809523D01*
X145621485Y-92809523D02*
X145621485Y-92190476D01*
X147333333Y-85454819D02*
X147000000Y-84978628D01*
X146761905Y-85454819D02*
X146761905Y-84454819D01*
X146761905Y-84454819D02*
X147142857Y-84454819D01*
X147142857Y-84454819D02*
X147238095Y-84502438D01*
X147238095Y-84502438D02*
X147285714Y-84550057D01*
X147285714Y-84550057D02*
X147333333Y-84645295D01*
X147333333Y-84645295D02*
X147333333Y-84788152D01*
X147333333Y-84788152D02*
X147285714Y-84883390D01*
X147285714Y-84883390D02*
X147238095Y-84931009D01*
X147238095Y-84931009D02*
X147142857Y-84978628D01*
X147142857Y-84978628D02*
X146761905Y-84978628D01*
X147809524Y-85454819D02*
X148000000Y-85454819D01*
X148000000Y-85454819D02*
X148095238Y-85407200D01*
X148095238Y-85407200D02*
X148142857Y-85359580D01*
X148142857Y-85359580D02*
X148238095Y-85216723D01*
X148238095Y-85216723D02*
X148285714Y-85026247D01*
X148285714Y-85026247D02*
X148285714Y-84645295D01*
X148285714Y-84645295D02*
X148238095Y-84550057D01*
X148238095Y-84550057D02*
X148190476Y-84502438D01*
X148190476Y-84502438D02*
X148095238Y-84454819D01*
X148095238Y-84454819D02*
X147904762Y-84454819D01*
X147904762Y-84454819D02*
X147809524Y-84502438D01*
X147809524Y-84502438D02*
X147761905Y-84550057D01*
X147761905Y-84550057D02*
X147714286Y-84645295D01*
X147714286Y-84645295D02*
X147714286Y-84883390D01*
X147714286Y-84883390D02*
X147761905Y-84978628D01*
X147761905Y-84978628D02*
X147809524Y-85026247D01*
X147809524Y-85026247D02*
X147904762Y-85073866D01*
X147904762Y-85073866D02*
X148095238Y-85073866D01*
X148095238Y-85073866D02*
X148190476Y-85026247D01*
X148190476Y-85026247D02*
X148238095Y-84978628D01*
X148238095Y-84978628D02*
X148285714Y-84883390D01*
X135454819Y-81642857D02*
X134978628Y-81976190D01*
X135454819Y-82214285D02*
X134454819Y-82214285D01*
X134454819Y-82214285D02*
X134454819Y-81833333D01*
X134454819Y-81833333D02*
X134502438Y-81738095D01*
X134502438Y-81738095D02*
X134550057Y-81690476D01*
X134550057Y-81690476D02*
X134645295Y-81642857D01*
X134645295Y-81642857D02*
X134788152Y-81642857D01*
X134788152Y-81642857D02*
X134883390Y-81690476D01*
X134883390Y-81690476D02*
X134931009Y-81738095D01*
X134931009Y-81738095D02*
X134978628Y-81833333D01*
X134978628Y-81833333D02*
X134978628Y-82214285D01*
X134550057Y-81261904D02*
X134502438Y-81214285D01*
X134502438Y-81214285D02*
X134454819Y-81119047D01*
X134454819Y-81119047D02*
X134454819Y-80880952D01*
X134454819Y-80880952D02*
X134502438Y-80785714D01*
X134502438Y-80785714D02*
X134550057Y-80738095D01*
X134550057Y-80738095D02*
X134645295Y-80690476D01*
X134645295Y-80690476D02*
X134740533Y-80690476D01*
X134740533Y-80690476D02*
X134883390Y-80738095D01*
X134883390Y-80738095D02*
X135454819Y-81309523D01*
X135454819Y-81309523D02*
X135454819Y-80690476D01*
X134788152Y-79833333D02*
X135454819Y-79833333D01*
X134407200Y-80071428D02*
X135121485Y-80309523D01*
X135121485Y-80309523D02*
X135121485Y-79690476D01*
X118261905Y-84454819D02*
X118261905Y-83454819D01*
X118833333Y-84454819D02*
X118404762Y-83883390D01*
X118833333Y-83454819D02*
X118261905Y-84026247D01*
X119785714Y-84454819D02*
X119214286Y-84454819D01*
X119500000Y-84454819D02*
X119500000Y-83454819D01*
X119500000Y-83454819D02*
X119404762Y-83597676D01*
X119404762Y-83597676D02*
X119309524Y-83692914D01*
X119309524Y-83692914D02*
X119214286Y-83740533D01*
X166681009Y-133583333D02*
X166681009Y-133916666D01*
X167204819Y-133916666D02*
X166204819Y-133916666D01*
X166204819Y-133916666D02*
X166204819Y-133440476D01*
X167204819Y-132535714D02*
X167204819Y-133107142D01*
X167204819Y-132821428D02*
X166204819Y-132821428D01*
X166204819Y-132821428D02*
X166347676Y-132916666D01*
X166347676Y-132916666D02*
X166442914Y-133011904D01*
X166442914Y-133011904D02*
X166490533Y-133107142D01*
X146333333Y-86954819D02*
X146000000Y-86478628D01*
X145761905Y-86954819D02*
X145761905Y-85954819D01*
X145761905Y-85954819D02*
X146142857Y-85954819D01*
X146142857Y-85954819D02*
X146238095Y-86002438D01*
X146238095Y-86002438D02*
X146285714Y-86050057D01*
X146285714Y-86050057D02*
X146333333Y-86145295D01*
X146333333Y-86145295D02*
X146333333Y-86288152D01*
X146333333Y-86288152D02*
X146285714Y-86383390D01*
X146285714Y-86383390D02*
X146238095Y-86431009D01*
X146238095Y-86431009D02*
X146142857Y-86478628D01*
X146142857Y-86478628D02*
X145761905Y-86478628D01*
X146904762Y-86383390D02*
X146809524Y-86335771D01*
X146809524Y-86335771D02*
X146761905Y-86288152D01*
X146761905Y-86288152D02*
X146714286Y-86192914D01*
X146714286Y-86192914D02*
X146714286Y-86145295D01*
X146714286Y-86145295D02*
X146761905Y-86050057D01*
X146761905Y-86050057D02*
X146809524Y-86002438D01*
X146809524Y-86002438D02*
X146904762Y-85954819D01*
X146904762Y-85954819D02*
X147095238Y-85954819D01*
X147095238Y-85954819D02*
X147190476Y-86002438D01*
X147190476Y-86002438D02*
X147238095Y-86050057D01*
X147238095Y-86050057D02*
X147285714Y-86145295D01*
X147285714Y-86145295D02*
X147285714Y-86192914D01*
X147285714Y-86192914D02*
X147238095Y-86288152D01*
X147238095Y-86288152D02*
X147190476Y-86335771D01*
X147190476Y-86335771D02*
X147095238Y-86383390D01*
X147095238Y-86383390D02*
X146904762Y-86383390D01*
X146904762Y-86383390D02*
X146809524Y-86431009D01*
X146809524Y-86431009D02*
X146761905Y-86478628D01*
X146761905Y-86478628D02*
X146714286Y-86573866D01*
X146714286Y-86573866D02*
X146714286Y-86764342D01*
X146714286Y-86764342D02*
X146761905Y-86859580D01*
X146761905Y-86859580D02*
X146809524Y-86907200D01*
X146809524Y-86907200D02*
X146904762Y-86954819D01*
X146904762Y-86954819D02*
X147095238Y-86954819D01*
X147095238Y-86954819D02*
X147190476Y-86907200D01*
X147190476Y-86907200D02*
X147238095Y-86859580D01*
X147238095Y-86859580D02*
X147285714Y-86764342D01*
X147285714Y-86764342D02*
X147285714Y-86573866D01*
X147285714Y-86573866D02*
X147238095Y-86478628D01*
X147238095Y-86478628D02*
X147190476Y-86431009D01*
X147190476Y-86431009D02*
X147095238Y-86383390D01*
X124357142Y-88859580D02*
X124309523Y-88907200D01*
X124309523Y-88907200D02*
X124166666Y-88954819D01*
X124166666Y-88954819D02*
X124071428Y-88954819D01*
X124071428Y-88954819D02*
X123928571Y-88907200D01*
X123928571Y-88907200D02*
X123833333Y-88811961D01*
X123833333Y-88811961D02*
X123785714Y-88716723D01*
X123785714Y-88716723D02*
X123738095Y-88526247D01*
X123738095Y-88526247D02*
X123738095Y-88383390D01*
X123738095Y-88383390D02*
X123785714Y-88192914D01*
X123785714Y-88192914D02*
X123833333Y-88097676D01*
X123833333Y-88097676D02*
X123928571Y-88002438D01*
X123928571Y-88002438D02*
X124071428Y-87954819D01*
X124071428Y-87954819D02*
X124166666Y-87954819D01*
X124166666Y-87954819D02*
X124309523Y-88002438D01*
X124309523Y-88002438D02*
X124357142Y-88050057D01*
X124738095Y-88050057D02*
X124785714Y-88002438D01*
X124785714Y-88002438D02*
X124880952Y-87954819D01*
X124880952Y-87954819D02*
X125119047Y-87954819D01*
X125119047Y-87954819D02*
X125214285Y-88002438D01*
X125214285Y-88002438D02*
X125261904Y-88050057D01*
X125261904Y-88050057D02*
X125309523Y-88145295D01*
X125309523Y-88145295D02*
X125309523Y-88240533D01*
X125309523Y-88240533D02*
X125261904Y-88383390D01*
X125261904Y-88383390D02*
X124690476Y-88954819D01*
X124690476Y-88954819D02*
X125309523Y-88954819D01*
X125690476Y-88050057D02*
X125738095Y-88002438D01*
X125738095Y-88002438D02*
X125833333Y-87954819D01*
X125833333Y-87954819D02*
X126071428Y-87954819D01*
X126071428Y-87954819D02*
X126166666Y-88002438D01*
X126166666Y-88002438D02*
X126214285Y-88050057D01*
X126214285Y-88050057D02*
X126261904Y-88145295D01*
X126261904Y-88145295D02*
X126261904Y-88240533D01*
X126261904Y-88240533D02*
X126214285Y-88383390D01*
X126214285Y-88383390D02*
X125642857Y-88954819D01*
X125642857Y-88954819D02*
X126261904Y-88954819D01*
X136198095Y-102174819D02*
X136198095Y-102984342D01*
X136198095Y-102984342D02*
X136245714Y-103079580D01*
X136245714Y-103079580D02*
X136293333Y-103127200D01*
X136293333Y-103127200D02*
X136388571Y-103174819D01*
X136388571Y-103174819D02*
X136579047Y-103174819D01*
X136579047Y-103174819D02*
X136674285Y-103127200D01*
X136674285Y-103127200D02*
X136721904Y-103079580D01*
X136721904Y-103079580D02*
X136769523Y-102984342D01*
X136769523Y-102984342D02*
X136769523Y-102174819D01*
X137150476Y-102174819D02*
X137769523Y-102174819D01*
X137769523Y-102174819D02*
X137436190Y-102555771D01*
X137436190Y-102555771D02*
X137579047Y-102555771D01*
X137579047Y-102555771D02*
X137674285Y-102603390D01*
X137674285Y-102603390D02*
X137721904Y-102651009D01*
X137721904Y-102651009D02*
X137769523Y-102746247D01*
X137769523Y-102746247D02*
X137769523Y-102984342D01*
X137769523Y-102984342D02*
X137721904Y-103079580D01*
X137721904Y-103079580D02*
X137674285Y-103127200D01*
X137674285Y-103127200D02*
X137579047Y-103174819D01*
X137579047Y-103174819D02*
X137293333Y-103174819D01*
X137293333Y-103174819D02*
X137198095Y-103127200D01*
X137198095Y-103127200D02*
X137150476Y-103079580D01*
X155333333Y-90454819D02*
X155000000Y-89978628D01*
X154761905Y-90454819D02*
X154761905Y-89454819D01*
X154761905Y-89454819D02*
X155142857Y-89454819D01*
X155142857Y-89454819D02*
X155238095Y-89502438D01*
X155238095Y-89502438D02*
X155285714Y-89550057D01*
X155285714Y-89550057D02*
X155333333Y-89645295D01*
X155333333Y-89645295D02*
X155333333Y-89788152D01*
X155333333Y-89788152D02*
X155285714Y-89883390D01*
X155285714Y-89883390D02*
X155238095Y-89931009D01*
X155238095Y-89931009D02*
X155142857Y-89978628D01*
X155142857Y-89978628D02*
X154761905Y-89978628D01*
X156238095Y-89454819D02*
X155761905Y-89454819D01*
X155761905Y-89454819D02*
X155714286Y-89931009D01*
X155714286Y-89931009D02*
X155761905Y-89883390D01*
X155761905Y-89883390D02*
X155857143Y-89835771D01*
X155857143Y-89835771D02*
X156095238Y-89835771D01*
X156095238Y-89835771D02*
X156190476Y-89883390D01*
X156190476Y-89883390D02*
X156238095Y-89931009D01*
X156238095Y-89931009D02*
X156285714Y-90026247D01*
X156285714Y-90026247D02*
X156285714Y-90264342D01*
X156285714Y-90264342D02*
X156238095Y-90359580D01*
X156238095Y-90359580D02*
X156190476Y-90407200D01*
X156190476Y-90407200D02*
X156095238Y-90454819D01*
X156095238Y-90454819D02*
X155857143Y-90454819D01*
X155857143Y-90454819D02*
X155761905Y-90407200D01*
X155761905Y-90407200D02*
X155714286Y-90359580D01*
X155857142Y-78454819D02*
X155523809Y-77978628D01*
X155285714Y-78454819D02*
X155285714Y-77454819D01*
X155285714Y-77454819D02*
X155666666Y-77454819D01*
X155666666Y-77454819D02*
X155761904Y-77502438D01*
X155761904Y-77502438D02*
X155809523Y-77550057D01*
X155809523Y-77550057D02*
X155857142Y-77645295D01*
X155857142Y-77645295D02*
X155857142Y-77788152D01*
X155857142Y-77788152D02*
X155809523Y-77883390D01*
X155809523Y-77883390D02*
X155761904Y-77931009D01*
X155761904Y-77931009D02*
X155666666Y-77978628D01*
X155666666Y-77978628D02*
X155285714Y-77978628D01*
X156190476Y-77454819D02*
X156809523Y-77454819D01*
X156809523Y-77454819D02*
X156476190Y-77835771D01*
X156476190Y-77835771D02*
X156619047Y-77835771D01*
X156619047Y-77835771D02*
X156714285Y-77883390D01*
X156714285Y-77883390D02*
X156761904Y-77931009D01*
X156761904Y-77931009D02*
X156809523Y-78026247D01*
X156809523Y-78026247D02*
X156809523Y-78264342D01*
X156809523Y-78264342D02*
X156761904Y-78359580D01*
X156761904Y-78359580D02*
X156714285Y-78407200D01*
X156714285Y-78407200D02*
X156619047Y-78454819D01*
X156619047Y-78454819D02*
X156333333Y-78454819D01*
X156333333Y-78454819D02*
X156238095Y-78407200D01*
X156238095Y-78407200D02*
X156190476Y-78359580D01*
X157428571Y-77454819D02*
X157523809Y-77454819D01*
X157523809Y-77454819D02*
X157619047Y-77502438D01*
X157619047Y-77502438D02*
X157666666Y-77550057D01*
X157666666Y-77550057D02*
X157714285Y-77645295D01*
X157714285Y-77645295D02*
X157761904Y-77835771D01*
X157761904Y-77835771D02*
X157761904Y-78073866D01*
X157761904Y-78073866D02*
X157714285Y-78264342D01*
X157714285Y-78264342D02*
X157666666Y-78359580D01*
X157666666Y-78359580D02*
X157619047Y-78407200D01*
X157619047Y-78407200D02*
X157523809Y-78454819D01*
X157523809Y-78454819D02*
X157428571Y-78454819D01*
X157428571Y-78454819D02*
X157333333Y-78407200D01*
X157333333Y-78407200D02*
X157285714Y-78359580D01*
X157285714Y-78359580D02*
X157238095Y-78264342D01*
X157238095Y-78264342D02*
X157190476Y-78073866D01*
X157190476Y-78073866D02*
X157190476Y-77835771D01*
X157190476Y-77835771D02*
X157238095Y-77645295D01*
X157238095Y-77645295D02*
X157285714Y-77550057D01*
X157285714Y-77550057D02*
X157333333Y-77502438D01*
X157333333Y-77502438D02*
X157428571Y-77454819D01*
X159939819Y-108642857D02*
X159463628Y-108976190D01*
X159939819Y-109214285D02*
X158939819Y-109214285D01*
X158939819Y-109214285D02*
X158939819Y-108833333D01*
X158939819Y-108833333D02*
X158987438Y-108738095D01*
X158987438Y-108738095D02*
X159035057Y-108690476D01*
X159035057Y-108690476D02*
X159130295Y-108642857D01*
X159130295Y-108642857D02*
X159273152Y-108642857D01*
X159273152Y-108642857D02*
X159368390Y-108690476D01*
X159368390Y-108690476D02*
X159416009Y-108738095D01*
X159416009Y-108738095D02*
X159463628Y-108833333D01*
X159463628Y-108833333D02*
X159463628Y-109214285D01*
X158939819Y-108309523D02*
X158939819Y-107690476D01*
X158939819Y-107690476D02*
X159320771Y-108023809D01*
X159320771Y-108023809D02*
X159320771Y-107880952D01*
X159320771Y-107880952D02*
X159368390Y-107785714D01*
X159368390Y-107785714D02*
X159416009Y-107738095D01*
X159416009Y-107738095D02*
X159511247Y-107690476D01*
X159511247Y-107690476D02*
X159749342Y-107690476D01*
X159749342Y-107690476D02*
X159844580Y-107738095D01*
X159844580Y-107738095D02*
X159892200Y-107785714D01*
X159892200Y-107785714D02*
X159939819Y-107880952D01*
X159939819Y-107880952D02*
X159939819Y-108166666D01*
X159939819Y-108166666D02*
X159892200Y-108261904D01*
X159892200Y-108261904D02*
X159844580Y-108309523D01*
X159035057Y-107309523D02*
X158987438Y-107261904D01*
X158987438Y-107261904D02*
X158939819Y-107166666D01*
X158939819Y-107166666D02*
X158939819Y-106928571D01*
X158939819Y-106928571D02*
X158987438Y-106833333D01*
X158987438Y-106833333D02*
X159035057Y-106785714D01*
X159035057Y-106785714D02*
X159130295Y-106738095D01*
X159130295Y-106738095D02*
X159225533Y-106738095D01*
X159225533Y-106738095D02*
X159368390Y-106785714D01*
X159368390Y-106785714D02*
X159939819Y-107357142D01*
X159939819Y-107357142D02*
X159939819Y-106738095D01*
X128859580Y-69642857D02*
X128907200Y-69690476D01*
X128907200Y-69690476D02*
X128954819Y-69833333D01*
X128954819Y-69833333D02*
X128954819Y-69928571D01*
X128954819Y-69928571D02*
X128907200Y-70071428D01*
X128907200Y-70071428D02*
X128811961Y-70166666D01*
X128811961Y-70166666D02*
X128716723Y-70214285D01*
X128716723Y-70214285D02*
X128526247Y-70261904D01*
X128526247Y-70261904D02*
X128383390Y-70261904D01*
X128383390Y-70261904D02*
X128192914Y-70214285D01*
X128192914Y-70214285D02*
X128097676Y-70166666D01*
X128097676Y-70166666D02*
X128002438Y-70071428D01*
X128002438Y-70071428D02*
X127954819Y-69928571D01*
X127954819Y-69928571D02*
X127954819Y-69833333D01*
X127954819Y-69833333D02*
X128002438Y-69690476D01*
X128002438Y-69690476D02*
X128050057Y-69642857D01*
X128050057Y-69261904D02*
X128002438Y-69214285D01*
X128002438Y-69214285D02*
X127954819Y-69119047D01*
X127954819Y-69119047D02*
X127954819Y-68880952D01*
X127954819Y-68880952D02*
X128002438Y-68785714D01*
X128002438Y-68785714D02*
X128050057Y-68738095D01*
X128050057Y-68738095D02*
X128145295Y-68690476D01*
X128145295Y-68690476D02*
X128240533Y-68690476D01*
X128240533Y-68690476D02*
X128383390Y-68738095D01*
X128383390Y-68738095D02*
X128954819Y-69309523D01*
X128954819Y-69309523D02*
X128954819Y-68690476D01*
X127954819Y-67785714D02*
X127954819Y-68261904D01*
X127954819Y-68261904D02*
X128431009Y-68309523D01*
X128431009Y-68309523D02*
X128383390Y-68261904D01*
X128383390Y-68261904D02*
X128335771Y-68166666D01*
X128335771Y-68166666D02*
X128335771Y-67928571D01*
X128335771Y-67928571D02*
X128383390Y-67833333D01*
X128383390Y-67833333D02*
X128431009Y-67785714D01*
X128431009Y-67785714D02*
X128526247Y-67738095D01*
X128526247Y-67738095D02*
X128764342Y-67738095D01*
X128764342Y-67738095D02*
X128859580Y-67785714D01*
X128859580Y-67785714D02*
X128907200Y-67833333D01*
X128907200Y-67833333D02*
X128954819Y-67928571D01*
X128954819Y-67928571D02*
X128954819Y-68166666D01*
X128954819Y-68166666D02*
X128907200Y-68261904D01*
X128907200Y-68261904D02*
X128859580Y-68309523D01*
X153857142Y-120454819D02*
X153523809Y-119978628D01*
X153285714Y-120454819D02*
X153285714Y-119454819D01*
X153285714Y-119454819D02*
X153666666Y-119454819D01*
X153666666Y-119454819D02*
X153761904Y-119502438D01*
X153761904Y-119502438D02*
X153809523Y-119550057D01*
X153809523Y-119550057D02*
X153857142Y-119645295D01*
X153857142Y-119645295D02*
X153857142Y-119788152D01*
X153857142Y-119788152D02*
X153809523Y-119883390D01*
X153809523Y-119883390D02*
X153761904Y-119931009D01*
X153761904Y-119931009D02*
X153666666Y-119978628D01*
X153666666Y-119978628D02*
X153285714Y-119978628D01*
X154809523Y-120454819D02*
X154238095Y-120454819D01*
X154523809Y-120454819D02*
X154523809Y-119454819D01*
X154523809Y-119454819D02*
X154428571Y-119597676D01*
X154428571Y-119597676D02*
X154333333Y-119692914D01*
X154333333Y-119692914D02*
X154238095Y-119740533D01*
X155428571Y-119454819D02*
X155523809Y-119454819D01*
X155523809Y-119454819D02*
X155619047Y-119502438D01*
X155619047Y-119502438D02*
X155666666Y-119550057D01*
X155666666Y-119550057D02*
X155714285Y-119645295D01*
X155714285Y-119645295D02*
X155761904Y-119835771D01*
X155761904Y-119835771D02*
X155761904Y-120073866D01*
X155761904Y-120073866D02*
X155714285Y-120264342D01*
X155714285Y-120264342D02*
X155666666Y-120359580D01*
X155666666Y-120359580D02*
X155619047Y-120407200D01*
X155619047Y-120407200D02*
X155523809Y-120454819D01*
X155523809Y-120454819D02*
X155428571Y-120454819D01*
X155428571Y-120454819D02*
X155333333Y-120407200D01*
X155333333Y-120407200D02*
X155285714Y-120359580D01*
X155285714Y-120359580D02*
X155238095Y-120264342D01*
X155238095Y-120264342D02*
X155190476Y-120073866D01*
X155190476Y-120073866D02*
X155190476Y-119835771D01*
X155190476Y-119835771D02*
X155238095Y-119645295D01*
X155238095Y-119645295D02*
X155285714Y-119550057D01*
X155285714Y-119550057D02*
X155333333Y-119502438D01*
X155333333Y-119502438D02*
X155428571Y-119454819D01*
X158357142Y-102954819D02*
X158023809Y-102478628D01*
X157785714Y-102954819D02*
X157785714Y-101954819D01*
X157785714Y-101954819D02*
X158166666Y-101954819D01*
X158166666Y-101954819D02*
X158261904Y-102002438D01*
X158261904Y-102002438D02*
X158309523Y-102050057D01*
X158309523Y-102050057D02*
X158357142Y-102145295D01*
X158357142Y-102145295D02*
X158357142Y-102288152D01*
X158357142Y-102288152D02*
X158309523Y-102383390D01*
X158309523Y-102383390D02*
X158261904Y-102431009D01*
X158261904Y-102431009D02*
X158166666Y-102478628D01*
X158166666Y-102478628D02*
X157785714Y-102478628D01*
X158738095Y-102050057D02*
X158785714Y-102002438D01*
X158785714Y-102002438D02*
X158880952Y-101954819D01*
X158880952Y-101954819D02*
X159119047Y-101954819D01*
X159119047Y-101954819D02*
X159214285Y-102002438D01*
X159214285Y-102002438D02*
X159261904Y-102050057D01*
X159261904Y-102050057D02*
X159309523Y-102145295D01*
X159309523Y-102145295D02*
X159309523Y-102240533D01*
X159309523Y-102240533D02*
X159261904Y-102383390D01*
X159261904Y-102383390D02*
X158690476Y-102954819D01*
X158690476Y-102954819D02*
X159309523Y-102954819D01*
X159880952Y-102383390D02*
X159785714Y-102335771D01*
X159785714Y-102335771D02*
X159738095Y-102288152D01*
X159738095Y-102288152D02*
X159690476Y-102192914D01*
X159690476Y-102192914D02*
X159690476Y-102145295D01*
X159690476Y-102145295D02*
X159738095Y-102050057D01*
X159738095Y-102050057D02*
X159785714Y-102002438D01*
X159785714Y-102002438D02*
X159880952Y-101954819D01*
X159880952Y-101954819D02*
X160071428Y-101954819D01*
X160071428Y-101954819D02*
X160166666Y-102002438D01*
X160166666Y-102002438D02*
X160214285Y-102050057D01*
X160214285Y-102050057D02*
X160261904Y-102145295D01*
X160261904Y-102145295D02*
X160261904Y-102192914D01*
X160261904Y-102192914D02*
X160214285Y-102288152D01*
X160214285Y-102288152D02*
X160166666Y-102335771D01*
X160166666Y-102335771D02*
X160071428Y-102383390D01*
X160071428Y-102383390D02*
X159880952Y-102383390D01*
X159880952Y-102383390D02*
X159785714Y-102431009D01*
X159785714Y-102431009D02*
X159738095Y-102478628D01*
X159738095Y-102478628D02*
X159690476Y-102573866D01*
X159690476Y-102573866D02*
X159690476Y-102764342D01*
X159690476Y-102764342D02*
X159738095Y-102859580D01*
X159738095Y-102859580D02*
X159785714Y-102907200D01*
X159785714Y-102907200D02*
X159880952Y-102954819D01*
X159880952Y-102954819D02*
X160071428Y-102954819D01*
X160071428Y-102954819D02*
X160166666Y-102907200D01*
X160166666Y-102907200D02*
X160214285Y-102859580D01*
X160214285Y-102859580D02*
X160261904Y-102764342D01*
X160261904Y-102764342D02*
X160261904Y-102573866D01*
X160261904Y-102573866D02*
X160214285Y-102478628D01*
X160214285Y-102478628D02*
X160166666Y-102431009D01*
X160166666Y-102431009D02*
X160071428Y-102383390D01*
X167434819Y-70532857D02*
X166958628Y-70866190D01*
X167434819Y-71104285D02*
X166434819Y-71104285D01*
X166434819Y-71104285D02*
X166434819Y-70723333D01*
X166434819Y-70723333D02*
X166482438Y-70628095D01*
X166482438Y-70628095D02*
X166530057Y-70580476D01*
X166530057Y-70580476D02*
X166625295Y-70532857D01*
X166625295Y-70532857D02*
X166768152Y-70532857D01*
X166768152Y-70532857D02*
X166863390Y-70580476D01*
X166863390Y-70580476D02*
X166911009Y-70628095D01*
X166911009Y-70628095D02*
X166958628Y-70723333D01*
X166958628Y-70723333D02*
X166958628Y-71104285D01*
X166530057Y-70151904D02*
X166482438Y-70104285D01*
X166482438Y-70104285D02*
X166434819Y-70009047D01*
X166434819Y-70009047D02*
X166434819Y-69770952D01*
X166434819Y-69770952D02*
X166482438Y-69675714D01*
X166482438Y-69675714D02*
X166530057Y-69628095D01*
X166530057Y-69628095D02*
X166625295Y-69580476D01*
X166625295Y-69580476D02*
X166720533Y-69580476D01*
X166720533Y-69580476D02*
X166863390Y-69628095D01*
X166863390Y-69628095D02*
X167434819Y-70199523D01*
X167434819Y-70199523D02*
X167434819Y-69580476D01*
X167434819Y-68628095D02*
X167434819Y-69199523D01*
X167434819Y-68913809D02*
X166434819Y-68913809D01*
X166434819Y-68913809D02*
X166577676Y-69009047D01*
X166577676Y-69009047D02*
X166672914Y-69104285D01*
X166672914Y-69104285D02*
X166720533Y-69199523D01*
X98264819Y-97563333D02*
X98979104Y-97563333D01*
X98979104Y-97563333D02*
X99121961Y-97610952D01*
X99121961Y-97610952D02*
X99217200Y-97706190D01*
X99217200Y-97706190D02*
X99264819Y-97849047D01*
X99264819Y-97849047D02*
X99264819Y-97944285D01*
X99264819Y-96563333D02*
X99264819Y-97134761D01*
X99264819Y-96849047D02*
X98264819Y-96849047D01*
X98264819Y-96849047D02*
X98407676Y-96944285D01*
X98407676Y-96944285D02*
X98502914Y-97039523D01*
X98502914Y-97039523D02*
X98550533Y-97134761D01*
X143238095Y-79954819D02*
X143238095Y-80764342D01*
X143238095Y-80764342D02*
X143285714Y-80859580D01*
X143285714Y-80859580D02*
X143333333Y-80907200D01*
X143333333Y-80907200D02*
X143428571Y-80954819D01*
X143428571Y-80954819D02*
X143619047Y-80954819D01*
X143619047Y-80954819D02*
X143714285Y-80907200D01*
X143714285Y-80907200D02*
X143761904Y-80859580D01*
X143761904Y-80859580D02*
X143809523Y-80764342D01*
X143809523Y-80764342D02*
X143809523Y-79954819D01*
X144714285Y-79954819D02*
X144523809Y-79954819D01*
X144523809Y-79954819D02*
X144428571Y-80002438D01*
X144428571Y-80002438D02*
X144380952Y-80050057D01*
X144380952Y-80050057D02*
X144285714Y-80192914D01*
X144285714Y-80192914D02*
X144238095Y-80383390D01*
X144238095Y-80383390D02*
X144238095Y-80764342D01*
X144238095Y-80764342D02*
X144285714Y-80859580D01*
X144285714Y-80859580D02*
X144333333Y-80907200D01*
X144333333Y-80907200D02*
X144428571Y-80954819D01*
X144428571Y-80954819D02*
X144619047Y-80954819D01*
X144619047Y-80954819D02*
X144714285Y-80907200D01*
X144714285Y-80907200D02*
X144761904Y-80859580D01*
X144761904Y-80859580D02*
X144809523Y-80764342D01*
X144809523Y-80764342D02*
X144809523Y-80526247D01*
X144809523Y-80526247D02*
X144761904Y-80431009D01*
X144761904Y-80431009D02*
X144714285Y-80383390D01*
X144714285Y-80383390D02*
X144619047Y-80335771D01*
X144619047Y-80335771D02*
X144428571Y-80335771D01*
X144428571Y-80335771D02*
X144333333Y-80383390D01*
X144333333Y-80383390D02*
X144285714Y-80431009D01*
X144285714Y-80431009D02*
X144238095Y-80526247D01*
X150954819Y-87166666D02*
X150478628Y-87499999D01*
X150954819Y-87738094D02*
X149954819Y-87738094D01*
X149954819Y-87738094D02*
X149954819Y-87357142D01*
X149954819Y-87357142D02*
X150002438Y-87261904D01*
X150002438Y-87261904D02*
X150050057Y-87214285D01*
X150050057Y-87214285D02*
X150145295Y-87166666D01*
X150145295Y-87166666D02*
X150288152Y-87166666D01*
X150288152Y-87166666D02*
X150383390Y-87214285D01*
X150383390Y-87214285D02*
X150431009Y-87261904D01*
X150431009Y-87261904D02*
X150478628Y-87357142D01*
X150478628Y-87357142D02*
X150478628Y-87738094D01*
X149954819Y-86309523D02*
X149954819Y-86499999D01*
X149954819Y-86499999D02*
X150002438Y-86595237D01*
X150002438Y-86595237D02*
X150050057Y-86642856D01*
X150050057Y-86642856D02*
X150192914Y-86738094D01*
X150192914Y-86738094D02*
X150383390Y-86785713D01*
X150383390Y-86785713D02*
X150764342Y-86785713D01*
X150764342Y-86785713D02*
X150859580Y-86738094D01*
X150859580Y-86738094D02*
X150907200Y-86690475D01*
X150907200Y-86690475D02*
X150954819Y-86595237D01*
X150954819Y-86595237D02*
X150954819Y-86404761D01*
X150954819Y-86404761D02*
X150907200Y-86309523D01*
X150907200Y-86309523D02*
X150859580Y-86261904D01*
X150859580Y-86261904D02*
X150764342Y-86214285D01*
X150764342Y-86214285D02*
X150526247Y-86214285D01*
X150526247Y-86214285D02*
X150431009Y-86261904D01*
X150431009Y-86261904D02*
X150383390Y-86309523D01*
X150383390Y-86309523D02*
X150335771Y-86404761D01*
X150335771Y-86404761D02*
X150335771Y-86595237D01*
X150335771Y-86595237D02*
X150383390Y-86690475D01*
X150383390Y-86690475D02*
X150431009Y-86738094D01*
X150431009Y-86738094D02*
X150526247Y-86785713D01*
X166454819Y-90142857D02*
X165978628Y-90476190D01*
X166454819Y-90714285D02*
X165454819Y-90714285D01*
X165454819Y-90714285D02*
X165454819Y-90333333D01*
X165454819Y-90333333D02*
X165502438Y-90238095D01*
X165502438Y-90238095D02*
X165550057Y-90190476D01*
X165550057Y-90190476D02*
X165645295Y-90142857D01*
X165645295Y-90142857D02*
X165788152Y-90142857D01*
X165788152Y-90142857D02*
X165883390Y-90190476D01*
X165883390Y-90190476D02*
X165931009Y-90238095D01*
X165931009Y-90238095D02*
X165978628Y-90333333D01*
X165978628Y-90333333D02*
X165978628Y-90714285D01*
X165550057Y-89761904D02*
X165502438Y-89714285D01*
X165502438Y-89714285D02*
X165454819Y-89619047D01*
X165454819Y-89619047D02*
X165454819Y-89380952D01*
X165454819Y-89380952D02*
X165502438Y-89285714D01*
X165502438Y-89285714D02*
X165550057Y-89238095D01*
X165550057Y-89238095D02*
X165645295Y-89190476D01*
X165645295Y-89190476D02*
X165740533Y-89190476D01*
X165740533Y-89190476D02*
X165883390Y-89238095D01*
X165883390Y-89238095D02*
X166454819Y-89809523D01*
X166454819Y-89809523D02*
X166454819Y-89190476D01*
X165454819Y-88285714D02*
X165454819Y-88761904D01*
X165454819Y-88761904D02*
X165931009Y-88809523D01*
X165931009Y-88809523D02*
X165883390Y-88761904D01*
X165883390Y-88761904D02*
X165835771Y-88666666D01*
X165835771Y-88666666D02*
X165835771Y-88428571D01*
X165835771Y-88428571D02*
X165883390Y-88333333D01*
X165883390Y-88333333D02*
X165931009Y-88285714D01*
X165931009Y-88285714D02*
X166026247Y-88238095D01*
X166026247Y-88238095D02*
X166264342Y-88238095D01*
X166264342Y-88238095D02*
X166359580Y-88285714D01*
X166359580Y-88285714D02*
X166407200Y-88333333D01*
X166407200Y-88333333D02*
X166454819Y-88428571D01*
X166454819Y-88428571D02*
X166454819Y-88666666D01*
X166454819Y-88666666D02*
X166407200Y-88761904D01*
X166407200Y-88761904D02*
X166359580Y-88809523D01*
X118261905Y-119572319D02*
X118261905Y-118572319D01*
X118833333Y-119572319D02*
X118404762Y-119000890D01*
X118833333Y-118572319D02*
X118261905Y-119143747D01*
X119214286Y-118667557D02*
X119261905Y-118619938D01*
X119261905Y-118619938D02*
X119357143Y-118572319D01*
X119357143Y-118572319D02*
X119595238Y-118572319D01*
X119595238Y-118572319D02*
X119690476Y-118619938D01*
X119690476Y-118619938D02*
X119738095Y-118667557D01*
X119738095Y-118667557D02*
X119785714Y-118762795D01*
X119785714Y-118762795D02*
X119785714Y-118858033D01*
X119785714Y-118858033D02*
X119738095Y-119000890D01*
X119738095Y-119000890D02*
X119166667Y-119572319D01*
X119166667Y-119572319D02*
X119785714Y-119572319D01*
X166761905Y-136454819D02*
X166761905Y-135454819D01*
X166761905Y-135454819D02*
X167142857Y-135454819D01*
X167142857Y-135454819D02*
X167238095Y-135502438D01*
X167238095Y-135502438D02*
X167285714Y-135550057D01*
X167285714Y-135550057D02*
X167333333Y-135645295D01*
X167333333Y-135645295D02*
X167333333Y-135788152D01*
X167333333Y-135788152D02*
X167285714Y-135883390D01*
X167285714Y-135883390D02*
X167238095Y-135931009D01*
X167238095Y-135931009D02*
X167142857Y-135978628D01*
X167142857Y-135978628D02*
X166761905Y-135978628D01*
X168285714Y-136454819D02*
X167714286Y-136454819D01*
X168000000Y-136454819D02*
X168000000Y-135454819D01*
X168000000Y-135454819D02*
X167904762Y-135597676D01*
X167904762Y-135597676D02*
X167809524Y-135692914D01*
X167809524Y-135692914D02*
X167714286Y-135740533D01*
X144454819Y-87166666D02*
X143978628Y-87499999D01*
X144454819Y-87738094D02*
X143454819Y-87738094D01*
X143454819Y-87738094D02*
X143454819Y-87357142D01*
X143454819Y-87357142D02*
X143502438Y-87261904D01*
X143502438Y-87261904D02*
X143550057Y-87214285D01*
X143550057Y-87214285D02*
X143645295Y-87166666D01*
X143645295Y-87166666D02*
X143788152Y-87166666D01*
X143788152Y-87166666D02*
X143883390Y-87214285D01*
X143883390Y-87214285D02*
X143931009Y-87261904D01*
X143931009Y-87261904D02*
X143978628Y-87357142D01*
X143978628Y-87357142D02*
X143978628Y-87738094D01*
X143788152Y-86309523D02*
X144454819Y-86309523D01*
X143407200Y-86547618D02*
X144121485Y-86785713D01*
X144121485Y-86785713D02*
X144121485Y-86166666D01*
X124857142Y-102954819D02*
X124523809Y-102478628D01*
X124285714Y-102954819D02*
X124285714Y-101954819D01*
X124285714Y-101954819D02*
X124666666Y-101954819D01*
X124666666Y-101954819D02*
X124761904Y-102002438D01*
X124761904Y-102002438D02*
X124809523Y-102050057D01*
X124809523Y-102050057D02*
X124857142Y-102145295D01*
X124857142Y-102145295D02*
X124857142Y-102288152D01*
X124857142Y-102288152D02*
X124809523Y-102383390D01*
X124809523Y-102383390D02*
X124761904Y-102431009D01*
X124761904Y-102431009D02*
X124666666Y-102478628D01*
X124666666Y-102478628D02*
X124285714Y-102478628D01*
X125238095Y-102050057D02*
X125285714Y-102002438D01*
X125285714Y-102002438D02*
X125380952Y-101954819D01*
X125380952Y-101954819D02*
X125619047Y-101954819D01*
X125619047Y-101954819D02*
X125714285Y-102002438D01*
X125714285Y-102002438D02*
X125761904Y-102050057D01*
X125761904Y-102050057D02*
X125809523Y-102145295D01*
X125809523Y-102145295D02*
X125809523Y-102240533D01*
X125809523Y-102240533D02*
X125761904Y-102383390D01*
X125761904Y-102383390D02*
X125190476Y-102954819D01*
X125190476Y-102954819D02*
X125809523Y-102954819D01*
X126428571Y-101954819D02*
X126523809Y-101954819D01*
X126523809Y-101954819D02*
X126619047Y-102002438D01*
X126619047Y-102002438D02*
X126666666Y-102050057D01*
X126666666Y-102050057D02*
X126714285Y-102145295D01*
X126714285Y-102145295D02*
X126761904Y-102335771D01*
X126761904Y-102335771D02*
X126761904Y-102573866D01*
X126761904Y-102573866D02*
X126714285Y-102764342D01*
X126714285Y-102764342D02*
X126666666Y-102859580D01*
X126666666Y-102859580D02*
X126619047Y-102907200D01*
X126619047Y-102907200D02*
X126523809Y-102954819D01*
X126523809Y-102954819D02*
X126428571Y-102954819D01*
X126428571Y-102954819D02*
X126333333Y-102907200D01*
X126333333Y-102907200D02*
X126285714Y-102859580D01*
X126285714Y-102859580D02*
X126238095Y-102764342D01*
X126238095Y-102764342D02*
X126190476Y-102573866D01*
X126190476Y-102573866D02*
X126190476Y-102335771D01*
X126190476Y-102335771D02*
X126238095Y-102145295D01*
X126238095Y-102145295D02*
X126285714Y-102050057D01*
X126285714Y-102050057D02*
X126333333Y-102002438D01*
X126333333Y-102002438D02*
X126428571Y-101954819D01*
X164357142Y-76609580D02*
X164309523Y-76657200D01*
X164309523Y-76657200D02*
X164166666Y-76704819D01*
X164166666Y-76704819D02*
X164071428Y-76704819D01*
X164071428Y-76704819D02*
X163928571Y-76657200D01*
X163928571Y-76657200D02*
X163833333Y-76561961D01*
X163833333Y-76561961D02*
X163785714Y-76466723D01*
X163785714Y-76466723D02*
X163738095Y-76276247D01*
X163738095Y-76276247D02*
X163738095Y-76133390D01*
X163738095Y-76133390D02*
X163785714Y-75942914D01*
X163785714Y-75942914D02*
X163833333Y-75847676D01*
X163833333Y-75847676D02*
X163928571Y-75752438D01*
X163928571Y-75752438D02*
X164071428Y-75704819D01*
X164071428Y-75704819D02*
X164166666Y-75704819D01*
X164166666Y-75704819D02*
X164309523Y-75752438D01*
X164309523Y-75752438D02*
X164357142Y-75800057D01*
X164738095Y-75800057D02*
X164785714Y-75752438D01*
X164785714Y-75752438D02*
X164880952Y-75704819D01*
X164880952Y-75704819D02*
X165119047Y-75704819D01*
X165119047Y-75704819D02*
X165214285Y-75752438D01*
X165214285Y-75752438D02*
X165261904Y-75800057D01*
X165261904Y-75800057D02*
X165309523Y-75895295D01*
X165309523Y-75895295D02*
X165309523Y-75990533D01*
X165309523Y-75990533D02*
X165261904Y-76133390D01*
X165261904Y-76133390D02*
X164690476Y-76704819D01*
X164690476Y-76704819D02*
X165309523Y-76704819D01*
X165642857Y-75704819D02*
X166309523Y-75704819D01*
X166309523Y-75704819D02*
X165880952Y-76704819D01*
X92931009Y-92833333D02*
X92931009Y-93166666D01*
X93454819Y-93166666D02*
X92454819Y-93166666D01*
X92454819Y-93166666D02*
X92454819Y-92690476D01*
X92788152Y-91880952D02*
X93454819Y-91880952D01*
X92407200Y-92119047D02*
X93121485Y-92357142D01*
X93121485Y-92357142D02*
X93121485Y-91738095D01*
X169261905Y-99454819D02*
X169261905Y-98454819D01*
X169261905Y-98454819D02*
X169500000Y-98454819D01*
X169500000Y-98454819D02*
X169642857Y-98502438D01*
X169642857Y-98502438D02*
X169738095Y-98597676D01*
X169738095Y-98597676D02*
X169785714Y-98692914D01*
X169785714Y-98692914D02*
X169833333Y-98883390D01*
X169833333Y-98883390D02*
X169833333Y-99026247D01*
X169833333Y-99026247D02*
X169785714Y-99216723D01*
X169785714Y-99216723D02*
X169738095Y-99311961D01*
X169738095Y-99311961D02*
X169642857Y-99407200D01*
X169642857Y-99407200D02*
X169500000Y-99454819D01*
X169500000Y-99454819D02*
X169261905Y-99454819D01*
X170738095Y-98454819D02*
X170261905Y-98454819D01*
X170261905Y-98454819D02*
X170214286Y-98931009D01*
X170214286Y-98931009D02*
X170261905Y-98883390D01*
X170261905Y-98883390D02*
X170357143Y-98835771D01*
X170357143Y-98835771D02*
X170595238Y-98835771D01*
X170595238Y-98835771D02*
X170690476Y-98883390D01*
X170690476Y-98883390D02*
X170738095Y-98931009D01*
X170738095Y-98931009D02*
X170785714Y-99026247D01*
X170785714Y-99026247D02*
X170785714Y-99264342D01*
X170785714Y-99264342D02*
X170738095Y-99359580D01*
X170738095Y-99359580D02*
X170690476Y-99407200D01*
X170690476Y-99407200D02*
X170595238Y-99454819D01*
X170595238Y-99454819D02*
X170357143Y-99454819D01*
X170357143Y-99454819D02*
X170261905Y-99407200D01*
X170261905Y-99407200D02*
X170214286Y-99359580D01*
X168728571Y-94262295D02*
X168271428Y-94262295D01*
X168500000Y-94262295D02*
X168500000Y-93462295D01*
X168500000Y-93462295D02*
X168423809Y-93576580D01*
X168423809Y-93576580D02*
X168347619Y-93652771D01*
X168347619Y-93652771D02*
X168271428Y-93690866D01*
X92531009Y-115833333D02*
X92531009Y-116166666D01*
X93054819Y-116166666D02*
X92054819Y-116166666D01*
X92054819Y-116166666D02*
X92054819Y-115690476D01*
X92150057Y-115357142D02*
X92102438Y-115309523D01*
X92102438Y-115309523D02*
X92054819Y-115214285D01*
X92054819Y-115214285D02*
X92054819Y-114976190D01*
X92054819Y-114976190D02*
X92102438Y-114880952D01*
X92102438Y-114880952D02*
X92150057Y-114833333D01*
X92150057Y-114833333D02*
X92245295Y-114785714D01*
X92245295Y-114785714D02*
X92340533Y-114785714D01*
X92340533Y-114785714D02*
X92483390Y-114833333D01*
X92483390Y-114833333D02*
X93054819Y-115404761D01*
X93054819Y-115404761D02*
X93054819Y-114785714D01*
X127217142Y-71889580D02*
X127169523Y-71937200D01*
X127169523Y-71937200D02*
X127026666Y-71984819D01*
X127026666Y-71984819D02*
X126931428Y-71984819D01*
X126931428Y-71984819D02*
X126788571Y-71937200D01*
X126788571Y-71937200D02*
X126693333Y-71841961D01*
X126693333Y-71841961D02*
X126645714Y-71746723D01*
X126645714Y-71746723D02*
X126598095Y-71556247D01*
X126598095Y-71556247D02*
X126598095Y-71413390D01*
X126598095Y-71413390D02*
X126645714Y-71222914D01*
X126645714Y-71222914D02*
X126693333Y-71127676D01*
X126693333Y-71127676D02*
X126788571Y-71032438D01*
X126788571Y-71032438D02*
X126931428Y-70984819D01*
X126931428Y-70984819D02*
X127026666Y-70984819D01*
X127026666Y-70984819D02*
X127169523Y-71032438D01*
X127169523Y-71032438D02*
X127217142Y-71080057D01*
X128169523Y-71984819D02*
X127598095Y-71984819D01*
X127883809Y-71984819D02*
X127883809Y-70984819D01*
X127883809Y-70984819D02*
X127788571Y-71127676D01*
X127788571Y-71127676D02*
X127693333Y-71222914D01*
X127693333Y-71222914D02*
X127598095Y-71270533D01*
X128740952Y-71413390D02*
X128645714Y-71365771D01*
X128645714Y-71365771D02*
X128598095Y-71318152D01*
X128598095Y-71318152D02*
X128550476Y-71222914D01*
X128550476Y-71222914D02*
X128550476Y-71175295D01*
X128550476Y-71175295D02*
X128598095Y-71080057D01*
X128598095Y-71080057D02*
X128645714Y-71032438D01*
X128645714Y-71032438D02*
X128740952Y-70984819D01*
X128740952Y-70984819D02*
X128931428Y-70984819D01*
X128931428Y-70984819D02*
X129026666Y-71032438D01*
X129026666Y-71032438D02*
X129074285Y-71080057D01*
X129074285Y-71080057D02*
X129121904Y-71175295D01*
X129121904Y-71175295D02*
X129121904Y-71222914D01*
X129121904Y-71222914D02*
X129074285Y-71318152D01*
X129074285Y-71318152D02*
X129026666Y-71365771D01*
X129026666Y-71365771D02*
X128931428Y-71413390D01*
X128931428Y-71413390D02*
X128740952Y-71413390D01*
X128740952Y-71413390D02*
X128645714Y-71461009D01*
X128645714Y-71461009D02*
X128598095Y-71508628D01*
X128598095Y-71508628D02*
X128550476Y-71603866D01*
X128550476Y-71603866D02*
X128550476Y-71794342D01*
X128550476Y-71794342D02*
X128598095Y-71889580D01*
X128598095Y-71889580D02*
X128645714Y-71937200D01*
X128645714Y-71937200D02*
X128740952Y-71984819D01*
X128740952Y-71984819D02*
X128931428Y-71984819D01*
X128931428Y-71984819D02*
X129026666Y-71937200D01*
X129026666Y-71937200D02*
X129074285Y-71889580D01*
X129074285Y-71889580D02*
X129121904Y-71794342D01*
X129121904Y-71794342D02*
X129121904Y-71603866D01*
X129121904Y-71603866D02*
X129074285Y-71508628D01*
X129074285Y-71508628D02*
X129026666Y-71461009D01*
X129026666Y-71461009D02*
X128931428Y-71413390D01*
X135549580Y-125516666D02*
X135597200Y-125564285D01*
X135597200Y-125564285D02*
X135644819Y-125707142D01*
X135644819Y-125707142D02*
X135644819Y-125802380D01*
X135644819Y-125802380D02*
X135597200Y-125945237D01*
X135597200Y-125945237D02*
X135501961Y-126040475D01*
X135501961Y-126040475D02*
X135406723Y-126088094D01*
X135406723Y-126088094D02*
X135216247Y-126135713D01*
X135216247Y-126135713D02*
X135073390Y-126135713D01*
X135073390Y-126135713D02*
X134882914Y-126088094D01*
X134882914Y-126088094D02*
X134787676Y-126040475D01*
X134787676Y-126040475D02*
X134692438Y-125945237D01*
X134692438Y-125945237D02*
X134644819Y-125802380D01*
X134644819Y-125802380D02*
X134644819Y-125707142D01*
X134644819Y-125707142D02*
X134692438Y-125564285D01*
X134692438Y-125564285D02*
X134740057Y-125516666D01*
X135644819Y-125040475D02*
X135644819Y-124849999D01*
X135644819Y-124849999D02*
X135597200Y-124754761D01*
X135597200Y-124754761D02*
X135549580Y-124707142D01*
X135549580Y-124707142D02*
X135406723Y-124611904D01*
X135406723Y-124611904D02*
X135216247Y-124564285D01*
X135216247Y-124564285D02*
X134835295Y-124564285D01*
X134835295Y-124564285D02*
X134740057Y-124611904D01*
X134740057Y-124611904D02*
X134692438Y-124659523D01*
X134692438Y-124659523D02*
X134644819Y-124754761D01*
X134644819Y-124754761D02*
X134644819Y-124945237D01*
X134644819Y-124945237D02*
X134692438Y-125040475D01*
X134692438Y-125040475D02*
X134740057Y-125088094D01*
X134740057Y-125088094D02*
X134835295Y-125135713D01*
X134835295Y-125135713D02*
X135073390Y-125135713D01*
X135073390Y-125135713D02*
X135168628Y-125088094D01*
X135168628Y-125088094D02*
X135216247Y-125040475D01*
X135216247Y-125040475D02*
X135263866Y-124945237D01*
X135263866Y-124945237D02*
X135263866Y-124754761D01*
X135263866Y-124754761D02*
X135216247Y-124659523D01*
X135216247Y-124659523D02*
X135168628Y-124611904D01*
X135168628Y-124611904D02*
X135073390Y-124564285D01*
X145193333Y-128144819D02*
X144717143Y-128144819D01*
X144717143Y-128144819D02*
X144717143Y-127144819D01*
X146050476Y-128144819D02*
X145479048Y-128144819D01*
X145764762Y-128144819D02*
X145764762Y-127144819D01*
X145764762Y-127144819D02*
X145669524Y-127287676D01*
X145669524Y-127287676D02*
X145574286Y-127382914D01*
X145574286Y-127382914D02*
X145479048Y-127430533D01*
X156454819Y-125166666D02*
X155978628Y-125499999D01*
X156454819Y-125738094D02*
X155454819Y-125738094D01*
X155454819Y-125738094D02*
X155454819Y-125357142D01*
X155454819Y-125357142D02*
X155502438Y-125261904D01*
X155502438Y-125261904D02*
X155550057Y-125214285D01*
X155550057Y-125214285D02*
X155645295Y-125166666D01*
X155645295Y-125166666D02*
X155788152Y-125166666D01*
X155788152Y-125166666D02*
X155883390Y-125214285D01*
X155883390Y-125214285D02*
X155931009Y-125261904D01*
X155931009Y-125261904D02*
X155978628Y-125357142D01*
X155978628Y-125357142D02*
X155978628Y-125738094D01*
X155454819Y-124833332D02*
X155454819Y-124166666D01*
X155454819Y-124166666D02*
X156454819Y-124595237D01*
X147859580Y-127166666D02*
X147907200Y-127214285D01*
X147907200Y-127214285D02*
X147954819Y-127357142D01*
X147954819Y-127357142D02*
X147954819Y-127452380D01*
X147954819Y-127452380D02*
X147907200Y-127595237D01*
X147907200Y-127595237D02*
X147811961Y-127690475D01*
X147811961Y-127690475D02*
X147716723Y-127738094D01*
X147716723Y-127738094D02*
X147526247Y-127785713D01*
X147526247Y-127785713D02*
X147383390Y-127785713D01*
X147383390Y-127785713D02*
X147192914Y-127738094D01*
X147192914Y-127738094D02*
X147097676Y-127690475D01*
X147097676Y-127690475D02*
X147002438Y-127595237D01*
X147002438Y-127595237D02*
X146954819Y-127452380D01*
X146954819Y-127452380D02*
X146954819Y-127357142D01*
X146954819Y-127357142D02*
X147002438Y-127214285D01*
X147002438Y-127214285D02*
X147050057Y-127166666D01*
X146954819Y-126309523D02*
X146954819Y-126499999D01*
X146954819Y-126499999D02*
X147002438Y-126595237D01*
X147002438Y-126595237D02*
X147050057Y-126642856D01*
X147050057Y-126642856D02*
X147192914Y-126738094D01*
X147192914Y-126738094D02*
X147383390Y-126785713D01*
X147383390Y-126785713D02*
X147764342Y-126785713D01*
X147764342Y-126785713D02*
X147859580Y-126738094D01*
X147859580Y-126738094D02*
X147907200Y-126690475D01*
X147907200Y-126690475D02*
X147954819Y-126595237D01*
X147954819Y-126595237D02*
X147954819Y-126404761D01*
X147954819Y-126404761D02*
X147907200Y-126309523D01*
X147907200Y-126309523D02*
X147859580Y-126261904D01*
X147859580Y-126261904D02*
X147764342Y-126214285D01*
X147764342Y-126214285D02*
X147526247Y-126214285D01*
X147526247Y-126214285D02*
X147431009Y-126261904D01*
X147431009Y-126261904D02*
X147383390Y-126309523D01*
X147383390Y-126309523D02*
X147335771Y-126404761D01*
X147335771Y-126404761D02*
X147335771Y-126595237D01*
X147335771Y-126595237D02*
X147383390Y-126690475D01*
X147383390Y-126690475D02*
X147431009Y-126738094D01*
X147431009Y-126738094D02*
X147526247Y-126785713D01*
X155357142Y-74954819D02*
X155023809Y-74478628D01*
X154785714Y-74954819D02*
X154785714Y-73954819D01*
X154785714Y-73954819D02*
X155166666Y-73954819D01*
X155166666Y-73954819D02*
X155261904Y-74002438D01*
X155261904Y-74002438D02*
X155309523Y-74050057D01*
X155309523Y-74050057D02*
X155357142Y-74145295D01*
X155357142Y-74145295D02*
X155357142Y-74288152D01*
X155357142Y-74288152D02*
X155309523Y-74383390D01*
X155309523Y-74383390D02*
X155261904Y-74431009D01*
X155261904Y-74431009D02*
X155166666Y-74478628D01*
X155166666Y-74478628D02*
X154785714Y-74478628D01*
X155738095Y-74050057D02*
X155785714Y-74002438D01*
X155785714Y-74002438D02*
X155880952Y-73954819D01*
X155880952Y-73954819D02*
X156119047Y-73954819D01*
X156119047Y-73954819D02*
X156214285Y-74002438D01*
X156214285Y-74002438D02*
X156261904Y-74050057D01*
X156261904Y-74050057D02*
X156309523Y-74145295D01*
X156309523Y-74145295D02*
X156309523Y-74240533D01*
X156309523Y-74240533D02*
X156261904Y-74383390D01*
X156261904Y-74383390D02*
X155690476Y-74954819D01*
X155690476Y-74954819D02*
X156309523Y-74954819D01*
X156785714Y-74954819D02*
X156976190Y-74954819D01*
X156976190Y-74954819D02*
X157071428Y-74907200D01*
X157071428Y-74907200D02*
X157119047Y-74859580D01*
X157119047Y-74859580D02*
X157214285Y-74716723D01*
X157214285Y-74716723D02*
X157261904Y-74526247D01*
X157261904Y-74526247D02*
X157261904Y-74145295D01*
X157261904Y-74145295D02*
X157214285Y-74050057D01*
X157214285Y-74050057D02*
X157166666Y-74002438D01*
X157166666Y-74002438D02*
X157071428Y-73954819D01*
X157071428Y-73954819D02*
X156880952Y-73954819D01*
X156880952Y-73954819D02*
X156785714Y-74002438D01*
X156785714Y-74002438D02*
X156738095Y-74050057D01*
X156738095Y-74050057D02*
X156690476Y-74145295D01*
X156690476Y-74145295D02*
X156690476Y-74383390D01*
X156690476Y-74383390D02*
X156738095Y-74478628D01*
X156738095Y-74478628D02*
X156785714Y-74526247D01*
X156785714Y-74526247D02*
X156880952Y-74573866D01*
X156880952Y-74573866D02*
X157071428Y-74573866D01*
X157071428Y-74573866D02*
X157166666Y-74526247D01*
X157166666Y-74526247D02*
X157214285Y-74478628D01*
X157214285Y-74478628D02*
X157261904Y-74383390D01*
X159859580Y-127666666D02*
X159907200Y-127714285D01*
X159907200Y-127714285D02*
X159954819Y-127857142D01*
X159954819Y-127857142D02*
X159954819Y-127952380D01*
X159954819Y-127952380D02*
X159907200Y-128095237D01*
X159907200Y-128095237D02*
X159811961Y-128190475D01*
X159811961Y-128190475D02*
X159716723Y-128238094D01*
X159716723Y-128238094D02*
X159526247Y-128285713D01*
X159526247Y-128285713D02*
X159383390Y-128285713D01*
X159383390Y-128285713D02*
X159192914Y-128238094D01*
X159192914Y-128238094D02*
X159097676Y-128190475D01*
X159097676Y-128190475D02*
X159002438Y-128095237D01*
X159002438Y-128095237D02*
X158954819Y-127952380D01*
X158954819Y-127952380D02*
X158954819Y-127857142D01*
X158954819Y-127857142D02*
X159002438Y-127714285D01*
X159002438Y-127714285D02*
X159050057Y-127666666D01*
X158954819Y-127333332D02*
X158954819Y-126714285D01*
X158954819Y-126714285D02*
X159335771Y-127047618D01*
X159335771Y-127047618D02*
X159335771Y-126904761D01*
X159335771Y-126904761D02*
X159383390Y-126809523D01*
X159383390Y-126809523D02*
X159431009Y-126761904D01*
X159431009Y-126761904D02*
X159526247Y-126714285D01*
X159526247Y-126714285D02*
X159764342Y-126714285D01*
X159764342Y-126714285D02*
X159859580Y-126761904D01*
X159859580Y-126761904D02*
X159907200Y-126809523D01*
X159907200Y-126809523D02*
X159954819Y-126904761D01*
X159954819Y-126904761D02*
X159954819Y-127190475D01*
X159954819Y-127190475D02*
X159907200Y-127285713D01*
X159907200Y-127285713D02*
X159859580Y-127333332D01*
X166357142Y-92454819D02*
X166023809Y-91978628D01*
X165785714Y-92454819D02*
X165785714Y-91454819D01*
X165785714Y-91454819D02*
X166166666Y-91454819D01*
X166166666Y-91454819D02*
X166261904Y-91502438D01*
X166261904Y-91502438D02*
X166309523Y-91550057D01*
X166309523Y-91550057D02*
X166357142Y-91645295D01*
X166357142Y-91645295D02*
X166357142Y-91788152D01*
X166357142Y-91788152D02*
X166309523Y-91883390D01*
X166309523Y-91883390D02*
X166261904Y-91931009D01*
X166261904Y-91931009D02*
X166166666Y-91978628D01*
X166166666Y-91978628D02*
X165785714Y-91978628D01*
X166738095Y-91550057D02*
X166785714Y-91502438D01*
X166785714Y-91502438D02*
X166880952Y-91454819D01*
X166880952Y-91454819D02*
X167119047Y-91454819D01*
X167119047Y-91454819D02*
X167214285Y-91502438D01*
X167214285Y-91502438D02*
X167261904Y-91550057D01*
X167261904Y-91550057D02*
X167309523Y-91645295D01*
X167309523Y-91645295D02*
X167309523Y-91740533D01*
X167309523Y-91740533D02*
X167261904Y-91883390D01*
X167261904Y-91883390D02*
X166690476Y-92454819D01*
X166690476Y-92454819D02*
X167309523Y-92454819D01*
X168166666Y-91454819D02*
X167976190Y-91454819D01*
X167976190Y-91454819D02*
X167880952Y-91502438D01*
X167880952Y-91502438D02*
X167833333Y-91550057D01*
X167833333Y-91550057D02*
X167738095Y-91692914D01*
X167738095Y-91692914D02*
X167690476Y-91883390D01*
X167690476Y-91883390D02*
X167690476Y-92264342D01*
X167690476Y-92264342D02*
X167738095Y-92359580D01*
X167738095Y-92359580D02*
X167785714Y-92407200D01*
X167785714Y-92407200D02*
X167880952Y-92454819D01*
X167880952Y-92454819D02*
X168071428Y-92454819D01*
X168071428Y-92454819D02*
X168166666Y-92407200D01*
X168166666Y-92407200D02*
X168214285Y-92359580D01*
X168214285Y-92359580D02*
X168261904Y-92264342D01*
X168261904Y-92264342D02*
X168261904Y-92026247D01*
X168261904Y-92026247D02*
X168214285Y-91931009D01*
X168214285Y-91931009D02*
X168166666Y-91883390D01*
X168166666Y-91883390D02*
X168071428Y-91835771D01*
X168071428Y-91835771D02*
X167880952Y-91835771D01*
X167880952Y-91835771D02*
X167785714Y-91883390D01*
X167785714Y-91883390D02*
X167738095Y-91931009D01*
X167738095Y-91931009D02*
X167690476Y-92026247D01*
X156859580Y-127666666D02*
X156907200Y-127714285D01*
X156907200Y-127714285D02*
X156954819Y-127857142D01*
X156954819Y-127857142D02*
X156954819Y-127952380D01*
X156954819Y-127952380D02*
X156907200Y-128095237D01*
X156907200Y-128095237D02*
X156811961Y-128190475D01*
X156811961Y-128190475D02*
X156716723Y-128238094D01*
X156716723Y-128238094D02*
X156526247Y-128285713D01*
X156526247Y-128285713D02*
X156383390Y-128285713D01*
X156383390Y-128285713D02*
X156192914Y-128238094D01*
X156192914Y-128238094D02*
X156097676Y-128190475D01*
X156097676Y-128190475D02*
X156002438Y-128095237D01*
X156002438Y-128095237D02*
X155954819Y-127952380D01*
X155954819Y-127952380D02*
X155954819Y-127857142D01*
X155954819Y-127857142D02*
X156002438Y-127714285D01*
X156002438Y-127714285D02*
X156050057Y-127666666D01*
X155954819Y-126761904D02*
X155954819Y-127238094D01*
X155954819Y-127238094D02*
X156431009Y-127285713D01*
X156431009Y-127285713D02*
X156383390Y-127238094D01*
X156383390Y-127238094D02*
X156335771Y-127142856D01*
X156335771Y-127142856D02*
X156335771Y-126904761D01*
X156335771Y-126904761D02*
X156383390Y-126809523D01*
X156383390Y-126809523D02*
X156431009Y-126761904D01*
X156431009Y-126761904D02*
X156526247Y-126714285D01*
X156526247Y-126714285D02*
X156764342Y-126714285D01*
X156764342Y-126714285D02*
X156859580Y-126761904D01*
X156859580Y-126761904D02*
X156907200Y-126809523D01*
X156907200Y-126809523D02*
X156954819Y-126904761D01*
X156954819Y-126904761D02*
X156954819Y-127142856D01*
X156954819Y-127142856D02*
X156907200Y-127238094D01*
X156907200Y-127238094D02*
X156859580Y-127285713D01*
X125404761Y-92550057D02*
X125309523Y-92502438D01*
X125309523Y-92502438D02*
X125214285Y-92407200D01*
X125214285Y-92407200D02*
X125071428Y-92264342D01*
X125071428Y-92264342D02*
X124976190Y-92216723D01*
X124976190Y-92216723D02*
X124880952Y-92216723D01*
X124928571Y-92454819D02*
X124833333Y-92407200D01*
X124833333Y-92407200D02*
X124738095Y-92311961D01*
X124738095Y-92311961D02*
X124690476Y-92121485D01*
X124690476Y-92121485D02*
X124690476Y-91788152D01*
X124690476Y-91788152D02*
X124738095Y-91597676D01*
X124738095Y-91597676D02*
X124833333Y-91502438D01*
X124833333Y-91502438D02*
X124928571Y-91454819D01*
X124928571Y-91454819D02*
X125119047Y-91454819D01*
X125119047Y-91454819D02*
X125214285Y-91502438D01*
X125214285Y-91502438D02*
X125309523Y-91597676D01*
X125309523Y-91597676D02*
X125357142Y-91788152D01*
X125357142Y-91788152D02*
X125357142Y-92121485D01*
X125357142Y-92121485D02*
X125309523Y-92311961D01*
X125309523Y-92311961D02*
X125214285Y-92407200D01*
X125214285Y-92407200D02*
X125119047Y-92454819D01*
X125119047Y-92454819D02*
X124928571Y-92454819D01*
X126309523Y-92454819D02*
X125738095Y-92454819D01*
X126023809Y-92454819D02*
X126023809Y-91454819D01*
X126023809Y-91454819D02*
X125928571Y-91597676D01*
X125928571Y-91597676D02*
X125833333Y-91692914D01*
X125833333Y-91692914D02*
X125738095Y-91740533D01*
X158359580Y-127666666D02*
X158407200Y-127714285D01*
X158407200Y-127714285D02*
X158454819Y-127857142D01*
X158454819Y-127857142D02*
X158454819Y-127952380D01*
X158454819Y-127952380D02*
X158407200Y-128095237D01*
X158407200Y-128095237D02*
X158311961Y-128190475D01*
X158311961Y-128190475D02*
X158216723Y-128238094D01*
X158216723Y-128238094D02*
X158026247Y-128285713D01*
X158026247Y-128285713D02*
X157883390Y-128285713D01*
X157883390Y-128285713D02*
X157692914Y-128238094D01*
X157692914Y-128238094D02*
X157597676Y-128190475D01*
X157597676Y-128190475D02*
X157502438Y-128095237D01*
X157502438Y-128095237D02*
X157454819Y-127952380D01*
X157454819Y-127952380D02*
X157454819Y-127857142D01*
X157454819Y-127857142D02*
X157502438Y-127714285D01*
X157502438Y-127714285D02*
X157550057Y-127666666D01*
X157788152Y-126809523D02*
X158454819Y-126809523D01*
X157407200Y-127047618D02*
X158121485Y-127285713D01*
X158121485Y-127285713D02*
X158121485Y-126666666D01*
X143357142Y-107359580D02*
X143309523Y-107407200D01*
X143309523Y-107407200D02*
X143166666Y-107454819D01*
X143166666Y-107454819D02*
X143071428Y-107454819D01*
X143071428Y-107454819D02*
X142928571Y-107407200D01*
X142928571Y-107407200D02*
X142833333Y-107311961D01*
X142833333Y-107311961D02*
X142785714Y-107216723D01*
X142785714Y-107216723D02*
X142738095Y-107026247D01*
X142738095Y-107026247D02*
X142738095Y-106883390D01*
X142738095Y-106883390D02*
X142785714Y-106692914D01*
X142785714Y-106692914D02*
X142833333Y-106597676D01*
X142833333Y-106597676D02*
X142928571Y-106502438D01*
X142928571Y-106502438D02*
X143071428Y-106454819D01*
X143071428Y-106454819D02*
X143166666Y-106454819D01*
X143166666Y-106454819D02*
X143309523Y-106502438D01*
X143309523Y-106502438D02*
X143357142Y-106550057D01*
X143690476Y-106454819D02*
X144309523Y-106454819D01*
X144309523Y-106454819D02*
X143976190Y-106835771D01*
X143976190Y-106835771D02*
X144119047Y-106835771D01*
X144119047Y-106835771D02*
X144214285Y-106883390D01*
X144214285Y-106883390D02*
X144261904Y-106931009D01*
X144261904Y-106931009D02*
X144309523Y-107026247D01*
X144309523Y-107026247D02*
X144309523Y-107264342D01*
X144309523Y-107264342D02*
X144261904Y-107359580D01*
X144261904Y-107359580D02*
X144214285Y-107407200D01*
X144214285Y-107407200D02*
X144119047Y-107454819D01*
X144119047Y-107454819D02*
X143833333Y-107454819D01*
X143833333Y-107454819D02*
X143738095Y-107407200D01*
X143738095Y-107407200D02*
X143690476Y-107359580D01*
X144690476Y-106550057D02*
X144738095Y-106502438D01*
X144738095Y-106502438D02*
X144833333Y-106454819D01*
X144833333Y-106454819D02*
X145071428Y-106454819D01*
X145071428Y-106454819D02*
X145166666Y-106502438D01*
X145166666Y-106502438D02*
X145214285Y-106550057D01*
X145214285Y-106550057D02*
X145261904Y-106645295D01*
X145261904Y-106645295D02*
X145261904Y-106740533D01*
X145261904Y-106740533D02*
X145214285Y-106883390D01*
X145214285Y-106883390D02*
X144642857Y-107454819D01*
X144642857Y-107454819D02*
X145261904Y-107454819D01*
X133523809Y-83978628D02*
X133523809Y-84454819D01*
X133190476Y-83454819D02*
X133523809Y-83978628D01*
X133523809Y-83978628D02*
X133857142Y-83454819D01*
X134714285Y-84454819D02*
X134142857Y-84454819D01*
X134428571Y-84454819D02*
X134428571Y-83454819D01*
X134428571Y-83454819D02*
X134333333Y-83597676D01*
X134333333Y-83597676D02*
X134238095Y-83692914D01*
X134238095Y-83692914D02*
X134142857Y-83740533D01*
X121857142Y-102454819D02*
X121523809Y-101978628D01*
X121285714Y-102454819D02*
X121285714Y-101454819D01*
X121285714Y-101454819D02*
X121666666Y-101454819D01*
X121666666Y-101454819D02*
X121761904Y-101502438D01*
X121761904Y-101502438D02*
X121809523Y-101550057D01*
X121809523Y-101550057D02*
X121857142Y-101645295D01*
X121857142Y-101645295D02*
X121857142Y-101788152D01*
X121857142Y-101788152D02*
X121809523Y-101883390D01*
X121809523Y-101883390D02*
X121761904Y-101931009D01*
X121761904Y-101931009D02*
X121666666Y-101978628D01*
X121666666Y-101978628D02*
X121285714Y-101978628D01*
X122809523Y-102454819D02*
X122238095Y-102454819D01*
X122523809Y-102454819D02*
X122523809Y-101454819D01*
X122523809Y-101454819D02*
X122428571Y-101597676D01*
X122428571Y-101597676D02*
X122333333Y-101692914D01*
X122333333Y-101692914D02*
X122238095Y-101740533D01*
X123285714Y-102454819D02*
X123476190Y-102454819D01*
X123476190Y-102454819D02*
X123571428Y-102407200D01*
X123571428Y-102407200D02*
X123619047Y-102359580D01*
X123619047Y-102359580D02*
X123714285Y-102216723D01*
X123714285Y-102216723D02*
X123761904Y-102026247D01*
X123761904Y-102026247D02*
X123761904Y-101645295D01*
X123761904Y-101645295D02*
X123714285Y-101550057D01*
X123714285Y-101550057D02*
X123666666Y-101502438D01*
X123666666Y-101502438D02*
X123571428Y-101454819D01*
X123571428Y-101454819D02*
X123380952Y-101454819D01*
X123380952Y-101454819D02*
X123285714Y-101502438D01*
X123285714Y-101502438D02*
X123238095Y-101550057D01*
X123238095Y-101550057D02*
X123190476Y-101645295D01*
X123190476Y-101645295D02*
X123190476Y-101883390D01*
X123190476Y-101883390D02*
X123238095Y-101978628D01*
X123238095Y-101978628D02*
X123285714Y-102026247D01*
X123285714Y-102026247D02*
X123380952Y-102073866D01*
X123380952Y-102073866D02*
X123571428Y-102073866D01*
X123571428Y-102073866D02*
X123666666Y-102026247D01*
X123666666Y-102026247D02*
X123714285Y-101978628D01*
X123714285Y-101978628D02*
X123761904Y-101883390D01*
X146357142Y-122454819D02*
X146023809Y-121978628D01*
X145785714Y-122454819D02*
X145785714Y-121454819D01*
X145785714Y-121454819D02*
X146166666Y-121454819D01*
X146166666Y-121454819D02*
X146261904Y-121502438D01*
X146261904Y-121502438D02*
X146309523Y-121550057D01*
X146309523Y-121550057D02*
X146357142Y-121645295D01*
X146357142Y-121645295D02*
X146357142Y-121788152D01*
X146357142Y-121788152D02*
X146309523Y-121883390D01*
X146309523Y-121883390D02*
X146261904Y-121931009D01*
X146261904Y-121931009D02*
X146166666Y-121978628D01*
X146166666Y-121978628D02*
X145785714Y-121978628D01*
X147309523Y-122454819D02*
X146738095Y-122454819D01*
X147023809Y-122454819D02*
X147023809Y-121454819D01*
X147023809Y-121454819D02*
X146928571Y-121597676D01*
X146928571Y-121597676D02*
X146833333Y-121692914D01*
X146833333Y-121692914D02*
X146738095Y-121740533D01*
X148261904Y-122454819D02*
X147690476Y-122454819D01*
X147976190Y-122454819D02*
X147976190Y-121454819D01*
X147976190Y-121454819D02*
X147880952Y-121597676D01*
X147880952Y-121597676D02*
X147785714Y-121692914D01*
X147785714Y-121692914D02*
X147690476Y-121740533D01*
X129357142Y-92859580D02*
X129309523Y-92907200D01*
X129309523Y-92907200D02*
X129166666Y-92954819D01*
X129166666Y-92954819D02*
X129071428Y-92954819D01*
X129071428Y-92954819D02*
X128928571Y-92907200D01*
X128928571Y-92907200D02*
X128833333Y-92811961D01*
X128833333Y-92811961D02*
X128785714Y-92716723D01*
X128785714Y-92716723D02*
X128738095Y-92526247D01*
X128738095Y-92526247D02*
X128738095Y-92383390D01*
X128738095Y-92383390D02*
X128785714Y-92192914D01*
X128785714Y-92192914D02*
X128833333Y-92097676D01*
X128833333Y-92097676D02*
X128928571Y-92002438D01*
X128928571Y-92002438D02*
X129071428Y-91954819D01*
X129071428Y-91954819D02*
X129166666Y-91954819D01*
X129166666Y-91954819D02*
X129309523Y-92002438D01*
X129309523Y-92002438D02*
X129357142Y-92050057D01*
X130309523Y-92954819D02*
X129738095Y-92954819D01*
X130023809Y-92954819D02*
X130023809Y-91954819D01*
X130023809Y-91954819D02*
X129928571Y-92097676D01*
X129928571Y-92097676D02*
X129833333Y-92192914D01*
X129833333Y-92192914D02*
X129738095Y-92240533D01*
X130642857Y-91954819D02*
X131309523Y-91954819D01*
X131309523Y-91954819D02*
X130880952Y-92954819D01*
X155857142Y-76954819D02*
X155523809Y-76478628D01*
X155285714Y-76954819D02*
X155285714Y-75954819D01*
X155285714Y-75954819D02*
X155666666Y-75954819D01*
X155666666Y-75954819D02*
X155761904Y-76002438D01*
X155761904Y-76002438D02*
X155809523Y-76050057D01*
X155809523Y-76050057D02*
X155857142Y-76145295D01*
X155857142Y-76145295D02*
X155857142Y-76288152D01*
X155857142Y-76288152D02*
X155809523Y-76383390D01*
X155809523Y-76383390D02*
X155761904Y-76431009D01*
X155761904Y-76431009D02*
X155666666Y-76478628D01*
X155666666Y-76478628D02*
X155285714Y-76478628D01*
X156190476Y-75954819D02*
X156809523Y-75954819D01*
X156809523Y-75954819D02*
X156476190Y-76335771D01*
X156476190Y-76335771D02*
X156619047Y-76335771D01*
X156619047Y-76335771D02*
X156714285Y-76383390D01*
X156714285Y-76383390D02*
X156761904Y-76431009D01*
X156761904Y-76431009D02*
X156809523Y-76526247D01*
X156809523Y-76526247D02*
X156809523Y-76764342D01*
X156809523Y-76764342D02*
X156761904Y-76859580D01*
X156761904Y-76859580D02*
X156714285Y-76907200D01*
X156714285Y-76907200D02*
X156619047Y-76954819D01*
X156619047Y-76954819D02*
X156333333Y-76954819D01*
X156333333Y-76954819D02*
X156238095Y-76907200D01*
X156238095Y-76907200D02*
X156190476Y-76859580D01*
X157761904Y-76954819D02*
X157190476Y-76954819D01*
X157476190Y-76954819D02*
X157476190Y-75954819D01*
X157476190Y-75954819D02*
X157380952Y-76097676D01*
X157380952Y-76097676D02*
X157285714Y-76192914D01*
X157285714Y-76192914D02*
X157190476Y-76240533D01*
X169875713Y-70704819D02*
X169542380Y-70228628D01*
X169304285Y-70704819D02*
X169304285Y-69704819D01*
X169304285Y-69704819D02*
X169685237Y-69704819D01*
X169685237Y-69704819D02*
X169780475Y-69752438D01*
X169780475Y-69752438D02*
X169828094Y-69800057D01*
X169828094Y-69800057D02*
X169875713Y-69895295D01*
X169875713Y-69895295D02*
X169875713Y-70038152D01*
X169875713Y-70038152D02*
X169828094Y-70133390D01*
X169828094Y-70133390D02*
X169780475Y-70181009D01*
X169780475Y-70181009D02*
X169685237Y-70228628D01*
X169685237Y-70228628D02*
X169304285Y-70228628D01*
X170685237Y-70657200D02*
X170589999Y-70704819D01*
X170589999Y-70704819D02*
X170399523Y-70704819D01*
X170399523Y-70704819D02*
X170304285Y-70657200D01*
X170304285Y-70657200D02*
X170256666Y-70561961D01*
X170256666Y-70561961D02*
X170256666Y-70181009D01*
X170256666Y-70181009D02*
X170304285Y-70085771D01*
X170304285Y-70085771D02*
X170399523Y-70038152D01*
X170399523Y-70038152D02*
X170589999Y-70038152D01*
X170589999Y-70038152D02*
X170685237Y-70085771D01*
X170685237Y-70085771D02*
X170732856Y-70181009D01*
X170732856Y-70181009D02*
X170732856Y-70276247D01*
X170732856Y-70276247D02*
X170256666Y-70371485D01*
X171113809Y-70657200D02*
X171209047Y-70704819D01*
X171209047Y-70704819D02*
X171399523Y-70704819D01*
X171399523Y-70704819D02*
X171494761Y-70657200D01*
X171494761Y-70657200D02*
X171542380Y-70561961D01*
X171542380Y-70561961D02*
X171542380Y-70514342D01*
X171542380Y-70514342D02*
X171494761Y-70419104D01*
X171494761Y-70419104D02*
X171399523Y-70371485D01*
X171399523Y-70371485D02*
X171256666Y-70371485D01*
X171256666Y-70371485D02*
X171161428Y-70323866D01*
X171161428Y-70323866D02*
X171113809Y-70228628D01*
X171113809Y-70228628D02*
X171113809Y-70181009D01*
X171113809Y-70181009D02*
X171161428Y-70085771D01*
X171161428Y-70085771D02*
X171256666Y-70038152D01*
X171256666Y-70038152D02*
X171399523Y-70038152D01*
X171399523Y-70038152D02*
X171494761Y-70085771D01*
X172351904Y-70657200D02*
X172256666Y-70704819D01*
X172256666Y-70704819D02*
X172066190Y-70704819D01*
X172066190Y-70704819D02*
X171970952Y-70657200D01*
X171970952Y-70657200D02*
X171923333Y-70561961D01*
X171923333Y-70561961D02*
X171923333Y-70181009D01*
X171923333Y-70181009D02*
X171970952Y-70085771D01*
X171970952Y-70085771D02*
X172066190Y-70038152D01*
X172066190Y-70038152D02*
X172256666Y-70038152D01*
X172256666Y-70038152D02*
X172351904Y-70085771D01*
X172351904Y-70085771D02*
X172399523Y-70181009D01*
X172399523Y-70181009D02*
X172399523Y-70276247D01*
X172399523Y-70276247D02*
X171923333Y-70371485D01*
X172685238Y-70038152D02*
X173066190Y-70038152D01*
X172828095Y-69704819D02*
X172828095Y-70561961D01*
X172828095Y-70561961D02*
X172875714Y-70657200D01*
X172875714Y-70657200D02*
X172970952Y-70704819D01*
X172970952Y-70704819D02*
X173066190Y-70704819D01*
X173923333Y-70704819D02*
X173351905Y-70704819D01*
X173637619Y-70704819D02*
X173637619Y-69704819D01*
X173637619Y-69704819D02*
X173542381Y-69847676D01*
X173542381Y-69847676D02*
X173447143Y-69942914D01*
X173447143Y-69942914D02*
X173351905Y-69990533D01*
X153833333Y-118859580D02*
X153785714Y-118907200D01*
X153785714Y-118907200D02*
X153642857Y-118954819D01*
X153642857Y-118954819D02*
X153547619Y-118954819D01*
X153547619Y-118954819D02*
X153404762Y-118907200D01*
X153404762Y-118907200D02*
X153309524Y-118811961D01*
X153309524Y-118811961D02*
X153261905Y-118716723D01*
X153261905Y-118716723D02*
X153214286Y-118526247D01*
X153214286Y-118526247D02*
X153214286Y-118383390D01*
X153214286Y-118383390D02*
X153261905Y-118192914D01*
X153261905Y-118192914D02*
X153309524Y-118097676D01*
X153309524Y-118097676D02*
X153404762Y-118002438D01*
X153404762Y-118002438D02*
X153547619Y-117954819D01*
X153547619Y-117954819D02*
X153642857Y-117954819D01*
X153642857Y-117954819D02*
X153785714Y-118002438D01*
X153785714Y-118002438D02*
X153833333Y-118050057D01*
X154404762Y-118383390D02*
X154309524Y-118335771D01*
X154309524Y-118335771D02*
X154261905Y-118288152D01*
X154261905Y-118288152D02*
X154214286Y-118192914D01*
X154214286Y-118192914D02*
X154214286Y-118145295D01*
X154214286Y-118145295D02*
X154261905Y-118050057D01*
X154261905Y-118050057D02*
X154309524Y-118002438D01*
X154309524Y-118002438D02*
X154404762Y-117954819D01*
X154404762Y-117954819D02*
X154595238Y-117954819D01*
X154595238Y-117954819D02*
X154690476Y-118002438D01*
X154690476Y-118002438D02*
X154738095Y-118050057D01*
X154738095Y-118050057D02*
X154785714Y-118145295D01*
X154785714Y-118145295D02*
X154785714Y-118192914D01*
X154785714Y-118192914D02*
X154738095Y-118288152D01*
X154738095Y-118288152D02*
X154690476Y-118335771D01*
X154690476Y-118335771D02*
X154595238Y-118383390D01*
X154595238Y-118383390D02*
X154404762Y-118383390D01*
X154404762Y-118383390D02*
X154309524Y-118431009D01*
X154309524Y-118431009D02*
X154261905Y-118478628D01*
X154261905Y-118478628D02*
X154214286Y-118573866D01*
X154214286Y-118573866D02*
X154214286Y-118764342D01*
X154214286Y-118764342D02*
X154261905Y-118859580D01*
X154261905Y-118859580D02*
X154309524Y-118907200D01*
X154309524Y-118907200D02*
X154404762Y-118954819D01*
X154404762Y-118954819D02*
X154595238Y-118954819D01*
X154595238Y-118954819D02*
X154690476Y-118907200D01*
X154690476Y-118907200D02*
X154738095Y-118859580D01*
X154738095Y-118859580D02*
X154785714Y-118764342D01*
X154785714Y-118764342D02*
X154785714Y-118573866D01*
X154785714Y-118573866D02*
X154738095Y-118478628D01*
X154738095Y-118478628D02*
X154690476Y-118431009D01*
X154690476Y-118431009D02*
X154595238Y-118383390D01*
X124454819Y-81238094D02*
X123454819Y-81238094D01*
X123454819Y-81238094D02*
X123454819Y-80999999D01*
X123454819Y-80999999D02*
X123502438Y-80857142D01*
X123502438Y-80857142D02*
X123597676Y-80761904D01*
X123597676Y-80761904D02*
X123692914Y-80714285D01*
X123692914Y-80714285D02*
X123883390Y-80666666D01*
X123883390Y-80666666D02*
X124026247Y-80666666D01*
X124026247Y-80666666D02*
X124216723Y-80714285D01*
X124216723Y-80714285D02*
X124311961Y-80761904D01*
X124311961Y-80761904D02*
X124407200Y-80857142D01*
X124407200Y-80857142D02*
X124454819Y-80999999D01*
X124454819Y-80999999D02*
X124454819Y-81238094D01*
X123550057Y-80285713D02*
X123502438Y-80238094D01*
X123502438Y-80238094D02*
X123454819Y-80142856D01*
X123454819Y-80142856D02*
X123454819Y-79904761D01*
X123454819Y-79904761D02*
X123502438Y-79809523D01*
X123502438Y-79809523D02*
X123550057Y-79761904D01*
X123550057Y-79761904D02*
X123645295Y-79714285D01*
X123645295Y-79714285D02*
X123740533Y-79714285D01*
X123740533Y-79714285D02*
X123883390Y-79761904D01*
X123883390Y-79761904D02*
X124454819Y-80333332D01*
X124454819Y-80333332D02*
X124454819Y-79714285D01*
X122954819Y-68333333D02*
X123669104Y-68333333D01*
X123669104Y-68333333D02*
X123811961Y-68380952D01*
X123811961Y-68380952D02*
X123907200Y-68476190D01*
X123907200Y-68476190D02*
X123954819Y-68619047D01*
X123954819Y-68619047D02*
X123954819Y-68714285D01*
X122954819Y-67952380D02*
X122954819Y-67333333D01*
X122954819Y-67333333D02*
X123335771Y-67666666D01*
X123335771Y-67666666D02*
X123335771Y-67523809D01*
X123335771Y-67523809D02*
X123383390Y-67428571D01*
X123383390Y-67428571D02*
X123431009Y-67380952D01*
X123431009Y-67380952D02*
X123526247Y-67333333D01*
X123526247Y-67333333D02*
X123764342Y-67333333D01*
X123764342Y-67333333D02*
X123859580Y-67380952D01*
X123859580Y-67380952D02*
X123907200Y-67428571D01*
X123907200Y-67428571D02*
X123954819Y-67523809D01*
X123954819Y-67523809D02*
X123954819Y-67809523D01*
X123954819Y-67809523D02*
X123907200Y-67904761D01*
X123907200Y-67904761D02*
X123859580Y-67952380D01*
X121857142Y-85454819D02*
X121523809Y-84978628D01*
X121285714Y-85454819D02*
X121285714Y-84454819D01*
X121285714Y-84454819D02*
X121666666Y-84454819D01*
X121666666Y-84454819D02*
X121761904Y-84502438D01*
X121761904Y-84502438D02*
X121809523Y-84550057D01*
X121809523Y-84550057D02*
X121857142Y-84645295D01*
X121857142Y-84645295D02*
X121857142Y-84788152D01*
X121857142Y-84788152D02*
X121809523Y-84883390D01*
X121809523Y-84883390D02*
X121761904Y-84931009D01*
X121761904Y-84931009D02*
X121666666Y-84978628D01*
X121666666Y-84978628D02*
X121285714Y-84978628D01*
X122809523Y-85454819D02*
X122238095Y-85454819D01*
X122523809Y-85454819D02*
X122523809Y-84454819D01*
X122523809Y-84454819D02*
X122428571Y-84597676D01*
X122428571Y-84597676D02*
X122333333Y-84692914D01*
X122333333Y-84692914D02*
X122238095Y-84740533D01*
X123142857Y-84454819D02*
X123809523Y-84454819D01*
X123809523Y-84454819D02*
X123380952Y-85454819D01*
X135359580Y-118422857D02*
X135407200Y-118470476D01*
X135407200Y-118470476D02*
X135454819Y-118613333D01*
X135454819Y-118613333D02*
X135454819Y-118708571D01*
X135454819Y-118708571D02*
X135407200Y-118851428D01*
X135407200Y-118851428D02*
X135311961Y-118946666D01*
X135311961Y-118946666D02*
X135216723Y-118994285D01*
X135216723Y-118994285D02*
X135026247Y-119041904D01*
X135026247Y-119041904D02*
X134883390Y-119041904D01*
X134883390Y-119041904D02*
X134692914Y-118994285D01*
X134692914Y-118994285D02*
X134597676Y-118946666D01*
X134597676Y-118946666D02*
X134502438Y-118851428D01*
X134502438Y-118851428D02*
X134454819Y-118708571D01*
X134454819Y-118708571D02*
X134454819Y-118613333D01*
X134454819Y-118613333D02*
X134502438Y-118470476D01*
X134502438Y-118470476D02*
X134550057Y-118422857D01*
X134454819Y-118089523D02*
X134454819Y-117470476D01*
X134454819Y-117470476D02*
X134835771Y-117803809D01*
X134835771Y-117803809D02*
X134835771Y-117660952D01*
X134835771Y-117660952D02*
X134883390Y-117565714D01*
X134883390Y-117565714D02*
X134931009Y-117518095D01*
X134931009Y-117518095D02*
X135026247Y-117470476D01*
X135026247Y-117470476D02*
X135264342Y-117470476D01*
X135264342Y-117470476D02*
X135359580Y-117518095D01*
X135359580Y-117518095D02*
X135407200Y-117565714D01*
X135407200Y-117565714D02*
X135454819Y-117660952D01*
X135454819Y-117660952D02*
X135454819Y-117946666D01*
X135454819Y-117946666D02*
X135407200Y-118041904D01*
X135407200Y-118041904D02*
X135359580Y-118089523D01*
X134454819Y-116851428D02*
X134454819Y-116756190D01*
X134454819Y-116756190D02*
X134502438Y-116660952D01*
X134502438Y-116660952D02*
X134550057Y-116613333D01*
X134550057Y-116613333D02*
X134645295Y-116565714D01*
X134645295Y-116565714D02*
X134835771Y-116518095D01*
X134835771Y-116518095D02*
X135073866Y-116518095D01*
X135073866Y-116518095D02*
X135264342Y-116565714D01*
X135264342Y-116565714D02*
X135359580Y-116613333D01*
X135359580Y-116613333D02*
X135407200Y-116660952D01*
X135407200Y-116660952D02*
X135454819Y-116756190D01*
X135454819Y-116756190D02*
X135454819Y-116851428D01*
X135454819Y-116851428D02*
X135407200Y-116946666D01*
X135407200Y-116946666D02*
X135359580Y-116994285D01*
X135359580Y-116994285D02*
X135264342Y-117041904D01*
X135264342Y-117041904D02*
X135073866Y-117089523D01*
X135073866Y-117089523D02*
X134835771Y-117089523D01*
X134835771Y-117089523D02*
X134645295Y-117041904D01*
X134645295Y-117041904D02*
X134550057Y-116994285D01*
X134550057Y-116994285D02*
X134502438Y-116946666D01*
X134502438Y-116946666D02*
X134454819Y-116851428D01*
X172666666Y-84904819D02*
X172666666Y-85619104D01*
X172666666Y-85619104D02*
X172619047Y-85761961D01*
X172619047Y-85761961D02*
X172523809Y-85857200D01*
X172523809Y-85857200D02*
X172380952Y-85904819D01*
X172380952Y-85904819D02*
X172285714Y-85904819D01*
X173095238Y-85000057D02*
X173142857Y-84952438D01*
X173142857Y-84952438D02*
X173238095Y-84904819D01*
X173238095Y-84904819D02*
X173476190Y-84904819D01*
X173476190Y-84904819D02*
X173571428Y-84952438D01*
X173571428Y-84952438D02*
X173619047Y-85000057D01*
X173619047Y-85000057D02*
X173666666Y-85095295D01*
X173666666Y-85095295D02*
X173666666Y-85190533D01*
X173666666Y-85190533D02*
X173619047Y-85333390D01*
X173619047Y-85333390D02*
X173047619Y-85904819D01*
X173047619Y-85904819D02*
X173666666Y-85904819D01*
X173833333Y-119954819D02*
X173500000Y-119478628D01*
X173261905Y-119954819D02*
X173261905Y-118954819D01*
X173261905Y-118954819D02*
X173642857Y-118954819D01*
X173642857Y-118954819D02*
X173738095Y-119002438D01*
X173738095Y-119002438D02*
X173785714Y-119050057D01*
X173785714Y-119050057D02*
X173833333Y-119145295D01*
X173833333Y-119145295D02*
X173833333Y-119288152D01*
X173833333Y-119288152D02*
X173785714Y-119383390D01*
X173785714Y-119383390D02*
X173738095Y-119431009D01*
X173738095Y-119431009D02*
X173642857Y-119478628D01*
X173642857Y-119478628D02*
X173261905Y-119478628D01*
X174785714Y-119954819D02*
X174214286Y-119954819D01*
X174500000Y-119954819D02*
X174500000Y-118954819D01*
X174500000Y-118954819D02*
X174404762Y-119097676D01*
X174404762Y-119097676D02*
X174309524Y-119192914D01*
X174309524Y-119192914D02*
X174214286Y-119240533D01*
X132859580Y-68142857D02*
X132907200Y-68190476D01*
X132907200Y-68190476D02*
X132954819Y-68333333D01*
X132954819Y-68333333D02*
X132954819Y-68428571D01*
X132954819Y-68428571D02*
X132907200Y-68571428D01*
X132907200Y-68571428D02*
X132811961Y-68666666D01*
X132811961Y-68666666D02*
X132716723Y-68714285D01*
X132716723Y-68714285D02*
X132526247Y-68761904D01*
X132526247Y-68761904D02*
X132383390Y-68761904D01*
X132383390Y-68761904D02*
X132192914Y-68714285D01*
X132192914Y-68714285D02*
X132097676Y-68666666D01*
X132097676Y-68666666D02*
X132002438Y-68571428D01*
X132002438Y-68571428D02*
X131954819Y-68428571D01*
X131954819Y-68428571D02*
X131954819Y-68333333D01*
X131954819Y-68333333D02*
X132002438Y-68190476D01*
X132002438Y-68190476D02*
X132050057Y-68142857D01*
X132050057Y-67761904D02*
X132002438Y-67714285D01*
X132002438Y-67714285D02*
X131954819Y-67619047D01*
X131954819Y-67619047D02*
X131954819Y-67380952D01*
X131954819Y-67380952D02*
X132002438Y-67285714D01*
X132002438Y-67285714D02*
X132050057Y-67238095D01*
X132050057Y-67238095D02*
X132145295Y-67190476D01*
X132145295Y-67190476D02*
X132240533Y-67190476D01*
X132240533Y-67190476D02*
X132383390Y-67238095D01*
X132383390Y-67238095D02*
X132954819Y-67809523D01*
X132954819Y-67809523D02*
X132954819Y-67190476D01*
X132288152Y-66333333D02*
X132954819Y-66333333D01*
X131907200Y-66571428D02*
X132621485Y-66809523D01*
X132621485Y-66809523D02*
X132621485Y-66190476D01*
X129947142Y-72709580D02*
X129899523Y-72757200D01*
X129899523Y-72757200D02*
X129756666Y-72804819D01*
X129756666Y-72804819D02*
X129661428Y-72804819D01*
X129661428Y-72804819D02*
X129518571Y-72757200D01*
X129518571Y-72757200D02*
X129423333Y-72661961D01*
X129423333Y-72661961D02*
X129375714Y-72566723D01*
X129375714Y-72566723D02*
X129328095Y-72376247D01*
X129328095Y-72376247D02*
X129328095Y-72233390D01*
X129328095Y-72233390D02*
X129375714Y-72042914D01*
X129375714Y-72042914D02*
X129423333Y-71947676D01*
X129423333Y-71947676D02*
X129518571Y-71852438D01*
X129518571Y-71852438D02*
X129661428Y-71804819D01*
X129661428Y-71804819D02*
X129756666Y-71804819D01*
X129756666Y-71804819D02*
X129899523Y-71852438D01*
X129899523Y-71852438D02*
X129947142Y-71900057D01*
X130328095Y-71900057D02*
X130375714Y-71852438D01*
X130375714Y-71852438D02*
X130470952Y-71804819D01*
X130470952Y-71804819D02*
X130709047Y-71804819D01*
X130709047Y-71804819D02*
X130804285Y-71852438D01*
X130804285Y-71852438D02*
X130851904Y-71900057D01*
X130851904Y-71900057D02*
X130899523Y-71995295D01*
X130899523Y-71995295D02*
X130899523Y-72090533D01*
X130899523Y-72090533D02*
X130851904Y-72233390D01*
X130851904Y-72233390D02*
X130280476Y-72804819D01*
X130280476Y-72804819D02*
X130899523Y-72804819D01*
X131851904Y-72804819D02*
X131280476Y-72804819D01*
X131566190Y-72804819D02*
X131566190Y-71804819D01*
X131566190Y-71804819D02*
X131470952Y-71947676D01*
X131470952Y-71947676D02*
X131375714Y-72042914D01*
X131375714Y-72042914D02*
X131280476Y-72090533D01*
X133954819Y-81642857D02*
X133478628Y-81976190D01*
X133954819Y-82214285D02*
X132954819Y-82214285D01*
X132954819Y-82214285D02*
X132954819Y-81833333D01*
X132954819Y-81833333D02*
X133002438Y-81738095D01*
X133002438Y-81738095D02*
X133050057Y-81690476D01*
X133050057Y-81690476D02*
X133145295Y-81642857D01*
X133145295Y-81642857D02*
X133288152Y-81642857D01*
X133288152Y-81642857D02*
X133383390Y-81690476D01*
X133383390Y-81690476D02*
X133431009Y-81738095D01*
X133431009Y-81738095D02*
X133478628Y-81833333D01*
X133478628Y-81833333D02*
X133478628Y-82214285D01*
X133050057Y-81261904D02*
X133002438Y-81214285D01*
X133002438Y-81214285D02*
X132954819Y-81119047D01*
X132954819Y-81119047D02*
X132954819Y-80880952D01*
X132954819Y-80880952D02*
X133002438Y-80785714D01*
X133002438Y-80785714D02*
X133050057Y-80738095D01*
X133050057Y-80738095D02*
X133145295Y-80690476D01*
X133145295Y-80690476D02*
X133240533Y-80690476D01*
X133240533Y-80690476D02*
X133383390Y-80738095D01*
X133383390Y-80738095D02*
X133954819Y-81309523D01*
X133954819Y-81309523D02*
X133954819Y-80690476D01*
X132954819Y-80357142D02*
X132954819Y-79738095D01*
X132954819Y-79738095D02*
X133335771Y-80071428D01*
X133335771Y-80071428D02*
X133335771Y-79928571D01*
X133335771Y-79928571D02*
X133383390Y-79833333D01*
X133383390Y-79833333D02*
X133431009Y-79785714D01*
X133431009Y-79785714D02*
X133526247Y-79738095D01*
X133526247Y-79738095D02*
X133764342Y-79738095D01*
X133764342Y-79738095D02*
X133859580Y-79785714D01*
X133859580Y-79785714D02*
X133907200Y-79833333D01*
X133907200Y-79833333D02*
X133954819Y-79928571D01*
X133954819Y-79928571D02*
X133954819Y-80214285D01*
X133954819Y-80214285D02*
X133907200Y-80309523D01*
X133907200Y-80309523D02*
X133859580Y-80357142D01*
X151768095Y-132704819D02*
X151768095Y-133514342D01*
X151768095Y-133514342D02*
X151815714Y-133609580D01*
X151815714Y-133609580D02*
X151863333Y-133657200D01*
X151863333Y-133657200D02*
X151958571Y-133704819D01*
X151958571Y-133704819D02*
X152149047Y-133704819D01*
X152149047Y-133704819D02*
X152244285Y-133657200D01*
X152244285Y-133657200D02*
X152291904Y-133609580D01*
X152291904Y-133609580D02*
X152339523Y-133514342D01*
X152339523Y-133514342D02*
X152339523Y-132704819D01*
X153244285Y-133038152D02*
X153244285Y-133704819D01*
X153006190Y-132657200D02*
X152768095Y-133371485D01*
X152768095Y-133371485D02*
X153387142Y-133371485D01*
X150915714Y-135384819D02*
X150915714Y-134384819D01*
X150915714Y-134384819D02*
X151153809Y-134384819D01*
X151153809Y-134384819D02*
X151296666Y-134432438D01*
X151296666Y-134432438D02*
X151391904Y-134527676D01*
X151391904Y-134527676D02*
X151439523Y-134622914D01*
X151439523Y-134622914D02*
X151487142Y-134813390D01*
X151487142Y-134813390D02*
X151487142Y-134956247D01*
X151487142Y-134956247D02*
X151439523Y-135146723D01*
X151439523Y-135146723D02*
X151391904Y-135241961D01*
X151391904Y-135241961D02*
X151296666Y-135337200D01*
X151296666Y-135337200D02*
X151153809Y-135384819D01*
X151153809Y-135384819D02*
X150915714Y-135384819D01*
X152296666Y-135337200D02*
X152201428Y-135384819D01*
X152201428Y-135384819D02*
X152010952Y-135384819D01*
X152010952Y-135384819D02*
X151915714Y-135337200D01*
X151915714Y-135337200D02*
X151868095Y-135241961D01*
X151868095Y-135241961D02*
X151868095Y-134861009D01*
X151868095Y-134861009D02*
X151915714Y-134765771D01*
X151915714Y-134765771D02*
X152010952Y-134718152D01*
X152010952Y-134718152D02*
X152201428Y-134718152D01*
X152201428Y-134718152D02*
X152296666Y-134765771D01*
X152296666Y-134765771D02*
X152344285Y-134861009D01*
X152344285Y-134861009D02*
X152344285Y-134956247D01*
X152344285Y-134956247D02*
X151868095Y-135051485D01*
X152725238Y-135337200D02*
X152820476Y-135384819D01*
X152820476Y-135384819D02*
X153010952Y-135384819D01*
X153010952Y-135384819D02*
X153106190Y-135337200D01*
X153106190Y-135337200D02*
X153153809Y-135241961D01*
X153153809Y-135241961D02*
X153153809Y-135194342D01*
X153153809Y-135194342D02*
X153106190Y-135099104D01*
X153106190Y-135099104D02*
X153010952Y-135051485D01*
X153010952Y-135051485D02*
X152868095Y-135051485D01*
X152868095Y-135051485D02*
X152772857Y-135003866D01*
X152772857Y-135003866D02*
X152725238Y-134908628D01*
X152725238Y-134908628D02*
X152725238Y-134861009D01*
X152725238Y-134861009D02*
X152772857Y-134765771D01*
X152772857Y-134765771D02*
X152868095Y-134718152D01*
X152868095Y-134718152D02*
X153010952Y-134718152D01*
X153010952Y-134718152D02*
X153106190Y-134765771D01*
X153582381Y-135384819D02*
X153582381Y-134718152D01*
X153582381Y-134384819D02*
X153534762Y-134432438D01*
X153534762Y-134432438D02*
X153582381Y-134480057D01*
X153582381Y-134480057D02*
X153630000Y-134432438D01*
X153630000Y-134432438D02*
X153582381Y-134384819D01*
X153582381Y-134384819D02*
X153582381Y-134480057D01*
X154487142Y-134718152D02*
X154487142Y-135527676D01*
X154487142Y-135527676D02*
X154439523Y-135622914D01*
X154439523Y-135622914D02*
X154391904Y-135670533D01*
X154391904Y-135670533D02*
X154296666Y-135718152D01*
X154296666Y-135718152D02*
X154153809Y-135718152D01*
X154153809Y-135718152D02*
X154058571Y-135670533D01*
X154487142Y-135337200D02*
X154391904Y-135384819D01*
X154391904Y-135384819D02*
X154201428Y-135384819D01*
X154201428Y-135384819D02*
X154106190Y-135337200D01*
X154106190Y-135337200D02*
X154058571Y-135289580D01*
X154058571Y-135289580D02*
X154010952Y-135194342D01*
X154010952Y-135194342D02*
X154010952Y-134908628D01*
X154010952Y-134908628D02*
X154058571Y-134813390D01*
X154058571Y-134813390D02*
X154106190Y-134765771D01*
X154106190Y-134765771D02*
X154201428Y-134718152D01*
X154201428Y-134718152D02*
X154391904Y-134718152D01*
X154391904Y-134718152D02*
X154487142Y-134765771D01*
X154963333Y-134718152D02*
X154963333Y-135384819D01*
X154963333Y-134813390D02*
X155010952Y-134765771D01*
X155010952Y-134765771D02*
X155106190Y-134718152D01*
X155106190Y-134718152D02*
X155249047Y-134718152D01*
X155249047Y-134718152D02*
X155344285Y-134765771D01*
X155344285Y-134765771D02*
X155391904Y-134861009D01*
X155391904Y-134861009D02*
X155391904Y-135384819D01*
X156296666Y-135384819D02*
X156296666Y-134861009D01*
X156296666Y-134861009D02*
X156249047Y-134765771D01*
X156249047Y-134765771D02*
X156153809Y-134718152D01*
X156153809Y-134718152D02*
X155963333Y-134718152D01*
X155963333Y-134718152D02*
X155868095Y-134765771D01*
X156296666Y-135337200D02*
X156201428Y-135384819D01*
X156201428Y-135384819D02*
X155963333Y-135384819D01*
X155963333Y-135384819D02*
X155868095Y-135337200D01*
X155868095Y-135337200D02*
X155820476Y-135241961D01*
X155820476Y-135241961D02*
X155820476Y-135146723D01*
X155820476Y-135146723D02*
X155868095Y-135051485D01*
X155868095Y-135051485D02*
X155963333Y-135003866D01*
X155963333Y-135003866D02*
X156201428Y-135003866D01*
X156201428Y-135003866D02*
X156296666Y-134956247D01*
X156630000Y-134718152D02*
X157010952Y-134718152D01*
X156772857Y-134384819D02*
X156772857Y-135241961D01*
X156772857Y-135241961D02*
X156820476Y-135337200D01*
X156820476Y-135337200D02*
X156915714Y-135384819D01*
X156915714Y-135384819D02*
X157010952Y-135384819D01*
X157487143Y-135384819D02*
X157391905Y-135337200D01*
X157391905Y-135337200D02*
X157344286Y-135289580D01*
X157344286Y-135289580D02*
X157296667Y-135194342D01*
X157296667Y-135194342D02*
X157296667Y-134908628D01*
X157296667Y-134908628D02*
X157344286Y-134813390D01*
X157344286Y-134813390D02*
X157391905Y-134765771D01*
X157391905Y-134765771D02*
X157487143Y-134718152D01*
X157487143Y-134718152D02*
X157630000Y-134718152D01*
X157630000Y-134718152D02*
X157725238Y-134765771D01*
X157725238Y-134765771D02*
X157772857Y-134813390D01*
X157772857Y-134813390D02*
X157820476Y-134908628D01*
X157820476Y-134908628D02*
X157820476Y-135194342D01*
X157820476Y-135194342D02*
X157772857Y-135289580D01*
X157772857Y-135289580D02*
X157725238Y-135337200D01*
X157725238Y-135337200D02*
X157630000Y-135384819D01*
X157630000Y-135384819D02*
X157487143Y-135384819D01*
X158249048Y-135384819D02*
X158249048Y-134718152D01*
X158249048Y-134908628D02*
X158296667Y-134813390D01*
X158296667Y-134813390D02*
X158344286Y-134765771D01*
X158344286Y-134765771D02*
X158439524Y-134718152D01*
X158439524Y-134718152D02*
X158534762Y-134718152D01*
X159010953Y-134813390D02*
X158915715Y-134765771D01*
X158915715Y-134765771D02*
X158868096Y-134718152D01*
X158868096Y-134718152D02*
X158820477Y-134622914D01*
X158820477Y-134622914D02*
X158820477Y-134575295D01*
X158820477Y-134575295D02*
X158868096Y-134480057D01*
X158868096Y-134480057D02*
X158915715Y-134432438D01*
X158915715Y-134432438D02*
X159010953Y-134384819D01*
X159010953Y-134384819D02*
X159201429Y-134384819D01*
X159201429Y-134384819D02*
X159296667Y-134432438D01*
X159296667Y-134432438D02*
X159344286Y-134480057D01*
X159344286Y-134480057D02*
X159391905Y-134575295D01*
X159391905Y-134575295D02*
X159391905Y-134622914D01*
X159391905Y-134622914D02*
X159344286Y-134718152D01*
X159344286Y-134718152D02*
X159296667Y-134765771D01*
X159296667Y-134765771D02*
X159201429Y-134813390D01*
X159201429Y-134813390D02*
X159010953Y-134813390D01*
X159010953Y-134813390D02*
X158915715Y-134861009D01*
X158915715Y-134861009D02*
X158868096Y-134908628D01*
X158868096Y-134908628D02*
X158820477Y-135003866D01*
X158820477Y-135003866D02*
X158820477Y-135194342D01*
X158820477Y-135194342D02*
X158868096Y-135289580D01*
X158868096Y-135289580D02*
X158915715Y-135337200D01*
X158915715Y-135337200D02*
X159010953Y-135384819D01*
X159010953Y-135384819D02*
X159201429Y-135384819D01*
X159201429Y-135384819D02*
X159296667Y-135337200D01*
X159296667Y-135337200D02*
X159344286Y-135289580D01*
X159344286Y-135289580D02*
X159391905Y-135194342D01*
X159391905Y-135194342D02*
X159391905Y-135003866D01*
X159391905Y-135003866D02*
X159344286Y-134908628D01*
X159344286Y-134908628D02*
X159296667Y-134861009D01*
X159296667Y-134861009D02*
X159201429Y-134813390D01*
X162454819Y-68333333D02*
X163169104Y-68333333D01*
X163169104Y-68333333D02*
X163311961Y-68380952D01*
X163311961Y-68380952D02*
X163407200Y-68476190D01*
X163407200Y-68476190D02*
X163454819Y-68619047D01*
X163454819Y-68619047D02*
X163454819Y-68714285D01*
X162788152Y-67428571D02*
X163454819Y-67428571D01*
X162407200Y-67666666D02*
X163121485Y-67904761D01*
X163121485Y-67904761D02*
X163121485Y-67285714D01*
X132984819Y-78462857D02*
X132508628Y-78796190D01*
X132984819Y-79034285D02*
X131984819Y-79034285D01*
X131984819Y-79034285D02*
X131984819Y-78653333D01*
X131984819Y-78653333D02*
X132032438Y-78558095D01*
X132032438Y-78558095D02*
X132080057Y-78510476D01*
X132080057Y-78510476D02*
X132175295Y-78462857D01*
X132175295Y-78462857D02*
X132318152Y-78462857D01*
X132318152Y-78462857D02*
X132413390Y-78510476D01*
X132413390Y-78510476D02*
X132461009Y-78558095D01*
X132461009Y-78558095D02*
X132508628Y-78653333D01*
X132508628Y-78653333D02*
X132508628Y-79034285D01*
X132984819Y-77510476D02*
X132984819Y-78081904D01*
X132984819Y-77796190D02*
X131984819Y-77796190D01*
X131984819Y-77796190D02*
X132127676Y-77891428D01*
X132127676Y-77891428D02*
X132222914Y-77986666D01*
X132222914Y-77986666D02*
X132270533Y-78081904D01*
X131984819Y-76653333D02*
X131984819Y-76843809D01*
X131984819Y-76843809D02*
X132032438Y-76939047D01*
X132032438Y-76939047D02*
X132080057Y-76986666D01*
X132080057Y-76986666D02*
X132222914Y-77081904D01*
X132222914Y-77081904D02*
X132413390Y-77129523D01*
X132413390Y-77129523D02*
X132794342Y-77129523D01*
X132794342Y-77129523D02*
X132889580Y-77081904D01*
X132889580Y-77081904D02*
X132937200Y-77034285D01*
X132937200Y-77034285D02*
X132984819Y-76939047D01*
X132984819Y-76939047D02*
X132984819Y-76748571D01*
X132984819Y-76748571D02*
X132937200Y-76653333D01*
X132937200Y-76653333D02*
X132889580Y-76605714D01*
X132889580Y-76605714D02*
X132794342Y-76558095D01*
X132794342Y-76558095D02*
X132556247Y-76558095D01*
X132556247Y-76558095D02*
X132461009Y-76605714D01*
X132461009Y-76605714D02*
X132413390Y-76653333D01*
X132413390Y-76653333D02*
X132365771Y-76748571D01*
X132365771Y-76748571D02*
X132365771Y-76939047D01*
X132365771Y-76939047D02*
X132413390Y-77034285D01*
X132413390Y-77034285D02*
X132461009Y-77081904D01*
X132461009Y-77081904D02*
X132556247Y-77129523D01*
X124357142Y-87454819D02*
X124023809Y-86978628D01*
X123785714Y-87454819D02*
X123785714Y-86454819D01*
X123785714Y-86454819D02*
X124166666Y-86454819D01*
X124166666Y-86454819D02*
X124261904Y-86502438D01*
X124261904Y-86502438D02*
X124309523Y-86550057D01*
X124309523Y-86550057D02*
X124357142Y-86645295D01*
X124357142Y-86645295D02*
X124357142Y-86788152D01*
X124357142Y-86788152D02*
X124309523Y-86883390D01*
X124309523Y-86883390D02*
X124261904Y-86931009D01*
X124261904Y-86931009D02*
X124166666Y-86978628D01*
X124166666Y-86978628D02*
X123785714Y-86978628D01*
X125309523Y-87454819D02*
X124738095Y-87454819D01*
X125023809Y-87454819D02*
X125023809Y-86454819D01*
X125023809Y-86454819D02*
X124928571Y-86597676D01*
X124928571Y-86597676D02*
X124833333Y-86692914D01*
X124833333Y-86692914D02*
X124738095Y-86740533D01*
X125880952Y-86883390D02*
X125785714Y-86835771D01*
X125785714Y-86835771D02*
X125738095Y-86788152D01*
X125738095Y-86788152D02*
X125690476Y-86692914D01*
X125690476Y-86692914D02*
X125690476Y-86645295D01*
X125690476Y-86645295D02*
X125738095Y-86550057D01*
X125738095Y-86550057D02*
X125785714Y-86502438D01*
X125785714Y-86502438D02*
X125880952Y-86454819D01*
X125880952Y-86454819D02*
X126071428Y-86454819D01*
X126071428Y-86454819D02*
X126166666Y-86502438D01*
X126166666Y-86502438D02*
X126214285Y-86550057D01*
X126214285Y-86550057D02*
X126261904Y-86645295D01*
X126261904Y-86645295D02*
X126261904Y-86692914D01*
X126261904Y-86692914D02*
X126214285Y-86788152D01*
X126214285Y-86788152D02*
X126166666Y-86835771D01*
X126166666Y-86835771D02*
X126071428Y-86883390D01*
X126071428Y-86883390D02*
X125880952Y-86883390D01*
X125880952Y-86883390D02*
X125785714Y-86931009D01*
X125785714Y-86931009D02*
X125738095Y-86978628D01*
X125738095Y-86978628D02*
X125690476Y-87073866D01*
X125690476Y-87073866D02*
X125690476Y-87264342D01*
X125690476Y-87264342D02*
X125738095Y-87359580D01*
X125738095Y-87359580D02*
X125785714Y-87407200D01*
X125785714Y-87407200D02*
X125880952Y-87454819D01*
X125880952Y-87454819D02*
X126071428Y-87454819D01*
X126071428Y-87454819D02*
X126166666Y-87407200D01*
X126166666Y-87407200D02*
X126214285Y-87359580D01*
X126214285Y-87359580D02*
X126261904Y-87264342D01*
X126261904Y-87264342D02*
X126261904Y-87073866D01*
X126261904Y-87073866D02*
X126214285Y-86978628D01*
X126214285Y-86978628D02*
X126166666Y-86931009D01*
X126166666Y-86931009D02*
X126071428Y-86883390D01*
X125454819Y-115238094D02*
X124454819Y-115238094D01*
X124454819Y-115238094D02*
X124454819Y-114999999D01*
X124454819Y-114999999D02*
X124502438Y-114857142D01*
X124502438Y-114857142D02*
X124597676Y-114761904D01*
X124597676Y-114761904D02*
X124692914Y-114714285D01*
X124692914Y-114714285D02*
X124883390Y-114666666D01*
X124883390Y-114666666D02*
X125026247Y-114666666D01*
X125026247Y-114666666D02*
X125216723Y-114714285D01*
X125216723Y-114714285D02*
X125311961Y-114761904D01*
X125311961Y-114761904D02*
X125407200Y-114857142D01*
X125407200Y-114857142D02*
X125454819Y-114999999D01*
X125454819Y-114999999D02*
X125454819Y-115238094D01*
X124788152Y-113809523D02*
X125454819Y-113809523D01*
X124407200Y-114047618D02*
X125121485Y-114285713D01*
X125121485Y-114285713D02*
X125121485Y-113666666D01*
X135357142Y-107359580D02*
X135309523Y-107407200D01*
X135309523Y-107407200D02*
X135166666Y-107454819D01*
X135166666Y-107454819D02*
X135071428Y-107454819D01*
X135071428Y-107454819D02*
X134928571Y-107407200D01*
X134928571Y-107407200D02*
X134833333Y-107311961D01*
X134833333Y-107311961D02*
X134785714Y-107216723D01*
X134785714Y-107216723D02*
X134738095Y-107026247D01*
X134738095Y-107026247D02*
X134738095Y-106883390D01*
X134738095Y-106883390D02*
X134785714Y-106692914D01*
X134785714Y-106692914D02*
X134833333Y-106597676D01*
X134833333Y-106597676D02*
X134928571Y-106502438D01*
X134928571Y-106502438D02*
X135071428Y-106454819D01*
X135071428Y-106454819D02*
X135166666Y-106454819D01*
X135166666Y-106454819D02*
X135309523Y-106502438D01*
X135309523Y-106502438D02*
X135357142Y-106550057D01*
X135690476Y-106454819D02*
X136309523Y-106454819D01*
X136309523Y-106454819D02*
X135976190Y-106835771D01*
X135976190Y-106835771D02*
X136119047Y-106835771D01*
X136119047Y-106835771D02*
X136214285Y-106883390D01*
X136214285Y-106883390D02*
X136261904Y-106931009D01*
X136261904Y-106931009D02*
X136309523Y-107026247D01*
X136309523Y-107026247D02*
X136309523Y-107264342D01*
X136309523Y-107264342D02*
X136261904Y-107359580D01*
X136261904Y-107359580D02*
X136214285Y-107407200D01*
X136214285Y-107407200D02*
X136119047Y-107454819D01*
X136119047Y-107454819D02*
X135833333Y-107454819D01*
X135833333Y-107454819D02*
X135738095Y-107407200D01*
X135738095Y-107407200D02*
X135690476Y-107359580D01*
X136642857Y-106454819D02*
X137261904Y-106454819D01*
X137261904Y-106454819D02*
X136928571Y-106835771D01*
X136928571Y-106835771D02*
X137071428Y-106835771D01*
X137071428Y-106835771D02*
X137166666Y-106883390D01*
X137166666Y-106883390D02*
X137214285Y-106931009D01*
X137214285Y-106931009D02*
X137261904Y-107026247D01*
X137261904Y-107026247D02*
X137261904Y-107264342D01*
X137261904Y-107264342D02*
X137214285Y-107359580D01*
X137214285Y-107359580D02*
X137166666Y-107407200D01*
X137166666Y-107407200D02*
X137071428Y-107454819D01*
X137071428Y-107454819D02*
X136785714Y-107454819D01*
X136785714Y-107454819D02*
X136690476Y-107407200D01*
X136690476Y-107407200D02*
X136642857Y-107359580D01*
X150954819Y-121142857D02*
X150478628Y-121476190D01*
X150954819Y-121714285D02*
X149954819Y-121714285D01*
X149954819Y-121714285D02*
X149954819Y-121333333D01*
X149954819Y-121333333D02*
X150002438Y-121238095D01*
X150002438Y-121238095D02*
X150050057Y-121190476D01*
X150050057Y-121190476D02*
X150145295Y-121142857D01*
X150145295Y-121142857D02*
X150288152Y-121142857D01*
X150288152Y-121142857D02*
X150383390Y-121190476D01*
X150383390Y-121190476D02*
X150431009Y-121238095D01*
X150431009Y-121238095D02*
X150478628Y-121333333D01*
X150478628Y-121333333D02*
X150478628Y-121714285D01*
X150954819Y-120190476D02*
X150954819Y-120761904D01*
X150954819Y-120476190D02*
X149954819Y-120476190D01*
X149954819Y-120476190D02*
X150097676Y-120571428D01*
X150097676Y-120571428D02*
X150192914Y-120666666D01*
X150192914Y-120666666D02*
X150240533Y-120761904D01*
X149954819Y-119857142D02*
X149954819Y-119238095D01*
X149954819Y-119238095D02*
X150335771Y-119571428D01*
X150335771Y-119571428D02*
X150335771Y-119428571D01*
X150335771Y-119428571D02*
X150383390Y-119333333D01*
X150383390Y-119333333D02*
X150431009Y-119285714D01*
X150431009Y-119285714D02*
X150526247Y-119238095D01*
X150526247Y-119238095D02*
X150764342Y-119238095D01*
X150764342Y-119238095D02*
X150859580Y-119285714D01*
X150859580Y-119285714D02*
X150907200Y-119333333D01*
X150907200Y-119333333D02*
X150954819Y-119428571D01*
X150954819Y-119428571D02*
X150954819Y-119714285D01*
X150954819Y-119714285D02*
X150907200Y-119809523D01*
X150907200Y-119809523D02*
X150859580Y-119857142D01*
X125404761Y-109550057D02*
X125309523Y-109502438D01*
X125309523Y-109502438D02*
X125214285Y-109407200D01*
X125214285Y-109407200D02*
X125071428Y-109264342D01*
X125071428Y-109264342D02*
X124976190Y-109216723D01*
X124976190Y-109216723D02*
X124880952Y-109216723D01*
X124928571Y-109454819D02*
X124833333Y-109407200D01*
X124833333Y-109407200D02*
X124738095Y-109311961D01*
X124738095Y-109311961D02*
X124690476Y-109121485D01*
X124690476Y-109121485D02*
X124690476Y-108788152D01*
X124690476Y-108788152D02*
X124738095Y-108597676D01*
X124738095Y-108597676D02*
X124833333Y-108502438D01*
X124833333Y-108502438D02*
X124928571Y-108454819D01*
X124928571Y-108454819D02*
X125119047Y-108454819D01*
X125119047Y-108454819D02*
X125214285Y-108502438D01*
X125214285Y-108502438D02*
X125309523Y-108597676D01*
X125309523Y-108597676D02*
X125357142Y-108788152D01*
X125357142Y-108788152D02*
X125357142Y-109121485D01*
X125357142Y-109121485D02*
X125309523Y-109311961D01*
X125309523Y-109311961D02*
X125214285Y-109407200D01*
X125214285Y-109407200D02*
X125119047Y-109454819D01*
X125119047Y-109454819D02*
X124928571Y-109454819D01*
X125738095Y-108550057D02*
X125785714Y-108502438D01*
X125785714Y-108502438D02*
X125880952Y-108454819D01*
X125880952Y-108454819D02*
X126119047Y-108454819D01*
X126119047Y-108454819D02*
X126214285Y-108502438D01*
X126214285Y-108502438D02*
X126261904Y-108550057D01*
X126261904Y-108550057D02*
X126309523Y-108645295D01*
X126309523Y-108645295D02*
X126309523Y-108740533D01*
X126309523Y-108740533D02*
X126261904Y-108883390D01*
X126261904Y-108883390D02*
X125690476Y-109454819D01*
X125690476Y-109454819D02*
X126309523Y-109454819D01*
X141954819Y-83166666D02*
X141478628Y-83499999D01*
X141954819Y-83738094D02*
X140954819Y-83738094D01*
X140954819Y-83738094D02*
X140954819Y-83357142D01*
X140954819Y-83357142D02*
X141002438Y-83261904D01*
X141002438Y-83261904D02*
X141050057Y-83214285D01*
X141050057Y-83214285D02*
X141145295Y-83166666D01*
X141145295Y-83166666D02*
X141288152Y-83166666D01*
X141288152Y-83166666D02*
X141383390Y-83214285D01*
X141383390Y-83214285D02*
X141431009Y-83261904D01*
X141431009Y-83261904D02*
X141478628Y-83357142D01*
X141478628Y-83357142D02*
X141478628Y-83738094D01*
X140954819Y-82833332D02*
X140954819Y-82214285D01*
X140954819Y-82214285D02*
X141335771Y-82547618D01*
X141335771Y-82547618D02*
X141335771Y-82404761D01*
X141335771Y-82404761D02*
X141383390Y-82309523D01*
X141383390Y-82309523D02*
X141431009Y-82261904D01*
X141431009Y-82261904D02*
X141526247Y-82214285D01*
X141526247Y-82214285D02*
X141764342Y-82214285D01*
X141764342Y-82214285D02*
X141859580Y-82261904D01*
X141859580Y-82261904D02*
X141907200Y-82309523D01*
X141907200Y-82309523D02*
X141954819Y-82404761D01*
X141954819Y-82404761D02*
X141954819Y-82690475D01*
X141954819Y-82690475D02*
X141907200Y-82785713D01*
X141907200Y-82785713D02*
X141859580Y-82833332D01*
X170059523Y-78181009D02*
X170202380Y-78228628D01*
X170202380Y-78228628D02*
X170249999Y-78276247D01*
X170249999Y-78276247D02*
X170297618Y-78371485D01*
X170297618Y-78371485D02*
X170297618Y-78514342D01*
X170297618Y-78514342D02*
X170249999Y-78609580D01*
X170249999Y-78609580D02*
X170202380Y-78657200D01*
X170202380Y-78657200D02*
X170107142Y-78704819D01*
X170107142Y-78704819D02*
X169726190Y-78704819D01*
X169726190Y-78704819D02*
X169726190Y-77704819D01*
X169726190Y-77704819D02*
X170059523Y-77704819D01*
X170059523Y-77704819D02*
X170154761Y-77752438D01*
X170154761Y-77752438D02*
X170202380Y-77800057D01*
X170202380Y-77800057D02*
X170249999Y-77895295D01*
X170249999Y-77895295D02*
X170249999Y-77990533D01*
X170249999Y-77990533D02*
X170202380Y-78085771D01*
X170202380Y-78085771D02*
X170154761Y-78133390D01*
X170154761Y-78133390D02*
X170059523Y-78181009D01*
X170059523Y-78181009D02*
X169726190Y-78181009D01*
X170869047Y-78704819D02*
X170773809Y-78657200D01*
X170773809Y-78657200D02*
X170726190Y-78609580D01*
X170726190Y-78609580D02*
X170678571Y-78514342D01*
X170678571Y-78514342D02*
X170678571Y-78228628D01*
X170678571Y-78228628D02*
X170726190Y-78133390D01*
X170726190Y-78133390D02*
X170773809Y-78085771D01*
X170773809Y-78085771D02*
X170869047Y-78038152D01*
X170869047Y-78038152D02*
X171011904Y-78038152D01*
X171011904Y-78038152D02*
X171107142Y-78085771D01*
X171107142Y-78085771D02*
X171154761Y-78133390D01*
X171154761Y-78133390D02*
X171202380Y-78228628D01*
X171202380Y-78228628D02*
X171202380Y-78514342D01*
X171202380Y-78514342D02*
X171154761Y-78609580D01*
X171154761Y-78609580D02*
X171107142Y-78657200D01*
X171107142Y-78657200D02*
X171011904Y-78704819D01*
X171011904Y-78704819D02*
X170869047Y-78704819D01*
X171773809Y-78704819D02*
X171678571Y-78657200D01*
X171678571Y-78657200D02*
X171630952Y-78609580D01*
X171630952Y-78609580D02*
X171583333Y-78514342D01*
X171583333Y-78514342D02*
X171583333Y-78228628D01*
X171583333Y-78228628D02*
X171630952Y-78133390D01*
X171630952Y-78133390D02*
X171678571Y-78085771D01*
X171678571Y-78085771D02*
X171773809Y-78038152D01*
X171773809Y-78038152D02*
X171916666Y-78038152D01*
X171916666Y-78038152D02*
X172011904Y-78085771D01*
X172011904Y-78085771D02*
X172059523Y-78133390D01*
X172059523Y-78133390D02*
X172107142Y-78228628D01*
X172107142Y-78228628D02*
X172107142Y-78514342D01*
X172107142Y-78514342D02*
X172059523Y-78609580D01*
X172059523Y-78609580D02*
X172011904Y-78657200D01*
X172011904Y-78657200D02*
X171916666Y-78704819D01*
X171916666Y-78704819D02*
X171773809Y-78704819D01*
X172392857Y-78038152D02*
X172773809Y-78038152D01*
X172535714Y-77704819D02*
X172535714Y-78561961D01*
X172535714Y-78561961D02*
X172583333Y-78657200D01*
X172583333Y-78657200D02*
X172678571Y-78704819D01*
X172678571Y-78704819D02*
X172773809Y-78704819D01*
X172869048Y-78800057D02*
X173630952Y-78800057D01*
X173869048Y-78704819D02*
X173869048Y-77704819D01*
X173964286Y-78323866D02*
X174250000Y-78704819D01*
X174250000Y-78038152D02*
X173869048Y-78419104D01*
X175059524Y-78657200D02*
X174964286Y-78704819D01*
X174964286Y-78704819D02*
X174773810Y-78704819D01*
X174773810Y-78704819D02*
X174678572Y-78657200D01*
X174678572Y-78657200D02*
X174630953Y-78561961D01*
X174630953Y-78561961D02*
X174630953Y-78181009D01*
X174630953Y-78181009D02*
X174678572Y-78085771D01*
X174678572Y-78085771D02*
X174773810Y-78038152D01*
X174773810Y-78038152D02*
X174964286Y-78038152D01*
X174964286Y-78038152D02*
X175059524Y-78085771D01*
X175059524Y-78085771D02*
X175107143Y-78181009D01*
X175107143Y-78181009D02*
X175107143Y-78276247D01*
X175107143Y-78276247D02*
X174630953Y-78371485D01*
X175440477Y-78038152D02*
X175678572Y-78704819D01*
X175916667Y-78038152D02*
X175678572Y-78704819D01*
X175678572Y-78704819D02*
X175583334Y-78942914D01*
X175583334Y-78942914D02*
X175535715Y-78990533D01*
X175535715Y-78990533D02*
X175440477Y-79038152D01*
X176821429Y-78704819D02*
X176250001Y-78704819D01*
X176535715Y-78704819D02*
X176535715Y-77704819D01*
X176535715Y-77704819D02*
X176440477Y-77847676D01*
X176440477Y-77847676D02*
X176345239Y-77942914D01*
X176345239Y-77942914D02*
X176250001Y-77990533D01*
X121859580Y-80142857D02*
X121907200Y-80190476D01*
X121907200Y-80190476D02*
X121954819Y-80333333D01*
X121954819Y-80333333D02*
X121954819Y-80428571D01*
X121954819Y-80428571D02*
X121907200Y-80571428D01*
X121907200Y-80571428D02*
X121811961Y-80666666D01*
X121811961Y-80666666D02*
X121716723Y-80714285D01*
X121716723Y-80714285D02*
X121526247Y-80761904D01*
X121526247Y-80761904D02*
X121383390Y-80761904D01*
X121383390Y-80761904D02*
X121192914Y-80714285D01*
X121192914Y-80714285D02*
X121097676Y-80666666D01*
X121097676Y-80666666D02*
X121002438Y-80571428D01*
X121002438Y-80571428D02*
X120954819Y-80428571D01*
X120954819Y-80428571D02*
X120954819Y-80333333D01*
X120954819Y-80333333D02*
X121002438Y-80190476D01*
X121002438Y-80190476D02*
X121050057Y-80142857D01*
X121050057Y-79761904D02*
X121002438Y-79714285D01*
X121002438Y-79714285D02*
X120954819Y-79619047D01*
X120954819Y-79619047D02*
X120954819Y-79380952D01*
X120954819Y-79380952D02*
X121002438Y-79285714D01*
X121002438Y-79285714D02*
X121050057Y-79238095D01*
X121050057Y-79238095D02*
X121145295Y-79190476D01*
X121145295Y-79190476D02*
X121240533Y-79190476D01*
X121240533Y-79190476D02*
X121383390Y-79238095D01*
X121383390Y-79238095D02*
X121954819Y-79809523D01*
X121954819Y-79809523D02*
X121954819Y-79190476D01*
X120954819Y-78571428D02*
X120954819Y-78476190D01*
X120954819Y-78476190D02*
X121002438Y-78380952D01*
X121002438Y-78380952D02*
X121050057Y-78333333D01*
X121050057Y-78333333D02*
X121145295Y-78285714D01*
X121145295Y-78285714D02*
X121335771Y-78238095D01*
X121335771Y-78238095D02*
X121573866Y-78238095D01*
X121573866Y-78238095D02*
X121764342Y-78285714D01*
X121764342Y-78285714D02*
X121859580Y-78333333D01*
X121859580Y-78333333D02*
X121907200Y-78380952D01*
X121907200Y-78380952D02*
X121954819Y-78476190D01*
X121954819Y-78476190D02*
X121954819Y-78571428D01*
X121954819Y-78571428D02*
X121907200Y-78666666D01*
X121907200Y-78666666D02*
X121859580Y-78714285D01*
X121859580Y-78714285D02*
X121764342Y-78761904D01*
X121764342Y-78761904D02*
X121573866Y-78809523D01*
X121573866Y-78809523D02*
X121335771Y-78809523D01*
X121335771Y-78809523D02*
X121145295Y-78761904D01*
X121145295Y-78761904D02*
X121050057Y-78714285D01*
X121050057Y-78714285D02*
X121002438Y-78666666D01*
X121002438Y-78666666D02*
X120954819Y-78571428D01*
X144359580Y-94142857D02*
X144407200Y-94190476D01*
X144407200Y-94190476D02*
X144454819Y-94333333D01*
X144454819Y-94333333D02*
X144454819Y-94428571D01*
X144454819Y-94428571D02*
X144407200Y-94571428D01*
X144407200Y-94571428D02*
X144311961Y-94666666D01*
X144311961Y-94666666D02*
X144216723Y-94714285D01*
X144216723Y-94714285D02*
X144026247Y-94761904D01*
X144026247Y-94761904D02*
X143883390Y-94761904D01*
X143883390Y-94761904D02*
X143692914Y-94714285D01*
X143692914Y-94714285D02*
X143597676Y-94666666D01*
X143597676Y-94666666D02*
X143502438Y-94571428D01*
X143502438Y-94571428D02*
X143454819Y-94428571D01*
X143454819Y-94428571D02*
X143454819Y-94333333D01*
X143454819Y-94333333D02*
X143502438Y-94190476D01*
X143502438Y-94190476D02*
X143550057Y-94142857D01*
X144454819Y-93190476D02*
X144454819Y-93761904D01*
X144454819Y-93476190D02*
X143454819Y-93476190D01*
X143454819Y-93476190D02*
X143597676Y-93571428D01*
X143597676Y-93571428D02*
X143692914Y-93666666D01*
X143692914Y-93666666D02*
X143740533Y-93761904D01*
X143454819Y-92285714D02*
X143454819Y-92761904D01*
X143454819Y-92761904D02*
X143931009Y-92809523D01*
X143931009Y-92809523D02*
X143883390Y-92761904D01*
X143883390Y-92761904D02*
X143835771Y-92666666D01*
X143835771Y-92666666D02*
X143835771Y-92428571D01*
X143835771Y-92428571D02*
X143883390Y-92333333D01*
X143883390Y-92333333D02*
X143931009Y-92285714D01*
X143931009Y-92285714D02*
X144026247Y-92238095D01*
X144026247Y-92238095D02*
X144264342Y-92238095D01*
X144264342Y-92238095D02*
X144359580Y-92285714D01*
X144359580Y-92285714D02*
X144407200Y-92333333D01*
X144407200Y-92333333D02*
X144454819Y-92428571D01*
X144454819Y-92428571D02*
X144454819Y-92666666D01*
X144454819Y-92666666D02*
X144407200Y-92761904D01*
X144407200Y-92761904D02*
X144359580Y-92809523D01*
X132049580Y-125492857D02*
X132097200Y-125540476D01*
X132097200Y-125540476D02*
X132144819Y-125683333D01*
X132144819Y-125683333D02*
X132144819Y-125778571D01*
X132144819Y-125778571D02*
X132097200Y-125921428D01*
X132097200Y-125921428D02*
X132001961Y-126016666D01*
X132001961Y-126016666D02*
X131906723Y-126064285D01*
X131906723Y-126064285D02*
X131716247Y-126111904D01*
X131716247Y-126111904D02*
X131573390Y-126111904D01*
X131573390Y-126111904D02*
X131382914Y-126064285D01*
X131382914Y-126064285D02*
X131287676Y-126016666D01*
X131287676Y-126016666D02*
X131192438Y-125921428D01*
X131192438Y-125921428D02*
X131144819Y-125778571D01*
X131144819Y-125778571D02*
X131144819Y-125683333D01*
X131144819Y-125683333D02*
X131192438Y-125540476D01*
X131192438Y-125540476D02*
X131240057Y-125492857D01*
X132144819Y-124540476D02*
X132144819Y-125111904D01*
X132144819Y-124826190D02*
X131144819Y-124826190D01*
X131144819Y-124826190D02*
X131287676Y-124921428D01*
X131287676Y-124921428D02*
X131382914Y-125016666D01*
X131382914Y-125016666D02*
X131430533Y-125111904D01*
X131144819Y-123921428D02*
X131144819Y-123826190D01*
X131144819Y-123826190D02*
X131192438Y-123730952D01*
X131192438Y-123730952D02*
X131240057Y-123683333D01*
X131240057Y-123683333D02*
X131335295Y-123635714D01*
X131335295Y-123635714D02*
X131525771Y-123588095D01*
X131525771Y-123588095D02*
X131763866Y-123588095D01*
X131763866Y-123588095D02*
X131954342Y-123635714D01*
X131954342Y-123635714D02*
X132049580Y-123683333D01*
X132049580Y-123683333D02*
X132097200Y-123730952D01*
X132097200Y-123730952D02*
X132144819Y-123826190D01*
X132144819Y-123826190D02*
X132144819Y-123921428D01*
X132144819Y-123921428D02*
X132097200Y-124016666D01*
X132097200Y-124016666D02*
X132049580Y-124064285D01*
X132049580Y-124064285D02*
X131954342Y-124111904D01*
X131954342Y-124111904D02*
X131763866Y-124159523D01*
X131763866Y-124159523D02*
X131525771Y-124159523D01*
X131525771Y-124159523D02*
X131335295Y-124111904D01*
X131335295Y-124111904D02*
X131240057Y-124064285D01*
X131240057Y-124064285D02*
X131192438Y-124016666D01*
X131192438Y-124016666D02*
X131144819Y-123921428D01*
X129357142Y-94359580D02*
X129309523Y-94407200D01*
X129309523Y-94407200D02*
X129166666Y-94454819D01*
X129166666Y-94454819D02*
X129071428Y-94454819D01*
X129071428Y-94454819D02*
X128928571Y-94407200D01*
X128928571Y-94407200D02*
X128833333Y-94311961D01*
X128833333Y-94311961D02*
X128785714Y-94216723D01*
X128785714Y-94216723D02*
X128738095Y-94026247D01*
X128738095Y-94026247D02*
X128738095Y-93883390D01*
X128738095Y-93883390D02*
X128785714Y-93692914D01*
X128785714Y-93692914D02*
X128833333Y-93597676D01*
X128833333Y-93597676D02*
X128928571Y-93502438D01*
X128928571Y-93502438D02*
X129071428Y-93454819D01*
X129071428Y-93454819D02*
X129166666Y-93454819D01*
X129166666Y-93454819D02*
X129309523Y-93502438D01*
X129309523Y-93502438D02*
X129357142Y-93550057D01*
X130309523Y-94454819D02*
X129738095Y-94454819D01*
X130023809Y-94454819D02*
X130023809Y-93454819D01*
X130023809Y-93454819D02*
X129928571Y-93597676D01*
X129928571Y-93597676D02*
X129833333Y-93692914D01*
X129833333Y-93692914D02*
X129738095Y-93740533D01*
X131166666Y-93454819D02*
X130976190Y-93454819D01*
X130976190Y-93454819D02*
X130880952Y-93502438D01*
X130880952Y-93502438D02*
X130833333Y-93550057D01*
X130833333Y-93550057D02*
X130738095Y-93692914D01*
X130738095Y-93692914D02*
X130690476Y-93883390D01*
X130690476Y-93883390D02*
X130690476Y-94264342D01*
X130690476Y-94264342D02*
X130738095Y-94359580D01*
X130738095Y-94359580D02*
X130785714Y-94407200D01*
X130785714Y-94407200D02*
X130880952Y-94454819D01*
X130880952Y-94454819D02*
X131071428Y-94454819D01*
X131071428Y-94454819D02*
X131166666Y-94407200D01*
X131166666Y-94407200D02*
X131214285Y-94359580D01*
X131214285Y-94359580D02*
X131261904Y-94264342D01*
X131261904Y-94264342D02*
X131261904Y-94026247D01*
X131261904Y-94026247D02*
X131214285Y-93931009D01*
X131214285Y-93931009D02*
X131166666Y-93883390D01*
X131166666Y-93883390D02*
X131071428Y-93835771D01*
X131071428Y-93835771D02*
X130880952Y-93835771D01*
X130880952Y-93835771D02*
X130785714Y-93883390D01*
X130785714Y-93883390D02*
X130738095Y-93931009D01*
X130738095Y-93931009D02*
X130690476Y-94026247D01*
X121454819Y-73642857D02*
X120978628Y-73976190D01*
X121454819Y-74214285D02*
X120454819Y-74214285D01*
X120454819Y-74214285D02*
X120454819Y-73833333D01*
X120454819Y-73833333D02*
X120502438Y-73738095D01*
X120502438Y-73738095D02*
X120550057Y-73690476D01*
X120550057Y-73690476D02*
X120645295Y-73642857D01*
X120645295Y-73642857D02*
X120788152Y-73642857D01*
X120788152Y-73642857D02*
X120883390Y-73690476D01*
X120883390Y-73690476D02*
X120931009Y-73738095D01*
X120931009Y-73738095D02*
X120978628Y-73833333D01*
X120978628Y-73833333D02*
X120978628Y-74214285D01*
X121454819Y-72690476D02*
X121454819Y-73261904D01*
X121454819Y-72976190D02*
X120454819Y-72976190D01*
X120454819Y-72976190D02*
X120597676Y-73071428D01*
X120597676Y-73071428D02*
X120692914Y-73166666D01*
X120692914Y-73166666D02*
X120740533Y-73261904D01*
X120454819Y-71785714D02*
X120454819Y-72261904D01*
X120454819Y-72261904D02*
X120931009Y-72309523D01*
X120931009Y-72309523D02*
X120883390Y-72261904D01*
X120883390Y-72261904D02*
X120835771Y-72166666D01*
X120835771Y-72166666D02*
X120835771Y-71928571D01*
X120835771Y-71928571D02*
X120883390Y-71833333D01*
X120883390Y-71833333D02*
X120931009Y-71785714D01*
X120931009Y-71785714D02*
X121026247Y-71738095D01*
X121026247Y-71738095D02*
X121264342Y-71738095D01*
X121264342Y-71738095D02*
X121359580Y-71785714D01*
X121359580Y-71785714D02*
X121407200Y-71833333D01*
X121407200Y-71833333D02*
X121454819Y-71928571D01*
X121454819Y-71928571D02*
X121454819Y-72166666D01*
X121454819Y-72166666D02*
X121407200Y-72261904D01*
X121407200Y-72261904D02*
X121359580Y-72309523D01*
X116859580Y-76642857D02*
X116907200Y-76690476D01*
X116907200Y-76690476D02*
X116954819Y-76833333D01*
X116954819Y-76833333D02*
X116954819Y-76928571D01*
X116954819Y-76928571D02*
X116907200Y-77071428D01*
X116907200Y-77071428D02*
X116811961Y-77166666D01*
X116811961Y-77166666D02*
X116716723Y-77214285D01*
X116716723Y-77214285D02*
X116526247Y-77261904D01*
X116526247Y-77261904D02*
X116383390Y-77261904D01*
X116383390Y-77261904D02*
X116192914Y-77214285D01*
X116192914Y-77214285D02*
X116097676Y-77166666D01*
X116097676Y-77166666D02*
X116002438Y-77071428D01*
X116002438Y-77071428D02*
X115954819Y-76928571D01*
X115954819Y-76928571D02*
X115954819Y-76833333D01*
X115954819Y-76833333D02*
X116002438Y-76690476D01*
X116002438Y-76690476D02*
X116050057Y-76642857D01*
X116954819Y-75690476D02*
X116954819Y-76261904D01*
X116954819Y-75976190D02*
X115954819Y-75976190D01*
X115954819Y-75976190D02*
X116097676Y-76071428D01*
X116097676Y-76071428D02*
X116192914Y-76166666D01*
X116192914Y-76166666D02*
X116240533Y-76261904D01*
X116954819Y-75214285D02*
X116954819Y-75023809D01*
X116954819Y-75023809D02*
X116907200Y-74928571D01*
X116907200Y-74928571D02*
X116859580Y-74880952D01*
X116859580Y-74880952D02*
X116716723Y-74785714D01*
X116716723Y-74785714D02*
X116526247Y-74738095D01*
X116526247Y-74738095D02*
X116145295Y-74738095D01*
X116145295Y-74738095D02*
X116050057Y-74785714D01*
X116050057Y-74785714D02*
X116002438Y-74833333D01*
X116002438Y-74833333D02*
X115954819Y-74928571D01*
X115954819Y-74928571D02*
X115954819Y-75119047D01*
X115954819Y-75119047D02*
X116002438Y-75214285D01*
X116002438Y-75214285D02*
X116050057Y-75261904D01*
X116050057Y-75261904D02*
X116145295Y-75309523D01*
X116145295Y-75309523D02*
X116383390Y-75309523D01*
X116383390Y-75309523D02*
X116478628Y-75261904D01*
X116478628Y-75261904D02*
X116526247Y-75214285D01*
X116526247Y-75214285D02*
X116573866Y-75119047D01*
X116573866Y-75119047D02*
X116573866Y-74928571D01*
X116573866Y-74928571D02*
X116526247Y-74833333D01*
X116526247Y-74833333D02*
X116478628Y-74785714D01*
X116478628Y-74785714D02*
X116383390Y-74738095D01*
X152454819Y-121142857D02*
X151978628Y-121476190D01*
X152454819Y-121714285D02*
X151454819Y-121714285D01*
X151454819Y-121714285D02*
X151454819Y-121333333D01*
X151454819Y-121333333D02*
X151502438Y-121238095D01*
X151502438Y-121238095D02*
X151550057Y-121190476D01*
X151550057Y-121190476D02*
X151645295Y-121142857D01*
X151645295Y-121142857D02*
X151788152Y-121142857D01*
X151788152Y-121142857D02*
X151883390Y-121190476D01*
X151883390Y-121190476D02*
X151931009Y-121238095D01*
X151931009Y-121238095D02*
X151978628Y-121333333D01*
X151978628Y-121333333D02*
X151978628Y-121714285D01*
X152454819Y-120190476D02*
X152454819Y-120761904D01*
X152454819Y-120476190D02*
X151454819Y-120476190D01*
X151454819Y-120476190D02*
X151597676Y-120571428D01*
X151597676Y-120571428D02*
X151692914Y-120666666D01*
X151692914Y-120666666D02*
X151740533Y-120761904D01*
X151550057Y-119809523D02*
X151502438Y-119761904D01*
X151502438Y-119761904D02*
X151454819Y-119666666D01*
X151454819Y-119666666D02*
X151454819Y-119428571D01*
X151454819Y-119428571D02*
X151502438Y-119333333D01*
X151502438Y-119333333D02*
X151550057Y-119285714D01*
X151550057Y-119285714D02*
X151645295Y-119238095D01*
X151645295Y-119238095D02*
X151740533Y-119238095D01*
X151740533Y-119238095D02*
X151883390Y-119285714D01*
X151883390Y-119285714D02*
X152454819Y-119857142D01*
X152454819Y-119857142D02*
X152454819Y-119238095D01*
X91166666Y-67764819D02*
X91166666Y-68479104D01*
X91166666Y-68479104D02*
X91119047Y-68621961D01*
X91119047Y-68621961D02*
X91023809Y-68717200D01*
X91023809Y-68717200D02*
X90880952Y-68764819D01*
X90880952Y-68764819D02*
X90785714Y-68764819D01*
X92119047Y-67764819D02*
X91642857Y-67764819D01*
X91642857Y-67764819D02*
X91595238Y-68241009D01*
X91595238Y-68241009D02*
X91642857Y-68193390D01*
X91642857Y-68193390D02*
X91738095Y-68145771D01*
X91738095Y-68145771D02*
X91976190Y-68145771D01*
X91976190Y-68145771D02*
X92071428Y-68193390D01*
X92071428Y-68193390D02*
X92119047Y-68241009D01*
X92119047Y-68241009D02*
X92166666Y-68336247D01*
X92166666Y-68336247D02*
X92166666Y-68574342D01*
X92166666Y-68574342D02*
X92119047Y-68669580D01*
X92119047Y-68669580D02*
X92071428Y-68717200D01*
X92071428Y-68717200D02*
X91976190Y-68764819D01*
X91976190Y-68764819D02*
X91738095Y-68764819D01*
X91738095Y-68764819D02*
X91642857Y-68717200D01*
X91642857Y-68717200D02*
X91595238Y-68669580D01*
X159859580Y-104666666D02*
X159907200Y-104714285D01*
X159907200Y-104714285D02*
X159954819Y-104857142D01*
X159954819Y-104857142D02*
X159954819Y-104952380D01*
X159954819Y-104952380D02*
X159907200Y-105095237D01*
X159907200Y-105095237D02*
X159811961Y-105190475D01*
X159811961Y-105190475D02*
X159716723Y-105238094D01*
X159716723Y-105238094D02*
X159526247Y-105285713D01*
X159526247Y-105285713D02*
X159383390Y-105285713D01*
X159383390Y-105285713D02*
X159192914Y-105238094D01*
X159192914Y-105238094D02*
X159097676Y-105190475D01*
X159097676Y-105190475D02*
X159002438Y-105095237D01*
X159002438Y-105095237D02*
X158954819Y-104952380D01*
X158954819Y-104952380D02*
X158954819Y-104857142D01*
X158954819Y-104857142D02*
X159002438Y-104714285D01*
X159002438Y-104714285D02*
X159050057Y-104666666D01*
X159050057Y-104285713D02*
X159002438Y-104238094D01*
X159002438Y-104238094D02*
X158954819Y-104142856D01*
X158954819Y-104142856D02*
X158954819Y-103904761D01*
X158954819Y-103904761D02*
X159002438Y-103809523D01*
X159002438Y-103809523D02*
X159050057Y-103761904D01*
X159050057Y-103761904D02*
X159145295Y-103714285D01*
X159145295Y-103714285D02*
X159240533Y-103714285D01*
X159240533Y-103714285D02*
X159383390Y-103761904D01*
X159383390Y-103761904D02*
X159954819Y-104333332D01*
X159954819Y-104333332D02*
X159954819Y-103714285D01*
X164357142Y-75109580D02*
X164309523Y-75157200D01*
X164309523Y-75157200D02*
X164166666Y-75204819D01*
X164166666Y-75204819D02*
X164071428Y-75204819D01*
X164071428Y-75204819D02*
X163928571Y-75157200D01*
X163928571Y-75157200D02*
X163833333Y-75061961D01*
X163833333Y-75061961D02*
X163785714Y-74966723D01*
X163785714Y-74966723D02*
X163738095Y-74776247D01*
X163738095Y-74776247D02*
X163738095Y-74633390D01*
X163738095Y-74633390D02*
X163785714Y-74442914D01*
X163785714Y-74442914D02*
X163833333Y-74347676D01*
X163833333Y-74347676D02*
X163928571Y-74252438D01*
X163928571Y-74252438D02*
X164071428Y-74204819D01*
X164071428Y-74204819D02*
X164166666Y-74204819D01*
X164166666Y-74204819D02*
X164309523Y-74252438D01*
X164309523Y-74252438D02*
X164357142Y-74300057D01*
X164738095Y-74300057D02*
X164785714Y-74252438D01*
X164785714Y-74252438D02*
X164880952Y-74204819D01*
X164880952Y-74204819D02*
X165119047Y-74204819D01*
X165119047Y-74204819D02*
X165214285Y-74252438D01*
X165214285Y-74252438D02*
X165261904Y-74300057D01*
X165261904Y-74300057D02*
X165309523Y-74395295D01*
X165309523Y-74395295D02*
X165309523Y-74490533D01*
X165309523Y-74490533D02*
X165261904Y-74633390D01*
X165261904Y-74633390D02*
X164690476Y-75204819D01*
X164690476Y-75204819D02*
X165309523Y-75204819D01*
X166166666Y-74204819D02*
X165976190Y-74204819D01*
X165976190Y-74204819D02*
X165880952Y-74252438D01*
X165880952Y-74252438D02*
X165833333Y-74300057D01*
X165833333Y-74300057D02*
X165738095Y-74442914D01*
X165738095Y-74442914D02*
X165690476Y-74633390D01*
X165690476Y-74633390D02*
X165690476Y-75014342D01*
X165690476Y-75014342D02*
X165738095Y-75109580D01*
X165738095Y-75109580D02*
X165785714Y-75157200D01*
X165785714Y-75157200D02*
X165880952Y-75204819D01*
X165880952Y-75204819D02*
X166071428Y-75204819D01*
X166071428Y-75204819D02*
X166166666Y-75157200D01*
X166166666Y-75157200D02*
X166214285Y-75109580D01*
X166214285Y-75109580D02*
X166261904Y-75014342D01*
X166261904Y-75014342D02*
X166261904Y-74776247D01*
X166261904Y-74776247D02*
X166214285Y-74681009D01*
X166214285Y-74681009D02*
X166166666Y-74633390D01*
X166166666Y-74633390D02*
X166071428Y-74585771D01*
X166071428Y-74585771D02*
X165880952Y-74585771D01*
X165880952Y-74585771D02*
X165785714Y-74633390D01*
X165785714Y-74633390D02*
X165738095Y-74681009D01*
X165738095Y-74681009D02*
X165690476Y-74776247D01*
X155333333Y-73454819D02*
X155000000Y-72978628D01*
X154761905Y-73454819D02*
X154761905Y-72454819D01*
X154761905Y-72454819D02*
X155142857Y-72454819D01*
X155142857Y-72454819D02*
X155238095Y-72502438D01*
X155238095Y-72502438D02*
X155285714Y-72550057D01*
X155285714Y-72550057D02*
X155333333Y-72645295D01*
X155333333Y-72645295D02*
X155333333Y-72788152D01*
X155333333Y-72788152D02*
X155285714Y-72883390D01*
X155285714Y-72883390D02*
X155238095Y-72931009D01*
X155238095Y-72931009D02*
X155142857Y-72978628D01*
X155142857Y-72978628D02*
X154761905Y-72978628D01*
X155714286Y-72550057D02*
X155761905Y-72502438D01*
X155761905Y-72502438D02*
X155857143Y-72454819D01*
X155857143Y-72454819D02*
X156095238Y-72454819D01*
X156095238Y-72454819D02*
X156190476Y-72502438D01*
X156190476Y-72502438D02*
X156238095Y-72550057D01*
X156238095Y-72550057D02*
X156285714Y-72645295D01*
X156285714Y-72645295D02*
X156285714Y-72740533D01*
X156285714Y-72740533D02*
X156238095Y-72883390D01*
X156238095Y-72883390D02*
X155666667Y-73454819D01*
X155666667Y-73454819D02*
X156285714Y-73454819D01*
X125049580Y-125492857D02*
X125097200Y-125540476D01*
X125097200Y-125540476D02*
X125144819Y-125683333D01*
X125144819Y-125683333D02*
X125144819Y-125778571D01*
X125144819Y-125778571D02*
X125097200Y-125921428D01*
X125097200Y-125921428D02*
X125001961Y-126016666D01*
X125001961Y-126016666D02*
X124906723Y-126064285D01*
X124906723Y-126064285D02*
X124716247Y-126111904D01*
X124716247Y-126111904D02*
X124573390Y-126111904D01*
X124573390Y-126111904D02*
X124382914Y-126064285D01*
X124382914Y-126064285D02*
X124287676Y-126016666D01*
X124287676Y-126016666D02*
X124192438Y-125921428D01*
X124192438Y-125921428D02*
X124144819Y-125778571D01*
X124144819Y-125778571D02*
X124144819Y-125683333D01*
X124144819Y-125683333D02*
X124192438Y-125540476D01*
X124192438Y-125540476D02*
X124240057Y-125492857D01*
X125144819Y-124540476D02*
X125144819Y-125111904D01*
X125144819Y-124826190D02*
X124144819Y-124826190D01*
X124144819Y-124826190D02*
X124287676Y-124921428D01*
X124287676Y-124921428D02*
X124382914Y-125016666D01*
X124382914Y-125016666D02*
X124430533Y-125111904D01*
X124240057Y-124159523D02*
X124192438Y-124111904D01*
X124192438Y-124111904D02*
X124144819Y-124016666D01*
X124144819Y-124016666D02*
X124144819Y-123778571D01*
X124144819Y-123778571D02*
X124192438Y-123683333D01*
X124192438Y-123683333D02*
X124240057Y-123635714D01*
X124240057Y-123635714D02*
X124335295Y-123588095D01*
X124335295Y-123588095D02*
X124430533Y-123588095D01*
X124430533Y-123588095D02*
X124573390Y-123635714D01*
X124573390Y-123635714D02*
X125144819Y-124207142D01*
X125144819Y-124207142D02*
X125144819Y-123588095D01*
X134857142Y-87859580D02*
X134809523Y-87907200D01*
X134809523Y-87907200D02*
X134666666Y-87954819D01*
X134666666Y-87954819D02*
X134571428Y-87954819D01*
X134571428Y-87954819D02*
X134428571Y-87907200D01*
X134428571Y-87907200D02*
X134333333Y-87811961D01*
X134333333Y-87811961D02*
X134285714Y-87716723D01*
X134285714Y-87716723D02*
X134238095Y-87526247D01*
X134238095Y-87526247D02*
X134238095Y-87383390D01*
X134238095Y-87383390D02*
X134285714Y-87192914D01*
X134285714Y-87192914D02*
X134333333Y-87097676D01*
X134333333Y-87097676D02*
X134428571Y-87002438D01*
X134428571Y-87002438D02*
X134571428Y-86954819D01*
X134571428Y-86954819D02*
X134666666Y-86954819D01*
X134666666Y-86954819D02*
X134809523Y-87002438D01*
X134809523Y-87002438D02*
X134857142Y-87050057D01*
X135238095Y-87050057D02*
X135285714Y-87002438D01*
X135285714Y-87002438D02*
X135380952Y-86954819D01*
X135380952Y-86954819D02*
X135619047Y-86954819D01*
X135619047Y-86954819D02*
X135714285Y-87002438D01*
X135714285Y-87002438D02*
X135761904Y-87050057D01*
X135761904Y-87050057D02*
X135809523Y-87145295D01*
X135809523Y-87145295D02*
X135809523Y-87240533D01*
X135809523Y-87240533D02*
X135761904Y-87383390D01*
X135761904Y-87383390D02*
X135190476Y-87954819D01*
X135190476Y-87954819D02*
X135809523Y-87954819D01*
X136380952Y-87383390D02*
X136285714Y-87335771D01*
X136285714Y-87335771D02*
X136238095Y-87288152D01*
X136238095Y-87288152D02*
X136190476Y-87192914D01*
X136190476Y-87192914D02*
X136190476Y-87145295D01*
X136190476Y-87145295D02*
X136238095Y-87050057D01*
X136238095Y-87050057D02*
X136285714Y-87002438D01*
X136285714Y-87002438D02*
X136380952Y-86954819D01*
X136380952Y-86954819D02*
X136571428Y-86954819D01*
X136571428Y-86954819D02*
X136666666Y-87002438D01*
X136666666Y-87002438D02*
X136714285Y-87050057D01*
X136714285Y-87050057D02*
X136761904Y-87145295D01*
X136761904Y-87145295D02*
X136761904Y-87192914D01*
X136761904Y-87192914D02*
X136714285Y-87288152D01*
X136714285Y-87288152D02*
X136666666Y-87335771D01*
X136666666Y-87335771D02*
X136571428Y-87383390D01*
X136571428Y-87383390D02*
X136380952Y-87383390D01*
X136380952Y-87383390D02*
X136285714Y-87431009D01*
X136285714Y-87431009D02*
X136238095Y-87478628D01*
X136238095Y-87478628D02*
X136190476Y-87573866D01*
X136190476Y-87573866D02*
X136190476Y-87764342D01*
X136190476Y-87764342D02*
X136238095Y-87859580D01*
X136238095Y-87859580D02*
X136285714Y-87907200D01*
X136285714Y-87907200D02*
X136380952Y-87954819D01*
X136380952Y-87954819D02*
X136571428Y-87954819D01*
X136571428Y-87954819D02*
X136666666Y-87907200D01*
X136666666Y-87907200D02*
X136714285Y-87859580D01*
X136714285Y-87859580D02*
X136761904Y-87764342D01*
X136761904Y-87764342D02*
X136761904Y-87573866D01*
X136761904Y-87573866D02*
X136714285Y-87478628D01*
X136714285Y-87478628D02*
X136666666Y-87431009D01*
X136666666Y-87431009D02*
X136571428Y-87383390D01*
X128738095Y-78954819D02*
X128738095Y-79764342D01*
X128738095Y-79764342D02*
X128785714Y-79859580D01*
X128785714Y-79859580D02*
X128833333Y-79907200D01*
X128833333Y-79907200D02*
X128928571Y-79954819D01*
X128928571Y-79954819D02*
X129119047Y-79954819D01*
X129119047Y-79954819D02*
X129214285Y-79907200D01*
X129214285Y-79907200D02*
X129261904Y-79859580D01*
X129261904Y-79859580D02*
X129309523Y-79764342D01*
X129309523Y-79764342D02*
X129309523Y-78954819D01*
X130261904Y-78954819D02*
X129785714Y-78954819D01*
X129785714Y-78954819D02*
X129738095Y-79431009D01*
X129738095Y-79431009D02*
X129785714Y-79383390D01*
X129785714Y-79383390D02*
X129880952Y-79335771D01*
X129880952Y-79335771D02*
X130119047Y-79335771D01*
X130119047Y-79335771D02*
X130214285Y-79383390D01*
X130214285Y-79383390D02*
X130261904Y-79431009D01*
X130261904Y-79431009D02*
X130309523Y-79526247D01*
X130309523Y-79526247D02*
X130309523Y-79764342D01*
X130309523Y-79764342D02*
X130261904Y-79859580D01*
X130261904Y-79859580D02*
X130214285Y-79907200D01*
X130214285Y-79907200D02*
X130119047Y-79954819D01*
X130119047Y-79954819D02*
X129880952Y-79954819D01*
X129880952Y-79954819D02*
X129785714Y-79907200D01*
X129785714Y-79907200D02*
X129738095Y-79859580D01*
X126250000Y-72954819D02*
X126250000Y-73192914D01*
X126011905Y-73097676D02*
X126250000Y-73192914D01*
X126250000Y-73192914D02*
X126488095Y-73097676D01*
X126107143Y-73383390D02*
X126250000Y-73192914D01*
X126250000Y-73192914D02*
X126392857Y-73383390D01*
X128250000Y-78454819D02*
X128250000Y-78692914D01*
X128011905Y-78597676D02*
X128250000Y-78692914D01*
X128250000Y-78692914D02*
X128488095Y-78597676D01*
X128107143Y-78883390D02*
X128250000Y-78692914D01*
X128250000Y-78692914D02*
X128392857Y-78883390D01*
%TO.C,R14*%
D12*
X119120000Y-76153641D02*
X119120000Y-75846359D01*
X119880000Y-76153641D02*
X119880000Y-75846359D01*
%TO.C,C29*%
X138607836Y-85140000D02*
X138392164Y-85140000D01*
X138607836Y-85860000D02*
X138392164Y-85860000D01*
%TO.C,C11*%
X127830000Y-129561252D02*
X127830000Y-128138748D01*
X130550000Y-129561252D02*
X130550000Y-128138748D01*
%TO.C,R27*%
X174262742Y-90977500D02*
X174737258Y-90977500D01*
X174262742Y-92022500D02*
X174737258Y-92022500D01*
%TO.C,R22*%
X168120000Y-73153641D02*
X168120000Y-72846359D01*
X168880000Y-73153641D02*
X168880000Y-72846359D01*
%TO.C,D6*%
X167140000Y-88500000D02*
X167140000Y-90500000D01*
X167140000Y-88500000D02*
X171150000Y-88500000D01*
X167140000Y-90500000D02*
X171150000Y-90500000D01*
%TO.C,C13*%
X120830000Y-129561252D02*
X120830000Y-128138748D01*
X123550000Y-129561252D02*
X123550000Y-128138748D01*
%TO.C,D3*%
X120850000Y-101010000D02*
X120850000Y-95500000D01*
X120850000Y-101010000D02*
X124150000Y-101010000D01*
X124150000Y-101010000D02*
X124150000Y-95500000D01*
%TO.C,C31*%
X134640000Y-114172164D02*
X134640000Y-114387836D01*
X135360000Y-114172164D02*
X135360000Y-114387836D01*
%TO.C,C1*%
X169912164Y-117140000D02*
X170127836Y-117140000D01*
X169912164Y-117860000D02*
X170127836Y-117860000D01*
%TO.C,R33*%
X153653641Y-124620000D02*
X153346359Y-124620000D01*
X153653641Y-125380000D02*
X153346359Y-125380000D01*
%TO.C,U2*%
D13*
X162300000Y-105450000D02*
X162700000Y-105450000D01*
X162300000Y-106850000D02*
X162700000Y-106850000D01*
X163700000Y-105450000D02*
X164100000Y-105450000D01*
X163700000Y-106850000D02*
X164100000Y-106850000D01*
D14*
X162675200Y-107248090D02*
G75*
G02*
X162515200Y-107248090I-80000J0D01*
G01*
X162515200Y-107248090D02*
G75*
G02*
X162675200Y-107248090I80000J0D01*
G01*
%TO.C,U7*%
D12*
X138690000Y-108050000D02*
X138690000Y-108320000D01*
X138690000Y-114950000D02*
X138690000Y-114680000D01*
X145110000Y-108050000D02*
X138690000Y-108050000D01*
X145110000Y-114950000D02*
X138690000Y-114950000D01*
X136960000Y-108360000D02*
X136620000Y-107890000D01*
X137300000Y-107890000D01*
X136960000Y-108360000D01*
G36*
X136960000Y-108360000D02*
G01*
X136620000Y-107890000D01*
X137300000Y-107890000D01*
X136960000Y-108360000D01*
G37*
%TO.C,C23*%
X122607836Y-105140000D02*
X122392164Y-105140000D01*
X122607836Y-105860000D02*
X122392164Y-105860000D01*
%TO.C,C7*%
X149130000Y-133089420D02*
X149130000Y-133370580D01*
X150150000Y-133089420D02*
X150150000Y-133370580D01*
%TO.C,F5*%
X90090000Y-90397936D02*
X90090000Y-91602064D01*
X91910000Y-90397936D02*
X91910000Y-91602064D01*
%TO.C,C14*%
X144990000Y-96859420D02*
X144990000Y-97140580D01*
X146010000Y-96859420D02*
X146010000Y-97140580D01*
%TO.C,R9*%
X148620000Y-84846359D02*
X148620000Y-85153641D01*
X149380000Y-84846359D02*
X149380000Y-85153641D01*
%TO.C,R24*%
X137620000Y-80846359D02*
X137620000Y-81153641D01*
X138380000Y-80846359D02*
X138380000Y-81153641D01*
%TO.C,K1*%
X100182500Y-85217500D02*
X100182500Y-101017500D01*
X100182500Y-101017500D02*
X119582500Y-101017500D01*
X103782500Y-88717500D02*
X103782500Y-89917500D01*
X103782500Y-89917500D02*
X107982500Y-89917500D01*
X107982500Y-89917500D02*
X107982500Y-91117500D01*
X109582500Y-93117500D02*
X107782500Y-94917500D01*
X109582500Y-93117500D02*
X110682500Y-93117500D01*
X111082500Y-91367500D02*
X111082500Y-95167500D01*
X111082500Y-93567500D02*
X113082500Y-92567500D01*
X111082500Y-95167500D02*
X113082500Y-95167500D01*
X112082500Y-87117500D02*
X114582500Y-87117500D01*
X112082500Y-91367500D02*
X112082500Y-87117500D01*
X112082500Y-95167500D02*
X112082500Y-99117500D01*
X112082500Y-99117500D02*
X114582500Y-99117500D01*
X113082500Y-91367500D02*
X111082500Y-91367500D01*
X113082500Y-95167500D02*
X113082500Y-91367500D01*
X116382500Y-93117500D02*
X113582500Y-93117500D01*
X119582500Y-85217500D02*
X100182500Y-85217500D01*
X119582500Y-101017500D02*
X119582500Y-85217500D01*
X119982500Y-84817500D02*
X117782500Y-84817500D01*
X119982500Y-87017500D02*
X119982500Y-84817500D01*
%TO.C,F1*%
X162290000Y-130386252D02*
X162290000Y-127613748D01*
X165710000Y-130386252D02*
X165710000Y-127613748D01*
%TO.C,R8*%
X148653641Y-86120000D02*
X148346359Y-86120000D01*
X148653641Y-86880000D02*
X148346359Y-86880000D01*
%TO.C,C22*%
X122607836Y-88140000D02*
X122392164Y-88140000D01*
X122607836Y-88860000D02*
X122392164Y-88860000D01*
%TO.C,U3*%
X133850000Y-94770000D02*
X140270000Y-94770000D01*
X133850000Y-101670000D02*
X140270000Y-101670000D01*
X140270000Y-94770000D02*
X140270000Y-95040000D01*
X140270000Y-101670000D02*
X140270000Y-101400000D01*
X142340000Y-101830000D02*
X141660000Y-101830000D01*
X142000000Y-101360000D01*
X142340000Y-101830000D01*
G36*
X142340000Y-101830000D02*
G01*
X141660000Y-101830000D01*
X142000000Y-101360000D01*
X142340000Y-101830000D01*
G37*
%TO.C,R5*%
X156346359Y-91120000D02*
X156653641Y-91120000D01*
X156346359Y-91880000D02*
X156653641Y-91880000D01*
%TO.C,R30*%
X152346359Y-77120000D02*
X152653641Y-77120000D01*
X152346359Y-77880000D02*
X152653641Y-77880000D01*
%TO.C,R32*%
X160620000Y-107346359D02*
X160620000Y-107653641D01*
X161380000Y-107346359D02*
X161380000Y-107653641D01*
%TO.C,C25*%
X130285000Y-70415580D02*
X130285000Y-70134420D01*
X131305000Y-70415580D02*
X131305000Y-70134420D01*
%TO.C,R10*%
X151153641Y-126120000D02*
X150846359Y-126120000D01*
X151153641Y-126880000D02*
X150846359Y-126880000D01*
%TO.C,R28*%
X161653641Y-102620000D02*
X161346359Y-102620000D01*
X161653641Y-103380000D02*
X161346359Y-103380000D01*
%TO.C,R21*%
X167120000Y-72846359D02*
X167120000Y-73153641D01*
X167880000Y-72846359D02*
X167880000Y-73153641D01*
%TO.C,J1*%
X85100000Y-95700000D02*
X97600000Y-95700000D01*
X85100000Y-108360000D02*
X85100000Y-95700000D01*
X97600000Y-95700000D02*
X97600000Y-108360000D01*
X97600000Y-108360000D02*
X85100000Y-108360000D01*
X97850000Y-95450000D02*
X96850000Y-95450000D01*
X97850000Y-95450000D02*
X97850000Y-96500000D01*
X97598738Y-105420000D02*
X98098738Y-105420000D01*
X98098738Y-106820000D01*
X97598738Y-106820000D01*
X97598738Y-105420000D01*
X97600000Y-97830000D02*
X98100000Y-97830000D01*
X98100000Y-99230000D01*
X97600000Y-99230000D01*
X97600000Y-97830000D01*
X97600000Y-100370000D02*
X98100000Y-100370000D01*
X98100000Y-101770000D01*
X97600000Y-101770000D01*
X97600000Y-100370000D01*
X97600000Y-102910000D02*
X98100000Y-102910000D01*
X98100000Y-104310000D01*
X97600000Y-104310000D01*
X97600000Y-102910000D01*
%TO.C,U6*%
X135000000Y-78475000D02*
X135000000Y-79275000D01*
X135000000Y-79275000D02*
X135800000Y-79275000D01*
X135200000Y-66575000D02*
X148400000Y-66575000D01*
X135200000Y-79075000D02*
X135200000Y-66575000D01*
X135875000Y-66375000D02*
X135025000Y-66375000D01*
X147825000Y-66375000D02*
X148575000Y-66375000D01*
X148400000Y-66575000D02*
X148400000Y-79075000D01*
X148400000Y-79075000D02*
X135200000Y-79075000D01*
X148600000Y-66375000D02*
X148600000Y-66975000D01*
X148600000Y-78475000D02*
X148600000Y-79275000D01*
X148600000Y-79275000D02*
X147800000Y-79275000D01*
%TO.C,R6*%
X149620000Y-84846359D02*
X149620000Y-85153641D01*
X150380000Y-84846359D02*
X150380000Y-85153641D01*
%TO.C,R25*%
X167120000Y-87153641D02*
X167120000Y-86846359D01*
X167880000Y-87153641D02*
X167880000Y-86846359D01*
%TO.C,K2*%
X100182500Y-102217500D02*
X100182500Y-118017500D01*
X100182500Y-118017500D02*
X119582500Y-118017500D01*
X103782500Y-105717500D02*
X103782500Y-106917500D01*
X103782500Y-106917500D02*
X107982500Y-106917500D01*
X107982500Y-106917500D02*
X107982500Y-108117500D01*
X109582500Y-110117500D02*
X107782500Y-111917500D01*
X109582500Y-110117500D02*
X110682500Y-110117500D01*
X111082500Y-108367500D02*
X111082500Y-112167500D01*
X111082500Y-110567500D02*
X113082500Y-109567500D01*
X111082500Y-112167500D02*
X113082500Y-112167500D01*
X112082500Y-104117500D02*
X114582500Y-104117500D01*
X112082500Y-108367500D02*
X112082500Y-104117500D01*
X112082500Y-112167500D02*
X112082500Y-116117500D01*
X112082500Y-116117500D02*
X114582500Y-116117500D01*
X113082500Y-108367500D02*
X111082500Y-108367500D01*
X113082500Y-112167500D02*
X113082500Y-108367500D01*
X116382500Y-110117500D02*
X113582500Y-110117500D01*
X119582500Y-102217500D02*
X100182500Y-102217500D01*
X119582500Y-118017500D02*
X119582500Y-102217500D01*
X119982500Y-101817500D02*
X117782500Y-101817500D01*
X119982500Y-104017500D02*
X119982500Y-101817500D01*
%TO.C,P1*%
D15*
X168680000Y-132999500D02*
X168680000Y-131574500D01*
X168680000Y-136774500D02*
X168680000Y-135349500D01*
X168680000Y-136774500D02*
X177320000Y-136774500D01*
X177320000Y-132999500D02*
X177320000Y-131574500D01*
X177320000Y-136774500D02*
X177320000Y-135349500D01*
%TO.C,R4*%
D12*
X142120000Y-84846359D02*
X142120000Y-85153641D01*
X142880000Y-84846359D02*
X142880000Y-85153641D01*
%TO.C,R20*%
X122653641Y-104120000D02*
X122346359Y-104120000D01*
X122653641Y-104880000D02*
X122346359Y-104880000D01*
%TO.C,C27*%
X168107836Y-75140000D02*
X167892164Y-75140000D01*
X168107836Y-75860000D02*
X167892164Y-75860000D01*
%TO.C,F4*%
X94090000Y-90397936D02*
X94090000Y-91602064D01*
X95910000Y-90397936D02*
X95910000Y-91602064D01*
%TO.C,D5*%
X169000000Y-92750000D02*
X169000000Y-98250000D01*
X169000000Y-92750000D02*
X176000000Y-92750000D01*
X169000000Y-98250000D02*
X175550000Y-98250000D01*
X169800000Y-96400000D02*
X169800000Y-94600000D01*
X175200000Y-96400000D02*
X175200000Y-94600000D01*
X175550000Y-98250000D02*
X176000000Y-97800000D01*
X176000000Y-97800000D02*
X176000000Y-92750000D01*
%TO.C,F2*%
X89365000Y-114402631D02*
X89365000Y-116597369D01*
X91635000Y-114402631D02*
X91635000Y-116597369D01*
%TO.C,C18*%
X129990000Y-74087836D02*
X129990000Y-73872164D01*
X130710000Y-74087836D02*
X130710000Y-73872164D01*
%TO.C,C9*%
X134830000Y-129561252D02*
X134830000Y-128138748D01*
X137550000Y-129561252D02*
X137550000Y-128138748D01*
%TO.C,U1*%
D13*
X169620000Y-118550000D02*
X171620000Y-118550000D01*
X169620000Y-120550000D02*
X171620000Y-120550000D01*
D16*
X168933710Y-118686070D02*
G75*
G02*
X168733710Y-118686070I-100000J0D01*
G01*
X168733710Y-118686070D02*
G75*
G02*
X168933710Y-118686070I100000J0D01*
G01*
%TO.C,L1*%
D12*
X139490000Y-128590000D02*
X146510000Y-128590000D01*
X139490000Y-129990000D02*
X139490000Y-128590000D01*
X139490000Y-135410000D02*
X139490000Y-134010000D01*
X146510000Y-128590000D02*
X146510000Y-129990000D01*
X146510000Y-134010000D02*
X146510000Y-135410000D01*
X146510000Y-135410000D02*
X139490000Y-135410000D01*
%TO.C,R7*%
X152620000Y-126653641D02*
X152620000Y-126346359D01*
X153380000Y-126653641D02*
X153380000Y-126346359D01*
%TO.C,C6*%
X148640000Y-127107836D02*
X148640000Y-126892164D01*
X149360000Y-127107836D02*
X149360000Y-126892164D01*
%TO.C,R29*%
X152346359Y-75120000D02*
X152653641Y-75120000D01*
X152346359Y-75880000D02*
X152653641Y-75880000D01*
%TO.C,C3*%
X158265000Y-130761252D02*
X158265000Y-130238748D01*
X159735000Y-130761252D02*
X159735000Y-130238748D01*
%TO.C,R26*%
X170653641Y-91620000D02*
X170346359Y-91620000D01*
X170653641Y-92380000D02*
X170346359Y-92380000D01*
%TO.C,C5*%
X153990000Y-130640580D02*
X153990000Y-130359420D01*
X155010000Y-130640580D02*
X155010000Y-130359420D01*
%TO.C,Q1*%
D17*
X121037000Y-91006000D02*
X121037000Y-92149000D01*
X121545000Y-92149000D02*
X121037000Y-92149000D01*
X122561000Y-89863000D02*
X122434000Y-89863000D01*
X123958000Y-91006000D02*
X123958000Y-92149000D01*
X123958000Y-92149000D02*
X123450000Y-92149000D01*
%TO.C,C4*%
D12*
X156265000Y-130761252D02*
X156265000Y-130238748D01*
X157735000Y-130761252D02*
X157735000Y-130238748D01*
%TO.C,C32*%
X141392164Y-106640000D02*
X141607836Y-106640000D01*
X141392164Y-107360000D02*
X141607836Y-107360000D01*
%TO.C,Y1*%
X136825000Y-82625000D02*
X138175000Y-82625000D01*
X136825000Y-84375000D02*
X138175000Y-84375000D01*
%TO.C,R19*%
X122346359Y-103120000D02*
X122653641Y-103120000D01*
X122346359Y-103880000D02*
X122653641Y-103880000D01*
%TO.C,R11*%
X148846359Y-123120000D02*
X149153641Y-123120000D01*
X148846359Y-123880000D02*
X149153641Y-123880000D01*
%TO.C,C17*%
X133859420Y-91990000D02*
X134140580Y-91990000D01*
X133859420Y-93010000D02*
X134140580Y-93010000D01*
%TO.C,R31*%
X152346359Y-76120000D02*
X152653641Y-76120000D01*
X152346359Y-76880000D02*
X152653641Y-76880000D01*
%TO.C,Reset1*%
X169350000Y-71900000D02*
X169740000Y-71900000D01*
X169350000Y-76100000D02*
X169350000Y-71900000D01*
X169740000Y-76100000D02*
X169350000Y-76100000D01*
X172260000Y-76100000D02*
X172650000Y-76100000D01*
X172650000Y-71900000D02*
X172260000Y-71900000D01*
X172650000Y-76100000D02*
X172650000Y-71900000D01*
%TO.C,C8*%
X150892164Y-125140000D02*
X151107836Y-125140000D01*
X150892164Y-125860000D02*
X151107836Y-125860000D01*
%TO.C,D2*%
X123000000Y-74640000D02*
X123000000Y-78650000D01*
X125000000Y-74640000D02*
X123000000Y-74640000D01*
X125000000Y-74640000D02*
X125000000Y-78650000D01*
%TO.C,J3*%
X109540000Y-66620000D02*
X109540000Y-69380000D01*
X119810000Y-66620000D02*
X109540000Y-66620000D01*
X119810000Y-66620000D02*
X119810000Y-69380000D01*
X119810000Y-69380000D02*
X109540000Y-69380000D01*
X121080000Y-66620000D02*
X122460000Y-66620000D01*
X122460000Y-66620000D02*
X122460000Y-68000000D01*
%TO.C,R17*%
X122336359Y-86120000D02*
X122643641Y-86120000D01*
X122336359Y-86880000D02*
X122643641Y-86880000D01*
%TO.C,C30*%
X132990000Y-114639420D02*
X132990000Y-114920580D01*
X134010000Y-114639420D02*
X134010000Y-114920580D01*
%TO.C,J2*%
X169940000Y-81750000D02*
X170550000Y-81750000D01*
X169940000Y-83050000D02*
X170550000Y-83050000D01*
X170550000Y-80250000D02*
X170550000Y-83750000D01*
X170550000Y-83750000D02*
X172500000Y-83750000D01*
X172500000Y-83750000D02*
X172500000Y-84360000D01*
X172900000Y-80750000D02*
X172900000Y-80250000D01*
X173000000Y-80250000D02*
X173000000Y-80750000D01*
X173100000Y-80250000D02*
X173100000Y-80750000D01*
X173100000Y-80750000D02*
X172900000Y-80750000D01*
X173500000Y-83750000D02*
X175450000Y-83750000D01*
X173500000Y-84360000D02*
X173500000Y-83750000D01*
X174300000Y-84360000D02*
X174300000Y-84560000D01*
X174300000Y-84460000D02*
X174600000Y-84460000D01*
X174300000Y-84560000D02*
X174600000Y-84560000D01*
X174600000Y-84560000D02*
X174600000Y-84360000D01*
X175110000Y-84660000D02*
X176360000Y-84660000D01*
X175450000Y-80250000D02*
X170550000Y-80250000D01*
X175450000Y-83750000D02*
X175450000Y-80250000D01*
X176060000Y-81750000D02*
X175450000Y-81750000D01*
X176060000Y-83050000D02*
X175450000Y-83050000D01*
X176360000Y-84660000D02*
X176360000Y-83410000D01*
X169940000Y-79640000D02*
X176060000Y-79640000D01*
X176060000Y-84360000D01*
X169940000Y-84360000D01*
X169940000Y-79640000D01*
%TO.C,R1*%
X173346359Y-117120000D02*
X173653641Y-117120000D01*
X173346359Y-117880000D02*
X173653641Y-117880000D01*
%TO.C,C24*%
X131935000Y-69882836D02*
X131935000Y-69667164D01*
X132655000Y-69882836D02*
X132655000Y-69667164D01*
%TO.C,C21*%
X131892164Y-73140000D02*
X132107836Y-73140000D01*
X131892164Y-73860000D02*
X132107836Y-73860000D01*
%TO.C,R23*%
X136620000Y-80846359D02*
X136620000Y-81153641D01*
X137380000Y-80846359D02*
X137380000Y-81153641D01*
%TO.C,U4*%
D11*
X149190002Y-131460000D02*
X149190002Y-131580000D01*
X149190002Y-131580000D02*
X149310002Y-131580000D01*
X149200002Y-128280002D02*
X149200002Y-128400002D01*
X149200002Y-128280002D02*
X149320002Y-128280002D01*
X152200001Y-128280002D02*
X152500000Y-128280002D01*
X152375002Y-131580000D02*
X152495002Y-131580000D01*
X152500000Y-128280002D02*
X152500000Y-128400002D01*
X152500000Y-131460000D02*
X152500000Y-131580000D01*
D18*
X151725003Y-127680000D02*
G75*
G02*
X151475001Y-127680000I-125001J0D01*
G01*
X151475001Y-127680000D02*
G75*
G02*
X151725003Y-127680000I125001J0D01*
G01*
%TO.C,J4*%
D12*
X151310000Y-69380000D02*
X151310000Y-68000000D01*
X152690000Y-69380000D02*
X151310000Y-69380000D01*
X153960000Y-66620000D02*
X161690000Y-66620000D01*
X153960000Y-69380000D02*
X153960000Y-66620000D01*
X153960000Y-69380000D02*
X161690000Y-69380000D01*
X161690000Y-69380000D02*
X161690000Y-66620000D01*
%TO.C,R16*%
X132150000Y-74926359D02*
X132150000Y-75233641D01*
X132910000Y-74926359D02*
X132910000Y-75233641D01*
%TO.C,R18*%
X122653641Y-87120000D02*
X122346359Y-87120000D01*
X122653641Y-87880000D02*
X122346359Y-87880000D01*
%TO.C,D4*%
X120850000Y-118010000D02*
X120850000Y-112500000D01*
X120850000Y-118010000D02*
X124150000Y-118010000D01*
X124150000Y-118010000D02*
X124150000Y-112500000D01*
%TO.C,C33*%
X139140580Y-106490000D02*
X138859420Y-106490000D01*
X139140580Y-107510000D02*
X138859420Y-107510000D01*
%TO.C,R13*%
X150120000Y-124153641D02*
X150120000Y-123846359D01*
X150880000Y-124153641D02*
X150880000Y-123846359D01*
%TO.C,Q2*%
D17*
X121037000Y-108006000D02*
X121037000Y-109149000D01*
X121545000Y-109149000D02*
X121037000Y-109149000D01*
X122561000Y-106863000D02*
X122434000Y-106863000D01*
X123958000Y-108006000D02*
X123958000Y-109149000D01*
X123958000Y-109149000D02*
X123450000Y-109149000D01*
%TO.C,R3*%
D12*
X141120000Y-84846359D02*
X141120000Y-85153641D01*
X141880000Y-84846359D02*
X141880000Y-85153641D01*
%TO.C,Boot_key1*%
X173350000Y-71900000D02*
X173350000Y-76100000D01*
X173350000Y-76100000D02*
X173740000Y-76100000D01*
X173740000Y-71900000D02*
X173350000Y-71900000D01*
X176260000Y-71900000D02*
X176650000Y-71900000D01*
X176650000Y-71900000D02*
X176650000Y-76100000D01*
X176650000Y-76100000D02*
X176260000Y-76100000D01*
%TO.C,C20*%
X121140000Y-75892164D02*
X121140000Y-76107836D01*
X121860000Y-75892164D02*
X121860000Y-76107836D01*
%TO.C,C15*%
X143640000Y-96892164D02*
X143640000Y-97107836D01*
X144360000Y-96892164D02*
X144360000Y-97107836D01*
%TO.C,C10*%
X131330000Y-129561252D02*
X131330000Y-128138748D01*
X134050000Y-129561252D02*
X134050000Y-128138748D01*
%TO.C,C16*%
X133392164Y-93640000D02*
X133607836Y-93640000D01*
X133392164Y-94360000D02*
X133607836Y-94360000D01*
%TO.C,R15*%
X120120000Y-75846359D02*
X120120000Y-76153641D01*
X120880000Y-75846359D02*
X120880000Y-76153641D01*
%TO.C,C19*%
X117640000Y-76107836D02*
X117640000Y-75892164D01*
X118360000Y-76107836D02*
X118360000Y-75892164D01*
%TO.C,R12*%
X151120000Y-123846359D02*
X151120000Y-124153641D01*
X151880000Y-123846359D02*
X151880000Y-124153641D01*
%TO.C,J5*%
X90120000Y-69310000D02*
X91500000Y-69310000D01*
X90120000Y-70690000D02*
X90120000Y-69310000D01*
X90120000Y-71960000D02*
X90120000Y-79690000D01*
X90120000Y-71960000D02*
X92880000Y-71960000D01*
X90120000Y-79690000D02*
X92880000Y-79690000D01*
X92880000Y-71960000D02*
X92880000Y-79690000D01*
%TO.C,C2*%
X160640000Y-104607836D02*
X160640000Y-104392164D01*
X161360000Y-104607836D02*
X161360000Y-104392164D01*
%TO.C,C26*%
X168107836Y-74140000D02*
X167892164Y-74140000D01*
X168107836Y-74860000D02*
X167892164Y-74860000D01*
%TO.C,R2*%
X152346359Y-74120000D02*
X152653641Y-74120000D01*
X152346359Y-74880000D02*
X152653641Y-74880000D01*
%TO.C,C12*%
X124330000Y-129561252D02*
X124330000Y-128138748D01*
X127050000Y-129561252D02*
X127050000Y-128138748D01*
%TO.C,C28*%
X136392164Y-85140000D02*
X136607836Y-85140000D01*
X136392164Y-85860000D02*
X136607836Y-85860000D01*
%TO.C,U5*%
D13*
X127496700Y-78125600D02*
X129503300Y-78125600D01*
X129503300Y-74874400D02*
X127496700Y-74874400D01*
X129503300Y-76838261D02*
X129503300Y-76161739D01*
%TD*%
M02*
