%TF.GenerationSoftware,KiCad,Pcbnew,10.0.1*%
%TF.CreationDate,2026-05-07T12:10:56+08:00*%
%TF.ProjectId,EnvDaqBox,456e7644-6171-4426-9f78-2e6b69636164,v0.0.1*%
%TF.SameCoordinates,Original*%
%TF.FileFunction,Drillmap*%
%TF.FilePolarity,Positive*%
%FSLAX45Y45*%
G04 Gerber Fmt 4.5, Leading zero omitted, Abs format (unit mm)*
G04 Created by KiCad (PCBNEW 10.0.1) date 2026-05-07 12:10:56*
%MOMM*%
%LPD*%
G01*
G04 APERTURE LIST*
%ADD10C,0.100000*%
%ADD11C,0.200000*%
%ADD12C,0.110000*%
%ADD13C,0.130000*%
%ADD14C,0.300000*%
G04 APERTURE END LIST*
D10*
X8450000Y-6575000D02*
X18075000Y-6575000D01*
X18075000Y-13675000D01*
X8450000Y-13675000D01*
X8450000Y-6575000D01*
D11*
D10*
X9085000Y-8885000D02*
X9115000Y-8915000D01*
X9115000Y-8885000D02*
X9085000Y-8915000D01*
X9485000Y-8885000D02*
X9515000Y-8915000D01*
X9515000Y-8885000D02*
X9485000Y-8915000D01*
X9685000Y-8785000D02*
X9715000Y-8815000D01*
X9715000Y-8785000D02*
X9685000Y-8815000D01*
X9785000Y-12010000D02*
X9815000Y-12040000D01*
X9815000Y-12010000D02*
X9785000Y-12040000D01*
X9785000Y-12335000D02*
X9815000Y-12365000D01*
X9815000Y-12335000D02*
X9785000Y-12365000D01*
X9785000Y-12635000D02*
X9815000Y-12665000D01*
X9815000Y-12635000D02*
X9785000Y-12665000D01*
X9885000Y-8885000D02*
X9915000Y-8915000D01*
X9915000Y-8885000D02*
X9885000Y-8915000D01*
X10135000Y-12010000D02*
X10165000Y-12040000D01*
X10165000Y-12010000D02*
X10135000Y-12040000D01*
X10135000Y-12635000D02*
X10165000Y-12665000D01*
X10165000Y-12635000D02*
X10135000Y-12665000D01*
X10510000Y-12010000D02*
X10540000Y-12040000D01*
X10540000Y-12010000D02*
X10510000Y-12040000D01*
X10510000Y-12335000D02*
X10540000Y-12365000D01*
X10540000Y-12335000D02*
X10510000Y-12365000D01*
X10510000Y-12635000D02*
X10540000Y-12665000D01*
X10540000Y-12635000D02*
X10510000Y-12665000D01*
X12063000Y-8729000D02*
X12093000Y-8759000D01*
X12093000Y-8729000D02*
X12063000Y-8759000D01*
X12085000Y-10435000D02*
X12115000Y-10465000D01*
X12115000Y-10435000D02*
X12085000Y-10465000D01*
X12235000Y-12435000D02*
X12265000Y-12465000D01*
X12265000Y-12435000D02*
X12235000Y-12465000D01*
X12535000Y-9935000D02*
X12565000Y-9965000D01*
X12565000Y-9935000D02*
X12535000Y-9965000D01*
X12535000Y-10485000D02*
X12565000Y-10515000D01*
X12565000Y-10485000D02*
X12535000Y-10515000D01*
X12535000Y-12435000D02*
X12565000Y-12465000D01*
X12565000Y-12435000D02*
X12535000Y-12465000D01*
X12752000Y-11124000D02*
X12782000Y-11154000D01*
X12782000Y-11124000D02*
X12752000Y-11154000D01*
X12785000Y-7385000D02*
X12815000Y-7415000D01*
X12815000Y-7385000D02*
X12785000Y-7415000D01*
X12885000Y-12435000D02*
X12915000Y-12465000D01*
X12915000Y-12435000D02*
X12885000Y-12465000D01*
X13035000Y-11685000D02*
X13065000Y-11715000D01*
X13065000Y-11685000D02*
X13035000Y-11715000D01*
X13035000Y-11835000D02*
X13065000Y-11865000D01*
X13065000Y-11835000D02*
X13035000Y-11865000D01*
X13135000Y-8285000D02*
X13165000Y-8315000D01*
X13165000Y-8285000D02*
X13135000Y-8315000D01*
X13135000Y-8485000D02*
X13165000Y-8515000D01*
X13165000Y-8485000D02*
X13135000Y-8515000D01*
X13185000Y-11135000D02*
X13215000Y-11165000D01*
X13215000Y-11135000D02*
X13185000Y-11165000D01*
X13220000Y-7194000D02*
X13250000Y-7224000D01*
X13250000Y-7194000D02*
X13220000Y-7224000D01*
X13221250Y-9148750D02*
X13251250Y-9178750D01*
X13251250Y-9148750D02*
X13221250Y-9178750D01*
X13235000Y-8035000D02*
X13265000Y-8065000D01*
X13265000Y-8035000D02*
X13235000Y-8065000D01*
X13235000Y-12085000D02*
X13265000Y-12115000D01*
X13265000Y-12085000D02*
X13235000Y-12115000D01*
X13235000Y-12435000D02*
X13265000Y-12465000D01*
X13265000Y-12435000D02*
X13235000Y-12465000D01*
X13335000Y-7585000D02*
X13365000Y-7615000D01*
X13365000Y-7585000D02*
X13335000Y-7615000D01*
X13335000Y-7685000D02*
X13365000Y-7715000D01*
X13365000Y-7685000D02*
X13335000Y-7715000D01*
X13385000Y-6935000D02*
X13415000Y-6965000D01*
X13415000Y-6935000D02*
X13385000Y-6965000D01*
X13385000Y-7435000D02*
X13415000Y-7465000D01*
X13415000Y-7435000D02*
X13385000Y-7465000D01*
X13385000Y-8035000D02*
X13415000Y-8065000D01*
X13415000Y-8035000D02*
X13385000Y-8065000D01*
X13435000Y-10907000D02*
X13465000Y-10937000D01*
X13465000Y-10907000D02*
X13435000Y-10937000D01*
X13485000Y-9235000D02*
X13515000Y-9265000D01*
X13515000Y-9235000D02*
X13485000Y-9265000D01*
X13577426Y-7942573D02*
X13607426Y-7972573D01*
X13607426Y-7942573D02*
X13577426Y-7972573D01*
X13585000Y-13185000D02*
X13615000Y-13215000D01*
X13615000Y-13185000D02*
X13585000Y-13215000D01*
X13585000Y-13285000D02*
X13615000Y-13315000D01*
X13615000Y-13285000D02*
X13585000Y-13315000D01*
X13585000Y-13385000D02*
X13615000Y-13415000D01*
X13615000Y-13385000D02*
X13585000Y-13415000D01*
X13635000Y-9235000D02*
X13665000Y-9265000D01*
X13665000Y-9235000D02*
X13635000Y-9265000D01*
X13681000Y-10907000D02*
X13711000Y-10937000D01*
X13711000Y-10907000D02*
X13681000Y-10937000D01*
X13835000Y-7935000D02*
X13865000Y-7965000D01*
X13865000Y-7935000D02*
X13835000Y-7965000D01*
X13910000Y-10560000D02*
X13940000Y-10590000D01*
X13940000Y-10560000D02*
X13910000Y-10590000D01*
X13935000Y-11735000D02*
X13965000Y-11765000D01*
X13965000Y-11735000D02*
X13935000Y-11765000D01*
X13967500Y-7135000D02*
X13997500Y-7165000D01*
X13997500Y-7135000D02*
X13967500Y-7165000D01*
X13967500Y-7332500D02*
X13997500Y-7362500D01*
X13997500Y-7332500D02*
X13967500Y-7362500D01*
X13967500Y-7530000D02*
X13997500Y-7560000D01*
X13997500Y-7530000D02*
X13967500Y-7560000D01*
X13975000Y-8085000D02*
X14005000Y-8115000D01*
X14005000Y-8085000D02*
X13975000Y-8115000D01*
X14010000Y-8010000D02*
X14040000Y-8040000D01*
X14040000Y-8010000D02*
X14010000Y-8040000D01*
X14135000Y-8185000D02*
X14165000Y-8215000D01*
X14165000Y-8185000D02*
X14135000Y-8215000D01*
X14135000Y-8635000D02*
X14165000Y-8665000D01*
X14165000Y-8635000D02*
X14135000Y-8665000D01*
X14165000Y-7135000D02*
X14195000Y-7165000D01*
X14195000Y-7135000D02*
X14165000Y-7165000D01*
X14165000Y-7332500D02*
X14195000Y-7362500D01*
X14195000Y-7332500D02*
X14165000Y-7362500D01*
X14165000Y-7530000D02*
X14195000Y-7560000D01*
X14195000Y-7530000D02*
X14165000Y-7560000D01*
X14169853Y-8085000D02*
X14199853Y-8115000D01*
X14199853Y-8085000D02*
X14169853Y-8115000D01*
X14185000Y-10535000D02*
X14215000Y-10565000D01*
X14215000Y-10535000D02*
X14185000Y-10565000D01*
X14185000Y-12645000D02*
X14215000Y-12675000D01*
X14215000Y-12645000D02*
X14185000Y-12675000D01*
X14185000Y-12725000D02*
X14215000Y-12755000D01*
X14215000Y-12725000D02*
X14185000Y-12755000D01*
X14235000Y-8635000D02*
X14265000Y-8665000D01*
X14265000Y-8635000D02*
X14235000Y-8665000D01*
X14285000Y-12645000D02*
X14315000Y-12675000D01*
X14315000Y-12645000D02*
X14285000Y-12675000D01*
X14285000Y-12725000D02*
X14315000Y-12755000D01*
X14315000Y-12725000D02*
X14285000Y-12755000D01*
X14362500Y-7135000D02*
X14392500Y-7165000D01*
X14392500Y-7135000D02*
X14362500Y-7165000D01*
X14362500Y-7332500D02*
X14392500Y-7362500D01*
X14392500Y-7332500D02*
X14362500Y-7362500D01*
X14362500Y-7530000D02*
X14392500Y-7560000D01*
X14392500Y-7530000D02*
X14362500Y-7560000D01*
X14385000Y-10035000D02*
X14415000Y-10065000D01*
X14415000Y-10035000D02*
X14385000Y-10065000D01*
X14395000Y-12485000D02*
X14425000Y-12515000D01*
X14425000Y-12485000D02*
X14395000Y-12515000D01*
X14395000Y-12565000D02*
X14425000Y-12595000D01*
X14425000Y-12565000D02*
X14395000Y-12595000D01*
X14395000Y-12645000D02*
X14425000Y-12675000D01*
X14425000Y-12645000D02*
X14395000Y-12675000D01*
X14395000Y-12725000D02*
X14425000Y-12755000D01*
X14425000Y-12725000D02*
X14395000Y-12755000D01*
X14495000Y-12485000D02*
X14525000Y-12515000D01*
X14525000Y-12485000D02*
X14495000Y-12515000D01*
X14495000Y-12565000D02*
X14525000Y-12595000D01*
X14525000Y-12565000D02*
X14495000Y-12595000D01*
X14495000Y-12645000D02*
X14525000Y-12675000D01*
X14525000Y-12645000D02*
X14495000Y-12675000D01*
X14495000Y-12725000D02*
X14525000Y-12755000D01*
X14525000Y-12725000D02*
X14495000Y-12755000D01*
X14560000Y-8060000D02*
X14590000Y-8090000D01*
X14590000Y-8060000D02*
X14560000Y-8090000D01*
X14595000Y-12645000D02*
X14625000Y-12675000D01*
X14625000Y-12645000D02*
X14595000Y-12675000D01*
X14595000Y-12725000D02*
X14625000Y-12755000D01*
X14625000Y-12725000D02*
X14595000Y-12755000D01*
X14637000Y-12273000D02*
X14667000Y-12303000D01*
X14667000Y-12273000D02*
X14637000Y-12303000D01*
X14695000Y-12645000D02*
X14725000Y-12675000D01*
X14725000Y-12645000D02*
X14695000Y-12675000D01*
X14695000Y-12725000D02*
X14725000Y-12755000D01*
X14725000Y-12725000D02*
X14695000Y-12755000D01*
X14735000Y-8075000D02*
X14765000Y-8105000D01*
X14765000Y-8075000D02*
X14735000Y-8105000D01*
X14743000Y-12478000D02*
X14773000Y-12508000D01*
X14773000Y-12478000D02*
X14743000Y-12508000D01*
X14783000Y-8885000D02*
X14813000Y-8915000D01*
X14813000Y-8885000D02*
X14783000Y-8915000D01*
X14885000Y-7135000D02*
X14915000Y-7165000D01*
X14915000Y-7135000D02*
X14885000Y-7165000D01*
X14885000Y-7835000D02*
X14915000Y-7865000D01*
X14915000Y-7835000D02*
X14885000Y-7865000D01*
X14885000Y-10785000D02*
X14915000Y-10815000D01*
X14915000Y-10785000D02*
X14885000Y-10815000D01*
X14885000Y-12637000D02*
X14915000Y-12667000D01*
X14915000Y-12637000D02*
X14885000Y-12667000D01*
X15009000Y-11493000D02*
X15039000Y-11523000D01*
X15039000Y-11493000D02*
X15009000Y-11523000D01*
X15034000Y-12635000D02*
X15064000Y-12665000D01*
X15064000Y-12635000D02*
X15034000Y-12665000D01*
X15070000Y-12957000D02*
X15100000Y-12987000D01*
X15100000Y-12957000D02*
X15070000Y-12987000D01*
X15135000Y-12957000D02*
X15165000Y-12987000D01*
X15165000Y-12957000D02*
X15135000Y-12987000D01*
X15199997Y-12957643D02*
X15229997Y-12987643D01*
X15229997Y-12957643D02*
X15199997Y-12987643D01*
X15285000Y-12584000D02*
X15315000Y-12614000D01*
X15315000Y-12584000D02*
X15285000Y-12614000D01*
X15335000Y-12957000D02*
X15365000Y-12987000D01*
X15365000Y-12957000D02*
X15335000Y-12987000D01*
X15435000Y-12135000D02*
X15465000Y-12165000D01*
X15465000Y-12135000D02*
X15435000Y-12165000D01*
X15435000Y-12235000D02*
X15465000Y-12265000D01*
X15465000Y-12235000D02*
X15435000Y-12265000D01*
X15435000Y-12335000D02*
X15465000Y-12365000D01*
X15465000Y-12335000D02*
X15435000Y-12365000D01*
X15435000Y-12635000D02*
X15465000Y-12665000D01*
X15465000Y-12635000D02*
X15435000Y-12665000D01*
X15435000Y-12735000D02*
X15465000Y-12765000D01*
X15465000Y-12735000D02*
X15435000Y-12765000D01*
X15435000Y-12835000D02*
X15465000Y-12865000D01*
X15465000Y-12835000D02*
X15435000Y-12865000D01*
X15485000Y-9135000D02*
X15515000Y-9165000D01*
X15515000Y-9135000D02*
X15485000Y-9165000D01*
X15485000Y-9685000D02*
X15515000Y-9715000D01*
X15515000Y-9685000D02*
X15485000Y-9715000D01*
X15535000Y-12135000D02*
X15565000Y-12165000D01*
X15565000Y-12135000D02*
X15535000Y-12165000D01*
X15535000Y-12235000D02*
X15565000Y-12265000D01*
X15565000Y-12235000D02*
X15535000Y-12265000D01*
X15535000Y-12335000D02*
X15565000Y-12365000D01*
X15565000Y-12335000D02*
X15535000Y-12365000D01*
X15535000Y-12635000D02*
X15565000Y-12665000D01*
X15565000Y-12635000D02*
X15535000Y-12665000D01*
X15535000Y-12735000D02*
X15565000Y-12765000D01*
X15565000Y-12735000D02*
X15535000Y-12765000D01*
X15535000Y-12835000D02*
X15565000Y-12865000D01*
X15565000Y-12835000D02*
X15535000Y-12865000D01*
X15635000Y-10635000D02*
X15665000Y-10665000D01*
X15665000Y-10635000D02*
X15635000Y-10665000D01*
X15635000Y-12135000D02*
X15665000Y-12165000D01*
X15665000Y-12135000D02*
X15635000Y-12165000D01*
X15635000Y-12235000D02*
X15665000Y-12265000D01*
X15665000Y-12235000D02*
X15635000Y-12265000D01*
X15635000Y-12335000D02*
X15665000Y-12365000D01*
X15665000Y-12335000D02*
X15635000Y-12365000D01*
X15635000Y-12635000D02*
X15665000Y-12665000D01*
X15665000Y-12635000D02*
X15635000Y-12665000D01*
X15635000Y-12735000D02*
X15665000Y-12765000D01*
X15665000Y-12735000D02*
X15635000Y-12765000D01*
X15635000Y-12835000D02*
X15665000Y-12865000D01*
X15665000Y-12835000D02*
X15635000Y-12865000D01*
X15714635Y-10627362D02*
X15744635Y-10657362D01*
X15744635Y-10627362D02*
X15714635Y-10657362D01*
X15735000Y-12135000D02*
X15765000Y-12165000D01*
X15765000Y-12135000D02*
X15735000Y-12165000D01*
X15735000Y-12235000D02*
X15765000Y-12265000D01*
X15765000Y-12235000D02*
X15735000Y-12265000D01*
X15735000Y-12335000D02*
X15765000Y-12365000D01*
X15765000Y-12335000D02*
X15735000Y-12365000D01*
X15735000Y-12635000D02*
X15765000Y-12665000D01*
X15765000Y-12635000D02*
X15735000Y-12665000D01*
X15735000Y-12735000D02*
X15765000Y-12765000D01*
X15765000Y-12735000D02*
X15735000Y-12765000D01*
X15735000Y-12835000D02*
X15765000Y-12865000D01*
X15765000Y-12835000D02*
X15735000Y-12865000D01*
X15809000Y-7035000D02*
X15839000Y-7065000D01*
X15839000Y-7035000D02*
X15809000Y-7065000D01*
X15835000Y-12635000D02*
X15865000Y-12665000D01*
X15865000Y-12635000D02*
X15835000Y-12665000D01*
X15835000Y-12735000D02*
X15865000Y-12765000D01*
X15865000Y-12735000D02*
X15835000Y-12765000D01*
X15835000Y-12835000D02*
X15865000Y-12865000D01*
X15865000Y-12835000D02*
X15835000Y-12865000D01*
X15878431Y-9691569D02*
X15908431Y-9721569D01*
X15908431Y-9691569D02*
X15878431Y-9721569D01*
X15935000Y-9635000D02*
X15965000Y-9665000D01*
X15965000Y-9635000D02*
X15935000Y-9665000D01*
X15985000Y-10185000D02*
X16015000Y-10215000D01*
X16015000Y-10185000D02*
X15985000Y-10215000D01*
X16335000Y-10785000D02*
X16365000Y-10815000D01*
X16365000Y-10785000D02*
X16335000Y-10815000D01*
X16385000Y-11835000D02*
X16415000Y-11865000D01*
X16415000Y-11835000D02*
X16385000Y-11865000D01*
X16385000Y-12285000D02*
X16415000Y-12315000D01*
X16415000Y-12285000D02*
X16385000Y-12315000D01*
X16410895Y-10759702D02*
X16440895Y-10789702D01*
X16440895Y-10759702D02*
X16410895Y-10789702D01*
X16425000Y-10525000D02*
X16455000Y-10555000D01*
X16455000Y-10525000D02*
X16425000Y-10555000D01*
X16445000Y-11778431D02*
X16475000Y-11808431D01*
X16475000Y-11778431D02*
X16445000Y-11808431D01*
X16485000Y-10399853D02*
X16515000Y-10429853D01*
X16515000Y-10399853D02*
X16485000Y-10429853D01*
X16485000Y-10685000D02*
X16515000Y-10715000D01*
X16515000Y-10685000D02*
X16485000Y-10715000D01*
X16585000Y-7335000D02*
X16615000Y-7365000D01*
X16615000Y-7335000D02*
X16585000Y-7365000D01*
X16635000Y-8735000D02*
X16665000Y-8765000D01*
X16665000Y-8735000D02*
X16635000Y-8765000D01*
X16685000Y-9585000D02*
X16715000Y-9615000D01*
X16715000Y-9585000D02*
X16685000Y-9615000D01*
X16835000Y-11735000D02*
X16865000Y-11765000D01*
X16865000Y-11735000D02*
X16835000Y-11765000D01*
X16885000Y-12585000D02*
X16915000Y-12615000D01*
X16915000Y-12585000D02*
X16885000Y-12615000D01*
X17035000Y-11735000D02*
X17065000Y-11765000D01*
X17065000Y-11735000D02*
X17035000Y-11765000D01*
X17047000Y-11940000D02*
X17077000Y-11970000D01*
X17077000Y-11940000D02*
X17047000Y-11970000D01*
X17195000Y-11685000D02*
X17225000Y-11715000D01*
X17225000Y-11685000D02*
X17195000Y-11715000D01*
X17195000Y-12085000D02*
X17225000Y-12115000D01*
X17225000Y-12085000D02*
X17195000Y-12115000D01*
X17235000Y-12635000D02*
X17265000Y-12665000D01*
X17265000Y-12635000D02*
X17235000Y-12665000D01*
X17259244Y-11927609D02*
X17289244Y-11957609D01*
X17289244Y-11927609D02*
X17259244Y-11957609D01*
X17285000Y-12485000D02*
X17315000Y-12515000D01*
X17315000Y-12485000D02*
X17285000Y-12515000D01*
X17285000Y-13082000D02*
X17315000Y-13112000D01*
X17315000Y-13082000D02*
X17285000Y-13112000D01*
X17314985Y-12154985D02*
X17344985Y-12184985D01*
X17344985Y-12154985D02*
X17314985Y-12184985D01*
X17367500Y-12635000D02*
X17397500Y-12665000D01*
X17397500Y-12635000D02*
X17367500Y-12665000D01*
X17485000Y-9885000D02*
X17515000Y-9915000D01*
X17515000Y-9885000D02*
X17485000Y-9915000D01*
X17735000Y-12735000D02*
X17765000Y-12765000D01*
X17765000Y-12735000D02*
X17735000Y-12765000D01*
X17835000Y-12735000D02*
X17865000Y-12765000D01*
X17865000Y-12735000D02*
X17835000Y-12765000D01*
X17935000Y-12735000D02*
X17965000Y-12765000D01*
X17965000Y-12735000D02*
X17935000Y-12765000D01*
X16898000Y-12999450D02*
G75*
G02*
X16838000Y-12999450I-30000J0D01*
G01*
X16838000Y-12999450D02*
G75*
G02*
X16898000Y-12999450I30000J0D01*
G01*
X16838000Y-12944450D02*
X16838000Y-13054450D01*
X16898000Y-13054450D02*
G75*
G02*
X16838000Y-13054450I-30000J0D01*
G01*
X16898000Y-13054450D02*
X16898000Y-12944450D01*
X16898000Y-12944450D02*
G75*
G03*
X16838000Y-12944450I-30000J0D01*
G01*
X16898000Y-13417450D02*
G75*
G02*
X16838000Y-13417450I-30000J0D01*
G01*
X16838000Y-13417450D02*
G75*
G02*
X16898000Y-13417450I30000J0D01*
G01*
X16838000Y-13387450D02*
X16838000Y-13447450D01*
X16898000Y-13447450D02*
G75*
G02*
X16838000Y-13447450I-30000J0D01*
G01*
X16898000Y-13447450D02*
X16898000Y-13387450D01*
X16898000Y-13387450D02*
G75*
G03*
X16838000Y-13387450I-30000J0D01*
G01*
X17762000Y-12999450D02*
G75*
G02*
X17702000Y-12999450I-30000J0D01*
G01*
X17702000Y-12999450D02*
G75*
G02*
X17762000Y-12999450I30000J0D01*
G01*
X17702000Y-12944450D02*
X17702000Y-13054450D01*
X17762000Y-13054450D02*
G75*
G02*
X17702000Y-13054450I-30000J0D01*
G01*
X17762000Y-13054450D02*
X17762000Y-12944450D01*
X17762000Y-12944450D02*
G75*
G03*
X17702000Y-12944450I-30000J0D01*
G01*
X17762000Y-13417450D02*
G75*
G02*
X17702000Y-13417450I-30000J0D01*
G01*
X17702000Y-13417450D02*
G75*
G02*
X17762000Y-13417450I30000J0D01*
G01*
X17702000Y-13387450D02*
X17702000Y-13447450D01*
X17762000Y-13447450D02*
G75*
G02*
X17702000Y-13447450I-30000J0D01*
G01*
X17762000Y-13447450D02*
X17762000Y-13387450D01*
X17762000Y-13387450D02*
G75*
G03*
X17702000Y-13387450I-30000J0D01*
G01*
X17200000Y-8217500D02*
X17200000Y-8292500D01*
X17162500Y-8255000D02*
X17237500Y-8255000D01*
X17400000Y-8217500D02*
X17400000Y-8292500D01*
X17362500Y-8255000D02*
X17437500Y-8255000D01*
X9185356Y-7104356D02*
X9185356Y-7033644D01*
X9114644Y-7033644D01*
X9114644Y-7104356D01*
X9185356Y-7104356D01*
X9185356Y-7358356D02*
X9185356Y-7287644D01*
X9114644Y-7287644D01*
X9114644Y-7358356D01*
X9185356Y-7358356D01*
X9185356Y-7612356D02*
X9185356Y-7541644D01*
X9114644Y-7541644D01*
X9114644Y-7612356D01*
X9185356Y-7612356D01*
X9185356Y-7866356D02*
X9185356Y-7795644D01*
X9114644Y-7795644D01*
X9114644Y-7866356D01*
X9185356Y-7866356D01*
X11127356Y-6835356D02*
X11127356Y-6764644D01*
X11056644Y-6764644D01*
X11056644Y-6835356D01*
X11127356Y-6835356D01*
X11381356Y-6835356D02*
X11381356Y-6764644D01*
X11310644Y-6764644D01*
X11310644Y-6835356D01*
X11381356Y-6835356D01*
X11635356Y-6835356D02*
X11635356Y-6764644D01*
X11564644Y-6764644D01*
X11564644Y-6835356D01*
X11635356Y-6835356D01*
X11889356Y-6835356D02*
X11889356Y-6764644D01*
X11818644Y-6764644D01*
X11818644Y-6835356D01*
X11889356Y-6835356D01*
X12143356Y-6835356D02*
X12143356Y-6764644D01*
X12072644Y-6764644D01*
X12072644Y-6835356D01*
X12143356Y-6835356D01*
X15304356Y-6835356D02*
X15304356Y-6764644D01*
X15233644Y-6764644D01*
X15233644Y-6835356D01*
X15304356Y-6835356D01*
X15558356Y-6835356D02*
X15558356Y-6764644D01*
X15487644Y-6764644D01*
X15487644Y-6835356D01*
X15558356Y-6835356D01*
X15812356Y-6835356D02*
X15812356Y-6764644D01*
X15741644Y-6764644D01*
X15741644Y-6835356D01*
X15812356Y-6835356D01*
X16066356Y-6835356D02*
X16066356Y-6764644D01*
X15995644Y-6764644D01*
X15995644Y-6835356D01*
X16066356Y-6835356D01*
D12*
X9000000Y-9905000D02*
X9055000Y-9850000D01*
X9000000Y-9795000D01*
X8945000Y-9850000D01*
X9000000Y-9905000D01*
X9000000Y-10159000D02*
X9055000Y-10104000D01*
X9000000Y-10049000D01*
X8945000Y-10104000D01*
X9000000Y-10159000D01*
X9000000Y-10413000D02*
X9055000Y-10358000D01*
X9000000Y-10303000D01*
X8945000Y-10358000D01*
X9000000Y-10413000D01*
X9000000Y-10667000D02*
X9055000Y-10612000D01*
X9000000Y-10557000D01*
X8945000Y-10612000D01*
X9000000Y-10667000D01*
X9500000Y-9905000D02*
X9555000Y-9850000D01*
X9500000Y-9795000D01*
X9445000Y-9850000D01*
X9500000Y-9905000D01*
X9500000Y-10159000D02*
X9555000Y-10104000D01*
X9500000Y-10049000D01*
X9445000Y-10104000D01*
X9500000Y-10159000D01*
X9500000Y-10413000D02*
X9555000Y-10358000D01*
X9500000Y-10303000D01*
X9445000Y-10358000D01*
X9500000Y-10413000D01*
X9500000Y-10667000D02*
X9555000Y-10612000D01*
X9500000Y-10557000D01*
X9445000Y-10612000D01*
X9500000Y-10667000D01*
D13*
X10313250Y-8646750D02*
X10443250Y-8776750D01*
X10443250Y-8646750D02*
X10313250Y-8776750D01*
X10443250Y-8711750D02*
G75*
G02*
X10313250Y-8711750I-65000J0D01*
G01*
X10313250Y-8711750D02*
G75*
G02*
X10443250Y-8711750I65000J0D01*
G01*
X10313250Y-10346750D02*
X10443250Y-10476750D01*
X10443250Y-10346750D02*
X10313250Y-10476750D01*
X10443250Y-10411750D02*
G75*
G02*
X10313250Y-10411750I-65000J0D01*
G01*
X10313250Y-10411750D02*
G75*
G02*
X10443250Y-10411750I65000J0D01*
G01*
X11533250Y-8646750D02*
X11663250Y-8776750D01*
X11663250Y-8646750D02*
X11533250Y-8776750D01*
X11663250Y-8711750D02*
G75*
G02*
X11533250Y-8711750I-65000J0D01*
G01*
X11533250Y-8711750D02*
G75*
G02*
X11663250Y-8711750I65000J0D01*
G01*
X11533250Y-9846750D02*
X11663250Y-9976750D01*
X11663250Y-9846750D02*
X11533250Y-9976750D01*
X11663250Y-9911750D02*
G75*
G02*
X11533250Y-9911750I-65000J0D01*
G01*
X11533250Y-9911750D02*
G75*
G02*
X11663250Y-9911750I65000J0D01*
G01*
X11533250Y-10346750D02*
X11663250Y-10476750D01*
X11663250Y-10346750D02*
X11533250Y-10476750D01*
X11663250Y-10411750D02*
G75*
G02*
X11533250Y-10411750I-65000J0D01*
G01*
X11533250Y-10411750D02*
G75*
G02*
X11663250Y-10411750I65000J0D01*
G01*
X11533250Y-11546750D02*
X11663250Y-11676750D01*
X11663250Y-11546750D02*
X11533250Y-11676750D01*
X11663250Y-11611750D02*
G75*
G02*
X11533250Y-11611750I-65000J0D01*
G01*
X11533250Y-11611750D02*
G75*
G02*
X11663250Y-11611750I65000J0D01*
G01*
X11733250Y-9246750D02*
X11863250Y-9376750D01*
X11863250Y-9246750D02*
X11733250Y-9376750D01*
X11863250Y-9311750D02*
G75*
G02*
X11733250Y-9311750I-65000J0D01*
G01*
X11733250Y-9311750D02*
G75*
G02*
X11863250Y-9311750I65000J0D01*
G01*
X11733250Y-10946750D02*
X11863250Y-11076750D01*
X11863250Y-10946750D02*
X11733250Y-11076750D01*
X11863250Y-11011750D02*
G75*
G02*
X11733250Y-11011750I-65000J0D01*
G01*
X11733250Y-11011750D02*
G75*
G02*
X11863250Y-11011750I65000J0D01*
G01*
D14*
X10000000Y-12200000D02*
X10300000Y-12500000D01*
X10300000Y-12200000D02*
X10000000Y-12500000D01*
X10150000Y-12200000D02*
X10150000Y-12500000D01*
X10000000Y-12350000D02*
X10300000Y-12350000D01*
X10000000Y-13000000D02*
X10300000Y-13300000D01*
X10300000Y-13000000D02*
X10000000Y-13300000D01*
X10150000Y-13000000D02*
X10150000Y-13300000D01*
X10000000Y-13150000D02*
X10300000Y-13150000D01*
D11*
X8705777Y-13991484D02*
X8705777Y-13791484D01*
X8705777Y-13791484D02*
X8753396Y-13791484D01*
X8753396Y-13791484D02*
X8781967Y-13801008D01*
X8781967Y-13801008D02*
X8801015Y-13820055D01*
X8801015Y-13820055D02*
X8810539Y-13839103D01*
X8810539Y-13839103D02*
X8820063Y-13877198D01*
X8820063Y-13877198D02*
X8820063Y-13905769D01*
X8820063Y-13905769D02*
X8810539Y-13943865D01*
X8810539Y-13943865D02*
X8801015Y-13962912D01*
X8801015Y-13962912D02*
X8781967Y-13981960D01*
X8781967Y-13981960D02*
X8753396Y-13991484D01*
X8753396Y-13991484D02*
X8705777Y-13991484D01*
X8905777Y-13991484D02*
X8905777Y-13858150D01*
X8905777Y-13896246D02*
X8915301Y-13877198D01*
X8915301Y-13877198D02*
X8924824Y-13867674D01*
X8924824Y-13867674D02*
X8943872Y-13858150D01*
X8943872Y-13858150D02*
X8962920Y-13858150D01*
X9029586Y-13991484D02*
X9029586Y-13858150D01*
X9029586Y-13791484D02*
X9020063Y-13801008D01*
X9020063Y-13801008D02*
X9029586Y-13810531D01*
X9029586Y-13810531D02*
X9039110Y-13801008D01*
X9039110Y-13801008D02*
X9029586Y-13791484D01*
X9029586Y-13791484D02*
X9029586Y-13810531D01*
X9153396Y-13991484D02*
X9134348Y-13981960D01*
X9134348Y-13981960D02*
X9124824Y-13962912D01*
X9124824Y-13962912D02*
X9124824Y-13791484D01*
X9258158Y-13991484D02*
X9239110Y-13981960D01*
X9239110Y-13981960D02*
X9229586Y-13962912D01*
X9229586Y-13962912D02*
X9229586Y-13791484D01*
X9486729Y-13991484D02*
X9486729Y-13791484D01*
X9486729Y-13791484D02*
X9553396Y-13934341D01*
X9553396Y-13934341D02*
X9620063Y-13791484D01*
X9620063Y-13791484D02*
X9620063Y-13991484D01*
X9801015Y-13991484D02*
X9801015Y-13886722D01*
X9801015Y-13886722D02*
X9791491Y-13867674D01*
X9791491Y-13867674D02*
X9772444Y-13858150D01*
X9772444Y-13858150D02*
X9734348Y-13858150D01*
X9734348Y-13858150D02*
X9715301Y-13867674D01*
X9801015Y-13981960D02*
X9781967Y-13991484D01*
X9781967Y-13991484D02*
X9734348Y-13991484D01*
X9734348Y-13991484D02*
X9715301Y-13981960D01*
X9715301Y-13981960D02*
X9705777Y-13962912D01*
X9705777Y-13962912D02*
X9705777Y-13943865D01*
X9705777Y-13943865D02*
X9715301Y-13924817D01*
X9715301Y-13924817D02*
X9734348Y-13915293D01*
X9734348Y-13915293D02*
X9781967Y-13915293D01*
X9781967Y-13915293D02*
X9801015Y-13905769D01*
X9896253Y-13858150D02*
X9896253Y-14058150D01*
X9896253Y-13867674D02*
X9915301Y-13858150D01*
X9915301Y-13858150D02*
X9953396Y-13858150D01*
X9953396Y-13858150D02*
X9972444Y-13867674D01*
X9972444Y-13867674D02*
X9981967Y-13877198D01*
X9981967Y-13877198D02*
X9991491Y-13896246D01*
X9991491Y-13896246D02*
X9991491Y-13953388D01*
X9991491Y-13953388D02*
X9981967Y-13972436D01*
X9981967Y-13972436D02*
X9972444Y-13981960D01*
X9972444Y-13981960D02*
X9953396Y-13991484D01*
X9953396Y-13991484D02*
X9915301Y-13991484D01*
X9915301Y-13991484D02*
X9896253Y-13981960D01*
X10077205Y-13972436D02*
X10086729Y-13981960D01*
X10086729Y-13981960D02*
X10077205Y-13991484D01*
X10077205Y-13991484D02*
X10067682Y-13981960D01*
X10067682Y-13981960D02*
X10077205Y-13972436D01*
X10077205Y-13972436D02*
X10077205Y-13991484D01*
X10077205Y-13867674D02*
X10086729Y-13877198D01*
X10086729Y-13877198D02*
X10077205Y-13886722D01*
X10077205Y-13886722D02*
X10067682Y-13877198D01*
X10067682Y-13877198D02*
X10077205Y-13867674D01*
X10077205Y-13867674D02*
X10077205Y-13886722D01*
D10*
X8415000Y-14305000D02*
X8445000Y-14335000D01*
X8445000Y-14305000D02*
X8415000Y-14335000D01*
D11*
X8743872Y-14211484D02*
X8762920Y-14211484D01*
X8762920Y-14211484D02*
X8781967Y-14221008D01*
X8781967Y-14221008D02*
X8791491Y-14230531D01*
X8791491Y-14230531D02*
X8801015Y-14249579D01*
X8801015Y-14249579D02*
X8810539Y-14287674D01*
X8810539Y-14287674D02*
X8810539Y-14335293D01*
X8810539Y-14335293D02*
X8801015Y-14373388D01*
X8801015Y-14373388D02*
X8791491Y-14392436D01*
X8791491Y-14392436D02*
X8781967Y-14401960D01*
X8781967Y-14401960D02*
X8762920Y-14411484D01*
X8762920Y-14411484D02*
X8743872Y-14411484D01*
X8743872Y-14411484D02*
X8724824Y-14401960D01*
X8724824Y-14401960D02*
X8715301Y-14392436D01*
X8715301Y-14392436D02*
X8705777Y-14373388D01*
X8705777Y-14373388D02*
X8696253Y-14335293D01*
X8696253Y-14335293D02*
X8696253Y-14287674D01*
X8696253Y-14287674D02*
X8705777Y-14249579D01*
X8705777Y-14249579D02*
X8715301Y-14230531D01*
X8715301Y-14230531D02*
X8724824Y-14221008D01*
X8724824Y-14221008D02*
X8743872Y-14211484D01*
X8896253Y-14392436D02*
X8905777Y-14401960D01*
X8905777Y-14401960D02*
X8896253Y-14411484D01*
X8896253Y-14411484D02*
X8886729Y-14401960D01*
X8886729Y-14401960D02*
X8896253Y-14392436D01*
X8896253Y-14392436D02*
X8896253Y-14411484D01*
X8972444Y-14211484D02*
X9096253Y-14211484D01*
X9096253Y-14211484D02*
X9029586Y-14287674D01*
X9029586Y-14287674D02*
X9058158Y-14287674D01*
X9058158Y-14287674D02*
X9077205Y-14297198D01*
X9077205Y-14297198D02*
X9086729Y-14306722D01*
X9086729Y-14306722D02*
X9096253Y-14325769D01*
X9096253Y-14325769D02*
X9096253Y-14373388D01*
X9096253Y-14373388D02*
X9086729Y-14392436D01*
X9086729Y-14392436D02*
X9077205Y-14401960D01*
X9077205Y-14401960D02*
X9058158Y-14411484D01*
X9058158Y-14411484D02*
X9001015Y-14411484D01*
X9001015Y-14411484D02*
X8981967Y-14401960D01*
X8981967Y-14401960D02*
X8972444Y-14392436D01*
X9220063Y-14211484D02*
X9239110Y-14211484D01*
X9239110Y-14211484D02*
X9258158Y-14221008D01*
X9258158Y-14221008D02*
X9267682Y-14230531D01*
X9267682Y-14230531D02*
X9277205Y-14249579D01*
X9277205Y-14249579D02*
X9286729Y-14287674D01*
X9286729Y-14287674D02*
X9286729Y-14335293D01*
X9286729Y-14335293D02*
X9277205Y-14373388D01*
X9277205Y-14373388D02*
X9267682Y-14392436D01*
X9267682Y-14392436D02*
X9258158Y-14401960D01*
X9258158Y-14401960D02*
X9239110Y-14411484D01*
X9239110Y-14411484D02*
X9220063Y-14411484D01*
X9220063Y-14411484D02*
X9201015Y-14401960D01*
X9201015Y-14401960D02*
X9191491Y-14392436D01*
X9191491Y-14392436D02*
X9181967Y-14373388D01*
X9181967Y-14373388D02*
X9172444Y-14335293D01*
X9172444Y-14335293D02*
X9172444Y-14287674D01*
X9172444Y-14287674D02*
X9181967Y-14249579D01*
X9181967Y-14249579D02*
X9191491Y-14230531D01*
X9191491Y-14230531D02*
X9201015Y-14221008D01*
X9201015Y-14221008D02*
X9220063Y-14211484D01*
X9410539Y-14211484D02*
X9429586Y-14211484D01*
X9429586Y-14211484D02*
X9448634Y-14221008D01*
X9448634Y-14221008D02*
X9458158Y-14230531D01*
X9458158Y-14230531D02*
X9467682Y-14249579D01*
X9467682Y-14249579D02*
X9477205Y-14287674D01*
X9477205Y-14287674D02*
X9477205Y-14335293D01*
X9477205Y-14335293D02*
X9467682Y-14373388D01*
X9467682Y-14373388D02*
X9458158Y-14392436D01*
X9458158Y-14392436D02*
X9448634Y-14401960D01*
X9448634Y-14401960D02*
X9429586Y-14411484D01*
X9429586Y-14411484D02*
X9410539Y-14411484D01*
X9410539Y-14411484D02*
X9391491Y-14401960D01*
X9391491Y-14401960D02*
X9381967Y-14392436D01*
X9381967Y-14392436D02*
X9372444Y-14373388D01*
X9372444Y-14373388D02*
X9362920Y-14335293D01*
X9362920Y-14335293D02*
X9362920Y-14287674D01*
X9362920Y-14287674D02*
X9372444Y-14249579D01*
X9372444Y-14249579D02*
X9381967Y-14230531D01*
X9381967Y-14230531D02*
X9391491Y-14221008D01*
X9391491Y-14221008D02*
X9410539Y-14211484D01*
X9562920Y-14411484D02*
X9562920Y-14278150D01*
X9562920Y-14297198D02*
X9572444Y-14287674D01*
X9572444Y-14287674D02*
X9591491Y-14278150D01*
X9591491Y-14278150D02*
X9620063Y-14278150D01*
X9620063Y-14278150D02*
X9639110Y-14287674D01*
X9639110Y-14287674D02*
X9648634Y-14306722D01*
X9648634Y-14306722D02*
X9648634Y-14411484D01*
X9648634Y-14306722D02*
X9658158Y-14287674D01*
X9658158Y-14287674D02*
X9677205Y-14278150D01*
X9677205Y-14278150D02*
X9705777Y-14278150D01*
X9705777Y-14278150D02*
X9724825Y-14287674D01*
X9724825Y-14287674D02*
X9734348Y-14306722D01*
X9734348Y-14306722D02*
X9734348Y-14411484D01*
X9829586Y-14411484D02*
X9829586Y-14278150D01*
X9829586Y-14297198D02*
X9839110Y-14287674D01*
X9839110Y-14287674D02*
X9858158Y-14278150D01*
X9858158Y-14278150D02*
X9886729Y-14278150D01*
X9886729Y-14278150D02*
X9905777Y-14287674D01*
X9905777Y-14287674D02*
X9915301Y-14306722D01*
X9915301Y-14306722D02*
X9915301Y-14411484D01*
X9915301Y-14306722D02*
X9924825Y-14287674D01*
X9924825Y-14287674D02*
X9943872Y-14278150D01*
X9943872Y-14278150D02*
X9972444Y-14278150D01*
X9972444Y-14278150D02*
X9991491Y-14287674D01*
X9991491Y-14287674D02*
X10001015Y-14306722D01*
X10001015Y-14306722D02*
X10001015Y-14411484D01*
X10391491Y-14201960D02*
X10220063Y-14459103D01*
X10648634Y-14211484D02*
X10667682Y-14211484D01*
X10667682Y-14211484D02*
X10686729Y-14221008D01*
X10686729Y-14221008D02*
X10696253Y-14230531D01*
X10696253Y-14230531D02*
X10705777Y-14249579D01*
X10705777Y-14249579D02*
X10715301Y-14287674D01*
X10715301Y-14287674D02*
X10715301Y-14335293D01*
X10715301Y-14335293D02*
X10705777Y-14373388D01*
X10705777Y-14373388D02*
X10696253Y-14392436D01*
X10696253Y-14392436D02*
X10686729Y-14401960D01*
X10686729Y-14401960D02*
X10667682Y-14411484D01*
X10667682Y-14411484D02*
X10648634Y-14411484D01*
X10648634Y-14411484D02*
X10629587Y-14401960D01*
X10629587Y-14401960D02*
X10620063Y-14392436D01*
X10620063Y-14392436D02*
X10610539Y-14373388D01*
X10610539Y-14373388D02*
X10601015Y-14335293D01*
X10601015Y-14335293D02*
X10601015Y-14287674D01*
X10601015Y-14287674D02*
X10610539Y-14249579D01*
X10610539Y-14249579D02*
X10620063Y-14230531D01*
X10620063Y-14230531D02*
X10629587Y-14221008D01*
X10629587Y-14221008D02*
X10648634Y-14211484D01*
X10801015Y-14392436D02*
X10810539Y-14401960D01*
X10810539Y-14401960D02*
X10801015Y-14411484D01*
X10801015Y-14411484D02*
X10791491Y-14401960D01*
X10791491Y-14401960D02*
X10801015Y-14392436D01*
X10801015Y-14392436D02*
X10801015Y-14411484D01*
X10934348Y-14211484D02*
X10953396Y-14211484D01*
X10953396Y-14211484D02*
X10972444Y-14221008D01*
X10972444Y-14221008D02*
X10981968Y-14230531D01*
X10981968Y-14230531D02*
X10991491Y-14249579D01*
X10991491Y-14249579D02*
X11001015Y-14287674D01*
X11001015Y-14287674D02*
X11001015Y-14335293D01*
X11001015Y-14335293D02*
X10991491Y-14373388D01*
X10991491Y-14373388D02*
X10981968Y-14392436D01*
X10981968Y-14392436D02*
X10972444Y-14401960D01*
X10972444Y-14401960D02*
X10953396Y-14411484D01*
X10953396Y-14411484D02*
X10934348Y-14411484D01*
X10934348Y-14411484D02*
X10915301Y-14401960D01*
X10915301Y-14401960D02*
X10905777Y-14392436D01*
X10905777Y-14392436D02*
X10896253Y-14373388D01*
X10896253Y-14373388D02*
X10886729Y-14335293D01*
X10886729Y-14335293D02*
X10886729Y-14287674D01*
X10886729Y-14287674D02*
X10896253Y-14249579D01*
X10896253Y-14249579D02*
X10905777Y-14230531D01*
X10905777Y-14230531D02*
X10915301Y-14221008D01*
X10915301Y-14221008D02*
X10934348Y-14211484D01*
X11191491Y-14411484D02*
X11077206Y-14411484D01*
X11134348Y-14411484D02*
X11134348Y-14211484D01*
X11134348Y-14211484D02*
X11115301Y-14240055D01*
X11115301Y-14240055D02*
X11096253Y-14259103D01*
X11096253Y-14259103D02*
X11077206Y-14268627D01*
X11381967Y-14411484D02*
X11267682Y-14411484D01*
X11324825Y-14411484D02*
X11324825Y-14211484D01*
X11324825Y-14211484D02*
X11305777Y-14240055D01*
X11305777Y-14240055D02*
X11286729Y-14259103D01*
X11286729Y-14259103D02*
X11267682Y-14268627D01*
X11496253Y-14297198D02*
X11477206Y-14287674D01*
X11477206Y-14287674D02*
X11467682Y-14278150D01*
X11467682Y-14278150D02*
X11458158Y-14259103D01*
X11458158Y-14259103D02*
X11458158Y-14249579D01*
X11458158Y-14249579D02*
X11467682Y-14230531D01*
X11467682Y-14230531D02*
X11477206Y-14221008D01*
X11477206Y-14221008D02*
X11496253Y-14211484D01*
X11496253Y-14211484D02*
X11534348Y-14211484D01*
X11534348Y-14211484D02*
X11553396Y-14221008D01*
X11553396Y-14221008D02*
X11562920Y-14230531D01*
X11562920Y-14230531D02*
X11572444Y-14249579D01*
X11572444Y-14249579D02*
X11572444Y-14259103D01*
X11572444Y-14259103D02*
X11562920Y-14278150D01*
X11562920Y-14278150D02*
X11553396Y-14287674D01*
X11553396Y-14287674D02*
X11534348Y-14297198D01*
X11534348Y-14297198D02*
X11496253Y-14297198D01*
X11496253Y-14297198D02*
X11477206Y-14306722D01*
X11477206Y-14306722D02*
X11467682Y-14316246D01*
X11467682Y-14316246D02*
X11458158Y-14335293D01*
X11458158Y-14335293D02*
X11458158Y-14373388D01*
X11458158Y-14373388D02*
X11467682Y-14392436D01*
X11467682Y-14392436D02*
X11477206Y-14401960D01*
X11477206Y-14401960D02*
X11496253Y-14411484D01*
X11496253Y-14411484D02*
X11534348Y-14411484D01*
X11534348Y-14411484D02*
X11553396Y-14401960D01*
X11553396Y-14401960D02*
X11562920Y-14392436D01*
X11562920Y-14392436D02*
X11572444Y-14373388D01*
X11572444Y-14373388D02*
X11572444Y-14335293D01*
X11572444Y-14335293D02*
X11562920Y-14316246D01*
X11562920Y-14316246D02*
X11553396Y-14306722D01*
X11553396Y-14306722D02*
X11534348Y-14297198D01*
X11648634Y-14211484D02*
X11648634Y-14249579D01*
X11724825Y-14211484D02*
X11724825Y-14249579D01*
X12020063Y-14487674D02*
X12010539Y-14478150D01*
X12010539Y-14478150D02*
X11991491Y-14449579D01*
X11991491Y-14449579D02*
X11981968Y-14430531D01*
X11981968Y-14430531D02*
X11972444Y-14401960D01*
X11972444Y-14401960D02*
X11962920Y-14354341D01*
X11962920Y-14354341D02*
X11962920Y-14316246D01*
X11962920Y-14316246D02*
X11972444Y-14268627D01*
X11972444Y-14268627D02*
X11981968Y-14240055D01*
X11981968Y-14240055D02*
X11991491Y-14221008D01*
X11991491Y-14221008D02*
X12010539Y-14192436D01*
X12010539Y-14192436D02*
X12020063Y-14182912D01*
X12201015Y-14411484D02*
X12086729Y-14411484D01*
X12143872Y-14411484D02*
X12143872Y-14211484D01*
X12143872Y-14211484D02*
X12124825Y-14240055D01*
X12124825Y-14240055D02*
X12105777Y-14259103D01*
X12105777Y-14259103D02*
X12086729Y-14268627D01*
X12381968Y-14211484D02*
X12286729Y-14211484D01*
X12286729Y-14211484D02*
X12277206Y-14306722D01*
X12277206Y-14306722D02*
X12286729Y-14297198D01*
X12286729Y-14297198D02*
X12305777Y-14287674D01*
X12305777Y-14287674D02*
X12353396Y-14287674D01*
X12353396Y-14287674D02*
X12372444Y-14297198D01*
X12372444Y-14297198D02*
X12381968Y-14306722D01*
X12381968Y-14306722D02*
X12391491Y-14325769D01*
X12391491Y-14325769D02*
X12391491Y-14373388D01*
X12391491Y-14373388D02*
X12381968Y-14392436D01*
X12381968Y-14392436D02*
X12372444Y-14401960D01*
X12372444Y-14401960D02*
X12353396Y-14411484D01*
X12353396Y-14411484D02*
X12305777Y-14411484D01*
X12305777Y-14411484D02*
X12286729Y-14401960D01*
X12286729Y-14401960D02*
X12277206Y-14392436D01*
X12505777Y-14297198D02*
X12486729Y-14287674D01*
X12486729Y-14287674D02*
X12477206Y-14278150D01*
X12477206Y-14278150D02*
X12467682Y-14259103D01*
X12467682Y-14259103D02*
X12467682Y-14249579D01*
X12467682Y-14249579D02*
X12477206Y-14230531D01*
X12477206Y-14230531D02*
X12486729Y-14221008D01*
X12486729Y-14221008D02*
X12505777Y-14211484D01*
X12505777Y-14211484D02*
X12543872Y-14211484D01*
X12543872Y-14211484D02*
X12562920Y-14221008D01*
X12562920Y-14221008D02*
X12572444Y-14230531D01*
X12572444Y-14230531D02*
X12581968Y-14249579D01*
X12581968Y-14249579D02*
X12581968Y-14259103D01*
X12581968Y-14259103D02*
X12572444Y-14278150D01*
X12572444Y-14278150D02*
X12562920Y-14287674D01*
X12562920Y-14287674D02*
X12543872Y-14297198D01*
X12543872Y-14297198D02*
X12505777Y-14297198D01*
X12505777Y-14297198D02*
X12486729Y-14306722D01*
X12486729Y-14306722D02*
X12477206Y-14316246D01*
X12477206Y-14316246D02*
X12467682Y-14335293D01*
X12467682Y-14335293D02*
X12467682Y-14373388D01*
X12467682Y-14373388D02*
X12477206Y-14392436D01*
X12477206Y-14392436D02*
X12486729Y-14401960D01*
X12486729Y-14401960D02*
X12505777Y-14411484D01*
X12505777Y-14411484D02*
X12543872Y-14411484D01*
X12543872Y-14411484D02*
X12562920Y-14401960D01*
X12562920Y-14401960D02*
X12572444Y-14392436D01*
X12572444Y-14392436D02*
X12581968Y-14373388D01*
X12581968Y-14373388D02*
X12581968Y-14335293D01*
X12581968Y-14335293D02*
X12572444Y-14316246D01*
X12572444Y-14316246D02*
X12562920Y-14306722D01*
X12562920Y-14306722D02*
X12543872Y-14297198D01*
X12820063Y-14411484D02*
X12820063Y-14211484D01*
X12905777Y-14411484D02*
X12905777Y-14306722D01*
X12905777Y-14306722D02*
X12896253Y-14287674D01*
X12896253Y-14287674D02*
X12877206Y-14278150D01*
X12877206Y-14278150D02*
X12848634Y-14278150D01*
X12848634Y-14278150D02*
X12829587Y-14287674D01*
X12829587Y-14287674D02*
X12820063Y-14297198D01*
X13029587Y-14411484D02*
X13010539Y-14401960D01*
X13010539Y-14401960D02*
X13001015Y-14392436D01*
X13001015Y-14392436D02*
X12991491Y-14373388D01*
X12991491Y-14373388D02*
X12991491Y-14316246D01*
X12991491Y-14316246D02*
X13001015Y-14297198D01*
X13001015Y-14297198D02*
X13010539Y-14287674D01*
X13010539Y-14287674D02*
X13029587Y-14278150D01*
X13029587Y-14278150D02*
X13058158Y-14278150D01*
X13058158Y-14278150D02*
X13077206Y-14287674D01*
X13077206Y-14287674D02*
X13086730Y-14297198D01*
X13086730Y-14297198D02*
X13096253Y-14316246D01*
X13096253Y-14316246D02*
X13096253Y-14373388D01*
X13096253Y-14373388D02*
X13086730Y-14392436D01*
X13086730Y-14392436D02*
X13077206Y-14401960D01*
X13077206Y-14401960D02*
X13058158Y-14411484D01*
X13058158Y-14411484D02*
X13029587Y-14411484D01*
X13210539Y-14411484D02*
X13191491Y-14401960D01*
X13191491Y-14401960D02*
X13181968Y-14382912D01*
X13181968Y-14382912D02*
X13181968Y-14211484D01*
X13362920Y-14401960D02*
X13343872Y-14411484D01*
X13343872Y-14411484D02*
X13305777Y-14411484D01*
X13305777Y-14411484D02*
X13286730Y-14401960D01*
X13286730Y-14401960D02*
X13277206Y-14382912D01*
X13277206Y-14382912D02*
X13277206Y-14306722D01*
X13277206Y-14306722D02*
X13286730Y-14287674D01*
X13286730Y-14287674D02*
X13305777Y-14278150D01*
X13305777Y-14278150D02*
X13343872Y-14278150D01*
X13343872Y-14278150D02*
X13362920Y-14287674D01*
X13362920Y-14287674D02*
X13372444Y-14306722D01*
X13372444Y-14306722D02*
X13372444Y-14325769D01*
X13372444Y-14325769D02*
X13277206Y-14344817D01*
X13448634Y-14401960D02*
X13467682Y-14411484D01*
X13467682Y-14411484D02*
X13505777Y-14411484D01*
X13505777Y-14411484D02*
X13524825Y-14401960D01*
X13524825Y-14401960D02*
X13534349Y-14382912D01*
X13534349Y-14382912D02*
X13534349Y-14373388D01*
X13534349Y-14373388D02*
X13524825Y-14354341D01*
X13524825Y-14354341D02*
X13505777Y-14344817D01*
X13505777Y-14344817D02*
X13477206Y-14344817D01*
X13477206Y-14344817D02*
X13458158Y-14335293D01*
X13458158Y-14335293D02*
X13448634Y-14316246D01*
X13448634Y-14316246D02*
X13448634Y-14306722D01*
X13448634Y-14306722D02*
X13458158Y-14287674D01*
X13458158Y-14287674D02*
X13477206Y-14278150D01*
X13477206Y-14278150D02*
X13505777Y-14278150D01*
X13505777Y-14278150D02*
X13524825Y-14287674D01*
X13601015Y-14487674D02*
X13610539Y-14478150D01*
X13610539Y-14478150D02*
X13629587Y-14449579D01*
X13629587Y-14449579D02*
X13639111Y-14430531D01*
X13639111Y-14430531D02*
X13648634Y-14401960D01*
X13648634Y-14401960D02*
X13658158Y-14354341D01*
X13658158Y-14354341D02*
X13658158Y-14316246D01*
X13658158Y-14316246D02*
X13648634Y-14268627D01*
X13648634Y-14268627D02*
X13639111Y-14240055D01*
X13639111Y-14240055D02*
X13629587Y-14221008D01*
X13629587Y-14221008D02*
X13610539Y-14192436D01*
X13610539Y-14192436D02*
X13601015Y-14182912D01*
D10*
X8445000Y-14584000D02*
G75*
G02*
X8385000Y-14584000I-30000J0D01*
G01*
X8385000Y-14584000D02*
G75*
G02*
X8445000Y-14584000I30000J0D01*
G01*
D11*
X8743872Y-14475484D02*
X8762920Y-14475484D01*
X8762920Y-14475484D02*
X8781967Y-14485008D01*
X8781967Y-14485008D02*
X8791491Y-14494531D01*
X8791491Y-14494531D02*
X8801015Y-14513579D01*
X8801015Y-14513579D02*
X8810539Y-14551674D01*
X8810539Y-14551674D02*
X8810539Y-14599293D01*
X8810539Y-14599293D02*
X8801015Y-14637388D01*
X8801015Y-14637388D02*
X8791491Y-14656436D01*
X8791491Y-14656436D02*
X8781967Y-14665960D01*
X8781967Y-14665960D02*
X8762920Y-14675484D01*
X8762920Y-14675484D02*
X8743872Y-14675484D01*
X8743872Y-14675484D02*
X8724824Y-14665960D01*
X8724824Y-14665960D02*
X8715301Y-14656436D01*
X8715301Y-14656436D02*
X8705777Y-14637388D01*
X8705777Y-14637388D02*
X8696253Y-14599293D01*
X8696253Y-14599293D02*
X8696253Y-14551674D01*
X8696253Y-14551674D02*
X8705777Y-14513579D01*
X8705777Y-14513579D02*
X8715301Y-14494531D01*
X8715301Y-14494531D02*
X8724824Y-14485008D01*
X8724824Y-14485008D02*
X8743872Y-14475484D01*
X8896253Y-14656436D02*
X8905777Y-14665960D01*
X8905777Y-14665960D02*
X8896253Y-14675484D01*
X8896253Y-14675484D02*
X8886729Y-14665960D01*
X8886729Y-14665960D02*
X8896253Y-14656436D01*
X8896253Y-14656436D02*
X8896253Y-14675484D01*
X9077205Y-14475484D02*
X9039110Y-14475484D01*
X9039110Y-14475484D02*
X9020063Y-14485008D01*
X9020063Y-14485008D02*
X9010539Y-14494531D01*
X9010539Y-14494531D02*
X8991491Y-14523103D01*
X8991491Y-14523103D02*
X8981967Y-14561198D01*
X8981967Y-14561198D02*
X8981967Y-14637388D01*
X8981967Y-14637388D02*
X8991491Y-14656436D01*
X8991491Y-14656436D02*
X9001015Y-14665960D01*
X9001015Y-14665960D02*
X9020063Y-14675484D01*
X9020063Y-14675484D02*
X9058158Y-14675484D01*
X9058158Y-14675484D02*
X9077205Y-14665960D01*
X9077205Y-14665960D02*
X9086729Y-14656436D01*
X9086729Y-14656436D02*
X9096253Y-14637388D01*
X9096253Y-14637388D02*
X9096253Y-14589769D01*
X9096253Y-14589769D02*
X9086729Y-14570722D01*
X9086729Y-14570722D02*
X9077205Y-14561198D01*
X9077205Y-14561198D02*
X9058158Y-14551674D01*
X9058158Y-14551674D02*
X9020063Y-14551674D01*
X9020063Y-14551674D02*
X9001015Y-14561198D01*
X9001015Y-14561198D02*
X8991491Y-14570722D01*
X8991491Y-14570722D02*
X8981967Y-14589769D01*
X9220063Y-14475484D02*
X9239110Y-14475484D01*
X9239110Y-14475484D02*
X9258158Y-14485008D01*
X9258158Y-14485008D02*
X9267682Y-14494531D01*
X9267682Y-14494531D02*
X9277205Y-14513579D01*
X9277205Y-14513579D02*
X9286729Y-14551674D01*
X9286729Y-14551674D02*
X9286729Y-14599293D01*
X9286729Y-14599293D02*
X9277205Y-14637388D01*
X9277205Y-14637388D02*
X9267682Y-14656436D01*
X9267682Y-14656436D02*
X9258158Y-14665960D01*
X9258158Y-14665960D02*
X9239110Y-14675484D01*
X9239110Y-14675484D02*
X9220063Y-14675484D01*
X9220063Y-14675484D02*
X9201015Y-14665960D01*
X9201015Y-14665960D02*
X9191491Y-14656436D01*
X9191491Y-14656436D02*
X9181967Y-14637388D01*
X9181967Y-14637388D02*
X9172444Y-14599293D01*
X9172444Y-14599293D02*
X9172444Y-14551674D01*
X9172444Y-14551674D02*
X9181967Y-14513579D01*
X9181967Y-14513579D02*
X9191491Y-14494531D01*
X9191491Y-14494531D02*
X9201015Y-14485008D01*
X9201015Y-14485008D02*
X9220063Y-14475484D01*
X9410539Y-14475484D02*
X9429586Y-14475484D01*
X9429586Y-14475484D02*
X9448634Y-14485008D01*
X9448634Y-14485008D02*
X9458158Y-14494531D01*
X9458158Y-14494531D02*
X9467682Y-14513579D01*
X9467682Y-14513579D02*
X9477205Y-14551674D01*
X9477205Y-14551674D02*
X9477205Y-14599293D01*
X9477205Y-14599293D02*
X9467682Y-14637388D01*
X9467682Y-14637388D02*
X9458158Y-14656436D01*
X9458158Y-14656436D02*
X9448634Y-14665960D01*
X9448634Y-14665960D02*
X9429586Y-14675484D01*
X9429586Y-14675484D02*
X9410539Y-14675484D01*
X9410539Y-14675484D02*
X9391491Y-14665960D01*
X9391491Y-14665960D02*
X9381967Y-14656436D01*
X9381967Y-14656436D02*
X9372444Y-14637388D01*
X9372444Y-14637388D02*
X9362920Y-14599293D01*
X9362920Y-14599293D02*
X9362920Y-14551674D01*
X9362920Y-14551674D02*
X9372444Y-14513579D01*
X9372444Y-14513579D02*
X9381967Y-14494531D01*
X9381967Y-14494531D02*
X9391491Y-14485008D01*
X9391491Y-14485008D02*
X9410539Y-14475484D01*
X9562920Y-14675484D02*
X9562920Y-14542150D01*
X9562920Y-14561198D02*
X9572444Y-14551674D01*
X9572444Y-14551674D02*
X9591491Y-14542150D01*
X9591491Y-14542150D02*
X9620063Y-14542150D01*
X9620063Y-14542150D02*
X9639110Y-14551674D01*
X9639110Y-14551674D02*
X9648634Y-14570722D01*
X9648634Y-14570722D02*
X9648634Y-14675484D01*
X9648634Y-14570722D02*
X9658158Y-14551674D01*
X9658158Y-14551674D02*
X9677205Y-14542150D01*
X9677205Y-14542150D02*
X9705777Y-14542150D01*
X9705777Y-14542150D02*
X9724825Y-14551674D01*
X9724825Y-14551674D02*
X9734348Y-14570722D01*
X9734348Y-14570722D02*
X9734348Y-14675484D01*
X9829586Y-14675484D02*
X9829586Y-14542150D01*
X9829586Y-14561198D02*
X9839110Y-14551674D01*
X9839110Y-14551674D02*
X9858158Y-14542150D01*
X9858158Y-14542150D02*
X9886729Y-14542150D01*
X9886729Y-14542150D02*
X9905777Y-14551674D01*
X9905777Y-14551674D02*
X9915301Y-14570722D01*
X9915301Y-14570722D02*
X9915301Y-14675484D01*
X9915301Y-14570722D02*
X9924825Y-14551674D01*
X9924825Y-14551674D02*
X9943872Y-14542150D01*
X9943872Y-14542150D02*
X9972444Y-14542150D01*
X9972444Y-14542150D02*
X9991491Y-14551674D01*
X9991491Y-14551674D02*
X10001015Y-14570722D01*
X10001015Y-14570722D02*
X10001015Y-14675484D01*
X10391491Y-14465960D02*
X10220063Y-14723103D01*
X10648634Y-14475484D02*
X10667682Y-14475484D01*
X10667682Y-14475484D02*
X10686729Y-14485008D01*
X10686729Y-14485008D02*
X10696253Y-14494531D01*
X10696253Y-14494531D02*
X10705777Y-14513579D01*
X10705777Y-14513579D02*
X10715301Y-14551674D01*
X10715301Y-14551674D02*
X10715301Y-14599293D01*
X10715301Y-14599293D02*
X10705777Y-14637388D01*
X10705777Y-14637388D02*
X10696253Y-14656436D01*
X10696253Y-14656436D02*
X10686729Y-14665960D01*
X10686729Y-14665960D02*
X10667682Y-14675484D01*
X10667682Y-14675484D02*
X10648634Y-14675484D01*
X10648634Y-14675484D02*
X10629587Y-14665960D01*
X10629587Y-14665960D02*
X10620063Y-14656436D01*
X10620063Y-14656436D02*
X10610539Y-14637388D01*
X10610539Y-14637388D02*
X10601015Y-14599293D01*
X10601015Y-14599293D02*
X10601015Y-14551674D01*
X10601015Y-14551674D02*
X10610539Y-14513579D01*
X10610539Y-14513579D02*
X10620063Y-14494531D01*
X10620063Y-14494531D02*
X10629587Y-14485008D01*
X10629587Y-14485008D02*
X10648634Y-14475484D01*
X10801015Y-14656436D02*
X10810539Y-14665960D01*
X10810539Y-14665960D02*
X10801015Y-14675484D01*
X10801015Y-14675484D02*
X10791491Y-14665960D01*
X10791491Y-14665960D02*
X10801015Y-14656436D01*
X10801015Y-14656436D02*
X10801015Y-14675484D01*
X10934348Y-14475484D02*
X10953396Y-14475484D01*
X10953396Y-14475484D02*
X10972444Y-14485008D01*
X10972444Y-14485008D02*
X10981968Y-14494531D01*
X10981968Y-14494531D02*
X10991491Y-14513579D01*
X10991491Y-14513579D02*
X11001015Y-14551674D01*
X11001015Y-14551674D02*
X11001015Y-14599293D01*
X11001015Y-14599293D02*
X10991491Y-14637388D01*
X10991491Y-14637388D02*
X10981968Y-14656436D01*
X10981968Y-14656436D02*
X10972444Y-14665960D01*
X10972444Y-14665960D02*
X10953396Y-14675484D01*
X10953396Y-14675484D02*
X10934348Y-14675484D01*
X10934348Y-14675484D02*
X10915301Y-14665960D01*
X10915301Y-14665960D02*
X10905777Y-14656436D01*
X10905777Y-14656436D02*
X10896253Y-14637388D01*
X10896253Y-14637388D02*
X10886729Y-14599293D01*
X10886729Y-14599293D02*
X10886729Y-14551674D01*
X10886729Y-14551674D02*
X10896253Y-14513579D01*
X10896253Y-14513579D02*
X10905777Y-14494531D01*
X10905777Y-14494531D02*
X10915301Y-14485008D01*
X10915301Y-14485008D02*
X10934348Y-14475484D01*
X11077206Y-14494531D02*
X11086729Y-14485008D01*
X11086729Y-14485008D02*
X11105777Y-14475484D01*
X11105777Y-14475484D02*
X11153396Y-14475484D01*
X11153396Y-14475484D02*
X11172444Y-14485008D01*
X11172444Y-14485008D02*
X11181968Y-14494531D01*
X11181968Y-14494531D02*
X11191491Y-14513579D01*
X11191491Y-14513579D02*
X11191491Y-14532627D01*
X11191491Y-14532627D02*
X11181968Y-14561198D01*
X11181968Y-14561198D02*
X11067682Y-14675484D01*
X11067682Y-14675484D02*
X11191491Y-14675484D01*
X11258158Y-14475484D02*
X11381967Y-14475484D01*
X11381967Y-14475484D02*
X11315301Y-14551674D01*
X11315301Y-14551674D02*
X11343872Y-14551674D01*
X11343872Y-14551674D02*
X11362920Y-14561198D01*
X11362920Y-14561198D02*
X11372444Y-14570722D01*
X11372444Y-14570722D02*
X11381967Y-14589769D01*
X11381967Y-14589769D02*
X11381967Y-14637388D01*
X11381967Y-14637388D02*
X11372444Y-14656436D01*
X11372444Y-14656436D02*
X11362920Y-14665960D01*
X11362920Y-14665960D02*
X11343872Y-14675484D01*
X11343872Y-14675484D02*
X11286729Y-14675484D01*
X11286729Y-14675484D02*
X11267682Y-14665960D01*
X11267682Y-14665960D02*
X11258158Y-14656436D01*
X11553396Y-14475484D02*
X11515301Y-14475484D01*
X11515301Y-14475484D02*
X11496253Y-14485008D01*
X11496253Y-14485008D02*
X11486729Y-14494531D01*
X11486729Y-14494531D02*
X11467682Y-14523103D01*
X11467682Y-14523103D02*
X11458158Y-14561198D01*
X11458158Y-14561198D02*
X11458158Y-14637388D01*
X11458158Y-14637388D02*
X11467682Y-14656436D01*
X11467682Y-14656436D02*
X11477206Y-14665960D01*
X11477206Y-14665960D02*
X11496253Y-14675484D01*
X11496253Y-14675484D02*
X11534348Y-14675484D01*
X11534348Y-14675484D02*
X11553396Y-14665960D01*
X11553396Y-14665960D02*
X11562920Y-14656436D01*
X11562920Y-14656436D02*
X11572444Y-14637388D01*
X11572444Y-14637388D02*
X11572444Y-14589769D01*
X11572444Y-14589769D02*
X11562920Y-14570722D01*
X11562920Y-14570722D02*
X11553396Y-14561198D01*
X11553396Y-14561198D02*
X11534348Y-14551674D01*
X11534348Y-14551674D02*
X11496253Y-14551674D01*
X11496253Y-14551674D02*
X11477206Y-14561198D01*
X11477206Y-14561198D02*
X11467682Y-14570722D01*
X11467682Y-14570722D02*
X11458158Y-14589769D01*
X11648634Y-14475484D02*
X11648634Y-14513579D01*
X11724825Y-14475484D02*
X11724825Y-14513579D01*
X12020063Y-14751674D02*
X12010539Y-14742150D01*
X12010539Y-14742150D02*
X11991491Y-14713579D01*
X11991491Y-14713579D02*
X11981968Y-14694531D01*
X11981968Y-14694531D02*
X11972444Y-14665960D01*
X11972444Y-14665960D02*
X11962920Y-14618341D01*
X11962920Y-14618341D02*
X11962920Y-14580246D01*
X11962920Y-14580246D02*
X11972444Y-14532627D01*
X11972444Y-14532627D02*
X11981968Y-14504055D01*
X11981968Y-14504055D02*
X11991491Y-14485008D01*
X11991491Y-14485008D02*
X12010539Y-14456436D01*
X12010539Y-14456436D02*
X12020063Y-14446912D01*
X12134348Y-14475484D02*
X12153396Y-14475484D01*
X12153396Y-14475484D02*
X12172444Y-14485008D01*
X12172444Y-14485008D02*
X12181968Y-14494531D01*
X12181968Y-14494531D02*
X12191491Y-14513579D01*
X12191491Y-14513579D02*
X12201015Y-14551674D01*
X12201015Y-14551674D02*
X12201015Y-14599293D01*
X12201015Y-14599293D02*
X12191491Y-14637388D01*
X12191491Y-14637388D02*
X12181968Y-14656436D01*
X12181968Y-14656436D02*
X12172444Y-14665960D01*
X12172444Y-14665960D02*
X12153396Y-14675484D01*
X12153396Y-14675484D02*
X12134348Y-14675484D01*
X12134348Y-14675484D02*
X12115301Y-14665960D01*
X12115301Y-14665960D02*
X12105777Y-14656436D01*
X12105777Y-14656436D02*
X12096253Y-14637388D01*
X12096253Y-14637388D02*
X12086729Y-14599293D01*
X12086729Y-14599293D02*
X12086729Y-14551674D01*
X12086729Y-14551674D02*
X12096253Y-14513579D01*
X12096253Y-14513579D02*
X12105777Y-14494531D01*
X12105777Y-14494531D02*
X12115301Y-14485008D01*
X12115301Y-14485008D02*
X12134348Y-14475484D01*
X12439110Y-14675484D02*
X12439110Y-14475484D01*
X12524825Y-14675484D02*
X12524825Y-14570722D01*
X12524825Y-14570722D02*
X12515301Y-14551674D01*
X12515301Y-14551674D02*
X12496253Y-14542150D01*
X12496253Y-14542150D02*
X12467682Y-14542150D01*
X12467682Y-14542150D02*
X12448634Y-14551674D01*
X12448634Y-14551674D02*
X12439110Y-14561198D01*
X12648634Y-14675484D02*
X12629587Y-14665960D01*
X12629587Y-14665960D02*
X12620063Y-14656436D01*
X12620063Y-14656436D02*
X12610539Y-14637388D01*
X12610539Y-14637388D02*
X12610539Y-14580246D01*
X12610539Y-14580246D02*
X12620063Y-14561198D01*
X12620063Y-14561198D02*
X12629587Y-14551674D01*
X12629587Y-14551674D02*
X12648634Y-14542150D01*
X12648634Y-14542150D02*
X12677206Y-14542150D01*
X12677206Y-14542150D02*
X12696253Y-14551674D01*
X12696253Y-14551674D02*
X12705777Y-14561198D01*
X12705777Y-14561198D02*
X12715301Y-14580246D01*
X12715301Y-14580246D02*
X12715301Y-14637388D01*
X12715301Y-14637388D02*
X12705777Y-14656436D01*
X12705777Y-14656436D02*
X12696253Y-14665960D01*
X12696253Y-14665960D02*
X12677206Y-14675484D01*
X12677206Y-14675484D02*
X12648634Y-14675484D01*
X12829587Y-14675484D02*
X12810539Y-14665960D01*
X12810539Y-14665960D02*
X12801015Y-14646912D01*
X12801015Y-14646912D02*
X12801015Y-14475484D01*
X12981968Y-14665960D02*
X12962920Y-14675484D01*
X12962920Y-14675484D02*
X12924825Y-14675484D01*
X12924825Y-14675484D02*
X12905777Y-14665960D01*
X12905777Y-14665960D02*
X12896253Y-14646912D01*
X12896253Y-14646912D02*
X12896253Y-14570722D01*
X12896253Y-14570722D02*
X12905777Y-14551674D01*
X12905777Y-14551674D02*
X12924825Y-14542150D01*
X12924825Y-14542150D02*
X12962920Y-14542150D01*
X12962920Y-14542150D02*
X12981968Y-14551674D01*
X12981968Y-14551674D02*
X12991491Y-14570722D01*
X12991491Y-14570722D02*
X12991491Y-14589769D01*
X12991491Y-14589769D02*
X12896253Y-14608817D01*
X13067682Y-14665960D02*
X13086730Y-14675484D01*
X13086730Y-14675484D02*
X13124825Y-14675484D01*
X13124825Y-14675484D02*
X13143872Y-14665960D01*
X13143872Y-14665960D02*
X13153396Y-14646912D01*
X13153396Y-14646912D02*
X13153396Y-14637388D01*
X13153396Y-14637388D02*
X13143872Y-14618341D01*
X13143872Y-14618341D02*
X13124825Y-14608817D01*
X13124825Y-14608817D02*
X13096253Y-14608817D01*
X13096253Y-14608817D02*
X13077206Y-14599293D01*
X13077206Y-14599293D02*
X13067682Y-14580246D01*
X13067682Y-14580246D02*
X13067682Y-14570722D01*
X13067682Y-14570722D02*
X13077206Y-14551674D01*
X13077206Y-14551674D02*
X13096253Y-14542150D01*
X13096253Y-14542150D02*
X13124825Y-14542150D01*
X13124825Y-14542150D02*
X13143872Y-14551674D01*
X13391492Y-14599293D02*
X13543873Y-14599293D01*
X13467682Y-14675484D02*
X13467682Y-14523103D01*
X13877206Y-14542150D02*
X13877206Y-14675484D01*
X13829587Y-14465960D02*
X13781968Y-14608817D01*
X13781968Y-14608817D02*
X13905777Y-14608817D01*
X14124825Y-14665960D02*
X14143873Y-14675484D01*
X14143873Y-14675484D02*
X14181968Y-14675484D01*
X14181968Y-14675484D02*
X14201015Y-14665960D01*
X14201015Y-14665960D02*
X14210539Y-14646912D01*
X14210539Y-14646912D02*
X14210539Y-14637388D01*
X14210539Y-14637388D02*
X14201015Y-14618341D01*
X14201015Y-14618341D02*
X14181968Y-14608817D01*
X14181968Y-14608817D02*
X14153396Y-14608817D01*
X14153396Y-14608817D02*
X14134349Y-14599293D01*
X14134349Y-14599293D02*
X14124825Y-14580246D01*
X14124825Y-14580246D02*
X14124825Y-14570722D01*
X14124825Y-14570722D02*
X14134349Y-14551674D01*
X14134349Y-14551674D02*
X14153396Y-14542150D01*
X14153396Y-14542150D02*
X14181968Y-14542150D01*
X14181968Y-14542150D02*
X14201015Y-14551674D01*
X14324825Y-14675484D02*
X14305777Y-14665960D01*
X14305777Y-14665960D02*
X14296254Y-14646912D01*
X14296254Y-14646912D02*
X14296254Y-14475484D01*
X14429587Y-14675484D02*
X14410539Y-14665960D01*
X14410539Y-14665960D02*
X14401015Y-14656436D01*
X14401015Y-14656436D02*
X14391492Y-14637388D01*
X14391492Y-14637388D02*
X14391492Y-14580246D01*
X14391492Y-14580246D02*
X14401015Y-14561198D01*
X14401015Y-14561198D02*
X14410539Y-14551674D01*
X14410539Y-14551674D02*
X14429587Y-14542150D01*
X14429587Y-14542150D02*
X14458158Y-14542150D01*
X14458158Y-14542150D02*
X14477206Y-14551674D01*
X14477206Y-14551674D02*
X14486730Y-14561198D01*
X14486730Y-14561198D02*
X14496254Y-14580246D01*
X14496254Y-14580246D02*
X14496254Y-14637388D01*
X14496254Y-14637388D02*
X14486730Y-14656436D01*
X14486730Y-14656436D02*
X14477206Y-14665960D01*
X14477206Y-14665960D02*
X14458158Y-14675484D01*
X14458158Y-14675484D02*
X14429587Y-14675484D01*
X14553396Y-14542150D02*
X14629587Y-14542150D01*
X14581968Y-14475484D02*
X14581968Y-14646912D01*
X14581968Y-14646912D02*
X14591492Y-14665960D01*
X14591492Y-14665960D02*
X14610539Y-14675484D01*
X14610539Y-14675484D02*
X14629587Y-14675484D01*
X14686730Y-14665960D02*
X14705777Y-14675484D01*
X14705777Y-14675484D02*
X14743873Y-14675484D01*
X14743873Y-14675484D02*
X14762920Y-14665960D01*
X14762920Y-14665960D02*
X14772444Y-14646912D01*
X14772444Y-14646912D02*
X14772444Y-14637388D01*
X14772444Y-14637388D02*
X14762920Y-14618341D01*
X14762920Y-14618341D02*
X14743873Y-14608817D01*
X14743873Y-14608817D02*
X14715301Y-14608817D01*
X14715301Y-14608817D02*
X14696254Y-14599293D01*
X14696254Y-14599293D02*
X14686730Y-14580246D01*
X14686730Y-14580246D02*
X14686730Y-14570722D01*
X14686730Y-14570722D02*
X14696254Y-14551674D01*
X14696254Y-14551674D02*
X14715301Y-14542150D01*
X14715301Y-14542150D02*
X14743873Y-14542150D01*
X14743873Y-14542150D02*
X14762920Y-14551674D01*
X14839111Y-14751674D02*
X14848635Y-14742150D01*
X14848635Y-14742150D02*
X14867682Y-14713579D01*
X14867682Y-14713579D02*
X14877206Y-14694531D01*
X14877206Y-14694531D02*
X14886730Y-14665960D01*
X14886730Y-14665960D02*
X14896254Y-14618341D01*
X14896254Y-14618341D02*
X14896254Y-14580246D01*
X14896254Y-14580246D02*
X14886730Y-14532627D01*
X14886730Y-14532627D02*
X14877206Y-14504055D01*
X14877206Y-14504055D02*
X14867682Y-14485008D01*
X14867682Y-14485008D02*
X14848635Y-14456436D01*
X14848635Y-14456436D02*
X14839111Y-14446912D01*
D10*
X8407500Y-14810500D02*
X8407500Y-14885500D01*
X8370000Y-14848000D02*
X8445000Y-14848000D01*
D11*
X8743872Y-14739484D02*
X8762920Y-14739484D01*
X8762920Y-14739484D02*
X8781967Y-14749008D01*
X8781967Y-14749008D02*
X8791491Y-14758531D01*
X8791491Y-14758531D02*
X8801015Y-14777579D01*
X8801015Y-14777579D02*
X8810539Y-14815674D01*
X8810539Y-14815674D02*
X8810539Y-14863293D01*
X8810539Y-14863293D02*
X8801015Y-14901388D01*
X8801015Y-14901388D02*
X8791491Y-14920436D01*
X8791491Y-14920436D02*
X8781967Y-14929960D01*
X8781967Y-14929960D02*
X8762920Y-14939484D01*
X8762920Y-14939484D02*
X8743872Y-14939484D01*
X8743872Y-14939484D02*
X8724824Y-14929960D01*
X8724824Y-14929960D02*
X8715301Y-14920436D01*
X8715301Y-14920436D02*
X8705777Y-14901388D01*
X8705777Y-14901388D02*
X8696253Y-14863293D01*
X8696253Y-14863293D02*
X8696253Y-14815674D01*
X8696253Y-14815674D02*
X8705777Y-14777579D01*
X8705777Y-14777579D02*
X8715301Y-14758531D01*
X8715301Y-14758531D02*
X8724824Y-14749008D01*
X8724824Y-14749008D02*
X8743872Y-14739484D01*
X8896253Y-14920436D02*
X8905777Y-14929960D01*
X8905777Y-14929960D02*
X8896253Y-14939484D01*
X8896253Y-14939484D02*
X8886729Y-14929960D01*
X8886729Y-14929960D02*
X8896253Y-14920436D01*
X8896253Y-14920436D02*
X8896253Y-14939484D01*
X8972444Y-14739484D02*
X9105777Y-14739484D01*
X9105777Y-14739484D02*
X9020063Y-14939484D01*
X9277205Y-14739484D02*
X9181967Y-14739484D01*
X9181967Y-14739484D02*
X9172444Y-14834722D01*
X9172444Y-14834722D02*
X9181967Y-14825198D01*
X9181967Y-14825198D02*
X9201015Y-14815674D01*
X9201015Y-14815674D02*
X9248634Y-14815674D01*
X9248634Y-14815674D02*
X9267682Y-14825198D01*
X9267682Y-14825198D02*
X9277205Y-14834722D01*
X9277205Y-14834722D02*
X9286729Y-14853769D01*
X9286729Y-14853769D02*
X9286729Y-14901388D01*
X9286729Y-14901388D02*
X9277205Y-14920436D01*
X9277205Y-14920436D02*
X9267682Y-14929960D01*
X9267682Y-14929960D02*
X9248634Y-14939484D01*
X9248634Y-14939484D02*
X9201015Y-14939484D01*
X9201015Y-14939484D02*
X9181967Y-14929960D01*
X9181967Y-14929960D02*
X9172444Y-14920436D01*
X9410539Y-14739484D02*
X9429586Y-14739484D01*
X9429586Y-14739484D02*
X9448634Y-14749008D01*
X9448634Y-14749008D02*
X9458158Y-14758531D01*
X9458158Y-14758531D02*
X9467682Y-14777579D01*
X9467682Y-14777579D02*
X9477205Y-14815674D01*
X9477205Y-14815674D02*
X9477205Y-14863293D01*
X9477205Y-14863293D02*
X9467682Y-14901388D01*
X9467682Y-14901388D02*
X9458158Y-14920436D01*
X9458158Y-14920436D02*
X9448634Y-14929960D01*
X9448634Y-14929960D02*
X9429586Y-14939484D01*
X9429586Y-14939484D02*
X9410539Y-14939484D01*
X9410539Y-14939484D02*
X9391491Y-14929960D01*
X9391491Y-14929960D02*
X9381967Y-14920436D01*
X9381967Y-14920436D02*
X9372444Y-14901388D01*
X9372444Y-14901388D02*
X9362920Y-14863293D01*
X9362920Y-14863293D02*
X9362920Y-14815674D01*
X9362920Y-14815674D02*
X9372444Y-14777579D01*
X9372444Y-14777579D02*
X9381967Y-14758531D01*
X9381967Y-14758531D02*
X9391491Y-14749008D01*
X9391491Y-14749008D02*
X9410539Y-14739484D01*
X9562920Y-14939484D02*
X9562920Y-14806150D01*
X9562920Y-14825198D02*
X9572444Y-14815674D01*
X9572444Y-14815674D02*
X9591491Y-14806150D01*
X9591491Y-14806150D02*
X9620063Y-14806150D01*
X9620063Y-14806150D02*
X9639110Y-14815674D01*
X9639110Y-14815674D02*
X9648634Y-14834722D01*
X9648634Y-14834722D02*
X9648634Y-14939484D01*
X9648634Y-14834722D02*
X9658158Y-14815674D01*
X9658158Y-14815674D02*
X9677205Y-14806150D01*
X9677205Y-14806150D02*
X9705777Y-14806150D01*
X9705777Y-14806150D02*
X9724825Y-14815674D01*
X9724825Y-14815674D02*
X9734348Y-14834722D01*
X9734348Y-14834722D02*
X9734348Y-14939484D01*
X9829586Y-14939484D02*
X9829586Y-14806150D01*
X9829586Y-14825198D02*
X9839110Y-14815674D01*
X9839110Y-14815674D02*
X9858158Y-14806150D01*
X9858158Y-14806150D02*
X9886729Y-14806150D01*
X9886729Y-14806150D02*
X9905777Y-14815674D01*
X9905777Y-14815674D02*
X9915301Y-14834722D01*
X9915301Y-14834722D02*
X9915301Y-14939484D01*
X9915301Y-14834722D02*
X9924825Y-14815674D01*
X9924825Y-14815674D02*
X9943872Y-14806150D01*
X9943872Y-14806150D02*
X9972444Y-14806150D01*
X9972444Y-14806150D02*
X9991491Y-14815674D01*
X9991491Y-14815674D02*
X10001015Y-14834722D01*
X10001015Y-14834722D02*
X10001015Y-14939484D01*
X10391491Y-14729960D02*
X10220063Y-14987103D01*
X10648634Y-14739484D02*
X10667682Y-14739484D01*
X10667682Y-14739484D02*
X10686729Y-14749008D01*
X10686729Y-14749008D02*
X10696253Y-14758531D01*
X10696253Y-14758531D02*
X10705777Y-14777579D01*
X10705777Y-14777579D02*
X10715301Y-14815674D01*
X10715301Y-14815674D02*
X10715301Y-14863293D01*
X10715301Y-14863293D02*
X10705777Y-14901388D01*
X10705777Y-14901388D02*
X10696253Y-14920436D01*
X10696253Y-14920436D02*
X10686729Y-14929960D01*
X10686729Y-14929960D02*
X10667682Y-14939484D01*
X10667682Y-14939484D02*
X10648634Y-14939484D01*
X10648634Y-14939484D02*
X10629587Y-14929960D01*
X10629587Y-14929960D02*
X10620063Y-14920436D01*
X10620063Y-14920436D02*
X10610539Y-14901388D01*
X10610539Y-14901388D02*
X10601015Y-14863293D01*
X10601015Y-14863293D02*
X10601015Y-14815674D01*
X10601015Y-14815674D02*
X10610539Y-14777579D01*
X10610539Y-14777579D02*
X10620063Y-14758531D01*
X10620063Y-14758531D02*
X10629587Y-14749008D01*
X10629587Y-14749008D02*
X10648634Y-14739484D01*
X10801015Y-14920436D02*
X10810539Y-14929960D01*
X10810539Y-14929960D02*
X10801015Y-14939484D01*
X10801015Y-14939484D02*
X10791491Y-14929960D01*
X10791491Y-14929960D02*
X10801015Y-14920436D01*
X10801015Y-14920436D02*
X10801015Y-14939484D01*
X10934348Y-14739484D02*
X10953396Y-14739484D01*
X10953396Y-14739484D02*
X10972444Y-14749008D01*
X10972444Y-14749008D02*
X10981968Y-14758531D01*
X10981968Y-14758531D02*
X10991491Y-14777579D01*
X10991491Y-14777579D02*
X11001015Y-14815674D01*
X11001015Y-14815674D02*
X11001015Y-14863293D01*
X11001015Y-14863293D02*
X10991491Y-14901388D01*
X10991491Y-14901388D02*
X10981968Y-14920436D01*
X10981968Y-14920436D02*
X10972444Y-14929960D01*
X10972444Y-14929960D02*
X10953396Y-14939484D01*
X10953396Y-14939484D02*
X10934348Y-14939484D01*
X10934348Y-14939484D02*
X10915301Y-14929960D01*
X10915301Y-14929960D02*
X10905777Y-14920436D01*
X10905777Y-14920436D02*
X10896253Y-14901388D01*
X10896253Y-14901388D02*
X10886729Y-14863293D01*
X10886729Y-14863293D02*
X10886729Y-14815674D01*
X10886729Y-14815674D02*
X10896253Y-14777579D01*
X10896253Y-14777579D02*
X10905777Y-14758531D01*
X10905777Y-14758531D02*
X10915301Y-14749008D01*
X10915301Y-14749008D02*
X10934348Y-14739484D01*
X11077206Y-14758531D02*
X11086729Y-14749008D01*
X11086729Y-14749008D02*
X11105777Y-14739484D01*
X11105777Y-14739484D02*
X11153396Y-14739484D01*
X11153396Y-14739484D02*
X11172444Y-14749008D01*
X11172444Y-14749008D02*
X11181968Y-14758531D01*
X11181968Y-14758531D02*
X11191491Y-14777579D01*
X11191491Y-14777579D02*
X11191491Y-14796627D01*
X11191491Y-14796627D02*
X11181968Y-14825198D01*
X11181968Y-14825198D02*
X11067682Y-14939484D01*
X11067682Y-14939484D02*
X11191491Y-14939484D01*
X11286729Y-14939484D02*
X11324825Y-14939484D01*
X11324825Y-14939484D02*
X11343872Y-14929960D01*
X11343872Y-14929960D02*
X11353396Y-14920436D01*
X11353396Y-14920436D02*
X11372444Y-14891865D01*
X11372444Y-14891865D02*
X11381967Y-14853769D01*
X11381967Y-14853769D02*
X11381967Y-14777579D01*
X11381967Y-14777579D02*
X11372444Y-14758531D01*
X11372444Y-14758531D02*
X11362920Y-14749008D01*
X11362920Y-14749008D02*
X11343872Y-14739484D01*
X11343872Y-14739484D02*
X11305777Y-14739484D01*
X11305777Y-14739484D02*
X11286729Y-14749008D01*
X11286729Y-14749008D02*
X11277206Y-14758531D01*
X11277206Y-14758531D02*
X11267682Y-14777579D01*
X11267682Y-14777579D02*
X11267682Y-14825198D01*
X11267682Y-14825198D02*
X11277206Y-14844246D01*
X11277206Y-14844246D02*
X11286729Y-14853769D01*
X11286729Y-14853769D02*
X11305777Y-14863293D01*
X11305777Y-14863293D02*
X11343872Y-14863293D01*
X11343872Y-14863293D02*
X11362920Y-14853769D01*
X11362920Y-14853769D02*
X11372444Y-14844246D01*
X11372444Y-14844246D02*
X11381967Y-14825198D01*
X11562920Y-14739484D02*
X11467682Y-14739484D01*
X11467682Y-14739484D02*
X11458158Y-14834722D01*
X11458158Y-14834722D02*
X11467682Y-14825198D01*
X11467682Y-14825198D02*
X11486729Y-14815674D01*
X11486729Y-14815674D02*
X11534348Y-14815674D01*
X11534348Y-14815674D02*
X11553396Y-14825198D01*
X11553396Y-14825198D02*
X11562920Y-14834722D01*
X11562920Y-14834722D02*
X11572444Y-14853769D01*
X11572444Y-14853769D02*
X11572444Y-14901388D01*
X11572444Y-14901388D02*
X11562920Y-14920436D01*
X11562920Y-14920436D02*
X11553396Y-14929960D01*
X11553396Y-14929960D02*
X11534348Y-14939484D01*
X11534348Y-14939484D02*
X11486729Y-14939484D01*
X11486729Y-14939484D02*
X11467682Y-14929960D01*
X11467682Y-14929960D02*
X11458158Y-14920436D01*
X11648634Y-14739484D02*
X11648634Y-14777579D01*
X11724825Y-14739484D02*
X11724825Y-14777579D01*
X12020063Y-15015674D02*
X12010539Y-15006150D01*
X12010539Y-15006150D02*
X11991491Y-14977579D01*
X11991491Y-14977579D02*
X11981968Y-14958531D01*
X11981968Y-14958531D02*
X11972444Y-14929960D01*
X11972444Y-14929960D02*
X11962920Y-14882341D01*
X11962920Y-14882341D02*
X11962920Y-14844246D01*
X11962920Y-14844246D02*
X11972444Y-14796627D01*
X11972444Y-14796627D02*
X11981968Y-14768055D01*
X11981968Y-14768055D02*
X11991491Y-14749008D01*
X11991491Y-14749008D02*
X12010539Y-14720436D01*
X12010539Y-14720436D02*
X12020063Y-14710912D01*
X12086729Y-14758531D02*
X12096253Y-14749008D01*
X12096253Y-14749008D02*
X12115301Y-14739484D01*
X12115301Y-14739484D02*
X12162920Y-14739484D01*
X12162920Y-14739484D02*
X12181968Y-14749008D01*
X12181968Y-14749008D02*
X12191491Y-14758531D01*
X12191491Y-14758531D02*
X12201015Y-14777579D01*
X12201015Y-14777579D02*
X12201015Y-14796627D01*
X12201015Y-14796627D02*
X12191491Y-14825198D01*
X12191491Y-14825198D02*
X12077206Y-14939484D01*
X12077206Y-14939484D02*
X12201015Y-14939484D01*
X12439110Y-14939484D02*
X12439110Y-14739484D01*
X12524825Y-14939484D02*
X12524825Y-14834722D01*
X12524825Y-14834722D02*
X12515301Y-14815674D01*
X12515301Y-14815674D02*
X12496253Y-14806150D01*
X12496253Y-14806150D02*
X12467682Y-14806150D01*
X12467682Y-14806150D02*
X12448634Y-14815674D01*
X12448634Y-14815674D02*
X12439110Y-14825198D01*
X12648634Y-14939484D02*
X12629587Y-14929960D01*
X12629587Y-14929960D02*
X12620063Y-14920436D01*
X12620063Y-14920436D02*
X12610539Y-14901388D01*
X12610539Y-14901388D02*
X12610539Y-14844246D01*
X12610539Y-14844246D02*
X12620063Y-14825198D01*
X12620063Y-14825198D02*
X12629587Y-14815674D01*
X12629587Y-14815674D02*
X12648634Y-14806150D01*
X12648634Y-14806150D02*
X12677206Y-14806150D01*
X12677206Y-14806150D02*
X12696253Y-14815674D01*
X12696253Y-14815674D02*
X12705777Y-14825198D01*
X12705777Y-14825198D02*
X12715301Y-14844246D01*
X12715301Y-14844246D02*
X12715301Y-14901388D01*
X12715301Y-14901388D02*
X12705777Y-14920436D01*
X12705777Y-14920436D02*
X12696253Y-14929960D01*
X12696253Y-14929960D02*
X12677206Y-14939484D01*
X12677206Y-14939484D02*
X12648634Y-14939484D01*
X12829587Y-14939484D02*
X12810539Y-14929960D01*
X12810539Y-14929960D02*
X12801015Y-14910912D01*
X12801015Y-14910912D02*
X12801015Y-14739484D01*
X12981968Y-14929960D02*
X12962920Y-14939484D01*
X12962920Y-14939484D02*
X12924825Y-14939484D01*
X12924825Y-14939484D02*
X12905777Y-14929960D01*
X12905777Y-14929960D02*
X12896253Y-14910912D01*
X12896253Y-14910912D02*
X12896253Y-14834722D01*
X12896253Y-14834722D02*
X12905777Y-14815674D01*
X12905777Y-14815674D02*
X12924825Y-14806150D01*
X12924825Y-14806150D02*
X12962920Y-14806150D01*
X12962920Y-14806150D02*
X12981968Y-14815674D01*
X12981968Y-14815674D02*
X12991491Y-14834722D01*
X12991491Y-14834722D02*
X12991491Y-14853769D01*
X12991491Y-14853769D02*
X12896253Y-14872817D01*
X13067682Y-14929960D02*
X13086730Y-14939484D01*
X13086730Y-14939484D02*
X13124825Y-14939484D01*
X13124825Y-14939484D02*
X13143872Y-14929960D01*
X13143872Y-14929960D02*
X13153396Y-14910912D01*
X13153396Y-14910912D02*
X13153396Y-14901388D01*
X13153396Y-14901388D02*
X13143872Y-14882341D01*
X13143872Y-14882341D02*
X13124825Y-14872817D01*
X13124825Y-14872817D02*
X13096253Y-14872817D01*
X13096253Y-14872817D02*
X13077206Y-14863293D01*
X13077206Y-14863293D02*
X13067682Y-14844246D01*
X13067682Y-14844246D02*
X13067682Y-14834722D01*
X13067682Y-14834722D02*
X13077206Y-14815674D01*
X13077206Y-14815674D02*
X13096253Y-14806150D01*
X13096253Y-14806150D02*
X13124825Y-14806150D01*
X13124825Y-14806150D02*
X13143872Y-14815674D01*
X13220063Y-15015674D02*
X13229587Y-15006150D01*
X13229587Y-15006150D02*
X13248634Y-14977579D01*
X13248634Y-14977579D02*
X13258158Y-14958531D01*
X13258158Y-14958531D02*
X13267682Y-14929960D01*
X13267682Y-14929960D02*
X13277206Y-14882341D01*
X13277206Y-14882341D02*
X13277206Y-14844246D01*
X13277206Y-14844246D02*
X13267682Y-14796627D01*
X13267682Y-14796627D02*
X13258158Y-14768055D01*
X13258158Y-14768055D02*
X13248634Y-14749008D01*
X13248634Y-14749008D02*
X13229587Y-14720436D01*
X13229587Y-14720436D02*
X13220063Y-14710912D01*
D10*
X8430356Y-15147356D02*
X8430356Y-15076644D01*
X8359644Y-15076644D01*
X8359644Y-15147356D01*
X8430356Y-15147356D01*
D11*
X8810539Y-15203484D02*
X8696253Y-15203484D01*
X8753396Y-15203484D02*
X8753396Y-15003484D01*
X8753396Y-15003484D02*
X8734348Y-15032055D01*
X8734348Y-15032055D02*
X8715301Y-15051103D01*
X8715301Y-15051103D02*
X8696253Y-15060627D01*
X8896253Y-15184436D02*
X8905777Y-15193960D01*
X8905777Y-15193960D02*
X8896253Y-15203484D01*
X8896253Y-15203484D02*
X8886729Y-15193960D01*
X8886729Y-15193960D02*
X8896253Y-15184436D01*
X8896253Y-15184436D02*
X8896253Y-15203484D01*
X9029586Y-15003484D02*
X9048634Y-15003484D01*
X9048634Y-15003484D02*
X9067682Y-15013008D01*
X9067682Y-15013008D02*
X9077205Y-15022531D01*
X9077205Y-15022531D02*
X9086729Y-15041579D01*
X9086729Y-15041579D02*
X9096253Y-15079674D01*
X9096253Y-15079674D02*
X9096253Y-15127293D01*
X9096253Y-15127293D02*
X9086729Y-15165388D01*
X9086729Y-15165388D02*
X9077205Y-15184436D01*
X9077205Y-15184436D02*
X9067682Y-15193960D01*
X9067682Y-15193960D02*
X9048634Y-15203484D01*
X9048634Y-15203484D02*
X9029586Y-15203484D01*
X9029586Y-15203484D02*
X9010539Y-15193960D01*
X9010539Y-15193960D02*
X9001015Y-15184436D01*
X9001015Y-15184436D02*
X8991491Y-15165388D01*
X8991491Y-15165388D02*
X8981967Y-15127293D01*
X8981967Y-15127293D02*
X8981967Y-15079674D01*
X8981967Y-15079674D02*
X8991491Y-15041579D01*
X8991491Y-15041579D02*
X9001015Y-15022531D01*
X9001015Y-15022531D02*
X9010539Y-15013008D01*
X9010539Y-15013008D02*
X9029586Y-15003484D01*
X9220063Y-15003484D02*
X9239110Y-15003484D01*
X9239110Y-15003484D02*
X9258158Y-15013008D01*
X9258158Y-15013008D02*
X9267682Y-15022531D01*
X9267682Y-15022531D02*
X9277205Y-15041579D01*
X9277205Y-15041579D02*
X9286729Y-15079674D01*
X9286729Y-15079674D02*
X9286729Y-15127293D01*
X9286729Y-15127293D02*
X9277205Y-15165388D01*
X9277205Y-15165388D02*
X9267682Y-15184436D01*
X9267682Y-15184436D02*
X9258158Y-15193960D01*
X9258158Y-15193960D02*
X9239110Y-15203484D01*
X9239110Y-15203484D02*
X9220063Y-15203484D01*
X9220063Y-15203484D02*
X9201015Y-15193960D01*
X9201015Y-15193960D02*
X9191491Y-15184436D01*
X9191491Y-15184436D02*
X9181967Y-15165388D01*
X9181967Y-15165388D02*
X9172444Y-15127293D01*
X9172444Y-15127293D02*
X9172444Y-15079674D01*
X9172444Y-15079674D02*
X9181967Y-15041579D01*
X9181967Y-15041579D02*
X9191491Y-15022531D01*
X9191491Y-15022531D02*
X9201015Y-15013008D01*
X9201015Y-15013008D02*
X9220063Y-15003484D01*
X9410539Y-15003484D02*
X9429586Y-15003484D01*
X9429586Y-15003484D02*
X9448634Y-15013008D01*
X9448634Y-15013008D02*
X9458158Y-15022531D01*
X9458158Y-15022531D02*
X9467682Y-15041579D01*
X9467682Y-15041579D02*
X9477205Y-15079674D01*
X9477205Y-15079674D02*
X9477205Y-15127293D01*
X9477205Y-15127293D02*
X9467682Y-15165388D01*
X9467682Y-15165388D02*
X9458158Y-15184436D01*
X9458158Y-15184436D02*
X9448634Y-15193960D01*
X9448634Y-15193960D02*
X9429586Y-15203484D01*
X9429586Y-15203484D02*
X9410539Y-15203484D01*
X9410539Y-15203484D02*
X9391491Y-15193960D01*
X9391491Y-15193960D02*
X9381967Y-15184436D01*
X9381967Y-15184436D02*
X9372444Y-15165388D01*
X9372444Y-15165388D02*
X9362920Y-15127293D01*
X9362920Y-15127293D02*
X9362920Y-15079674D01*
X9362920Y-15079674D02*
X9372444Y-15041579D01*
X9372444Y-15041579D02*
X9381967Y-15022531D01*
X9381967Y-15022531D02*
X9391491Y-15013008D01*
X9391491Y-15013008D02*
X9410539Y-15003484D01*
X9562920Y-15203484D02*
X9562920Y-15070150D01*
X9562920Y-15089198D02*
X9572444Y-15079674D01*
X9572444Y-15079674D02*
X9591491Y-15070150D01*
X9591491Y-15070150D02*
X9620063Y-15070150D01*
X9620063Y-15070150D02*
X9639110Y-15079674D01*
X9639110Y-15079674D02*
X9648634Y-15098722D01*
X9648634Y-15098722D02*
X9648634Y-15203484D01*
X9648634Y-15098722D02*
X9658158Y-15079674D01*
X9658158Y-15079674D02*
X9677205Y-15070150D01*
X9677205Y-15070150D02*
X9705777Y-15070150D01*
X9705777Y-15070150D02*
X9724825Y-15079674D01*
X9724825Y-15079674D02*
X9734348Y-15098722D01*
X9734348Y-15098722D02*
X9734348Y-15203484D01*
X9829586Y-15203484D02*
X9829586Y-15070150D01*
X9829586Y-15089198D02*
X9839110Y-15079674D01*
X9839110Y-15079674D02*
X9858158Y-15070150D01*
X9858158Y-15070150D02*
X9886729Y-15070150D01*
X9886729Y-15070150D02*
X9905777Y-15079674D01*
X9905777Y-15079674D02*
X9915301Y-15098722D01*
X9915301Y-15098722D02*
X9915301Y-15203484D01*
X9915301Y-15098722D02*
X9924825Y-15079674D01*
X9924825Y-15079674D02*
X9943872Y-15070150D01*
X9943872Y-15070150D02*
X9972444Y-15070150D01*
X9972444Y-15070150D02*
X9991491Y-15079674D01*
X9991491Y-15079674D02*
X10001015Y-15098722D01*
X10001015Y-15098722D02*
X10001015Y-15203484D01*
X10391491Y-14993960D02*
X10220063Y-15251103D01*
X10648634Y-15003484D02*
X10667682Y-15003484D01*
X10667682Y-15003484D02*
X10686729Y-15013008D01*
X10686729Y-15013008D02*
X10696253Y-15022531D01*
X10696253Y-15022531D02*
X10705777Y-15041579D01*
X10705777Y-15041579D02*
X10715301Y-15079674D01*
X10715301Y-15079674D02*
X10715301Y-15127293D01*
X10715301Y-15127293D02*
X10705777Y-15165388D01*
X10705777Y-15165388D02*
X10696253Y-15184436D01*
X10696253Y-15184436D02*
X10686729Y-15193960D01*
X10686729Y-15193960D02*
X10667682Y-15203484D01*
X10667682Y-15203484D02*
X10648634Y-15203484D01*
X10648634Y-15203484D02*
X10629587Y-15193960D01*
X10629587Y-15193960D02*
X10620063Y-15184436D01*
X10620063Y-15184436D02*
X10610539Y-15165388D01*
X10610539Y-15165388D02*
X10601015Y-15127293D01*
X10601015Y-15127293D02*
X10601015Y-15079674D01*
X10601015Y-15079674D02*
X10610539Y-15041579D01*
X10610539Y-15041579D02*
X10620063Y-15022531D01*
X10620063Y-15022531D02*
X10629587Y-15013008D01*
X10629587Y-15013008D02*
X10648634Y-15003484D01*
X10801015Y-15184436D02*
X10810539Y-15193960D01*
X10810539Y-15193960D02*
X10801015Y-15203484D01*
X10801015Y-15203484D02*
X10791491Y-15193960D01*
X10791491Y-15193960D02*
X10801015Y-15184436D01*
X10801015Y-15184436D02*
X10801015Y-15203484D01*
X10934348Y-15003484D02*
X10953396Y-15003484D01*
X10953396Y-15003484D02*
X10972444Y-15013008D01*
X10972444Y-15013008D02*
X10981968Y-15022531D01*
X10981968Y-15022531D02*
X10991491Y-15041579D01*
X10991491Y-15041579D02*
X11001015Y-15079674D01*
X11001015Y-15079674D02*
X11001015Y-15127293D01*
X11001015Y-15127293D02*
X10991491Y-15165388D01*
X10991491Y-15165388D02*
X10981968Y-15184436D01*
X10981968Y-15184436D02*
X10972444Y-15193960D01*
X10972444Y-15193960D02*
X10953396Y-15203484D01*
X10953396Y-15203484D02*
X10934348Y-15203484D01*
X10934348Y-15203484D02*
X10915301Y-15193960D01*
X10915301Y-15193960D02*
X10905777Y-15184436D01*
X10905777Y-15184436D02*
X10896253Y-15165388D01*
X10896253Y-15165388D02*
X10886729Y-15127293D01*
X10886729Y-15127293D02*
X10886729Y-15079674D01*
X10886729Y-15079674D02*
X10896253Y-15041579D01*
X10896253Y-15041579D02*
X10905777Y-15022531D01*
X10905777Y-15022531D02*
X10915301Y-15013008D01*
X10915301Y-15013008D02*
X10934348Y-15003484D01*
X11067682Y-15003484D02*
X11191491Y-15003484D01*
X11191491Y-15003484D02*
X11124825Y-15079674D01*
X11124825Y-15079674D02*
X11153396Y-15079674D01*
X11153396Y-15079674D02*
X11172444Y-15089198D01*
X11172444Y-15089198D02*
X11181968Y-15098722D01*
X11181968Y-15098722D02*
X11191491Y-15117769D01*
X11191491Y-15117769D02*
X11191491Y-15165388D01*
X11191491Y-15165388D02*
X11181968Y-15184436D01*
X11181968Y-15184436D02*
X11172444Y-15193960D01*
X11172444Y-15193960D02*
X11153396Y-15203484D01*
X11153396Y-15203484D02*
X11096253Y-15203484D01*
X11096253Y-15203484D02*
X11077206Y-15193960D01*
X11077206Y-15193960D02*
X11067682Y-15184436D01*
X11286729Y-15203484D02*
X11324825Y-15203484D01*
X11324825Y-15203484D02*
X11343872Y-15193960D01*
X11343872Y-15193960D02*
X11353396Y-15184436D01*
X11353396Y-15184436D02*
X11372444Y-15155865D01*
X11372444Y-15155865D02*
X11381967Y-15117769D01*
X11381967Y-15117769D02*
X11381967Y-15041579D01*
X11381967Y-15041579D02*
X11372444Y-15022531D01*
X11372444Y-15022531D02*
X11362920Y-15013008D01*
X11362920Y-15013008D02*
X11343872Y-15003484D01*
X11343872Y-15003484D02*
X11305777Y-15003484D01*
X11305777Y-15003484D02*
X11286729Y-15013008D01*
X11286729Y-15013008D02*
X11277206Y-15022531D01*
X11277206Y-15022531D02*
X11267682Y-15041579D01*
X11267682Y-15041579D02*
X11267682Y-15089198D01*
X11267682Y-15089198D02*
X11277206Y-15108246D01*
X11277206Y-15108246D02*
X11286729Y-15117769D01*
X11286729Y-15117769D02*
X11305777Y-15127293D01*
X11305777Y-15127293D02*
X11343872Y-15127293D01*
X11343872Y-15127293D02*
X11362920Y-15117769D01*
X11362920Y-15117769D02*
X11372444Y-15108246D01*
X11372444Y-15108246D02*
X11381967Y-15089198D01*
X11553396Y-15070150D02*
X11553396Y-15203484D01*
X11505777Y-14993960D02*
X11458158Y-15136817D01*
X11458158Y-15136817D02*
X11581967Y-15136817D01*
X11648634Y-15003484D02*
X11648634Y-15041579D01*
X11724825Y-15003484D02*
X11724825Y-15041579D01*
X12020063Y-15279674D02*
X12010539Y-15270150D01*
X12010539Y-15270150D02*
X11991491Y-15241579D01*
X11991491Y-15241579D02*
X11981968Y-15222531D01*
X11981968Y-15222531D02*
X11972444Y-15193960D01*
X11972444Y-15193960D02*
X11962920Y-15146341D01*
X11962920Y-15146341D02*
X11962920Y-15108246D01*
X11962920Y-15108246D02*
X11972444Y-15060627D01*
X11972444Y-15060627D02*
X11981968Y-15032055D01*
X11981968Y-15032055D02*
X11991491Y-15013008D01*
X11991491Y-15013008D02*
X12010539Y-14984436D01*
X12010539Y-14984436D02*
X12020063Y-14974912D01*
X12201015Y-15203484D02*
X12086729Y-15203484D01*
X12143872Y-15203484D02*
X12143872Y-15003484D01*
X12143872Y-15003484D02*
X12124825Y-15032055D01*
X12124825Y-15032055D02*
X12105777Y-15051103D01*
X12105777Y-15051103D02*
X12086729Y-15060627D01*
X12267682Y-15003484D02*
X12391491Y-15003484D01*
X12391491Y-15003484D02*
X12324825Y-15079674D01*
X12324825Y-15079674D02*
X12353396Y-15079674D01*
X12353396Y-15079674D02*
X12372444Y-15089198D01*
X12372444Y-15089198D02*
X12381968Y-15098722D01*
X12381968Y-15098722D02*
X12391491Y-15117769D01*
X12391491Y-15117769D02*
X12391491Y-15165388D01*
X12391491Y-15165388D02*
X12381968Y-15184436D01*
X12381968Y-15184436D02*
X12372444Y-15193960D01*
X12372444Y-15193960D02*
X12353396Y-15203484D01*
X12353396Y-15203484D02*
X12296253Y-15203484D01*
X12296253Y-15203484D02*
X12277206Y-15193960D01*
X12277206Y-15193960D02*
X12267682Y-15184436D01*
X12629587Y-15203484D02*
X12629587Y-15003484D01*
X12715301Y-15203484D02*
X12715301Y-15098722D01*
X12715301Y-15098722D02*
X12705777Y-15079674D01*
X12705777Y-15079674D02*
X12686730Y-15070150D01*
X12686730Y-15070150D02*
X12658158Y-15070150D01*
X12658158Y-15070150D02*
X12639110Y-15079674D01*
X12639110Y-15079674D02*
X12629587Y-15089198D01*
X12839110Y-15203484D02*
X12820063Y-15193960D01*
X12820063Y-15193960D02*
X12810539Y-15184436D01*
X12810539Y-15184436D02*
X12801015Y-15165388D01*
X12801015Y-15165388D02*
X12801015Y-15108246D01*
X12801015Y-15108246D02*
X12810539Y-15089198D01*
X12810539Y-15089198D02*
X12820063Y-15079674D01*
X12820063Y-15079674D02*
X12839110Y-15070150D01*
X12839110Y-15070150D02*
X12867682Y-15070150D01*
X12867682Y-15070150D02*
X12886730Y-15079674D01*
X12886730Y-15079674D02*
X12896253Y-15089198D01*
X12896253Y-15089198D02*
X12905777Y-15108246D01*
X12905777Y-15108246D02*
X12905777Y-15165388D01*
X12905777Y-15165388D02*
X12896253Y-15184436D01*
X12896253Y-15184436D02*
X12886730Y-15193960D01*
X12886730Y-15193960D02*
X12867682Y-15203484D01*
X12867682Y-15203484D02*
X12839110Y-15203484D01*
X13020063Y-15203484D02*
X13001015Y-15193960D01*
X13001015Y-15193960D02*
X12991491Y-15174912D01*
X12991491Y-15174912D02*
X12991491Y-15003484D01*
X13172444Y-15193960D02*
X13153396Y-15203484D01*
X13153396Y-15203484D02*
X13115301Y-15203484D01*
X13115301Y-15203484D02*
X13096253Y-15193960D01*
X13096253Y-15193960D02*
X13086730Y-15174912D01*
X13086730Y-15174912D02*
X13086730Y-15098722D01*
X13086730Y-15098722D02*
X13096253Y-15079674D01*
X13096253Y-15079674D02*
X13115301Y-15070150D01*
X13115301Y-15070150D02*
X13153396Y-15070150D01*
X13153396Y-15070150D02*
X13172444Y-15079674D01*
X13172444Y-15079674D02*
X13181968Y-15098722D01*
X13181968Y-15098722D02*
X13181968Y-15117769D01*
X13181968Y-15117769D02*
X13086730Y-15136817D01*
X13258158Y-15193960D02*
X13277206Y-15203484D01*
X13277206Y-15203484D02*
X13315301Y-15203484D01*
X13315301Y-15203484D02*
X13334349Y-15193960D01*
X13334349Y-15193960D02*
X13343872Y-15174912D01*
X13343872Y-15174912D02*
X13343872Y-15165388D01*
X13343872Y-15165388D02*
X13334349Y-15146341D01*
X13334349Y-15146341D02*
X13315301Y-15136817D01*
X13315301Y-15136817D02*
X13286730Y-15136817D01*
X13286730Y-15136817D02*
X13267682Y-15127293D01*
X13267682Y-15127293D02*
X13258158Y-15108246D01*
X13258158Y-15108246D02*
X13258158Y-15098722D01*
X13258158Y-15098722D02*
X13267682Y-15079674D01*
X13267682Y-15079674D02*
X13286730Y-15070150D01*
X13286730Y-15070150D02*
X13315301Y-15070150D01*
X13315301Y-15070150D02*
X13334349Y-15079674D01*
X13410539Y-15279674D02*
X13420063Y-15270150D01*
X13420063Y-15270150D02*
X13439111Y-15241579D01*
X13439111Y-15241579D02*
X13448634Y-15222531D01*
X13448634Y-15222531D02*
X13458158Y-15193960D01*
X13458158Y-15193960D02*
X13467682Y-15146341D01*
X13467682Y-15146341D02*
X13467682Y-15108246D01*
X13467682Y-15108246D02*
X13458158Y-15060627D01*
X13458158Y-15060627D02*
X13448634Y-15032055D01*
X13448634Y-15032055D02*
X13439111Y-15013008D01*
X13439111Y-15013008D02*
X13420063Y-14984436D01*
X13420063Y-14984436D02*
X13410539Y-14974912D01*
D12*
X8390000Y-15431000D02*
X8445000Y-15376000D01*
X8390000Y-15321000D01*
X8335000Y-15376000D01*
X8390000Y-15431000D01*
D11*
X8810539Y-15467484D02*
X8696253Y-15467484D01*
X8753396Y-15467484D02*
X8753396Y-15267484D01*
X8753396Y-15267484D02*
X8734348Y-15296055D01*
X8734348Y-15296055D02*
X8715301Y-15315103D01*
X8715301Y-15315103D02*
X8696253Y-15324627D01*
X8896253Y-15448436D02*
X8905777Y-15457960D01*
X8905777Y-15457960D02*
X8896253Y-15467484D01*
X8896253Y-15467484D02*
X8886729Y-15457960D01*
X8886729Y-15457960D02*
X8896253Y-15448436D01*
X8896253Y-15448436D02*
X8896253Y-15467484D01*
X9096253Y-15467484D02*
X8981967Y-15467484D01*
X9039110Y-15467484D02*
X9039110Y-15267484D01*
X9039110Y-15267484D02*
X9020063Y-15296055D01*
X9020063Y-15296055D02*
X9001015Y-15315103D01*
X9001015Y-15315103D02*
X8981967Y-15324627D01*
X9220063Y-15267484D02*
X9239110Y-15267484D01*
X9239110Y-15267484D02*
X9258158Y-15277008D01*
X9258158Y-15277008D02*
X9267682Y-15286531D01*
X9267682Y-15286531D02*
X9277205Y-15305579D01*
X9277205Y-15305579D02*
X9286729Y-15343674D01*
X9286729Y-15343674D02*
X9286729Y-15391293D01*
X9286729Y-15391293D02*
X9277205Y-15429388D01*
X9277205Y-15429388D02*
X9267682Y-15448436D01*
X9267682Y-15448436D02*
X9258158Y-15457960D01*
X9258158Y-15457960D02*
X9239110Y-15467484D01*
X9239110Y-15467484D02*
X9220063Y-15467484D01*
X9220063Y-15467484D02*
X9201015Y-15457960D01*
X9201015Y-15457960D02*
X9191491Y-15448436D01*
X9191491Y-15448436D02*
X9181967Y-15429388D01*
X9181967Y-15429388D02*
X9172444Y-15391293D01*
X9172444Y-15391293D02*
X9172444Y-15343674D01*
X9172444Y-15343674D02*
X9181967Y-15305579D01*
X9181967Y-15305579D02*
X9191491Y-15286531D01*
X9191491Y-15286531D02*
X9201015Y-15277008D01*
X9201015Y-15277008D02*
X9220063Y-15267484D01*
X9410539Y-15267484D02*
X9429586Y-15267484D01*
X9429586Y-15267484D02*
X9448634Y-15277008D01*
X9448634Y-15277008D02*
X9458158Y-15286531D01*
X9458158Y-15286531D02*
X9467682Y-15305579D01*
X9467682Y-15305579D02*
X9477205Y-15343674D01*
X9477205Y-15343674D02*
X9477205Y-15391293D01*
X9477205Y-15391293D02*
X9467682Y-15429388D01*
X9467682Y-15429388D02*
X9458158Y-15448436D01*
X9458158Y-15448436D02*
X9448634Y-15457960D01*
X9448634Y-15457960D02*
X9429586Y-15467484D01*
X9429586Y-15467484D02*
X9410539Y-15467484D01*
X9410539Y-15467484D02*
X9391491Y-15457960D01*
X9391491Y-15457960D02*
X9381967Y-15448436D01*
X9381967Y-15448436D02*
X9372444Y-15429388D01*
X9372444Y-15429388D02*
X9362920Y-15391293D01*
X9362920Y-15391293D02*
X9362920Y-15343674D01*
X9362920Y-15343674D02*
X9372444Y-15305579D01*
X9372444Y-15305579D02*
X9381967Y-15286531D01*
X9381967Y-15286531D02*
X9391491Y-15277008D01*
X9391491Y-15277008D02*
X9410539Y-15267484D01*
X9562920Y-15467484D02*
X9562920Y-15334150D01*
X9562920Y-15353198D02*
X9572444Y-15343674D01*
X9572444Y-15343674D02*
X9591491Y-15334150D01*
X9591491Y-15334150D02*
X9620063Y-15334150D01*
X9620063Y-15334150D02*
X9639110Y-15343674D01*
X9639110Y-15343674D02*
X9648634Y-15362722D01*
X9648634Y-15362722D02*
X9648634Y-15467484D01*
X9648634Y-15362722D02*
X9658158Y-15343674D01*
X9658158Y-15343674D02*
X9677205Y-15334150D01*
X9677205Y-15334150D02*
X9705777Y-15334150D01*
X9705777Y-15334150D02*
X9724825Y-15343674D01*
X9724825Y-15343674D02*
X9734348Y-15362722D01*
X9734348Y-15362722D02*
X9734348Y-15467484D01*
X9829586Y-15467484D02*
X9829586Y-15334150D01*
X9829586Y-15353198D02*
X9839110Y-15343674D01*
X9839110Y-15343674D02*
X9858158Y-15334150D01*
X9858158Y-15334150D02*
X9886729Y-15334150D01*
X9886729Y-15334150D02*
X9905777Y-15343674D01*
X9905777Y-15343674D02*
X9915301Y-15362722D01*
X9915301Y-15362722D02*
X9915301Y-15467484D01*
X9915301Y-15362722D02*
X9924825Y-15343674D01*
X9924825Y-15343674D02*
X9943872Y-15334150D01*
X9943872Y-15334150D02*
X9972444Y-15334150D01*
X9972444Y-15334150D02*
X9991491Y-15343674D01*
X9991491Y-15343674D02*
X10001015Y-15362722D01*
X10001015Y-15362722D02*
X10001015Y-15467484D01*
X10391491Y-15257960D02*
X10220063Y-15515103D01*
X10648634Y-15267484D02*
X10667682Y-15267484D01*
X10667682Y-15267484D02*
X10686729Y-15277008D01*
X10686729Y-15277008D02*
X10696253Y-15286531D01*
X10696253Y-15286531D02*
X10705777Y-15305579D01*
X10705777Y-15305579D02*
X10715301Y-15343674D01*
X10715301Y-15343674D02*
X10715301Y-15391293D01*
X10715301Y-15391293D02*
X10705777Y-15429388D01*
X10705777Y-15429388D02*
X10696253Y-15448436D01*
X10696253Y-15448436D02*
X10686729Y-15457960D01*
X10686729Y-15457960D02*
X10667682Y-15467484D01*
X10667682Y-15467484D02*
X10648634Y-15467484D01*
X10648634Y-15467484D02*
X10629587Y-15457960D01*
X10629587Y-15457960D02*
X10620063Y-15448436D01*
X10620063Y-15448436D02*
X10610539Y-15429388D01*
X10610539Y-15429388D02*
X10601015Y-15391293D01*
X10601015Y-15391293D02*
X10601015Y-15343674D01*
X10601015Y-15343674D02*
X10610539Y-15305579D01*
X10610539Y-15305579D02*
X10620063Y-15286531D01*
X10620063Y-15286531D02*
X10629587Y-15277008D01*
X10629587Y-15277008D02*
X10648634Y-15267484D01*
X10801015Y-15448436D02*
X10810539Y-15457960D01*
X10810539Y-15457960D02*
X10801015Y-15467484D01*
X10801015Y-15467484D02*
X10791491Y-15457960D01*
X10791491Y-15457960D02*
X10801015Y-15448436D01*
X10801015Y-15448436D02*
X10801015Y-15467484D01*
X10934348Y-15267484D02*
X10953396Y-15267484D01*
X10953396Y-15267484D02*
X10972444Y-15277008D01*
X10972444Y-15277008D02*
X10981968Y-15286531D01*
X10981968Y-15286531D02*
X10991491Y-15305579D01*
X10991491Y-15305579D02*
X11001015Y-15343674D01*
X11001015Y-15343674D02*
X11001015Y-15391293D01*
X11001015Y-15391293D02*
X10991491Y-15429388D01*
X10991491Y-15429388D02*
X10981968Y-15448436D01*
X10981968Y-15448436D02*
X10972444Y-15457960D01*
X10972444Y-15457960D02*
X10953396Y-15467484D01*
X10953396Y-15467484D02*
X10934348Y-15467484D01*
X10934348Y-15467484D02*
X10915301Y-15457960D01*
X10915301Y-15457960D02*
X10905777Y-15448436D01*
X10905777Y-15448436D02*
X10896253Y-15429388D01*
X10896253Y-15429388D02*
X10886729Y-15391293D01*
X10886729Y-15391293D02*
X10886729Y-15343674D01*
X10886729Y-15343674D02*
X10896253Y-15305579D01*
X10896253Y-15305579D02*
X10905777Y-15286531D01*
X10905777Y-15286531D02*
X10915301Y-15277008D01*
X10915301Y-15277008D02*
X10934348Y-15267484D01*
X11172444Y-15334150D02*
X11172444Y-15467484D01*
X11124825Y-15257960D02*
X11077206Y-15400817D01*
X11077206Y-15400817D02*
X11201015Y-15400817D01*
X11258158Y-15267484D02*
X11381967Y-15267484D01*
X11381967Y-15267484D02*
X11315301Y-15343674D01*
X11315301Y-15343674D02*
X11343872Y-15343674D01*
X11343872Y-15343674D02*
X11362920Y-15353198D01*
X11362920Y-15353198D02*
X11372444Y-15362722D01*
X11372444Y-15362722D02*
X11381967Y-15381769D01*
X11381967Y-15381769D02*
X11381967Y-15429388D01*
X11381967Y-15429388D02*
X11372444Y-15448436D01*
X11372444Y-15448436D02*
X11362920Y-15457960D01*
X11362920Y-15457960D02*
X11343872Y-15467484D01*
X11343872Y-15467484D02*
X11286729Y-15467484D01*
X11286729Y-15467484D02*
X11267682Y-15457960D01*
X11267682Y-15457960D02*
X11258158Y-15448436D01*
X11448634Y-15267484D02*
X11572444Y-15267484D01*
X11572444Y-15267484D02*
X11505777Y-15343674D01*
X11505777Y-15343674D02*
X11534348Y-15343674D01*
X11534348Y-15343674D02*
X11553396Y-15353198D01*
X11553396Y-15353198D02*
X11562920Y-15362722D01*
X11562920Y-15362722D02*
X11572444Y-15381769D01*
X11572444Y-15381769D02*
X11572444Y-15429388D01*
X11572444Y-15429388D02*
X11562920Y-15448436D01*
X11562920Y-15448436D02*
X11553396Y-15457960D01*
X11553396Y-15457960D02*
X11534348Y-15467484D01*
X11534348Y-15467484D02*
X11477206Y-15467484D01*
X11477206Y-15467484D02*
X11458158Y-15457960D01*
X11458158Y-15457960D02*
X11448634Y-15448436D01*
X11648634Y-15267484D02*
X11648634Y-15305579D01*
X11724825Y-15267484D02*
X11724825Y-15305579D01*
X12020063Y-15543674D02*
X12010539Y-15534150D01*
X12010539Y-15534150D02*
X11991491Y-15505579D01*
X11991491Y-15505579D02*
X11981968Y-15486531D01*
X11981968Y-15486531D02*
X11972444Y-15457960D01*
X11972444Y-15457960D02*
X11962920Y-15410341D01*
X11962920Y-15410341D02*
X11962920Y-15372246D01*
X11962920Y-15372246D02*
X11972444Y-15324627D01*
X11972444Y-15324627D02*
X11981968Y-15296055D01*
X11981968Y-15296055D02*
X11991491Y-15277008D01*
X11991491Y-15277008D02*
X12010539Y-15248436D01*
X12010539Y-15248436D02*
X12020063Y-15238912D01*
X12124825Y-15353198D02*
X12105777Y-15343674D01*
X12105777Y-15343674D02*
X12096253Y-15334150D01*
X12096253Y-15334150D02*
X12086729Y-15315103D01*
X12086729Y-15315103D02*
X12086729Y-15305579D01*
X12086729Y-15305579D02*
X12096253Y-15286531D01*
X12096253Y-15286531D02*
X12105777Y-15277008D01*
X12105777Y-15277008D02*
X12124825Y-15267484D01*
X12124825Y-15267484D02*
X12162920Y-15267484D01*
X12162920Y-15267484D02*
X12181968Y-15277008D01*
X12181968Y-15277008D02*
X12191491Y-15286531D01*
X12191491Y-15286531D02*
X12201015Y-15305579D01*
X12201015Y-15305579D02*
X12201015Y-15315103D01*
X12201015Y-15315103D02*
X12191491Y-15334150D01*
X12191491Y-15334150D02*
X12181968Y-15343674D01*
X12181968Y-15343674D02*
X12162920Y-15353198D01*
X12162920Y-15353198D02*
X12124825Y-15353198D01*
X12124825Y-15353198D02*
X12105777Y-15362722D01*
X12105777Y-15362722D02*
X12096253Y-15372246D01*
X12096253Y-15372246D02*
X12086729Y-15391293D01*
X12086729Y-15391293D02*
X12086729Y-15429388D01*
X12086729Y-15429388D02*
X12096253Y-15448436D01*
X12096253Y-15448436D02*
X12105777Y-15457960D01*
X12105777Y-15457960D02*
X12124825Y-15467484D01*
X12124825Y-15467484D02*
X12162920Y-15467484D01*
X12162920Y-15467484D02*
X12181968Y-15457960D01*
X12181968Y-15457960D02*
X12191491Y-15448436D01*
X12191491Y-15448436D02*
X12201015Y-15429388D01*
X12201015Y-15429388D02*
X12201015Y-15391293D01*
X12201015Y-15391293D02*
X12191491Y-15372246D01*
X12191491Y-15372246D02*
X12181968Y-15362722D01*
X12181968Y-15362722D02*
X12162920Y-15353198D01*
X12439110Y-15467484D02*
X12439110Y-15267484D01*
X12524825Y-15467484D02*
X12524825Y-15362722D01*
X12524825Y-15362722D02*
X12515301Y-15343674D01*
X12515301Y-15343674D02*
X12496253Y-15334150D01*
X12496253Y-15334150D02*
X12467682Y-15334150D01*
X12467682Y-15334150D02*
X12448634Y-15343674D01*
X12448634Y-15343674D02*
X12439110Y-15353198D01*
X12648634Y-15467484D02*
X12629587Y-15457960D01*
X12629587Y-15457960D02*
X12620063Y-15448436D01*
X12620063Y-15448436D02*
X12610539Y-15429388D01*
X12610539Y-15429388D02*
X12610539Y-15372246D01*
X12610539Y-15372246D02*
X12620063Y-15353198D01*
X12620063Y-15353198D02*
X12629587Y-15343674D01*
X12629587Y-15343674D02*
X12648634Y-15334150D01*
X12648634Y-15334150D02*
X12677206Y-15334150D01*
X12677206Y-15334150D02*
X12696253Y-15343674D01*
X12696253Y-15343674D02*
X12705777Y-15353198D01*
X12705777Y-15353198D02*
X12715301Y-15372246D01*
X12715301Y-15372246D02*
X12715301Y-15429388D01*
X12715301Y-15429388D02*
X12705777Y-15448436D01*
X12705777Y-15448436D02*
X12696253Y-15457960D01*
X12696253Y-15457960D02*
X12677206Y-15467484D01*
X12677206Y-15467484D02*
X12648634Y-15467484D01*
X12829587Y-15467484D02*
X12810539Y-15457960D01*
X12810539Y-15457960D02*
X12801015Y-15438912D01*
X12801015Y-15438912D02*
X12801015Y-15267484D01*
X12981968Y-15457960D02*
X12962920Y-15467484D01*
X12962920Y-15467484D02*
X12924825Y-15467484D01*
X12924825Y-15467484D02*
X12905777Y-15457960D01*
X12905777Y-15457960D02*
X12896253Y-15438912D01*
X12896253Y-15438912D02*
X12896253Y-15362722D01*
X12896253Y-15362722D02*
X12905777Y-15343674D01*
X12905777Y-15343674D02*
X12924825Y-15334150D01*
X12924825Y-15334150D02*
X12962920Y-15334150D01*
X12962920Y-15334150D02*
X12981968Y-15343674D01*
X12981968Y-15343674D02*
X12991491Y-15362722D01*
X12991491Y-15362722D02*
X12991491Y-15381769D01*
X12991491Y-15381769D02*
X12896253Y-15400817D01*
X13067682Y-15457960D02*
X13086730Y-15467484D01*
X13086730Y-15467484D02*
X13124825Y-15467484D01*
X13124825Y-15467484D02*
X13143872Y-15457960D01*
X13143872Y-15457960D02*
X13153396Y-15438912D01*
X13153396Y-15438912D02*
X13153396Y-15429388D01*
X13153396Y-15429388D02*
X13143872Y-15410341D01*
X13143872Y-15410341D02*
X13124825Y-15400817D01*
X13124825Y-15400817D02*
X13096253Y-15400817D01*
X13096253Y-15400817D02*
X13077206Y-15391293D01*
X13077206Y-15391293D02*
X13067682Y-15372246D01*
X13067682Y-15372246D02*
X13067682Y-15362722D01*
X13067682Y-15362722D02*
X13077206Y-15343674D01*
X13077206Y-15343674D02*
X13096253Y-15334150D01*
X13096253Y-15334150D02*
X13124825Y-15334150D01*
X13124825Y-15334150D02*
X13143872Y-15343674D01*
X13220063Y-15543674D02*
X13229587Y-15534150D01*
X13229587Y-15534150D02*
X13248634Y-15505579D01*
X13248634Y-15505579D02*
X13258158Y-15486531D01*
X13258158Y-15486531D02*
X13267682Y-15457960D01*
X13267682Y-15457960D02*
X13277206Y-15410341D01*
X13277206Y-15410341D02*
X13277206Y-15372246D01*
X13277206Y-15372246D02*
X13267682Y-15324627D01*
X13267682Y-15324627D02*
X13258158Y-15296055D01*
X13258158Y-15296055D02*
X13248634Y-15277008D01*
X13248634Y-15277008D02*
X13229587Y-15248436D01*
X13229587Y-15248436D02*
X13220063Y-15238912D01*
D13*
X8315000Y-15575000D02*
X8445000Y-15705000D01*
X8445000Y-15575000D02*
X8315000Y-15705000D01*
X8445000Y-15640000D02*
G75*
G02*
X8315000Y-15640000I-65000J0D01*
G01*
X8315000Y-15640000D02*
G75*
G02*
X8445000Y-15640000I65000J0D01*
G01*
D11*
X8810539Y-15731484D02*
X8696253Y-15731484D01*
X8753396Y-15731484D02*
X8753396Y-15531484D01*
X8753396Y-15531484D02*
X8734348Y-15560055D01*
X8734348Y-15560055D02*
X8715301Y-15579103D01*
X8715301Y-15579103D02*
X8696253Y-15588627D01*
X8896253Y-15712436D02*
X8905777Y-15721960D01*
X8905777Y-15721960D02*
X8896253Y-15731484D01*
X8896253Y-15731484D02*
X8886729Y-15721960D01*
X8886729Y-15721960D02*
X8896253Y-15712436D01*
X8896253Y-15712436D02*
X8896253Y-15731484D01*
X8972444Y-15531484D02*
X9096253Y-15531484D01*
X9096253Y-15531484D02*
X9029586Y-15607674D01*
X9029586Y-15607674D02*
X9058158Y-15607674D01*
X9058158Y-15607674D02*
X9077205Y-15617198D01*
X9077205Y-15617198D02*
X9086729Y-15626722D01*
X9086729Y-15626722D02*
X9096253Y-15645769D01*
X9096253Y-15645769D02*
X9096253Y-15693388D01*
X9096253Y-15693388D02*
X9086729Y-15712436D01*
X9086729Y-15712436D02*
X9077205Y-15721960D01*
X9077205Y-15721960D02*
X9058158Y-15731484D01*
X9058158Y-15731484D02*
X9001015Y-15731484D01*
X9001015Y-15731484D02*
X8981967Y-15721960D01*
X8981967Y-15721960D02*
X8972444Y-15712436D01*
X9220063Y-15531484D02*
X9239110Y-15531484D01*
X9239110Y-15531484D02*
X9258158Y-15541008D01*
X9258158Y-15541008D02*
X9267682Y-15550531D01*
X9267682Y-15550531D02*
X9277205Y-15569579D01*
X9277205Y-15569579D02*
X9286729Y-15607674D01*
X9286729Y-15607674D02*
X9286729Y-15655293D01*
X9286729Y-15655293D02*
X9277205Y-15693388D01*
X9277205Y-15693388D02*
X9267682Y-15712436D01*
X9267682Y-15712436D02*
X9258158Y-15721960D01*
X9258158Y-15721960D02*
X9239110Y-15731484D01*
X9239110Y-15731484D02*
X9220063Y-15731484D01*
X9220063Y-15731484D02*
X9201015Y-15721960D01*
X9201015Y-15721960D02*
X9191491Y-15712436D01*
X9191491Y-15712436D02*
X9181967Y-15693388D01*
X9181967Y-15693388D02*
X9172444Y-15655293D01*
X9172444Y-15655293D02*
X9172444Y-15607674D01*
X9172444Y-15607674D02*
X9181967Y-15569579D01*
X9181967Y-15569579D02*
X9191491Y-15550531D01*
X9191491Y-15550531D02*
X9201015Y-15541008D01*
X9201015Y-15541008D02*
X9220063Y-15531484D01*
X9410539Y-15531484D02*
X9429586Y-15531484D01*
X9429586Y-15531484D02*
X9448634Y-15541008D01*
X9448634Y-15541008D02*
X9458158Y-15550531D01*
X9458158Y-15550531D02*
X9467682Y-15569579D01*
X9467682Y-15569579D02*
X9477205Y-15607674D01*
X9477205Y-15607674D02*
X9477205Y-15655293D01*
X9477205Y-15655293D02*
X9467682Y-15693388D01*
X9467682Y-15693388D02*
X9458158Y-15712436D01*
X9458158Y-15712436D02*
X9448634Y-15721960D01*
X9448634Y-15721960D02*
X9429586Y-15731484D01*
X9429586Y-15731484D02*
X9410539Y-15731484D01*
X9410539Y-15731484D02*
X9391491Y-15721960D01*
X9391491Y-15721960D02*
X9381967Y-15712436D01*
X9381967Y-15712436D02*
X9372444Y-15693388D01*
X9372444Y-15693388D02*
X9362920Y-15655293D01*
X9362920Y-15655293D02*
X9362920Y-15607674D01*
X9362920Y-15607674D02*
X9372444Y-15569579D01*
X9372444Y-15569579D02*
X9381967Y-15550531D01*
X9381967Y-15550531D02*
X9391491Y-15541008D01*
X9391491Y-15541008D02*
X9410539Y-15531484D01*
X9562920Y-15731484D02*
X9562920Y-15598150D01*
X9562920Y-15617198D02*
X9572444Y-15607674D01*
X9572444Y-15607674D02*
X9591491Y-15598150D01*
X9591491Y-15598150D02*
X9620063Y-15598150D01*
X9620063Y-15598150D02*
X9639110Y-15607674D01*
X9639110Y-15607674D02*
X9648634Y-15626722D01*
X9648634Y-15626722D02*
X9648634Y-15731484D01*
X9648634Y-15626722D02*
X9658158Y-15607674D01*
X9658158Y-15607674D02*
X9677205Y-15598150D01*
X9677205Y-15598150D02*
X9705777Y-15598150D01*
X9705777Y-15598150D02*
X9724825Y-15607674D01*
X9724825Y-15607674D02*
X9734348Y-15626722D01*
X9734348Y-15626722D02*
X9734348Y-15731484D01*
X9829586Y-15731484D02*
X9829586Y-15598150D01*
X9829586Y-15617198D02*
X9839110Y-15607674D01*
X9839110Y-15607674D02*
X9858158Y-15598150D01*
X9858158Y-15598150D02*
X9886729Y-15598150D01*
X9886729Y-15598150D02*
X9905777Y-15607674D01*
X9905777Y-15607674D02*
X9915301Y-15626722D01*
X9915301Y-15626722D02*
X9915301Y-15731484D01*
X9915301Y-15626722D02*
X9924825Y-15607674D01*
X9924825Y-15607674D02*
X9943872Y-15598150D01*
X9943872Y-15598150D02*
X9972444Y-15598150D01*
X9972444Y-15598150D02*
X9991491Y-15607674D01*
X9991491Y-15607674D02*
X10001015Y-15626722D01*
X10001015Y-15626722D02*
X10001015Y-15731484D01*
X10391491Y-15521960D02*
X10220063Y-15779103D01*
X10648634Y-15531484D02*
X10667682Y-15531484D01*
X10667682Y-15531484D02*
X10686729Y-15541008D01*
X10686729Y-15541008D02*
X10696253Y-15550531D01*
X10696253Y-15550531D02*
X10705777Y-15569579D01*
X10705777Y-15569579D02*
X10715301Y-15607674D01*
X10715301Y-15607674D02*
X10715301Y-15655293D01*
X10715301Y-15655293D02*
X10705777Y-15693388D01*
X10705777Y-15693388D02*
X10696253Y-15712436D01*
X10696253Y-15712436D02*
X10686729Y-15721960D01*
X10686729Y-15721960D02*
X10667682Y-15731484D01*
X10667682Y-15731484D02*
X10648634Y-15731484D01*
X10648634Y-15731484D02*
X10629587Y-15721960D01*
X10629587Y-15721960D02*
X10620063Y-15712436D01*
X10620063Y-15712436D02*
X10610539Y-15693388D01*
X10610539Y-15693388D02*
X10601015Y-15655293D01*
X10601015Y-15655293D02*
X10601015Y-15607674D01*
X10601015Y-15607674D02*
X10610539Y-15569579D01*
X10610539Y-15569579D02*
X10620063Y-15550531D01*
X10620063Y-15550531D02*
X10629587Y-15541008D01*
X10629587Y-15541008D02*
X10648634Y-15531484D01*
X10801015Y-15712436D02*
X10810539Y-15721960D01*
X10810539Y-15721960D02*
X10801015Y-15731484D01*
X10801015Y-15731484D02*
X10791491Y-15721960D01*
X10791491Y-15721960D02*
X10801015Y-15712436D01*
X10801015Y-15712436D02*
X10801015Y-15731484D01*
X10934348Y-15531484D02*
X10953396Y-15531484D01*
X10953396Y-15531484D02*
X10972444Y-15541008D01*
X10972444Y-15541008D02*
X10981968Y-15550531D01*
X10981968Y-15550531D02*
X10991491Y-15569579D01*
X10991491Y-15569579D02*
X11001015Y-15607674D01*
X11001015Y-15607674D02*
X11001015Y-15655293D01*
X11001015Y-15655293D02*
X10991491Y-15693388D01*
X10991491Y-15693388D02*
X10981968Y-15712436D01*
X10981968Y-15712436D02*
X10972444Y-15721960D01*
X10972444Y-15721960D02*
X10953396Y-15731484D01*
X10953396Y-15731484D02*
X10934348Y-15731484D01*
X10934348Y-15731484D02*
X10915301Y-15721960D01*
X10915301Y-15721960D02*
X10905777Y-15712436D01*
X10905777Y-15712436D02*
X10896253Y-15693388D01*
X10896253Y-15693388D02*
X10886729Y-15655293D01*
X10886729Y-15655293D02*
X10886729Y-15607674D01*
X10886729Y-15607674D02*
X10896253Y-15569579D01*
X10896253Y-15569579D02*
X10905777Y-15550531D01*
X10905777Y-15550531D02*
X10915301Y-15541008D01*
X10915301Y-15541008D02*
X10934348Y-15531484D01*
X11181968Y-15531484D02*
X11086729Y-15531484D01*
X11086729Y-15531484D02*
X11077206Y-15626722D01*
X11077206Y-15626722D02*
X11086729Y-15617198D01*
X11086729Y-15617198D02*
X11105777Y-15607674D01*
X11105777Y-15607674D02*
X11153396Y-15607674D01*
X11153396Y-15607674D02*
X11172444Y-15617198D01*
X11172444Y-15617198D02*
X11181968Y-15626722D01*
X11181968Y-15626722D02*
X11191491Y-15645769D01*
X11191491Y-15645769D02*
X11191491Y-15693388D01*
X11191491Y-15693388D02*
X11181968Y-15712436D01*
X11181968Y-15712436D02*
X11172444Y-15721960D01*
X11172444Y-15721960D02*
X11153396Y-15731484D01*
X11153396Y-15731484D02*
X11105777Y-15731484D01*
X11105777Y-15731484D02*
X11086729Y-15721960D01*
X11086729Y-15721960D02*
X11077206Y-15712436D01*
X11381967Y-15731484D02*
X11267682Y-15731484D01*
X11324825Y-15731484D02*
X11324825Y-15531484D01*
X11324825Y-15531484D02*
X11305777Y-15560055D01*
X11305777Y-15560055D02*
X11286729Y-15579103D01*
X11286729Y-15579103D02*
X11267682Y-15588627D01*
X11458158Y-15550531D02*
X11467682Y-15541008D01*
X11467682Y-15541008D02*
X11486729Y-15531484D01*
X11486729Y-15531484D02*
X11534348Y-15531484D01*
X11534348Y-15531484D02*
X11553396Y-15541008D01*
X11553396Y-15541008D02*
X11562920Y-15550531D01*
X11562920Y-15550531D02*
X11572444Y-15569579D01*
X11572444Y-15569579D02*
X11572444Y-15588627D01*
X11572444Y-15588627D02*
X11562920Y-15617198D01*
X11562920Y-15617198D02*
X11448634Y-15731484D01*
X11448634Y-15731484D02*
X11572444Y-15731484D01*
X11648634Y-15531484D02*
X11648634Y-15569579D01*
X11724825Y-15531484D02*
X11724825Y-15569579D01*
X12020063Y-15807674D02*
X12010539Y-15798150D01*
X12010539Y-15798150D02*
X11991491Y-15769579D01*
X11991491Y-15769579D02*
X11981968Y-15750531D01*
X11981968Y-15750531D02*
X11972444Y-15721960D01*
X11972444Y-15721960D02*
X11962920Y-15674341D01*
X11962920Y-15674341D02*
X11962920Y-15636246D01*
X11962920Y-15636246D02*
X11972444Y-15588627D01*
X11972444Y-15588627D02*
X11981968Y-15560055D01*
X11981968Y-15560055D02*
X11991491Y-15541008D01*
X11991491Y-15541008D02*
X12010539Y-15512436D01*
X12010539Y-15512436D02*
X12020063Y-15502912D01*
X12124825Y-15617198D02*
X12105777Y-15607674D01*
X12105777Y-15607674D02*
X12096253Y-15598150D01*
X12096253Y-15598150D02*
X12086729Y-15579103D01*
X12086729Y-15579103D02*
X12086729Y-15569579D01*
X12086729Y-15569579D02*
X12096253Y-15550531D01*
X12096253Y-15550531D02*
X12105777Y-15541008D01*
X12105777Y-15541008D02*
X12124825Y-15531484D01*
X12124825Y-15531484D02*
X12162920Y-15531484D01*
X12162920Y-15531484D02*
X12181968Y-15541008D01*
X12181968Y-15541008D02*
X12191491Y-15550531D01*
X12191491Y-15550531D02*
X12201015Y-15569579D01*
X12201015Y-15569579D02*
X12201015Y-15579103D01*
X12201015Y-15579103D02*
X12191491Y-15598150D01*
X12191491Y-15598150D02*
X12181968Y-15607674D01*
X12181968Y-15607674D02*
X12162920Y-15617198D01*
X12162920Y-15617198D02*
X12124825Y-15617198D01*
X12124825Y-15617198D02*
X12105777Y-15626722D01*
X12105777Y-15626722D02*
X12096253Y-15636246D01*
X12096253Y-15636246D02*
X12086729Y-15655293D01*
X12086729Y-15655293D02*
X12086729Y-15693388D01*
X12086729Y-15693388D02*
X12096253Y-15712436D01*
X12096253Y-15712436D02*
X12105777Y-15721960D01*
X12105777Y-15721960D02*
X12124825Y-15731484D01*
X12124825Y-15731484D02*
X12162920Y-15731484D01*
X12162920Y-15731484D02*
X12181968Y-15721960D01*
X12181968Y-15721960D02*
X12191491Y-15712436D01*
X12191491Y-15712436D02*
X12201015Y-15693388D01*
X12201015Y-15693388D02*
X12201015Y-15655293D01*
X12201015Y-15655293D02*
X12191491Y-15636246D01*
X12191491Y-15636246D02*
X12181968Y-15626722D01*
X12181968Y-15626722D02*
X12162920Y-15617198D01*
X12439110Y-15731484D02*
X12439110Y-15531484D01*
X12524825Y-15731484D02*
X12524825Y-15626722D01*
X12524825Y-15626722D02*
X12515301Y-15607674D01*
X12515301Y-15607674D02*
X12496253Y-15598150D01*
X12496253Y-15598150D02*
X12467682Y-15598150D01*
X12467682Y-15598150D02*
X12448634Y-15607674D01*
X12448634Y-15607674D02*
X12439110Y-15617198D01*
X12648634Y-15731484D02*
X12629587Y-15721960D01*
X12629587Y-15721960D02*
X12620063Y-15712436D01*
X12620063Y-15712436D02*
X12610539Y-15693388D01*
X12610539Y-15693388D02*
X12610539Y-15636246D01*
X12610539Y-15636246D02*
X12620063Y-15617198D01*
X12620063Y-15617198D02*
X12629587Y-15607674D01*
X12629587Y-15607674D02*
X12648634Y-15598150D01*
X12648634Y-15598150D02*
X12677206Y-15598150D01*
X12677206Y-15598150D02*
X12696253Y-15607674D01*
X12696253Y-15607674D02*
X12705777Y-15617198D01*
X12705777Y-15617198D02*
X12715301Y-15636246D01*
X12715301Y-15636246D02*
X12715301Y-15693388D01*
X12715301Y-15693388D02*
X12705777Y-15712436D01*
X12705777Y-15712436D02*
X12696253Y-15721960D01*
X12696253Y-15721960D02*
X12677206Y-15731484D01*
X12677206Y-15731484D02*
X12648634Y-15731484D01*
X12829587Y-15731484D02*
X12810539Y-15721960D01*
X12810539Y-15721960D02*
X12801015Y-15702912D01*
X12801015Y-15702912D02*
X12801015Y-15531484D01*
X12981968Y-15721960D02*
X12962920Y-15731484D01*
X12962920Y-15731484D02*
X12924825Y-15731484D01*
X12924825Y-15731484D02*
X12905777Y-15721960D01*
X12905777Y-15721960D02*
X12896253Y-15702912D01*
X12896253Y-15702912D02*
X12896253Y-15626722D01*
X12896253Y-15626722D02*
X12905777Y-15607674D01*
X12905777Y-15607674D02*
X12924825Y-15598150D01*
X12924825Y-15598150D02*
X12962920Y-15598150D01*
X12962920Y-15598150D02*
X12981968Y-15607674D01*
X12981968Y-15607674D02*
X12991491Y-15626722D01*
X12991491Y-15626722D02*
X12991491Y-15645769D01*
X12991491Y-15645769D02*
X12896253Y-15664817D01*
X13067682Y-15721960D02*
X13086730Y-15731484D01*
X13086730Y-15731484D02*
X13124825Y-15731484D01*
X13124825Y-15731484D02*
X13143872Y-15721960D01*
X13143872Y-15721960D02*
X13153396Y-15702912D01*
X13153396Y-15702912D02*
X13153396Y-15693388D01*
X13153396Y-15693388D02*
X13143872Y-15674341D01*
X13143872Y-15674341D02*
X13124825Y-15664817D01*
X13124825Y-15664817D02*
X13096253Y-15664817D01*
X13096253Y-15664817D02*
X13077206Y-15655293D01*
X13077206Y-15655293D02*
X13067682Y-15636246D01*
X13067682Y-15636246D02*
X13067682Y-15626722D01*
X13067682Y-15626722D02*
X13077206Y-15607674D01*
X13077206Y-15607674D02*
X13096253Y-15598150D01*
X13096253Y-15598150D02*
X13124825Y-15598150D01*
X13124825Y-15598150D02*
X13143872Y-15607674D01*
X13220063Y-15807674D02*
X13229587Y-15798150D01*
X13229587Y-15798150D02*
X13248634Y-15769579D01*
X13248634Y-15769579D02*
X13258158Y-15750531D01*
X13258158Y-15750531D02*
X13267682Y-15721960D01*
X13267682Y-15721960D02*
X13277206Y-15674341D01*
X13277206Y-15674341D02*
X13277206Y-15636246D01*
X13277206Y-15636246D02*
X13267682Y-15588627D01*
X13267682Y-15588627D02*
X13258158Y-15560055D01*
X13258158Y-15560055D02*
X13248634Y-15541008D01*
X13248634Y-15541008D02*
X13229587Y-15512436D01*
X13229587Y-15512436D02*
X13220063Y-15502912D01*
X8245000Y-15804000D02*
X8445000Y-16004000D01*
X8445000Y-15804000D02*
X8245000Y-16004000D01*
X8345000Y-15804000D02*
X8345000Y-16004000D01*
X8245000Y-15904000D02*
X8445000Y-15904000D01*
X8686729Y-15795484D02*
X8810539Y-15795484D01*
X8810539Y-15795484D02*
X8743872Y-15871674D01*
X8743872Y-15871674D02*
X8772444Y-15871674D01*
X8772444Y-15871674D02*
X8791491Y-15881198D01*
X8791491Y-15881198D02*
X8801015Y-15890722D01*
X8801015Y-15890722D02*
X8810539Y-15909769D01*
X8810539Y-15909769D02*
X8810539Y-15957388D01*
X8810539Y-15957388D02*
X8801015Y-15976436D01*
X8801015Y-15976436D02*
X8791491Y-15985960D01*
X8791491Y-15985960D02*
X8772444Y-15995484D01*
X8772444Y-15995484D02*
X8715301Y-15995484D01*
X8715301Y-15995484D02*
X8696253Y-15985960D01*
X8696253Y-15985960D02*
X8686729Y-15976436D01*
X8896253Y-15976436D02*
X8905777Y-15985960D01*
X8905777Y-15985960D02*
X8896253Y-15995484D01*
X8896253Y-15995484D02*
X8886729Y-15985960D01*
X8886729Y-15985960D02*
X8896253Y-15976436D01*
X8896253Y-15976436D02*
X8896253Y-15995484D01*
X9029586Y-15795484D02*
X9048634Y-15795484D01*
X9048634Y-15795484D02*
X9067682Y-15805008D01*
X9067682Y-15805008D02*
X9077205Y-15814531D01*
X9077205Y-15814531D02*
X9086729Y-15833579D01*
X9086729Y-15833579D02*
X9096253Y-15871674D01*
X9096253Y-15871674D02*
X9096253Y-15919293D01*
X9096253Y-15919293D02*
X9086729Y-15957388D01*
X9086729Y-15957388D02*
X9077205Y-15976436D01*
X9077205Y-15976436D02*
X9067682Y-15985960D01*
X9067682Y-15985960D02*
X9048634Y-15995484D01*
X9048634Y-15995484D02*
X9029586Y-15995484D01*
X9029586Y-15995484D02*
X9010539Y-15985960D01*
X9010539Y-15985960D02*
X9001015Y-15976436D01*
X9001015Y-15976436D02*
X8991491Y-15957388D01*
X8991491Y-15957388D02*
X8981967Y-15919293D01*
X8981967Y-15919293D02*
X8981967Y-15871674D01*
X8981967Y-15871674D02*
X8991491Y-15833579D01*
X8991491Y-15833579D02*
X9001015Y-15814531D01*
X9001015Y-15814531D02*
X9010539Y-15805008D01*
X9010539Y-15805008D02*
X9029586Y-15795484D01*
X9220063Y-15795484D02*
X9239110Y-15795484D01*
X9239110Y-15795484D02*
X9258158Y-15805008D01*
X9258158Y-15805008D02*
X9267682Y-15814531D01*
X9267682Y-15814531D02*
X9277205Y-15833579D01*
X9277205Y-15833579D02*
X9286729Y-15871674D01*
X9286729Y-15871674D02*
X9286729Y-15919293D01*
X9286729Y-15919293D02*
X9277205Y-15957388D01*
X9277205Y-15957388D02*
X9267682Y-15976436D01*
X9267682Y-15976436D02*
X9258158Y-15985960D01*
X9258158Y-15985960D02*
X9239110Y-15995484D01*
X9239110Y-15995484D02*
X9220063Y-15995484D01*
X9220063Y-15995484D02*
X9201015Y-15985960D01*
X9201015Y-15985960D02*
X9191491Y-15976436D01*
X9191491Y-15976436D02*
X9181967Y-15957388D01*
X9181967Y-15957388D02*
X9172444Y-15919293D01*
X9172444Y-15919293D02*
X9172444Y-15871674D01*
X9172444Y-15871674D02*
X9181967Y-15833579D01*
X9181967Y-15833579D02*
X9191491Y-15814531D01*
X9191491Y-15814531D02*
X9201015Y-15805008D01*
X9201015Y-15805008D02*
X9220063Y-15795484D01*
X9410539Y-15795484D02*
X9429586Y-15795484D01*
X9429586Y-15795484D02*
X9448634Y-15805008D01*
X9448634Y-15805008D02*
X9458158Y-15814531D01*
X9458158Y-15814531D02*
X9467682Y-15833579D01*
X9467682Y-15833579D02*
X9477205Y-15871674D01*
X9477205Y-15871674D02*
X9477205Y-15919293D01*
X9477205Y-15919293D02*
X9467682Y-15957388D01*
X9467682Y-15957388D02*
X9458158Y-15976436D01*
X9458158Y-15976436D02*
X9448634Y-15985960D01*
X9448634Y-15985960D02*
X9429586Y-15995484D01*
X9429586Y-15995484D02*
X9410539Y-15995484D01*
X9410539Y-15995484D02*
X9391491Y-15985960D01*
X9391491Y-15985960D02*
X9381967Y-15976436D01*
X9381967Y-15976436D02*
X9372444Y-15957388D01*
X9372444Y-15957388D02*
X9362920Y-15919293D01*
X9362920Y-15919293D02*
X9362920Y-15871674D01*
X9362920Y-15871674D02*
X9372444Y-15833579D01*
X9372444Y-15833579D02*
X9381967Y-15814531D01*
X9381967Y-15814531D02*
X9391491Y-15805008D01*
X9391491Y-15805008D02*
X9410539Y-15795484D01*
X9562920Y-15995484D02*
X9562920Y-15862150D01*
X9562920Y-15881198D02*
X9572444Y-15871674D01*
X9572444Y-15871674D02*
X9591491Y-15862150D01*
X9591491Y-15862150D02*
X9620063Y-15862150D01*
X9620063Y-15862150D02*
X9639110Y-15871674D01*
X9639110Y-15871674D02*
X9648634Y-15890722D01*
X9648634Y-15890722D02*
X9648634Y-15995484D01*
X9648634Y-15890722D02*
X9658158Y-15871674D01*
X9658158Y-15871674D02*
X9677205Y-15862150D01*
X9677205Y-15862150D02*
X9705777Y-15862150D01*
X9705777Y-15862150D02*
X9724825Y-15871674D01*
X9724825Y-15871674D02*
X9734348Y-15890722D01*
X9734348Y-15890722D02*
X9734348Y-15995484D01*
X9829586Y-15995484D02*
X9829586Y-15862150D01*
X9829586Y-15881198D02*
X9839110Y-15871674D01*
X9839110Y-15871674D02*
X9858158Y-15862150D01*
X9858158Y-15862150D02*
X9886729Y-15862150D01*
X9886729Y-15862150D02*
X9905777Y-15871674D01*
X9905777Y-15871674D02*
X9915301Y-15890722D01*
X9915301Y-15890722D02*
X9915301Y-15995484D01*
X9915301Y-15890722D02*
X9924825Y-15871674D01*
X9924825Y-15871674D02*
X9943872Y-15862150D01*
X9943872Y-15862150D02*
X9972444Y-15862150D01*
X9972444Y-15862150D02*
X9991491Y-15871674D01*
X9991491Y-15871674D02*
X10001015Y-15890722D01*
X10001015Y-15890722D02*
X10001015Y-15995484D01*
X10391491Y-15785960D02*
X10220063Y-16043103D01*
X10648634Y-15795484D02*
X10667682Y-15795484D01*
X10667682Y-15795484D02*
X10686729Y-15805008D01*
X10686729Y-15805008D02*
X10696253Y-15814531D01*
X10696253Y-15814531D02*
X10705777Y-15833579D01*
X10705777Y-15833579D02*
X10715301Y-15871674D01*
X10715301Y-15871674D02*
X10715301Y-15919293D01*
X10715301Y-15919293D02*
X10705777Y-15957388D01*
X10705777Y-15957388D02*
X10696253Y-15976436D01*
X10696253Y-15976436D02*
X10686729Y-15985960D01*
X10686729Y-15985960D02*
X10667682Y-15995484D01*
X10667682Y-15995484D02*
X10648634Y-15995484D01*
X10648634Y-15995484D02*
X10629587Y-15985960D01*
X10629587Y-15985960D02*
X10620063Y-15976436D01*
X10620063Y-15976436D02*
X10610539Y-15957388D01*
X10610539Y-15957388D02*
X10601015Y-15919293D01*
X10601015Y-15919293D02*
X10601015Y-15871674D01*
X10601015Y-15871674D02*
X10610539Y-15833579D01*
X10610539Y-15833579D02*
X10620063Y-15814531D01*
X10620063Y-15814531D02*
X10629587Y-15805008D01*
X10629587Y-15805008D02*
X10648634Y-15795484D01*
X10801015Y-15976436D02*
X10810539Y-15985960D01*
X10810539Y-15985960D02*
X10801015Y-15995484D01*
X10801015Y-15995484D02*
X10791491Y-15985960D01*
X10791491Y-15985960D02*
X10801015Y-15976436D01*
X10801015Y-15976436D02*
X10801015Y-15995484D01*
X11001015Y-15995484D02*
X10886729Y-15995484D01*
X10943872Y-15995484D02*
X10943872Y-15795484D01*
X10943872Y-15795484D02*
X10924825Y-15824055D01*
X10924825Y-15824055D02*
X10905777Y-15843103D01*
X10905777Y-15843103D02*
X10886729Y-15852627D01*
X11191491Y-15995484D02*
X11077206Y-15995484D01*
X11134348Y-15995484D02*
X11134348Y-15795484D01*
X11134348Y-15795484D02*
X11115301Y-15824055D01*
X11115301Y-15824055D02*
X11096253Y-15843103D01*
X11096253Y-15843103D02*
X11077206Y-15852627D01*
X11305777Y-15881198D02*
X11286729Y-15871674D01*
X11286729Y-15871674D02*
X11277206Y-15862150D01*
X11277206Y-15862150D02*
X11267682Y-15843103D01*
X11267682Y-15843103D02*
X11267682Y-15833579D01*
X11267682Y-15833579D02*
X11277206Y-15814531D01*
X11277206Y-15814531D02*
X11286729Y-15805008D01*
X11286729Y-15805008D02*
X11305777Y-15795484D01*
X11305777Y-15795484D02*
X11343872Y-15795484D01*
X11343872Y-15795484D02*
X11362920Y-15805008D01*
X11362920Y-15805008D02*
X11372444Y-15814531D01*
X11372444Y-15814531D02*
X11381967Y-15833579D01*
X11381967Y-15833579D02*
X11381967Y-15843103D01*
X11381967Y-15843103D02*
X11372444Y-15862150D01*
X11372444Y-15862150D02*
X11362920Y-15871674D01*
X11362920Y-15871674D02*
X11343872Y-15881198D01*
X11343872Y-15881198D02*
X11305777Y-15881198D01*
X11305777Y-15881198D02*
X11286729Y-15890722D01*
X11286729Y-15890722D02*
X11277206Y-15900246D01*
X11277206Y-15900246D02*
X11267682Y-15919293D01*
X11267682Y-15919293D02*
X11267682Y-15957388D01*
X11267682Y-15957388D02*
X11277206Y-15976436D01*
X11277206Y-15976436D02*
X11286729Y-15985960D01*
X11286729Y-15985960D02*
X11305777Y-15995484D01*
X11305777Y-15995484D02*
X11343872Y-15995484D01*
X11343872Y-15995484D02*
X11362920Y-15985960D01*
X11362920Y-15985960D02*
X11372444Y-15976436D01*
X11372444Y-15976436D02*
X11381967Y-15957388D01*
X11381967Y-15957388D02*
X11381967Y-15919293D01*
X11381967Y-15919293D02*
X11372444Y-15900246D01*
X11372444Y-15900246D02*
X11362920Y-15890722D01*
X11362920Y-15890722D02*
X11343872Y-15881198D01*
X11572444Y-15995484D02*
X11458158Y-15995484D01*
X11515301Y-15995484D02*
X11515301Y-15795484D01*
X11515301Y-15795484D02*
X11496253Y-15824055D01*
X11496253Y-15824055D02*
X11477206Y-15843103D01*
X11477206Y-15843103D02*
X11458158Y-15852627D01*
X11648634Y-15795484D02*
X11648634Y-15833579D01*
X11724825Y-15795484D02*
X11724825Y-15833579D01*
X12020063Y-16071674D02*
X12010539Y-16062150D01*
X12010539Y-16062150D02*
X11991491Y-16033579D01*
X11991491Y-16033579D02*
X11981968Y-16014531D01*
X11981968Y-16014531D02*
X11972444Y-15985960D01*
X11972444Y-15985960D02*
X11962920Y-15938341D01*
X11962920Y-15938341D02*
X11962920Y-15900246D01*
X11962920Y-15900246D02*
X11972444Y-15852627D01*
X11972444Y-15852627D02*
X11981968Y-15824055D01*
X11981968Y-15824055D02*
X11991491Y-15805008D01*
X11991491Y-15805008D02*
X12010539Y-15776436D01*
X12010539Y-15776436D02*
X12020063Y-15766912D01*
X12086729Y-15814531D02*
X12096253Y-15805008D01*
X12096253Y-15805008D02*
X12115301Y-15795484D01*
X12115301Y-15795484D02*
X12162920Y-15795484D01*
X12162920Y-15795484D02*
X12181968Y-15805008D01*
X12181968Y-15805008D02*
X12191491Y-15814531D01*
X12191491Y-15814531D02*
X12201015Y-15833579D01*
X12201015Y-15833579D02*
X12201015Y-15852627D01*
X12201015Y-15852627D02*
X12191491Y-15881198D01*
X12191491Y-15881198D02*
X12077206Y-15995484D01*
X12077206Y-15995484D02*
X12201015Y-15995484D01*
X12439110Y-15995484D02*
X12439110Y-15795484D01*
X12524825Y-15995484D02*
X12524825Y-15890722D01*
X12524825Y-15890722D02*
X12515301Y-15871674D01*
X12515301Y-15871674D02*
X12496253Y-15862150D01*
X12496253Y-15862150D02*
X12467682Y-15862150D01*
X12467682Y-15862150D02*
X12448634Y-15871674D01*
X12448634Y-15871674D02*
X12439110Y-15881198D01*
X12648634Y-15995484D02*
X12629587Y-15985960D01*
X12629587Y-15985960D02*
X12620063Y-15976436D01*
X12620063Y-15976436D02*
X12610539Y-15957388D01*
X12610539Y-15957388D02*
X12610539Y-15900246D01*
X12610539Y-15900246D02*
X12620063Y-15881198D01*
X12620063Y-15881198D02*
X12629587Y-15871674D01*
X12629587Y-15871674D02*
X12648634Y-15862150D01*
X12648634Y-15862150D02*
X12677206Y-15862150D01*
X12677206Y-15862150D02*
X12696253Y-15871674D01*
X12696253Y-15871674D02*
X12705777Y-15881198D01*
X12705777Y-15881198D02*
X12715301Y-15900246D01*
X12715301Y-15900246D02*
X12715301Y-15957388D01*
X12715301Y-15957388D02*
X12705777Y-15976436D01*
X12705777Y-15976436D02*
X12696253Y-15985960D01*
X12696253Y-15985960D02*
X12677206Y-15995484D01*
X12677206Y-15995484D02*
X12648634Y-15995484D01*
X12829587Y-15995484D02*
X12810539Y-15985960D01*
X12810539Y-15985960D02*
X12801015Y-15966912D01*
X12801015Y-15966912D02*
X12801015Y-15795484D01*
X12981968Y-15985960D02*
X12962920Y-15995484D01*
X12962920Y-15995484D02*
X12924825Y-15995484D01*
X12924825Y-15995484D02*
X12905777Y-15985960D01*
X12905777Y-15985960D02*
X12896253Y-15966912D01*
X12896253Y-15966912D02*
X12896253Y-15890722D01*
X12896253Y-15890722D02*
X12905777Y-15871674D01*
X12905777Y-15871674D02*
X12924825Y-15862150D01*
X12924825Y-15862150D02*
X12962920Y-15862150D01*
X12962920Y-15862150D02*
X12981968Y-15871674D01*
X12981968Y-15871674D02*
X12991491Y-15890722D01*
X12991491Y-15890722D02*
X12991491Y-15909769D01*
X12991491Y-15909769D02*
X12896253Y-15928817D01*
X13067682Y-15985960D02*
X13086730Y-15995484D01*
X13086730Y-15995484D02*
X13124825Y-15995484D01*
X13124825Y-15995484D02*
X13143872Y-15985960D01*
X13143872Y-15985960D02*
X13153396Y-15966912D01*
X13153396Y-15966912D02*
X13153396Y-15957388D01*
X13153396Y-15957388D02*
X13143872Y-15938341D01*
X13143872Y-15938341D02*
X13124825Y-15928817D01*
X13124825Y-15928817D02*
X13096253Y-15928817D01*
X13096253Y-15928817D02*
X13077206Y-15919293D01*
X13077206Y-15919293D02*
X13067682Y-15900246D01*
X13067682Y-15900246D02*
X13067682Y-15890722D01*
X13067682Y-15890722D02*
X13077206Y-15871674D01*
X13077206Y-15871674D02*
X13096253Y-15862150D01*
X13096253Y-15862150D02*
X13124825Y-15862150D01*
X13124825Y-15862150D02*
X13143872Y-15871674D01*
X13220063Y-16071674D02*
X13229587Y-16062150D01*
X13229587Y-16062150D02*
X13248634Y-16033579D01*
X13248634Y-16033579D02*
X13258158Y-16014531D01*
X13258158Y-16014531D02*
X13267682Y-15985960D01*
X13267682Y-15985960D02*
X13277206Y-15938341D01*
X13277206Y-15938341D02*
X13277206Y-15900246D01*
X13277206Y-15900246D02*
X13267682Y-15852627D01*
X13267682Y-15852627D02*
X13258158Y-15824055D01*
X13258158Y-15824055D02*
X13248634Y-15805008D01*
X13248634Y-15805008D02*
X13229587Y-15776436D01*
X13229587Y-15776436D02*
X13220063Y-15766912D01*
M02*
