%TF.GenerationSoftware,KiCad,Pcbnew,10.0.1*%
%TF.CreationDate,2026-05-07T12:10:43+08:00*%
%TF.ProjectId,EnvDaqBox,456e7644-6171-4426-9f78-2e6b69636164,v0.0.1*%
%TF.SameCoordinates,Original*%
%TF.FileFunction,Copper,L4,Bot*%
%TF.FilePolarity,Positive*%
%FSLAX46Y46*%
G04 Gerber Fmt 4.6, Leading zero omitted, Abs format (unit mm)*
G04 Created by KiCad (PCBNEW 10.0.1) date 2026-05-07 12:10:43*
%MOMM*%
%LPD*%
G01*
G04 APERTURE LIST*
G04 Aperture macros list*
%AMRoundRect*
0 Rectangle with rounded corners*
0 $1 Rounding radius*
0 $2 $3 $4 $5 $6 $7 $8 $9 X,Y pos of 4 corners*
0 Add a 4 corners polygon primitive as box body*
4,1,4,$2,$3,$4,$5,$6,$7,$8,$9,$2,$3,0*
0 Add four circle primitives for the rounded corners*
1,1,$1+$1,$2,$3*
1,1,$1+$1,$4,$5*
1,1,$1+$1,$6,$7*
1,1,$1+$1,$8,$9*
0 Add four rect primitives between the rounded corners*
20,1,$1+$1,$2,$3,$4,$5,0*
20,1,$1+$1,$4,$5,$6,$7,0*
20,1,$1+$1,$6,$7,$8,$9,0*
20,1,$1+$1,$8,$9,$2,$3,0*%
G04 Aperture macros list end*
%TA.AperFunction,Conductor*%
%ADD10C,0.200000*%
%TD*%
%TA.AperFunction,ComponentPad*%
%ADD11C,2.500000*%
%TD*%
%TA.AperFunction,ComponentPad*%
%ADD12RoundRect,0.250000X1.000000X1.000000X-1.000000X1.000000X-1.000000X-1.000000X1.000000X-1.000000X0*%
%TD*%
%TA.AperFunction,ComponentPad*%
%ADD13RoundRect,0.250000X-1.350000X0.650000X-1.350000X-0.650000X1.350000X-0.650000X1.350000X0.650000X0*%
%TD*%
%TA.AperFunction,ComponentPad*%
%ADD14O,3.200000X1.800000*%
%TD*%
%TA.AperFunction,ComponentPad*%
%ADD15O,1.000000X2.100000*%
%TD*%
%TA.AperFunction,ComponentPad*%
%ADD16O,1.000000X1.600000*%
%TD*%
%TA.AperFunction,ComponentPad*%
%ADD17R,1.700000X1.700000*%
%TD*%
%TA.AperFunction,ComponentPad*%
%ADD18C,1.700000*%
%TD*%
%TA.AperFunction,ComponentPad*%
%ADD19RoundRect,0.250000X0.350000X0.625000X-0.350000X0.625000X-0.350000X-0.625000X0.350000X-0.625000X0*%
%TD*%
%TA.AperFunction,ComponentPad*%
%ADD20O,1.200000X1.750000*%
%TD*%
%TA.AperFunction,ViaPad*%
%ADD21C,0.600000*%
%TD*%
%TA.AperFunction,ViaPad*%
%ADD22C,0.500000*%
%TD*%
%TA.AperFunction,ViaPad*%
%ADD23C,5.000000*%
%TD*%
%TA.AperFunction,Conductor*%
%ADD24C,1.000000*%
%TD*%
%TA.AperFunction,Conductor*%
%ADD25C,0.500000*%
%TD*%
%TA.AperFunction,Conductor*%
%ADD26C,0.300000*%
%TD*%
%TA.AperFunction,Conductor*%
%ADD27C,1.500000*%
%TD*%
G04 APERTURE END LIST*
D10*
%TO.N,Net-(C10-Pad1)*%
X105000000Y-135000000D02*
X98000000Y-135000000D01*
X98000000Y-129000000D01*
X105000000Y-129000000D01*
X105000000Y-135000000D01*
%TA.AperFunction,Conductor*%
G36*
X105000000Y-135000000D02*
G01*
X98000000Y-135000000D01*
X98000000Y-129000000D01*
X105000000Y-129000000D01*
X105000000Y-135000000D01*
G37*
%TD.AperFunction*%
%TO.N,GND*%
X145000000Y-76500000D02*
X138500000Y-76500000D01*
X138500000Y-70500000D01*
X145000000Y-70500000D01*
X145000000Y-76500000D01*
%TA.AperFunction,Conductor*%
G36*
X145000000Y-76500000D02*
G01*
X138500000Y-76500000D01*
X138500000Y-70500000D01*
X145000000Y-70500000D01*
X145000000Y-76500000D01*
G37*
%TD.AperFunction*%
X96000000Y-116500000D02*
X109348385Y-116500000D01*
X112459359Y-119821822D01*
X133969805Y-119738143D01*
X134000000Y-127500000D01*
X85500000Y-127500000D01*
X85500000Y-106500000D01*
X96000000Y-106500000D01*
X96000000Y-116500000D01*
%TA.AperFunction,Conductor*%
G36*
X96000000Y-116500000D02*
G01*
X109348385Y-116500000D01*
X112459359Y-119821822D01*
X133969805Y-119738143D01*
X134000000Y-127500000D01*
X85500000Y-127500000D01*
X85500000Y-106500000D01*
X96000000Y-106500000D01*
X96000000Y-116500000D01*
G37*
%TD.AperFunction*%
%TD*%
D11*
%TO.P,K1,13*%
%TO.N,Net-(F5-Pad1)*%
X117982500Y-93117500D03*
%TO.P,K1,14*%
%TO.N,VCC_12V*%
X103782500Y-87117500D03*
D12*
%TO.P,K1,A1*%
%TO.N,VCC_5V*%
X115982500Y-99117500D03*
D11*
%TO.P,K1,A2*%
%TO.N,Net-(D3-A)*%
X115982500Y-87117500D03*
%TD*%
D13*
%TO.P,J1,1,Pin_1_1*%
%TO.N,/QO1*%
X95000000Y-98500000D03*
X90000000Y-98500000D03*
D14*
%TO.P,J1,2,Pin_2_2*%
%TO.N,GND*%
X95000000Y-101040000D03*
X90000000Y-101040000D03*
%TO.P,J1,3,Pin_3_3*%
%TO.N,/QO2*%
X95000000Y-103580000D03*
X90000000Y-103580000D03*
%TO.P,J1,4,Pin_4_4*%
%TO.N,GND*%
X95000000Y-106120000D03*
X90000000Y-106120000D03*
%TD*%
D11*
%TO.P,K2,13*%
%TO.N,Net-(F4-Pad1)*%
X117982500Y-110117500D03*
%TO.P,K2,14*%
%TO.N,VCC_12V*%
X103782500Y-104117500D03*
D12*
%TO.P,K2,A1*%
%TO.N,VCC_5V*%
X115982500Y-116117500D03*
D11*
%TO.P,K2,A2*%
%TO.N,Net-(D4-A)*%
X115982500Y-104117500D03*
%TD*%
D15*
%TO.P,P1,0,0_0*%
%TO.N,GND*%
X168680000Y-129994500D03*
D16*
X168680000Y-134174500D03*
D15*
X177320000Y-129994500D03*
D16*
X177320000Y-134174500D03*
%TD*%
D17*
%TO.P,J3,1,Pin_1_1*%
%TO.N,/TMS*%
X121080000Y-68000000D03*
D18*
%TO.P,J3,2,Pin_2_2*%
%TO.N,/TDI*%
X118540000Y-68000000D03*
%TO.P,J3,3,Pin_3_3*%
%TO.N,/TDO{slash}I2C_SCL*%
X116000000Y-68000000D03*
%TO.P,J3,4,Pin_4_4*%
%TO.N,/TCK{slash}I2C_SDA*%
X113460000Y-68000000D03*
%TO.P,J3,5,Pin_5_5*%
%TO.N,GND*%
X110920000Y-68000000D03*
%TD*%
D19*
%TO.P,J2,1,Pin_1_1*%
%TO.N,GND*%
X174000000Y-82550000D03*
D20*
%TO.P,J2,2,Pin_2_2*%
%TO.N,Net-(J2-Pin_2)*%
X172000000Y-82550000D03*
%TD*%
D17*
%TO.P,J4,1,Pin_1_1*%
%TO.N,VCC_3V3*%
X152690000Y-68000000D03*
D18*
%TO.P,J4,2,Pin_2_2*%
%TO.N,Net-(J4-Pin_2)*%
X155230000Y-68000000D03*
%TO.P,J4,3,Pin_3_3*%
%TO.N,Net-(J4-Pin_3)*%
X157770000Y-68000000D03*
%TO.P,J4,4,Pin_4_4*%
%TO.N,GND*%
X160310000Y-68000000D03*
%TD*%
D17*
%TO.P,J5,1,Pin_1_1*%
%TO.N,VCC_3V3*%
X91500000Y-70690000D03*
D18*
%TO.P,J5,2,Pin_2_2*%
%TO.N,/TCK{slash}I2C_SDA*%
X91500000Y-73230000D03*
%TO.P,J5,3,Pin_3_3*%
%TO.N,/TDO{slash}I2C_SCL*%
X91500000Y-75770000D03*
%TO.P,J5,4,Pin_4_4*%
%TO.N,GND*%
X91500000Y-78310000D03*
%TD*%
D21*
%TO.N,VCC_12V*%
X127670000Y-111390000D03*
X132000000Y-111500000D03*
%TO.N,GND*%
X138500000Y-79500000D03*
X177500000Y-127500000D03*
X154500000Y-126500000D03*
X145100000Y-125000000D03*
D22*
X150849999Y-129720001D03*
D21*
X132500000Y-121000000D03*
X105250000Y-123500000D03*
X139825000Y-71500000D03*
D23*
X101500000Y-123500000D03*
D21*
X145100000Y-125800000D03*
X158500000Y-126500000D03*
X135000000Y-92500000D03*
X101500000Y-126500000D03*
X178500000Y-127500000D03*
X165000000Y-107000000D03*
X144100000Y-127400000D03*
X143775000Y-75450000D03*
X154500000Y-122500000D03*
X147100000Y-127400000D03*
X157500000Y-121500000D03*
D22*
X151500002Y-129720001D03*
D21*
X134000000Y-80500000D03*
X136960000Y-109220000D03*
X170500000Y-117500000D03*
X101500000Y-120250000D03*
X141800000Y-73475000D03*
X160000000Y-102000000D03*
X156500000Y-121500000D03*
X131500000Y-85000000D03*
X155500000Y-123500000D03*
X98000000Y-126500000D03*
X132500000Y-80500000D03*
X134500000Y-109220000D03*
X121000000Y-104500000D03*
X156500000Y-127500000D03*
X149000000Y-78500000D03*
D22*
X152149973Y-129726435D03*
D21*
X142000000Y-127400000D03*
X141800000Y-75450000D03*
X158500000Y-127500000D03*
X156500000Y-128500000D03*
X154500000Y-128500000D03*
X155500000Y-126500000D03*
X136500000Y-92500000D03*
X129000000Y-124500000D03*
X141800000Y-71500000D03*
X144000000Y-100500000D03*
X142000000Y-105500000D03*
X122500000Y-124500000D03*
X157500000Y-127500000D03*
X157500000Y-128500000D03*
X155500000Y-127500000D03*
X153500000Y-129720001D03*
X144100000Y-125000000D03*
X179500000Y-127500000D03*
X156500000Y-126500000D03*
X142000000Y-126600000D03*
X149000000Y-71500000D03*
X146100000Y-127400000D03*
X154500000Y-127500000D03*
X147100000Y-126600000D03*
X145100000Y-127400000D03*
X143000000Y-127400000D03*
X105250000Y-126500000D03*
X143775000Y-73475000D03*
X172100000Y-117000000D03*
X154500000Y-123500000D03*
X139825000Y-75450000D03*
X157500000Y-123500000D03*
X130500000Y-117000000D03*
X156500000Y-123500000D03*
X170620000Y-119550000D03*
X154500000Y-121500000D03*
X98000000Y-123500000D03*
X134000000Y-69500000D03*
X125500000Y-124500000D03*
X139500000Y-117500000D03*
X144100000Y-125800000D03*
X105250000Y-120250000D03*
X98000000Y-120250000D03*
X175000000Y-99000000D03*
X157500000Y-126500000D03*
X156500000Y-122500000D03*
X145100000Y-126600000D03*
X155500000Y-128500000D03*
X120780000Y-87440000D03*
X135924265Y-79575735D03*
X130500000Y-118500000D03*
X132500000Y-124500000D03*
X158500000Y-128500000D03*
X155500000Y-122500000D03*
X146100000Y-126600000D03*
X139825000Y-73475000D03*
X155500000Y-121500000D03*
X157500000Y-122500000D03*
X132350000Y-72090000D03*
X143000000Y-126600000D03*
X143775000Y-71500000D03*
X144100000Y-126600000D03*
X131500000Y-83000000D03*
%TO.N,Net-(C10-Pad1)*%
X136000000Y-132000000D03*
X136000000Y-134000000D03*
X136000000Y-133000000D03*
X146520000Y-122880000D03*
D23*
X101500000Y-131500000D03*
D21*
%TO.N,Net-(U6-EN)*%
X134000000Y-74500000D03*
X166000000Y-73500000D03*
%TO.N,Net-(D6-K)*%
X145750000Y-80750000D03*
X166500000Y-87500000D03*
%TO.N,VCC_5V*%
X139250000Y-105750000D03*
X167000000Y-96000000D03*
X125500000Y-99500000D03*
X125500000Y-105000000D03*
%TO.N,VBUS*%
X169000000Y-126000000D03*
X164000000Y-123000000D03*
X173000000Y-130970000D03*
X172742436Y-119426090D03*
X168500000Y-117500000D03*
%TO.N,GNDA*%
X149000000Y-126520000D03*
X150490000Y-126500000D03*
X153000000Y-125990000D03*
%TO.N,/PD_P*%
X173825000Y-126500000D03*
X172500000Y-126500000D03*
X163500000Y-108000000D03*
%TO.N,/PD_N*%
X173000000Y-125000000D03*
X164258949Y-107747017D03*
%TO.N,/CH_USB_N*%
X164000000Y-118500000D03*
X165000000Y-104148529D03*
%TO.N,/CH_USB_P*%
X164600000Y-117934313D03*
X164400000Y-105400000D03*
%TO.N,/ESP32USB_N*%
X141500000Y-82000000D03*
X158934313Y-97065687D03*
%TO.N,/ESP32USB_P*%
X159500000Y-96500000D03*
X141848529Y-81000000D03*
%TO.N,VCC_3V3*%
X132362500Y-91637500D03*
X155000000Y-91500000D03*
X158240000Y-70500000D03*
X155000000Y-97000000D03*
X128000000Y-74000000D03*
X147980000Y-89000000D03*
%TO.N,Net-(F5-Pad1)*%
X91000000Y-89000000D03*
%TO.N,Net-(U4-PG)*%
X147580000Y-124930000D03*
X149000000Y-108000000D03*
%TO.N,/TMS*%
X133500000Y-76000000D03*
%TO.N,/TDI*%
X133500000Y-77000000D03*
%TO.N,/TCK{slash}I2C_SDA*%
X139900000Y-81000000D03*
%TO.N,/TDO{slash}I2C_SCL*%
X140250000Y-80250000D03*
%TO.N,Net-(J2-Pin_2)*%
X147500000Y-80900000D03*
%TO.N,Net-(U4-EN)*%
X150240000Y-115080000D03*
%TO.N,Net-(F4-Pad1)*%
X95000000Y-89000000D03*
X99000000Y-89000000D03*
X97000000Y-88000000D03*
%TO.N,Net-(P1-CC2)*%
X172100000Y-121000000D03*
X173299847Y-121699847D03*
%TO.N,Net-(U1-CFG2{slash}SCL)*%
X142500000Y-86500000D03*
X157296348Y-106423619D03*
%TO.N,Net-(U1-CFG3{slash}SDA)*%
X141500000Y-86500000D03*
X156500000Y-106500000D03*
%TD*%
%TO.N,VCC_12V*%
D24*
X132000000Y-111500000D02*
X127780000Y-111500000D01*
%TO.N,GND*%
D10*
X172100000Y-117000000D02*
X172000000Y-117000000D01*
X160310000Y-70190000D02*
X160310000Y-68000000D01*
X172000000Y-117000000D02*
X171500000Y-117500000D01*
X136000000Y-79500000D02*
X135924265Y-79575735D01*
X171500000Y-117500000D02*
X170500000Y-117500000D01*
D24*
X130500000Y-118500000D02*
X130500000Y-122000000D01*
D10*
X149000000Y-71500000D02*
X159000000Y-71500000D01*
X159000000Y-71500000D02*
X160310000Y-70190000D01*
%TO.N,Net-(D6-K)*%
X163000000Y-81500000D02*
X146500000Y-81500000D01*
X166500000Y-87500000D02*
X166500000Y-87000000D01*
X146500000Y-81500000D02*
X145750000Y-80750000D01*
X166500000Y-87000000D02*
X164000000Y-84500000D01*
X164000000Y-82500000D02*
X163000000Y-81500000D01*
X164000000Y-84500000D02*
X164000000Y-82500000D01*
%TO.N,VCC_5V*%
D25*
X138500000Y-105000000D02*
X139250000Y-105750000D01*
X125500000Y-99500000D02*
X125500000Y-105000000D01*
X125500000Y-105000000D02*
X138500000Y-105000000D01*
%TO.N,VBUS*%
D10*
X172000000Y-118500000D02*
X170500000Y-118500000D01*
X170500000Y-118500000D02*
X169500000Y-117500000D01*
D26*
X168500000Y-117500000D02*
X164000000Y-122000000D01*
D25*
X173000000Y-130970000D02*
X171970000Y-130970000D01*
X171970000Y-130970000D02*
X171000000Y-130000000D01*
D10*
X169500000Y-117500000D02*
X168500000Y-117500000D01*
X172742437Y-119242437D02*
X172000000Y-118500000D01*
X172742437Y-119426089D02*
X172742437Y-119242437D01*
D25*
X171000000Y-130000000D02*
X171000000Y-128000000D01*
D26*
X164000000Y-122000000D02*
X164000000Y-123000000D01*
D10*
X172742436Y-119426090D02*
X172742437Y-119426089D01*
D25*
X171000000Y-128000000D02*
X169000000Y-126000000D01*
%TO.N,/PD_P*%
D10*
X164507478Y-108347017D02*
X164010420Y-108347017D01*
X172500000Y-125348529D02*
X172400000Y-125248529D01*
X172751471Y-124400000D02*
X173034314Y-124400000D01*
X172400000Y-124751471D02*
X172751471Y-124400000D01*
X167581331Y-108147017D02*
X164707478Y-108147017D01*
X172500000Y-126500000D02*
X172500000Y-125348529D01*
X173034314Y-124400000D02*
X175500000Y-121934314D01*
X175500000Y-116065686D02*
X167581331Y-108147017D01*
X173825000Y-126500000D02*
X172500000Y-126500000D01*
X175500000Y-121934314D02*
X175500000Y-116065686D01*
X164707478Y-108147017D02*
X164507478Y-108347017D01*
X172400000Y-125248529D02*
X172400000Y-124751471D01*
X163663403Y-108000000D02*
X163500000Y-108000000D01*
X164010420Y-108347017D02*
X163663403Y-108000000D01*
%TO.N,/PD_N*%
X176000000Y-122000000D02*
X173000000Y-125000000D01*
X167747017Y-107747017D02*
X176000000Y-116000000D01*
X176000000Y-116000000D02*
X176000000Y-122000000D01*
X164258949Y-107747017D02*
X167747017Y-107747017D01*
%TO.N,/CH_USB_N*%
X163318066Y-104181934D02*
X163867157Y-103632843D01*
X164000000Y-118500000D02*
X164000000Y-117500000D01*
X162450020Y-115950020D02*
X162450020Y-107565083D01*
X162450020Y-107565083D02*
X163318066Y-106697037D01*
X164198529Y-103632843D02*
X164714215Y-104148529D01*
X164000000Y-117500000D02*
X162450020Y-115950020D01*
X164714215Y-104148529D02*
X165000000Y-104148529D01*
X163318066Y-106697037D02*
X163318066Y-104181934D01*
X163867157Y-103632843D02*
X164198529Y-103632843D01*
%TO.N,/CH_USB_P*%
X164600000Y-117934313D02*
X164600000Y-117465686D01*
X164032843Y-104032843D02*
X164500000Y-104500000D01*
X163000000Y-108348529D02*
X162900000Y-108248529D01*
X164500000Y-104500000D02*
X164500000Y-105300000D01*
X163504454Y-107147017D02*
X163504454Y-107076334D01*
X163718066Y-104347620D02*
X164032843Y-104032843D01*
X163000000Y-115865686D02*
X163000000Y-108348529D01*
X164600000Y-117465686D02*
X163000000Y-115865686D01*
X162900000Y-108248529D02*
X162900000Y-107751471D01*
X163718066Y-106862722D02*
X163718066Y-104347620D01*
X164500000Y-105300000D02*
X164400000Y-105400000D01*
X162900000Y-107751471D02*
X163504454Y-107147017D01*
X163504454Y-107076334D02*
X163718066Y-106862722D01*
%TO.N,/ESP32USB_N*%
X158818627Y-96950001D02*
X158934313Y-97065687D01*
X158782842Y-91282842D02*
X158782842Y-96631372D01*
X141500000Y-82000000D02*
X143000000Y-83500000D01*
X143000000Y-83500000D02*
X151000000Y-83500000D01*
X158818627Y-96667158D02*
X158818627Y-96950001D01*
X151000000Y-83500000D02*
X158782842Y-91282842D01*
X158782842Y-96631372D02*
X158818627Y-96667158D01*
%TO.N,/ESP32USB_P*%
X143948529Y-83100000D02*
X151165685Y-83100000D01*
X151165685Y-83100000D02*
X159182842Y-91117156D01*
X159182842Y-91117156D02*
X159182842Y-96465687D01*
X159217155Y-96500000D02*
X159500000Y-96500000D01*
X141848529Y-81000000D02*
X143948529Y-83100000D01*
X159182842Y-96465687D02*
X159217155Y-96500000D01*
%TO.N,VCC_3V3*%
D25*
X114000000Y-71500000D02*
X113190000Y-70690000D01*
D26*
X150480000Y-91500000D02*
X147980000Y-89000000D01*
D25*
X126000000Y-74500000D02*
X126500000Y-74000000D01*
X126000000Y-74500000D02*
X123000000Y-71500000D01*
X126000000Y-74500000D02*
X126000000Y-85275000D01*
D26*
X155000000Y-91500000D02*
X150480000Y-91500000D01*
D25*
X126500000Y-74000000D02*
X128000000Y-74000000D01*
X126000000Y-85275000D02*
X132362500Y-91637500D01*
D26*
X152690000Y-70500000D02*
X152690000Y-68000000D01*
X155000000Y-97000000D02*
X155000000Y-91500000D01*
D25*
X113190000Y-70690000D02*
X91500000Y-70690000D01*
D26*
X158240000Y-70500000D02*
X152690000Y-70500000D01*
D25*
X123000000Y-71500000D02*
X114000000Y-71500000D01*
%TO.N,Net-(F5-Pad1)*%
D27*
X106000000Y-83500000D02*
X94000000Y-83500000D01*
X108500000Y-92000000D02*
X108500000Y-86000000D01*
X108500000Y-86000000D02*
X106000000Y-83500000D01*
X117982500Y-93117500D02*
X109617500Y-93117500D01*
X94000000Y-83500000D02*
X91000000Y-86500000D01*
X91000000Y-86500000D02*
X91000000Y-89000000D01*
X109617500Y-93117500D02*
X108500000Y-92000000D01*
%TO.N,/QO1*%
X95000000Y-98500000D02*
X90000000Y-98500000D01*
%TO.N,Net-(U4-PG)*%
D10*
X149000000Y-108000000D02*
X149000000Y-123510000D01*
X149000000Y-123510000D02*
X147580000Y-124930000D01*
%TO.N,/TMS*%
X133500000Y-76000000D02*
X125500000Y-68000000D01*
X125500000Y-68000000D02*
X121080000Y-68000000D01*
%TO.N,/TDI*%
X120040000Y-69500000D02*
X118540000Y-68000000D01*
X126000000Y-69500000D02*
X120040000Y-69500000D01*
X133500000Y-77000000D02*
X126000000Y-69500000D01*
%TO.N,/TCK{slash}I2C_SDA*%
X125434314Y-70500000D02*
X135934314Y-81000000D01*
X113460000Y-68000000D02*
X115960000Y-70500000D01*
X115960000Y-70500000D02*
X125434314Y-70500000D01*
X135934314Y-81000000D02*
X139900000Y-81000000D01*
%TO.N,/TDO{slash}I2C_SCL*%
X116000000Y-68000000D02*
X116000000Y-69500000D01*
X116500000Y-70000000D02*
X125500000Y-70000000D01*
X125500000Y-70000000D02*
X135750000Y-80250000D01*
X116000000Y-69500000D02*
X116500000Y-70000000D01*
X135750000Y-80250000D02*
X140250000Y-80250000D01*
%TO.N,Net-(J2-Pin_2)*%
X147600000Y-81000000D02*
X170450000Y-81000000D01*
X170450000Y-81000000D02*
X172000000Y-82550000D01*
X147500000Y-80900000D02*
X147600000Y-81000000D01*
%TO.N,Net-(F4-Pad1)*%
D27*
X98000000Y-88000000D02*
X96000000Y-88000000D01*
X96000000Y-88000000D02*
X95000000Y-89000000D01*
X102117500Y-110117500D02*
X101000000Y-109000000D01*
X117982500Y-110117500D02*
X102117500Y-110117500D01*
X99000000Y-89000000D02*
X98000000Y-88000000D01*
X101000000Y-91000000D02*
X99000000Y-89000000D01*
X101000000Y-109000000D02*
X101000000Y-91000000D01*
%TO.N,Net-(P1-CC2)*%
D10*
X172600000Y-121000000D02*
X172100000Y-121000000D01*
X173299847Y-121699847D02*
X172600000Y-121000000D01*
%TO.N,Net-(U1-CFG2{slash}SCL)*%
X142500000Y-87500000D02*
X142500000Y-86500000D01*
X157296348Y-102296348D02*
X142500000Y-87500000D01*
X157296348Y-106423619D02*
X157296348Y-102296348D01*
%TO.N,Net-(U1-CFG3{slash}SDA)*%
X141500000Y-87500000D02*
X156500000Y-102500000D01*
X141500000Y-86500000D02*
X141500000Y-87500000D01*
X156500000Y-102500000D02*
X156500000Y-106500000D01*
%TD*%
%TA.AperFunction,Conductor*%
%TO.N,GND*%
G36*
X179943039Y-66419685D02*
G01*
X179988794Y-66472489D01*
X180000000Y-66524000D01*
X180000000Y-135906000D01*
X179980315Y-135973039D01*
X179927511Y-136018794D01*
X179876000Y-136030000D01*
X85214000Y-136030000D01*
X85146961Y-136010315D01*
X85101206Y-135957511D01*
X85090000Y-135906000D01*
X85090000Y-128999992D01*
X97394500Y-128999992D01*
X97394500Y-135000007D01*
X97415132Y-135156714D01*
X97415132Y-135156715D01*
X97475620Y-135302747D01*
X97475621Y-135302749D01*
X97475622Y-135302750D01*
X97571847Y-135428153D01*
X97697250Y-135524378D01*
X97843285Y-135584868D01*
X98000000Y-135605500D01*
X98000007Y-135605500D01*
X104999993Y-135605500D01*
X105000000Y-135605500D01*
X105156715Y-135584868D01*
X105302750Y-135524378D01*
X105428153Y-135428153D01*
X105524378Y-135302750D01*
X105584868Y-135156715D01*
X105605500Y-135000000D01*
X105605500Y-131921153D01*
X135199500Y-131921153D01*
X135199500Y-132078846D01*
X135230261Y-132233489D01*
X135230264Y-132233501D01*
X135290602Y-132379172D01*
X135290609Y-132379185D01*
X135325304Y-132431109D01*
X135346182Y-132497786D01*
X135327698Y-132565167D01*
X135325304Y-132568891D01*
X135290609Y-132620814D01*
X135290602Y-132620827D01*
X135230264Y-132766498D01*
X135230261Y-132766510D01*
X135199500Y-132921153D01*
X135199500Y-133078846D01*
X135230261Y-133233489D01*
X135230264Y-133233501D01*
X135290602Y-133379172D01*
X135290609Y-133379185D01*
X135325304Y-133431109D01*
X135346182Y-133497786D01*
X135327698Y-133565167D01*
X135325304Y-133568891D01*
X135290609Y-133620814D01*
X135290602Y-133620827D01*
X135230264Y-133766498D01*
X135230261Y-133766510D01*
X135199500Y-133921153D01*
X135199500Y-134078846D01*
X135230261Y-134233489D01*
X135230264Y-134233501D01*
X135290602Y-134379172D01*
X135290609Y-134379185D01*
X135378210Y-134510288D01*
X135378213Y-134510292D01*
X135489707Y-134621786D01*
X135489711Y-134621789D01*
X135620814Y-134709390D01*
X135620827Y-134709397D01*
X135728645Y-134754056D01*
X135766503Y-134769737D01*
X135921153Y-134800499D01*
X135921156Y-134800500D01*
X135921158Y-134800500D01*
X136078844Y-134800500D01*
X136078845Y-134800499D01*
X136233497Y-134769737D01*
X136379179Y-134709394D01*
X136510289Y-134621789D01*
X136621789Y-134510289D01*
X136709394Y-134379179D01*
X136769737Y-134233497D01*
X136800500Y-134078842D01*
X136800500Y-133921158D01*
X136800500Y-133921155D01*
X136800499Y-133921153D01*
X136775229Y-133794108D01*
X136771627Y-133776004D01*
X167680000Y-133776004D01*
X167680000Y-133924500D01*
X168380000Y-133924500D01*
X168380000Y-134424500D01*
X167680000Y-134424500D01*
X167680000Y-134572995D01*
X167718427Y-134766181D01*
X167718430Y-134766193D01*
X167793807Y-134948171D01*
X167793814Y-134948184D01*
X167903248Y-135111962D01*
X167903251Y-135111966D01*
X168042533Y-135251248D01*
X168042537Y-135251251D01*
X168206315Y-135360685D01*
X168206328Y-135360692D01*
X168388308Y-135436069D01*
X168430000Y-135444362D01*
X168430000Y-134641488D01*
X168439940Y-134658705D01*
X168495795Y-134714560D01*
X168564204Y-134754056D01*
X168640504Y-134774500D01*
X168719496Y-134774500D01*
X168795796Y-134754056D01*
X168864205Y-134714560D01*
X168920060Y-134658705D01*
X168930000Y-134641488D01*
X168930000Y-135444362D01*
X168971690Y-135436069D01*
X168971692Y-135436069D01*
X169153671Y-135360692D01*
X169153684Y-135360685D01*
X169317462Y-135251251D01*
X169317466Y-135251248D01*
X169456748Y-135111966D01*
X169456751Y-135111962D01*
X169566185Y-134948184D01*
X169566192Y-134948171D01*
X169641569Y-134766193D01*
X169641572Y-134766181D01*
X169679999Y-134572995D01*
X169680000Y-134572992D01*
X169680000Y-134424500D01*
X168980000Y-134424500D01*
X168980000Y-133924500D01*
X169680000Y-133924500D01*
X169680000Y-133776008D01*
X169679999Y-133776004D01*
X176320000Y-133776004D01*
X176320000Y-133924500D01*
X177020000Y-133924500D01*
X177020000Y-134424500D01*
X176320000Y-134424500D01*
X176320000Y-134572995D01*
X176358427Y-134766181D01*
X176358430Y-134766193D01*
X176433807Y-134948171D01*
X176433814Y-134948184D01*
X176543248Y-135111962D01*
X176543251Y-135111966D01*
X176682533Y-135251248D01*
X176682537Y-135251251D01*
X176846315Y-135360685D01*
X176846328Y-135360692D01*
X177028308Y-135436069D01*
X177070000Y-135444362D01*
X177070000Y-134641488D01*
X177079940Y-134658705D01*
X177135795Y-134714560D01*
X177204204Y-134754056D01*
X177280504Y-134774500D01*
X177359496Y-134774500D01*
X177435796Y-134754056D01*
X177504205Y-134714560D01*
X177560060Y-134658705D01*
X177570000Y-134641488D01*
X177570000Y-135444362D01*
X177611690Y-135436069D01*
X177611692Y-135436069D01*
X177793671Y-135360692D01*
X177793684Y-135360685D01*
X177957462Y-135251251D01*
X177957466Y-135251248D01*
X178096748Y-135111966D01*
X178096751Y-135111962D01*
X178206185Y-134948184D01*
X178206192Y-134948171D01*
X178281569Y-134766193D01*
X178281572Y-134766181D01*
X178319999Y-134572995D01*
X178320000Y-134572992D01*
X178320000Y-134424500D01*
X177620000Y-134424500D01*
X177620000Y-133924500D01*
X178320000Y-133924500D01*
X178320000Y-133776008D01*
X178319999Y-133776004D01*
X178281572Y-133582818D01*
X178281569Y-133582806D01*
X178206192Y-133400828D01*
X178206185Y-133400815D01*
X178096751Y-133237037D01*
X178096748Y-133237033D01*
X177957466Y-133097751D01*
X177957462Y-133097748D01*
X177793684Y-132988314D01*
X177793671Y-132988307D01*
X177611691Y-132912929D01*
X177611683Y-132912927D01*
X177570000Y-132904635D01*
X177570000Y-133707511D01*
X177560060Y-133690295D01*
X177504205Y-133634440D01*
X177435796Y-133594944D01*
X177359496Y-133574500D01*
X177280504Y-133574500D01*
X177204204Y-133594944D01*
X177135795Y-133634440D01*
X177079940Y-133690295D01*
X177070000Y-133707511D01*
X177070000Y-132904636D01*
X177069999Y-132904635D01*
X177028316Y-132912927D01*
X177028308Y-132912929D01*
X176846328Y-132988307D01*
X176846315Y-132988314D01*
X176682537Y-133097748D01*
X176682533Y-133097751D01*
X176543251Y-133237033D01*
X176543248Y-133237037D01*
X176433814Y-133400815D01*
X176433807Y-133400828D01*
X176358430Y-133582806D01*
X176358427Y-133582818D01*
X176320000Y-133776004D01*
X169679999Y-133776004D01*
X169641572Y-133582818D01*
X169641569Y-133582806D01*
X169566192Y-133400828D01*
X169566185Y-133400815D01*
X169456751Y-133237037D01*
X169456748Y-133237033D01*
X169317466Y-133097751D01*
X169317462Y-133097748D01*
X169153684Y-132988314D01*
X169153671Y-132988307D01*
X168971691Y-132912929D01*
X168971683Y-132912927D01*
X168930000Y-132904635D01*
X168930000Y-133707511D01*
X168920060Y-133690295D01*
X168864205Y-133634440D01*
X168795796Y-133594944D01*
X168719496Y-133574500D01*
X168640504Y-133574500D01*
X168564204Y-133594944D01*
X168495795Y-133634440D01*
X168439940Y-133690295D01*
X168430000Y-133707511D01*
X168430000Y-132904636D01*
X168429999Y-132904635D01*
X168388316Y-132912927D01*
X168388308Y-132912929D01*
X168206328Y-132988307D01*
X168206315Y-132988314D01*
X168042537Y-133097748D01*
X168042533Y-133097751D01*
X167903251Y-133237033D01*
X167903248Y-133237037D01*
X167793814Y-133400815D01*
X167793807Y-133400828D01*
X167718430Y-133582806D01*
X167718427Y-133582818D01*
X167680000Y-133776004D01*
X136771627Y-133776004D01*
X136769738Y-133766507D01*
X136769735Y-133766498D01*
X136709396Y-133620825D01*
X136709394Y-133620822D01*
X136709394Y-133620821D01*
X136674694Y-133568889D01*
X136653816Y-133502215D01*
X136672300Y-133434835D01*
X136674676Y-133431136D01*
X136709394Y-133379179D01*
X136769737Y-133233497D01*
X136800500Y-133078842D01*
X136800500Y-132921158D01*
X136800500Y-132921155D01*
X136800499Y-132921153D01*
X136769738Y-132766510D01*
X136769737Y-132766503D01*
X136769735Y-132766498D01*
X136709396Y-132620825D01*
X136709394Y-132620822D01*
X136709394Y-132620821D01*
X136674694Y-132568889D01*
X136653816Y-132502215D01*
X136672300Y-132434835D01*
X136674676Y-132431136D01*
X136709394Y-132379179D01*
X136769737Y-132233497D01*
X136800500Y-132078842D01*
X136800500Y-131921158D01*
X136800500Y-131921155D01*
X136800499Y-131921153D01*
X136770532Y-131770500D01*
X136769737Y-131766503D01*
X136758650Y-131739737D01*
X136709397Y-131620827D01*
X136709390Y-131620814D01*
X136621789Y-131489711D01*
X136621786Y-131489707D01*
X136510292Y-131378213D01*
X136510288Y-131378210D01*
X136379185Y-131290609D01*
X136379172Y-131290602D01*
X136233501Y-131230264D01*
X136233489Y-131230261D01*
X136078845Y-131199500D01*
X136078842Y-131199500D01*
X135921158Y-131199500D01*
X135921155Y-131199500D01*
X135766510Y-131230261D01*
X135766498Y-131230264D01*
X135620827Y-131290602D01*
X135620814Y-131290609D01*
X135489711Y-131378210D01*
X135489707Y-131378213D01*
X135378213Y-131489707D01*
X135378210Y-131489711D01*
X135290609Y-131620814D01*
X135290602Y-131620827D01*
X135230264Y-131766498D01*
X135230261Y-131766510D01*
X135199500Y-131921153D01*
X105605500Y-131921153D01*
X105605500Y-129346004D01*
X167680000Y-129346004D01*
X167680000Y-129744500D01*
X168380000Y-129744500D01*
X168380000Y-130244500D01*
X167680000Y-130244500D01*
X167680000Y-130642995D01*
X167718427Y-130836181D01*
X167718430Y-130836193D01*
X167793807Y-131018170D01*
X167793814Y-131018184D01*
X167903248Y-131181962D01*
X167903251Y-131181966D01*
X168042533Y-131321248D01*
X168042537Y-131321251D01*
X168206315Y-131430685D01*
X168206328Y-131430692D01*
X168388308Y-131506069D01*
X168430000Y-131514362D01*
X168430000Y-130711488D01*
X168439940Y-130728705D01*
X168495795Y-130784560D01*
X168564204Y-130824056D01*
X168640504Y-130844500D01*
X168719496Y-130844500D01*
X168795796Y-130824056D01*
X168864205Y-130784560D01*
X168920060Y-130728705D01*
X168930000Y-130711488D01*
X168930000Y-131514362D01*
X168971690Y-131506069D01*
X168971692Y-131506069D01*
X169153671Y-131430692D01*
X169153684Y-131430685D01*
X169317462Y-131321251D01*
X169317466Y-131321248D01*
X169456748Y-131181966D01*
X169456751Y-131181962D01*
X169566185Y-131018184D01*
X169566193Y-131018170D01*
X169643902Y-130830562D01*
X169645760Y-130831331D01*
X169678986Y-130780608D01*
X169742792Y-130752138D01*
X169811861Y-130762684D01*
X169847050Y-130787344D01*
X169881714Y-130822008D01*
X169966494Y-130870955D01*
X170061053Y-130896292D01*
X170061055Y-130896292D01*
X170158945Y-130896292D01*
X170158947Y-130896292D01*
X170253506Y-130870955D01*
X170338286Y-130822008D01*
X170407508Y-130752786D01*
X170430626Y-130712742D01*
X170481190Y-130664528D01*
X170549796Y-130651303D01*
X170614662Y-130677269D01*
X170625694Y-130687061D01*
X171491580Y-131552948D01*
X171491584Y-131552951D01*
X171614498Y-131635080D01*
X171614511Y-131635087D01*
X171721469Y-131679390D01*
X171751087Y-131691658D01*
X171751091Y-131691658D01*
X171751092Y-131691659D01*
X171896079Y-131720500D01*
X171896082Y-131720500D01*
X172043917Y-131720500D01*
X172695396Y-131720500D01*
X172742844Y-131729937D01*
X172766503Y-131739737D01*
X172766508Y-131739738D01*
X172766511Y-131739739D01*
X172921153Y-131770499D01*
X172921156Y-131770500D01*
X172921158Y-131770500D01*
X173078844Y-131770500D01*
X173078845Y-131770499D01*
X173233497Y-131739737D01*
X173379179Y-131679394D01*
X173510289Y-131591789D01*
X173621789Y-131480289D01*
X173709394Y-131349179D01*
X173769737Y-131203497D01*
X173800500Y-131048842D01*
X173800500Y-130891158D01*
X173800500Y-130891155D01*
X173800499Y-130891153D01*
X173789564Y-130836181D01*
X173769737Y-130736503D01*
X173739924Y-130664528D01*
X173709397Y-130590827D01*
X173709390Y-130590814D01*
X173672975Y-130536315D01*
X173632374Y-130475553D01*
X175518208Y-130475553D01*
X175518208Y-130479344D01*
X175518208Y-130573448D01*
X175519750Y-130579203D01*
X175519751Y-130579205D01*
X175522865Y-130590827D01*
X175543545Y-130668006D01*
X175592492Y-130752786D01*
X175661714Y-130822008D01*
X175746494Y-130870955D01*
X175841053Y-130896292D01*
X175841055Y-130896292D01*
X175938945Y-130896292D01*
X175938947Y-130896292D01*
X176033506Y-130870955D01*
X176118286Y-130822008D01*
X176152950Y-130787343D01*
X176214270Y-130753859D01*
X176283962Y-130758843D01*
X176339896Y-130800713D01*
X176355195Y-130830935D01*
X176356098Y-130830562D01*
X176433807Y-131018170D01*
X176433814Y-131018184D01*
X176543248Y-131181962D01*
X176543251Y-131181966D01*
X176682533Y-131321248D01*
X176682537Y-131321251D01*
X176846315Y-131430685D01*
X176846328Y-131430692D01*
X177028308Y-131506069D01*
X177070000Y-131514362D01*
X177070000Y-130711488D01*
X177079940Y-130728705D01*
X177135795Y-130784560D01*
X177204204Y-130824056D01*
X177280504Y-130844500D01*
X177359496Y-130844500D01*
X177435796Y-130824056D01*
X177504205Y-130784560D01*
X177560060Y-130728705D01*
X177570000Y-130711488D01*
X177570000Y-131514362D01*
X177611690Y-131506069D01*
X177611692Y-131506069D01*
X177793671Y-131430692D01*
X177793684Y-131430685D01*
X177957462Y-131321251D01*
X177957466Y-131321248D01*
X178096748Y-131181966D01*
X178096751Y-131181962D01*
X178206185Y-131018184D01*
X178206193Y-131018170D01*
X178281569Y-130836193D01*
X178281572Y-130836181D01*
X178319999Y-130642995D01*
X178320000Y-130642992D01*
X178320000Y-130244500D01*
X177620000Y-130244500D01*
X177620000Y-129744500D01*
X178320000Y-129744500D01*
X178320000Y-129346008D01*
X178319999Y-129346004D01*
X178281572Y-129152818D01*
X178281569Y-129152806D01*
X178206192Y-128970828D01*
X178206185Y-128970815D01*
X178096751Y-128807037D01*
X178096748Y-128807033D01*
X177957466Y-128667751D01*
X177957462Y-128667748D01*
X177793684Y-128558314D01*
X177793671Y-128558307D01*
X177611691Y-128482929D01*
X177611683Y-128482927D01*
X177570000Y-128474635D01*
X177570000Y-129277511D01*
X177560060Y-129260295D01*
X177504205Y-129204440D01*
X177435796Y-129164944D01*
X177359496Y-129144500D01*
X177280504Y-129144500D01*
X177204204Y-129164944D01*
X177135795Y-129204440D01*
X177079940Y-129260295D01*
X177070000Y-129277511D01*
X177070000Y-128474636D01*
X177069999Y-128474635D01*
X177028316Y-128482927D01*
X177028308Y-128482929D01*
X176846328Y-128558307D01*
X176846315Y-128558314D01*
X176682537Y-128667748D01*
X176682533Y-128667751D01*
X176543251Y-128807033D01*
X176543248Y-128807037D01*
X176433814Y-128970815D01*
X176433807Y-128970828D01*
X176358430Y-129152806D01*
X176358427Y-129152818D01*
X176320000Y-129346004D01*
X176320000Y-129744500D01*
X177020000Y-129744500D01*
X177020000Y-130244500D01*
X176320000Y-130244500D01*
X176315578Y-130248922D01*
X176254255Y-130282407D01*
X176184563Y-130277423D01*
X176140216Y-130248922D01*
X176118287Y-130226993D01*
X176118286Y-130226992D01*
X176033506Y-130178045D01*
X175938947Y-130152708D01*
X175841053Y-130152708D01*
X175746494Y-130178045D01*
X175746493Y-130178045D01*
X175661715Y-130226991D01*
X175661712Y-130226993D01*
X175592493Y-130296212D01*
X175592491Y-130296215D01*
X175543545Y-130380993D01*
X175520875Y-130465598D01*
X175520873Y-130465606D01*
X175519750Y-130469799D01*
X175518208Y-130475553D01*
X173632374Y-130475553D01*
X173621789Y-130459711D01*
X173621786Y-130459707D01*
X173510292Y-130348213D01*
X173510288Y-130348210D01*
X173379185Y-130260609D01*
X173379172Y-130260602D01*
X173233501Y-130200264D01*
X173233489Y-130200261D01*
X173078845Y-130169500D01*
X173078842Y-130169500D01*
X172921158Y-130169500D01*
X172921155Y-130169500D01*
X172766511Y-130200260D01*
X172766506Y-130200262D01*
X172766504Y-130200262D01*
X172766503Y-130200263D01*
X172742844Y-130210062D01*
X172695396Y-130219500D01*
X172332229Y-130219500D01*
X172265190Y-130199815D01*
X172244548Y-130183181D01*
X171786819Y-129725451D01*
X171753334Y-129664128D01*
X171750500Y-129637770D01*
X171750500Y-127926079D01*
X171721659Y-127781092D01*
X171721658Y-127781091D01*
X171721658Y-127781087D01*
X171721656Y-127781082D01*
X171665087Y-127644511D01*
X171665080Y-127644498D01*
X171582952Y-127521585D01*
X171582951Y-127521584D01*
X171478416Y-127417049D01*
X169746071Y-125684703D01*
X169719191Y-125644475D01*
X169709394Y-125620821D01*
X169683881Y-125582638D01*
X169621789Y-125489710D01*
X169510292Y-125378213D01*
X169510288Y-125378210D01*
X169379185Y-125290609D01*
X169379172Y-125290602D01*
X169233501Y-125230264D01*
X169233489Y-125230261D01*
X169078845Y-125199500D01*
X169078842Y-125199500D01*
X168921158Y-125199500D01*
X168921155Y-125199500D01*
X168766510Y-125230261D01*
X168766498Y-125230264D01*
X168620827Y-125290602D01*
X168620814Y-125290609D01*
X168489711Y-125378210D01*
X168489707Y-125378213D01*
X168378213Y-125489707D01*
X168378210Y-125489711D01*
X168290609Y-125620814D01*
X168290602Y-125620827D01*
X168230264Y-125766498D01*
X168230261Y-125766510D01*
X168199500Y-125921153D01*
X168199500Y-126078846D01*
X168230261Y-126233489D01*
X168230264Y-126233501D01*
X168290602Y-126379172D01*
X168290609Y-126379185D01*
X168378210Y-126510288D01*
X168378213Y-126510292D01*
X168489710Y-126621789D01*
X168605849Y-126699390D01*
X168620821Y-126709394D01*
X168644475Y-126719191D01*
X168684703Y-126746071D01*
X170213181Y-128274548D01*
X170246666Y-128335871D01*
X170249500Y-128362229D01*
X170249500Y-130028708D01*
X170229815Y-130095747D01*
X170177011Y-130141502D01*
X170125500Y-130152708D01*
X170061053Y-130152708D01*
X169966494Y-130178045D01*
X169966493Y-130178045D01*
X169881715Y-130226991D01*
X169881712Y-130226993D01*
X169859784Y-130248922D01*
X169798461Y-130282407D01*
X169728769Y-130277423D01*
X169684422Y-130248922D01*
X169680000Y-130244500D01*
X168980000Y-130244500D01*
X168980000Y-129744500D01*
X169680000Y-129744500D01*
X169680000Y-129346008D01*
X169679999Y-129346004D01*
X169641572Y-129152818D01*
X169641569Y-129152806D01*
X169566192Y-128970828D01*
X169566185Y-128970815D01*
X169456751Y-128807037D01*
X169456748Y-128807033D01*
X169317466Y-128667751D01*
X169317462Y-128667748D01*
X169153684Y-128558314D01*
X169153671Y-128558307D01*
X168971691Y-128482929D01*
X168971683Y-128482927D01*
X168930000Y-128474635D01*
X168930000Y-129277511D01*
X168920060Y-129260295D01*
X168864205Y-129204440D01*
X168795796Y-129164944D01*
X168719496Y-129144500D01*
X168640504Y-129144500D01*
X168564204Y-129164944D01*
X168495795Y-129204440D01*
X168439940Y-129260295D01*
X168430000Y-129277511D01*
X168430000Y-128474636D01*
X168429999Y-128474635D01*
X168388316Y-128482927D01*
X168388308Y-128482929D01*
X168206328Y-128558307D01*
X168206315Y-128558314D01*
X168042537Y-128667748D01*
X168042533Y-128667751D01*
X167903251Y-128807033D01*
X167903248Y-128807037D01*
X167793814Y-128970815D01*
X167793807Y-128970828D01*
X167718430Y-129152806D01*
X167718427Y-129152818D01*
X167680000Y-129346004D01*
X105605500Y-129346004D01*
X105605500Y-129000000D01*
X105584868Y-128843285D01*
X105524378Y-128697250D01*
X105428153Y-128571847D01*
X105302750Y-128475622D01*
X105302749Y-128475621D01*
X105302747Y-128475620D01*
X105208344Y-128436517D01*
X105156715Y-128415132D01*
X105137125Y-128412553D01*
X105000007Y-128394500D01*
X105000000Y-128394500D01*
X98000000Y-128394500D01*
X97999992Y-128394500D01*
X97843285Y-128415132D01*
X97843284Y-128415132D01*
X97697252Y-128475620D01*
X97571847Y-128571847D01*
X97475620Y-128697252D01*
X97415132Y-128843284D01*
X97415132Y-128843285D01*
X97394500Y-128999992D01*
X85090000Y-128999992D01*
X85090000Y-126441153D01*
X148199500Y-126441153D01*
X148199500Y-126598846D01*
X148230261Y-126753489D01*
X148230264Y-126753501D01*
X148290602Y-126899172D01*
X148290609Y-126899185D01*
X148378210Y-127030288D01*
X148378213Y-127030292D01*
X148489707Y-127141786D01*
X148489711Y-127141789D01*
X148620814Y-127229390D01*
X148620827Y-127229397D01*
X148766498Y-127289735D01*
X148766503Y-127289737D01*
X148921153Y-127320499D01*
X148921156Y-127320500D01*
X148921158Y-127320500D01*
X149078844Y-127320500D01*
X149078845Y-127320499D01*
X149233497Y-127289737D01*
X149379179Y-127229394D01*
X149510289Y-127141789D01*
X149621789Y-127030289D01*
X149648578Y-126990195D01*
X149702189Y-126945390D01*
X149771514Y-126936681D01*
X149834542Y-126966835D01*
X149854782Y-126990193D01*
X149868208Y-127010285D01*
X149868213Y-127010292D01*
X149979707Y-127121786D01*
X149979711Y-127121789D01*
X150110814Y-127209390D01*
X150110827Y-127209397D01*
X150256498Y-127269735D01*
X150256503Y-127269737D01*
X150411153Y-127300499D01*
X150411156Y-127300500D01*
X150411158Y-127300500D01*
X150568844Y-127300500D01*
X150568845Y-127300499D01*
X150723497Y-127269737D01*
X150869179Y-127209394D01*
X151000289Y-127121789D01*
X151111789Y-127010289D01*
X151199394Y-126879179D01*
X151259737Y-126733497D01*
X151290500Y-126578842D01*
X151290500Y-126421158D01*
X151290500Y-126421155D01*
X151290499Y-126421153D01*
X151280159Y-126369172D01*
X151259737Y-126266503D01*
X151241925Y-126223501D01*
X151199397Y-126120827D01*
X151199390Y-126120814D01*
X151111789Y-125989711D01*
X151111786Y-125989707D01*
X151033232Y-125911153D01*
X152199500Y-125911153D01*
X152199500Y-126068846D01*
X152230261Y-126223489D01*
X152230264Y-126223501D01*
X152290602Y-126369172D01*
X152290609Y-126369185D01*
X152378210Y-126500288D01*
X152378213Y-126500292D01*
X152489707Y-126611786D01*
X152489711Y-126611789D01*
X152620814Y-126699390D01*
X152620827Y-126699397D01*
X152703163Y-126733501D01*
X152766503Y-126759737D01*
X152921153Y-126790499D01*
X152921156Y-126790500D01*
X152921158Y-126790500D01*
X153078844Y-126790500D01*
X153078845Y-126790499D01*
X153233497Y-126759737D01*
X153379179Y-126699394D01*
X153510289Y-126611789D01*
X153621789Y-126500289D01*
X153709394Y-126369179D01*
X153769737Y-126223497D01*
X153800500Y-126068842D01*
X153800500Y-125911158D01*
X153800500Y-125911155D01*
X153800499Y-125911153D01*
X153776521Y-125790609D01*
X153769737Y-125756503D01*
X153767152Y-125750263D01*
X153709397Y-125610827D01*
X153709390Y-125610814D01*
X153621789Y-125479711D01*
X153621786Y-125479707D01*
X153510292Y-125368213D01*
X153510288Y-125368210D01*
X153379185Y-125280609D01*
X153379172Y-125280602D01*
X153233501Y-125220264D01*
X153233489Y-125220261D01*
X153078845Y-125189500D01*
X153078842Y-125189500D01*
X152921158Y-125189500D01*
X152921155Y-125189500D01*
X152766510Y-125220261D01*
X152766498Y-125220264D01*
X152620827Y-125280602D01*
X152620814Y-125280609D01*
X152489711Y-125368210D01*
X152489707Y-125368213D01*
X152378213Y-125479707D01*
X152378210Y-125479711D01*
X152290609Y-125610814D01*
X152290602Y-125610827D01*
X152230264Y-125756498D01*
X152230261Y-125756510D01*
X152199500Y-125911153D01*
X151033232Y-125911153D01*
X151000292Y-125878213D01*
X151000288Y-125878210D01*
X150869185Y-125790609D01*
X150869172Y-125790602D01*
X150723501Y-125730264D01*
X150723489Y-125730261D01*
X150568845Y-125699500D01*
X150568842Y-125699500D01*
X150411158Y-125699500D01*
X150411155Y-125699500D01*
X150256510Y-125730261D01*
X150256498Y-125730264D01*
X150110827Y-125790602D01*
X150110814Y-125790609D01*
X149979711Y-125878210D01*
X149979707Y-125878213D01*
X149868213Y-125989707D01*
X149868208Y-125989713D01*
X149841419Y-126029806D01*
X149787807Y-126074610D01*
X149718482Y-126083317D01*
X149655455Y-126053162D01*
X149635216Y-126029806D01*
X149621786Y-126009707D01*
X149510292Y-125898213D01*
X149510288Y-125898210D01*
X149379185Y-125810609D01*
X149379172Y-125810602D01*
X149233501Y-125750264D01*
X149233489Y-125750261D01*
X149078845Y-125719500D01*
X149078842Y-125719500D01*
X148921158Y-125719500D01*
X148921155Y-125719500D01*
X148766510Y-125750261D01*
X148766498Y-125750264D01*
X148620827Y-125810602D01*
X148620814Y-125810609D01*
X148489711Y-125898210D01*
X148489707Y-125898213D01*
X148378213Y-126009707D01*
X148378210Y-126009711D01*
X148290609Y-126140814D01*
X148290602Y-126140827D01*
X148230264Y-126286498D01*
X148230261Y-126286510D01*
X148199500Y-126441153D01*
X85090000Y-126441153D01*
X85090000Y-124851153D01*
X146779500Y-124851153D01*
X146779500Y-125008846D01*
X146810261Y-125163489D01*
X146810264Y-125163501D01*
X146870602Y-125309172D01*
X146870609Y-125309185D01*
X146958210Y-125440288D01*
X146958213Y-125440292D01*
X147069707Y-125551786D01*
X147069711Y-125551789D01*
X147200814Y-125639390D01*
X147200827Y-125639397D01*
X147310207Y-125684703D01*
X147346503Y-125699737D01*
X147499967Y-125730263D01*
X147501153Y-125730499D01*
X147501156Y-125730500D01*
X147501158Y-125730500D01*
X147658844Y-125730500D01*
X147658845Y-125730499D01*
X147813497Y-125699737D01*
X147959179Y-125639394D01*
X148090289Y-125551789D01*
X148201789Y-125440289D01*
X148289394Y-125309179D01*
X148349737Y-125163497D01*
X148379343Y-125014660D01*
X148380638Y-125008150D01*
X148413023Y-124946239D01*
X148414520Y-124944714D01*
X149368713Y-123990521D01*
X149368716Y-123990520D01*
X149480520Y-123878716D01*
X149530639Y-123791904D01*
X149559577Y-123741785D01*
X149600500Y-123589058D01*
X149600500Y-123430943D01*
X149600500Y-122921153D01*
X163199500Y-122921153D01*
X163199500Y-123078846D01*
X163230261Y-123233489D01*
X163230264Y-123233501D01*
X163290602Y-123379172D01*
X163290609Y-123379185D01*
X163378210Y-123510288D01*
X163378213Y-123510292D01*
X163489707Y-123621786D01*
X163489711Y-123621789D01*
X163620814Y-123709390D01*
X163620827Y-123709397D01*
X163699020Y-123741785D01*
X163766503Y-123769737D01*
X163916131Y-123799500D01*
X163921153Y-123800499D01*
X163921156Y-123800500D01*
X163921158Y-123800500D01*
X164078844Y-123800500D01*
X164078845Y-123800499D01*
X164233497Y-123769737D01*
X164379179Y-123709394D01*
X164510289Y-123621789D01*
X164621789Y-123510289D01*
X164709394Y-123379179D01*
X164769737Y-123233497D01*
X164800500Y-123078842D01*
X164800500Y-122921158D01*
X164800500Y-122921155D01*
X164800499Y-122921153D01*
X164776630Y-122801158D01*
X164769737Y-122766503D01*
X164709394Y-122620821D01*
X164671396Y-122563953D01*
X164665746Y-122545907D01*
X164655523Y-122529999D01*
X164651071Y-122499036D01*
X164650520Y-122497276D01*
X164650500Y-122495064D01*
X164650500Y-122320807D01*
X164670185Y-122253768D01*
X164686814Y-122233131D01*
X168602931Y-118317013D01*
X168664252Y-118283530D01*
X168666317Y-118283099D01*
X168733497Y-118269737D01*
X168879179Y-118209394D01*
X168941426Y-118167802D01*
X169010875Y-118121398D01*
X169028921Y-118115747D01*
X169044831Y-118105523D01*
X169075792Y-118101071D01*
X169077553Y-118100520D01*
X169079766Y-118100500D01*
X169199903Y-118100500D01*
X169266942Y-118120185D01*
X169287583Y-118136818D01*
X170131284Y-118980520D01*
X170131286Y-118980521D01*
X170131290Y-118980524D01*
X170246288Y-119046917D01*
X170268216Y-119059577D01*
X170420943Y-119100501D01*
X170420945Y-119100501D01*
X170586654Y-119100501D01*
X170586670Y-119100500D01*
X171699903Y-119100500D01*
X171729343Y-119109144D01*
X171759330Y-119115668D01*
X171764345Y-119119422D01*
X171766942Y-119120185D01*
X171787584Y-119136819D01*
X171905617Y-119254852D01*
X171939102Y-119316175D01*
X171941936Y-119342533D01*
X171941936Y-119504936D01*
X171972697Y-119659579D01*
X171972700Y-119659591D01*
X172033038Y-119805262D01*
X172033045Y-119805275D01*
X172120646Y-119936378D01*
X172120649Y-119936382D01*
X172172086Y-119987819D01*
X172205571Y-120049142D01*
X172200587Y-120118834D01*
X172158715Y-120174767D01*
X172093251Y-120199184D01*
X172084405Y-120199500D01*
X172021155Y-120199500D01*
X171866510Y-120230261D01*
X171866498Y-120230264D01*
X171720827Y-120290602D01*
X171720814Y-120290609D01*
X171589711Y-120378210D01*
X171589707Y-120378213D01*
X171478213Y-120489707D01*
X171478210Y-120489711D01*
X171390609Y-120620814D01*
X171390602Y-120620827D01*
X171330264Y-120766498D01*
X171330261Y-120766510D01*
X171299500Y-120921153D01*
X171299500Y-121078846D01*
X171330261Y-121233489D01*
X171330264Y-121233501D01*
X171390602Y-121379172D01*
X171390609Y-121379185D01*
X171478210Y-121510288D01*
X171478213Y-121510292D01*
X171589707Y-121621786D01*
X171589711Y-121621789D01*
X171720814Y-121709390D01*
X171720827Y-121709397D01*
X171866498Y-121769735D01*
X171866503Y-121769737D01*
X172021153Y-121800499D01*
X172021156Y-121800500D01*
X172021158Y-121800500D01*
X172178844Y-121800500D01*
X172178845Y-121800499D01*
X172333497Y-121769737D01*
X172345482Y-121764772D01*
X172414946Y-121757301D01*
X172477427Y-121788573D01*
X172513083Y-121848660D01*
X172514553Y-121855139D01*
X172530109Y-121933339D01*
X172530111Y-121933348D01*
X172590449Y-122079019D01*
X172590456Y-122079032D01*
X172678057Y-122210135D01*
X172678060Y-122210139D01*
X172789554Y-122321633D01*
X172789558Y-122321636D01*
X172920661Y-122409237D01*
X172920674Y-122409244D01*
X173066345Y-122469582D01*
X173066350Y-122469584D01*
X173194446Y-122495064D01*
X173221000Y-122500346D01*
X173221003Y-122500347D01*
X173221005Y-122500347D01*
X173378691Y-122500347D01*
X173378692Y-122500346D01*
X173533344Y-122469584D01*
X173679026Y-122409241D01*
X173810136Y-122321636D01*
X173921636Y-122210136D01*
X174009241Y-122079026D01*
X174069584Y-121933344D01*
X174100347Y-121778689D01*
X174100347Y-121621005D01*
X174100347Y-121621002D01*
X174100346Y-121621000D01*
X174093250Y-121585326D01*
X174069584Y-121466350D01*
X174069582Y-121466345D01*
X174009244Y-121320674D01*
X174009237Y-121320661D01*
X173921636Y-121189558D01*
X173921633Y-121189554D01*
X173810139Y-121078060D01*
X173810135Y-121078057D01*
X173679032Y-120990456D01*
X173679019Y-120990449D01*
X173533348Y-120930111D01*
X173533338Y-120930108D01*
X173377996Y-120899208D01*
X173316085Y-120866823D01*
X173314507Y-120865272D01*
X173087590Y-120638355D01*
X173087588Y-120638352D01*
X172968717Y-120519481D01*
X172968716Y-120519480D01*
X172881904Y-120469360D01*
X172838944Y-120444556D01*
X172790731Y-120393988D01*
X172777510Y-120325381D01*
X172803479Y-120260517D01*
X172860395Y-120219990D01*
X172876740Y-120215557D01*
X172975933Y-120195827D01*
X173121615Y-120135484D01*
X173252725Y-120047879D01*
X173364225Y-119936379D01*
X173451830Y-119805269D01*
X173512173Y-119659587D01*
X173542936Y-119504932D01*
X173542936Y-119347248D01*
X173542936Y-119347245D01*
X173542935Y-119347243D01*
X173527518Y-119269737D01*
X173512173Y-119192593D01*
X173489071Y-119136819D01*
X173451833Y-119046917D01*
X173451826Y-119046904D01*
X173364225Y-118915801D01*
X173364222Y-118915797D01*
X173252728Y-118804303D01*
X173252724Y-118804300D01*
X173121621Y-118716699D01*
X173121611Y-118716694D01*
X173049342Y-118686759D01*
X173009114Y-118659879D01*
X172487590Y-118138355D01*
X172487588Y-118138352D01*
X172368717Y-118019481D01*
X172368712Y-118019477D01*
X172241801Y-117946206D01*
X172241799Y-117946205D01*
X172231785Y-117940423D01*
X172079057Y-117899499D01*
X171920943Y-117899499D01*
X171913347Y-117899499D01*
X171913331Y-117899500D01*
X170800098Y-117899500D01*
X170733059Y-117879815D01*
X170712417Y-117863181D01*
X169987590Y-117138355D01*
X169987588Y-117138352D01*
X169868717Y-117019481D01*
X169868716Y-117019480D01*
X169781904Y-116969360D01*
X169781904Y-116969359D01*
X169781900Y-116969358D01*
X169731785Y-116940423D01*
X169579057Y-116899499D01*
X169420943Y-116899499D01*
X169413347Y-116899499D01*
X169413331Y-116899500D01*
X169079766Y-116899500D01*
X169012727Y-116879815D01*
X169010875Y-116878602D01*
X168879185Y-116790609D01*
X168879172Y-116790602D01*
X168733501Y-116730264D01*
X168733489Y-116730261D01*
X168578845Y-116699500D01*
X168578842Y-116699500D01*
X168421158Y-116699500D01*
X168421155Y-116699500D01*
X168266510Y-116730261D01*
X168266498Y-116730264D01*
X168120827Y-116790602D01*
X168120814Y-116790609D01*
X167989711Y-116878210D01*
X167989707Y-116878213D01*
X167878213Y-116989707D01*
X167878210Y-116989711D01*
X167790609Y-117120814D01*
X167790602Y-117120827D01*
X167730264Y-117266498D01*
X167730261Y-117266508D01*
X167716920Y-117333579D01*
X167684535Y-117395490D01*
X167682984Y-117397068D01*
X163494726Y-121585326D01*
X163423534Y-121691874D01*
X163374499Y-121810255D01*
X163374497Y-121810261D01*
X163349500Y-121935928D01*
X163349500Y-122495064D01*
X163329815Y-122562103D01*
X163328603Y-122563954D01*
X163290608Y-122620817D01*
X163290602Y-122620828D01*
X163230264Y-122766498D01*
X163230261Y-122766510D01*
X163199500Y-122921153D01*
X149600500Y-122921153D01*
X149600500Y-116029074D01*
X161849518Y-116029074D01*
X161890443Y-116181804D01*
X161890444Y-116181808D01*
X161919298Y-116231785D01*
X161919299Y-116231785D01*
X161969497Y-116318732D01*
X161969501Y-116318737D01*
X162088369Y-116437605D01*
X162088375Y-116437610D01*
X163363181Y-117712416D01*
X163377884Y-117739343D01*
X163394477Y-117765162D01*
X163395368Y-117771362D01*
X163396666Y-117773739D01*
X163399500Y-117800097D01*
X163399500Y-117920234D01*
X163379815Y-117987273D01*
X163378602Y-117989125D01*
X163290609Y-118120814D01*
X163290602Y-118120827D01*
X163230264Y-118266498D01*
X163230261Y-118266510D01*
X163199500Y-118421153D01*
X163199500Y-118578846D01*
X163230261Y-118733489D01*
X163230264Y-118733501D01*
X163290602Y-118879172D01*
X163290609Y-118879185D01*
X163378210Y-119010288D01*
X163378213Y-119010292D01*
X163489707Y-119121786D01*
X163489711Y-119121789D01*
X163620814Y-119209390D01*
X163620827Y-119209397D01*
X163730567Y-119254852D01*
X163766503Y-119269737D01*
X163921027Y-119300474D01*
X163921153Y-119300499D01*
X163921156Y-119300500D01*
X163921158Y-119300500D01*
X164078844Y-119300500D01*
X164078845Y-119300499D01*
X164233497Y-119269737D01*
X164379179Y-119209394D01*
X164510289Y-119121789D01*
X164621789Y-119010289D01*
X164709394Y-118879179D01*
X164752081Y-118776120D01*
X164795920Y-118721720D01*
X164830646Y-118704914D01*
X164833485Y-118704052D01*
X164833497Y-118704050D01*
X164979179Y-118643707D01*
X165110289Y-118556102D01*
X165221789Y-118444602D01*
X165309394Y-118313492D01*
X165369737Y-118167810D01*
X165400500Y-118013155D01*
X165400500Y-117855471D01*
X165400500Y-117855468D01*
X165400499Y-117855466D01*
X165384242Y-117773739D01*
X165369737Y-117700816D01*
X165322244Y-117586156D01*
X165309397Y-117555140D01*
X165309390Y-117555127D01*
X165218405Y-117418959D01*
X165219059Y-117418521D01*
X165198127Y-117377770D01*
X165159577Y-117233902D01*
X165121251Y-117167518D01*
X165080524Y-117096976D01*
X165080518Y-117096968D01*
X163636819Y-115653269D01*
X163603334Y-115591946D01*
X163600500Y-115565588D01*
X163600500Y-109018387D01*
X163620185Y-108951348D01*
X163672989Y-108905593D01*
X163742147Y-108895649D01*
X163771952Y-108903826D01*
X163778631Y-108906592D01*
X163778632Y-108906592D01*
X163778635Y-108906594D01*
X163931363Y-108947517D01*
X164089477Y-108947517D01*
X164420809Y-108947517D01*
X164420825Y-108947518D01*
X164428421Y-108947518D01*
X164586532Y-108947518D01*
X164586535Y-108947518D01*
X164739263Y-108906594D01*
X164807841Y-108867000D01*
X164876194Y-108827537D01*
X164926214Y-108777516D01*
X164933376Y-108772168D01*
X164958083Y-108762983D01*
X164981218Y-108750351D01*
X164996481Y-108748709D01*
X164998867Y-108747823D01*
X165000799Y-108748245D01*
X165007576Y-108747517D01*
X167281234Y-108747517D01*
X167348273Y-108767202D01*
X167368915Y-108783836D01*
X174863181Y-116278102D01*
X174896666Y-116339425D01*
X174899500Y-116365783D01*
X174899500Y-121634216D01*
X174879815Y-121701255D01*
X174863181Y-121721897D01*
X172821898Y-123763181D01*
X172760575Y-123796666D01*
X172734217Y-123799500D01*
X172672414Y-123799500D01*
X172519686Y-123840423D01*
X172519685Y-123840423D01*
X172519683Y-123840424D01*
X172519680Y-123840425D01*
X172469567Y-123869359D01*
X172469566Y-123869360D01*
X172453361Y-123878716D01*
X172382756Y-123919479D01*
X172382753Y-123919481D01*
X171919481Y-124382753D01*
X171919479Y-124382756D01*
X171869361Y-124469565D01*
X171869359Y-124469567D01*
X171840425Y-124519680D01*
X171840424Y-124519681D01*
X171824544Y-124578943D01*
X171799499Y-124672414D01*
X171799499Y-124672416D01*
X171799499Y-124840517D01*
X171799500Y-124840530D01*
X171799500Y-125161859D01*
X171799499Y-125161877D01*
X171799499Y-125327583D01*
X171799498Y-125327583D01*
X171840423Y-125480315D01*
X171840424Y-125480316D01*
X171857729Y-125510289D01*
X171882887Y-125553865D01*
X171899500Y-125615863D01*
X171899500Y-125920234D01*
X171879815Y-125987273D01*
X171878602Y-125989125D01*
X171790609Y-126120814D01*
X171790602Y-126120827D01*
X171730264Y-126266498D01*
X171730261Y-126266510D01*
X171699500Y-126421153D01*
X171699500Y-126578846D01*
X171730261Y-126733489D01*
X171730264Y-126733501D01*
X171790602Y-126879172D01*
X171790609Y-126879185D01*
X171878210Y-127010288D01*
X171878213Y-127010292D01*
X171989707Y-127121786D01*
X171989711Y-127121789D01*
X172120814Y-127209390D01*
X172120827Y-127209397D01*
X172266498Y-127269735D01*
X172266503Y-127269737D01*
X172421153Y-127300499D01*
X172421156Y-127300500D01*
X172421158Y-127300500D01*
X172578844Y-127300500D01*
X172578845Y-127300499D01*
X172733497Y-127269737D01*
X172879179Y-127209394D01*
X172879185Y-127209390D01*
X173010875Y-127121398D01*
X173028921Y-127115747D01*
X173044831Y-127105523D01*
X173075792Y-127101071D01*
X173077553Y-127100520D01*
X173079766Y-127100500D01*
X173245234Y-127100500D01*
X173312273Y-127120185D01*
X173314125Y-127121398D01*
X173445814Y-127209390D01*
X173445827Y-127209397D01*
X173591498Y-127269735D01*
X173591503Y-127269737D01*
X173746153Y-127300499D01*
X173746156Y-127300500D01*
X173746158Y-127300500D01*
X173903844Y-127300500D01*
X173903845Y-127300499D01*
X174058497Y-127269737D01*
X174204179Y-127209394D01*
X174335289Y-127121789D01*
X174446789Y-127010289D01*
X174534394Y-126879179D01*
X174594737Y-126733497D01*
X174625500Y-126578842D01*
X174625500Y-126421158D01*
X174625500Y-126421155D01*
X174625499Y-126421153D01*
X174615159Y-126369172D01*
X174594737Y-126266503D01*
X174576925Y-126223501D01*
X174534397Y-126120827D01*
X174534390Y-126120814D01*
X174446789Y-125989711D01*
X174446786Y-125989707D01*
X174335292Y-125878213D01*
X174335288Y-125878210D01*
X174204185Y-125790609D01*
X174204172Y-125790602D01*
X174058501Y-125730264D01*
X174058489Y-125730261D01*
X173903845Y-125699500D01*
X173903842Y-125699500D01*
X173746158Y-125699500D01*
X173746155Y-125699500D01*
X173740093Y-125700097D01*
X173739855Y-125697683D01*
X173680893Y-125692384D01*
X173625733Y-125649499D01*
X173602514Y-125583600D01*
X173618609Y-125515609D01*
X173623229Y-125508133D01*
X173709394Y-125379179D01*
X173713938Y-125368210D01*
X173738392Y-125309172D01*
X173769737Y-125233497D01*
X173800500Y-125078842D01*
X173800638Y-125078150D01*
X173833023Y-125016239D01*
X173834517Y-125014717D01*
X176480520Y-122368716D01*
X176559577Y-122231784D01*
X176600501Y-122079057D01*
X176600501Y-121920942D01*
X176600501Y-121913347D01*
X176600500Y-121913329D01*
X176600500Y-115920945D01*
X176600500Y-115920943D01*
X176559577Y-115768216D01*
X176493213Y-115653269D01*
X176480524Y-115631290D01*
X176480521Y-115631286D01*
X176480520Y-115631284D01*
X176368716Y-115519480D01*
X176368715Y-115519479D01*
X176364385Y-115515149D01*
X176364374Y-115515139D01*
X168234607Y-107385372D01*
X168234605Y-107385369D01*
X168115734Y-107266498D01*
X168115726Y-107266492D01*
X167999691Y-107199500D01*
X167999691Y-107199499D01*
X167999686Y-107199498D01*
X167992398Y-107195290D01*
X167978803Y-107187440D01*
X167940620Y-107177209D01*
X167826074Y-107146516D01*
X167667960Y-107146516D01*
X167660364Y-107146516D01*
X167660348Y-107146517D01*
X164838715Y-107146517D01*
X164771676Y-107126832D01*
X164769824Y-107125619D01*
X164638134Y-107037626D01*
X164638121Y-107037619D01*
X164492450Y-106977281D01*
X164492441Y-106977278D01*
X164418374Y-106962545D01*
X164390241Y-106947828D01*
X164361366Y-106934642D01*
X164359508Y-106931751D01*
X164356464Y-106930159D01*
X164340757Y-106902576D01*
X164323590Y-106875865D01*
X164322929Y-106871267D01*
X164321890Y-106869443D01*
X164318567Y-106840930D01*
X164318567Y-106783665D01*
X164318566Y-106783661D01*
X164318566Y-106324500D01*
X164338251Y-106257461D01*
X164391055Y-106211706D01*
X164442566Y-106200500D01*
X164478844Y-106200500D01*
X164478845Y-106200499D01*
X164633497Y-106169737D01*
X164751592Y-106120821D01*
X164779172Y-106109397D01*
X164779172Y-106109396D01*
X164779179Y-106109394D01*
X164910289Y-106021789D01*
X165021789Y-105910289D01*
X165109394Y-105779179D01*
X165169737Y-105633497D01*
X165200500Y-105478842D01*
X165200500Y-105321158D01*
X165200500Y-105321155D01*
X165200499Y-105321153D01*
X165190873Y-105272762D01*
X165169737Y-105166503D01*
X165137414Y-105088469D01*
X165129946Y-105019003D01*
X165161221Y-104956523D01*
X165221310Y-104920871D01*
X165227784Y-104919402D01*
X165233497Y-104918266D01*
X165379179Y-104857923D01*
X165510289Y-104770318D01*
X165621789Y-104658818D01*
X165709394Y-104527708D01*
X165769737Y-104382026D01*
X165800500Y-104227371D01*
X165800500Y-104069687D01*
X165800500Y-104069684D01*
X165800499Y-104069682D01*
X165769738Y-103915039D01*
X165769737Y-103915032D01*
X165727564Y-103813216D01*
X165709397Y-103769356D01*
X165709390Y-103769343D01*
X165621789Y-103638240D01*
X165621786Y-103638236D01*
X165510292Y-103526742D01*
X165510288Y-103526739D01*
X165379185Y-103439138D01*
X165379172Y-103439131D01*
X165233501Y-103378793D01*
X165233489Y-103378790D01*
X165078845Y-103348029D01*
X165078842Y-103348029D01*
X164921158Y-103348029D01*
X164911903Y-103349870D01*
X164854202Y-103361347D01*
X164846294Y-103360639D01*
X164838858Y-103363413D01*
X164811993Y-103357568D01*
X164784611Y-103355118D01*
X164776603Y-103349870D01*
X164770585Y-103348561D01*
X164742331Y-103327410D01*
X164686119Y-103271198D01*
X164686117Y-103271195D01*
X164567246Y-103152324D01*
X164567245Y-103152323D01*
X164477484Y-103100500D01*
X164430314Y-103073266D01*
X164277586Y-103032342D01*
X164119472Y-103032342D01*
X164111876Y-103032342D01*
X164111860Y-103032343D01*
X163953826Y-103032343D01*
X163953810Y-103032342D01*
X163946214Y-103032342D01*
X163788100Y-103032342D01*
X163673554Y-103063035D01*
X163635371Y-103073266D01*
X163588202Y-103100500D01*
X163588201Y-103100500D01*
X163498444Y-103152320D01*
X163498439Y-103152324D01*
X162837547Y-103813216D01*
X162837541Y-103813224D01*
X162795283Y-103886419D01*
X162795283Y-103886420D01*
X162758489Y-103950149D01*
X162717565Y-104102877D01*
X162717565Y-104102879D01*
X162717565Y-104270980D01*
X162717566Y-104270993D01*
X162717566Y-106396939D01*
X162697881Y-106463978D01*
X162681247Y-106484620D01*
X161969501Y-107196365D01*
X161969499Y-107196367D01*
X161961977Y-107209397D01*
X161946198Y-107236728D01*
X161890443Y-107333298D01*
X161849519Y-107486026D01*
X161849519Y-107644140D01*
X161849519Y-107644142D01*
X161849520Y-107654136D01*
X161849520Y-115863350D01*
X161849519Y-115863368D01*
X161849519Y-116029074D01*
X161849518Y-116029074D01*
X149600500Y-116029074D01*
X149600500Y-115847441D01*
X149620185Y-115780402D01*
X149672989Y-115734647D01*
X149742147Y-115724703D01*
X149793391Y-115744339D01*
X149860814Y-115789390D01*
X149860827Y-115789397D01*
X150000960Y-115847441D01*
X150006503Y-115849737D01*
X150113213Y-115870963D01*
X150161153Y-115880499D01*
X150161156Y-115880500D01*
X150161158Y-115880500D01*
X150318844Y-115880500D01*
X150318845Y-115880499D01*
X150473497Y-115849737D01*
X150619179Y-115789394D01*
X150750289Y-115701789D01*
X150861789Y-115590289D01*
X150949394Y-115459179D01*
X151009737Y-115313497D01*
X151040500Y-115158842D01*
X151040500Y-115001158D01*
X151040500Y-115001155D01*
X151040499Y-115001153D01*
X151009738Y-114846510D01*
X151009737Y-114846503D01*
X150989716Y-114798168D01*
X150949397Y-114700827D01*
X150949390Y-114700814D01*
X150861789Y-114569711D01*
X150861786Y-114569707D01*
X150750292Y-114458213D01*
X150750288Y-114458210D01*
X150619185Y-114370609D01*
X150619172Y-114370602D01*
X150473501Y-114310264D01*
X150473489Y-114310261D01*
X150318845Y-114279500D01*
X150318842Y-114279500D01*
X150161158Y-114279500D01*
X150161155Y-114279500D01*
X150006510Y-114310261D01*
X150006498Y-114310264D01*
X149860827Y-114370602D01*
X149860816Y-114370608D01*
X149793390Y-114415661D01*
X149726713Y-114436538D01*
X149659333Y-114418053D01*
X149612643Y-114366074D01*
X149600500Y-114312558D01*
X149600500Y-108579765D01*
X149620185Y-108512726D01*
X149621398Y-108510874D01*
X149709390Y-108379185D01*
X149709390Y-108379184D01*
X149709394Y-108379179D01*
X149769737Y-108233497D01*
X149800500Y-108078842D01*
X149800500Y-107921158D01*
X149800500Y-107921155D01*
X149800499Y-107921153D01*
X149769738Y-107766510D01*
X149769737Y-107766503D01*
X149769735Y-107766498D01*
X149709397Y-107620827D01*
X149709390Y-107620814D01*
X149659928Y-107546789D01*
X149621789Y-107489711D01*
X149621786Y-107489707D01*
X149510292Y-107378213D01*
X149510288Y-107378210D01*
X149379185Y-107290609D01*
X149379172Y-107290602D01*
X149233501Y-107230264D01*
X149233489Y-107230261D01*
X149078845Y-107199500D01*
X149078842Y-107199500D01*
X148921158Y-107199500D01*
X148921155Y-107199500D01*
X148766510Y-107230261D01*
X148766498Y-107230264D01*
X148620827Y-107290602D01*
X148620814Y-107290609D01*
X148489711Y-107378210D01*
X148489707Y-107378213D01*
X148378213Y-107489707D01*
X148378210Y-107489711D01*
X148290609Y-107620814D01*
X148290602Y-107620827D01*
X148230264Y-107766498D01*
X148230261Y-107766510D01*
X148199500Y-107921153D01*
X148199500Y-108078846D01*
X148230261Y-108233489D01*
X148230264Y-108233501D01*
X148290602Y-108379172D01*
X148290609Y-108379185D01*
X148378602Y-108510874D01*
X148399480Y-108577551D01*
X148399500Y-108579765D01*
X148399500Y-123209903D01*
X148379815Y-123276942D01*
X148363181Y-123297584D01*
X147565339Y-124095425D01*
X147504016Y-124128910D01*
X147501850Y-124129361D01*
X147346508Y-124160261D01*
X147346498Y-124160264D01*
X147200827Y-124220602D01*
X147200814Y-124220609D01*
X147069711Y-124308210D01*
X147069707Y-124308213D01*
X146958213Y-124419707D01*
X146958210Y-124419711D01*
X146870609Y-124550814D01*
X146870602Y-124550827D01*
X146810264Y-124696498D01*
X146810261Y-124696510D01*
X146779500Y-124851153D01*
X85090000Y-124851153D01*
X85090000Y-122801153D01*
X145719500Y-122801153D01*
X145719500Y-122958846D01*
X145750261Y-123113489D01*
X145750264Y-123113501D01*
X145810602Y-123259172D01*
X145810609Y-123259185D01*
X145898210Y-123390288D01*
X145898213Y-123390292D01*
X146009707Y-123501786D01*
X146009711Y-123501789D01*
X146140814Y-123589390D01*
X146140827Y-123589397D01*
X146286498Y-123649735D01*
X146286503Y-123649737D01*
X146441153Y-123680499D01*
X146441156Y-123680500D01*
X146441158Y-123680500D01*
X146598844Y-123680500D01*
X146598845Y-123680499D01*
X146753497Y-123649737D01*
X146899179Y-123589394D01*
X147030289Y-123501789D01*
X147141789Y-123390289D01*
X147229394Y-123259179D01*
X147289737Y-123113497D01*
X147320500Y-122958842D01*
X147320500Y-122801158D01*
X147320500Y-122801155D01*
X147320499Y-122801153D01*
X147289738Y-122646510D01*
X147289737Y-122646503D01*
X147279098Y-122620817D01*
X147229397Y-122500827D01*
X147229390Y-122500814D01*
X147141789Y-122369711D01*
X147141786Y-122369707D01*
X147030292Y-122258213D01*
X147030288Y-122258210D01*
X146899185Y-122170609D01*
X146899172Y-122170602D01*
X146753501Y-122110264D01*
X146753489Y-122110261D01*
X146598845Y-122079500D01*
X146598842Y-122079500D01*
X146441158Y-122079500D01*
X146441155Y-122079500D01*
X146286510Y-122110261D01*
X146286498Y-122110264D01*
X146140827Y-122170602D01*
X146140814Y-122170609D01*
X146009711Y-122258210D01*
X146009707Y-122258213D01*
X145898213Y-122369707D01*
X145898210Y-122369711D01*
X145810609Y-122500814D01*
X145810602Y-122500827D01*
X145750264Y-122646498D01*
X145750261Y-122646510D01*
X145719500Y-122801153D01*
X85090000Y-122801153D01*
X85090000Y-115067483D01*
X114232000Y-115067483D01*
X114232000Y-117167501D01*
X114232001Y-117167518D01*
X114242500Y-117270296D01*
X114242501Y-117270299D01*
X114283986Y-117395490D01*
X114297686Y-117436834D01*
X114389788Y-117586156D01*
X114513844Y-117710212D01*
X114663166Y-117802314D01*
X114829703Y-117857499D01*
X114932491Y-117868000D01*
X117032508Y-117867999D01*
X117135297Y-117857499D01*
X117301834Y-117802314D01*
X117451156Y-117710212D01*
X117575212Y-117586156D01*
X117667314Y-117436834D01*
X117722499Y-117270297D01*
X117733000Y-117167509D01*
X117732999Y-115067492D01*
X117722499Y-114964703D01*
X117667314Y-114798166D01*
X117575212Y-114648844D01*
X117451156Y-114524788D01*
X117301834Y-114432686D01*
X117135297Y-114377501D01*
X117135295Y-114377500D01*
X117032510Y-114367000D01*
X114932498Y-114367000D01*
X114932481Y-114367001D01*
X114829703Y-114377500D01*
X114829700Y-114377501D01*
X114663168Y-114432685D01*
X114663163Y-114432687D01*
X114513842Y-114524789D01*
X114389789Y-114648842D01*
X114297687Y-114798163D01*
X114297686Y-114798166D01*
X114242501Y-114964703D01*
X114242501Y-114964704D01*
X114242500Y-114964704D01*
X114232000Y-115067483D01*
X85090000Y-115067483D01*
X85090000Y-97799983D01*
X87899500Y-97799983D01*
X87899500Y-99200001D01*
X87899501Y-99200018D01*
X87910000Y-99302796D01*
X87910001Y-99302799D01*
X87965185Y-99469331D01*
X87965187Y-99469336D01*
X88057289Y-99618657D01*
X88181344Y-99742712D01*
X88317563Y-99826732D01*
X88364288Y-99878680D01*
X88375511Y-99947642D01*
X88347667Y-100011725D01*
X88340149Y-100019952D01*
X88232139Y-100127962D01*
X88102613Y-100306239D01*
X88002567Y-100502589D01*
X87934473Y-100712161D01*
X87934473Y-100712164D01*
X87922145Y-100790000D01*
X89509252Y-100790000D01*
X89487482Y-100827708D01*
X89450000Y-100967591D01*
X89450000Y-101112409D01*
X89487482Y-101252292D01*
X89509252Y-101290000D01*
X87922145Y-101290000D01*
X87934473Y-101367835D01*
X87934473Y-101367838D01*
X88002567Y-101577410D01*
X88102613Y-101773760D01*
X88232142Y-101952041D01*
X88387958Y-102107857D01*
X88387964Y-102107862D01*
X88527680Y-102209372D01*
X88570346Y-102264702D01*
X88576325Y-102334315D01*
X88543719Y-102396110D01*
X88527681Y-102410008D01*
X88387636Y-102511756D01*
X88231756Y-102667636D01*
X88231752Y-102667641D01*
X88102187Y-102845974D01*
X88002104Y-103042393D01*
X88002103Y-103042396D01*
X87933985Y-103252047D01*
X87899500Y-103469778D01*
X87899500Y-103690221D01*
X87933985Y-103907952D01*
X88002103Y-104117603D01*
X88002104Y-104117606D01*
X88058036Y-104227375D01*
X88084005Y-104278343D01*
X88102187Y-104314025D01*
X88231752Y-104492358D01*
X88231756Y-104492363D01*
X88387636Y-104648243D01*
X88387641Y-104648247D01*
X88527680Y-104749991D01*
X88570346Y-104805320D01*
X88576325Y-104874934D01*
X88543720Y-104936729D01*
X88527681Y-104950627D01*
X88387959Y-105052142D01*
X88387958Y-105052142D01*
X88232142Y-105207958D01*
X88102613Y-105386239D01*
X88002567Y-105582589D01*
X87934473Y-105792161D01*
X87934473Y-105792164D01*
X87922145Y-105870000D01*
X89509252Y-105870000D01*
X89487482Y-105907708D01*
X89450000Y-106047591D01*
X89450000Y-106192409D01*
X89487482Y-106332292D01*
X89509252Y-106370000D01*
X87922145Y-106370000D01*
X87934473Y-106447835D01*
X87934473Y-106447838D01*
X88002567Y-106657410D01*
X88102613Y-106853760D01*
X88232142Y-107032041D01*
X88387958Y-107187857D01*
X88566239Y-107317386D01*
X88762589Y-107417432D01*
X88972164Y-107485526D01*
X89189819Y-107520000D01*
X89750000Y-107520000D01*
X89750000Y-106610747D01*
X89787708Y-106632518D01*
X89927591Y-106670000D01*
X90072409Y-106670000D01*
X90212292Y-106632518D01*
X90250000Y-106610747D01*
X90250000Y-107520000D01*
X90810181Y-107520000D01*
X91027835Y-107485526D01*
X91237410Y-107417432D01*
X91433760Y-107317386D01*
X91612041Y-107187857D01*
X91767857Y-107032041D01*
X91897386Y-106853760D01*
X91997432Y-106657410D01*
X92065526Y-106447838D01*
X92065526Y-106447835D01*
X92077855Y-106370000D01*
X90490748Y-106370000D01*
X90512518Y-106332292D01*
X90550000Y-106192409D01*
X90550000Y-106047591D01*
X90512518Y-105907708D01*
X90490748Y-105870000D01*
X92077855Y-105870000D01*
X92065526Y-105792164D01*
X92065526Y-105792161D01*
X91997432Y-105582589D01*
X91897386Y-105386239D01*
X91767857Y-105207958D01*
X91612041Y-105052142D01*
X91472318Y-104950627D01*
X91429653Y-104895297D01*
X91423674Y-104825684D01*
X91456280Y-104763889D01*
X91472313Y-104749994D01*
X91612365Y-104648242D01*
X91768242Y-104492365D01*
X91897815Y-104314022D01*
X91997895Y-104117606D01*
X92066015Y-103907951D01*
X92100500Y-103690222D01*
X92100500Y-103469778D01*
X92066015Y-103252049D01*
X92016775Y-103100501D01*
X91997896Y-103042396D01*
X91997895Y-103042393D01*
X91916884Y-102883403D01*
X91897815Y-102845978D01*
X91845331Y-102773739D01*
X91768247Y-102667641D01*
X91768243Y-102667636D01*
X91612363Y-102511756D01*
X91612358Y-102511752D01*
X91472319Y-102410008D01*
X91429653Y-102354678D01*
X91423674Y-102285065D01*
X91456279Y-102223270D01*
X91472319Y-102209372D01*
X91612035Y-102107862D01*
X91612041Y-102107857D01*
X91767857Y-101952041D01*
X91897386Y-101773760D01*
X91997432Y-101577410D01*
X92065526Y-101367838D01*
X92065526Y-101367835D01*
X92077855Y-101290000D01*
X90490748Y-101290000D01*
X90512518Y-101252292D01*
X90550000Y-101112409D01*
X90550000Y-100967591D01*
X90512518Y-100827708D01*
X90490748Y-100790000D01*
X92077855Y-100790000D01*
X92065526Y-100712164D01*
X92065526Y-100712161D01*
X91997432Y-100502589D01*
X91897386Y-100306239D01*
X91767857Y-100127958D01*
X91659851Y-100019952D01*
X91648705Y-99999540D01*
X91633803Y-99981684D01*
X91632274Y-99969449D01*
X91626366Y-99958629D01*
X91628024Y-99935431D01*
X91625142Y-99912353D01*
X91630470Y-99901234D01*
X91631350Y-99888937D01*
X91645286Y-99870319D01*
X91655339Y-99849346D01*
X91670393Y-99836781D01*
X91673222Y-99833004D01*
X91682425Y-99826739D01*
X91776100Y-99768961D01*
X91841196Y-99750500D01*
X93158804Y-99750500D01*
X93223900Y-99768961D01*
X93317563Y-99826732D01*
X93364288Y-99878680D01*
X93375511Y-99947642D01*
X93347668Y-100011724D01*
X93340149Y-100019952D01*
X93232139Y-100127962D01*
X93102613Y-100306239D01*
X93002567Y-100502589D01*
X92934473Y-100712161D01*
X92934473Y-100712164D01*
X92922145Y-100790000D01*
X94509252Y-100790000D01*
X94487482Y-100827708D01*
X94450000Y-100967591D01*
X94450000Y-101112409D01*
X94487482Y-101252292D01*
X94509252Y-101290000D01*
X92922145Y-101290000D01*
X92934473Y-101367835D01*
X92934473Y-101367838D01*
X93002567Y-101577410D01*
X93102613Y-101773760D01*
X93232142Y-101952041D01*
X93387958Y-102107857D01*
X93387964Y-102107862D01*
X93527680Y-102209372D01*
X93570346Y-102264702D01*
X93576325Y-102334315D01*
X93543719Y-102396110D01*
X93527681Y-102410008D01*
X93387636Y-102511756D01*
X93231756Y-102667636D01*
X93231752Y-102667641D01*
X93102187Y-102845974D01*
X93002104Y-103042393D01*
X93002103Y-103042396D01*
X92933985Y-103252047D01*
X92899500Y-103469778D01*
X92899500Y-103690221D01*
X92933985Y-103907952D01*
X93002103Y-104117603D01*
X93002104Y-104117606D01*
X93058036Y-104227375D01*
X93084005Y-104278343D01*
X93102187Y-104314025D01*
X93231752Y-104492358D01*
X93231756Y-104492363D01*
X93387636Y-104648243D01*
X93387641Y-104648247D01*
X93527680Y-104749991D01*
X93570346Y-104805320D01*
X93576325Y-104874934D01*
X93543720Y-104936729D01*
X93527681Y-104950627D01*
X93387959Y-105052142D01*
X93387958Y-105052142D01*
X93232142Y-105207958D01*
X93102613Y-105386239D01*
X93002567Y-105582589D01*
X92934473Y-105792161D01*
X92934473Y-105792164D01*
X92922145Y-105870000D01*
X94509252Y-105870000D01*
X94487482Y-105907708D01*
X94450000Y-106047591D01*
X94450000Y-106192409D01*
X94487482Y-106332292D01*
X94509252Y-106370000D01*
X92922145Y-106370000D01*
X92934473Y-106447835D01*
X92934473Y-106447838D01*
X93002567Y-106657410D01*
X93102613Y-106853760D01*
X93232142Y-107032041D01*
X93387958Y-107187857D01*
X93566239Y-107317386D01*
X93762589Y-107417432D01*
X93972164Y-107485526D01*
X94189819Y-107520000D01*
X94750000Y-107520000D01*
X94750000Y-106610747D01*
X94787708Y-106632518D01*
X94927591Y-106670000D01*
X95072409Y-106670000D01*
X95212292Y-106632518D01*
X95250000Y-106610747D01*
X95250000Y-107520000D01*
X95810181Y-107520000D01*
X96027835Y-107485526D01*
X96237410Y-107417432D01*
X96433760Y-107317386D01*
X96612041Y-107187857D01*
X96767857Y-107032041D01*
X96897386Y-106853760D01*
X96997432Y-106657410D01*
X97065526Y-106447838D01*
X97065526Y-106447835D01*
X97077855Y-106370000D01*
X95490748Y-106370000D01*
X95512518Y-106332292D01*
X95550000Y-106192409D01*
X95550000Y-106047591D01*
X95512518Y-105907708D01*
X95490748Y-105870000D01*
X97077855Y-105870000D01*
X97065526Y-105792164D01*
X97065526Y-105792161D01*
X96997432Y-105582589D01*
X96897386Y-105386239D01*
X96767857Y-105207958D01*
X96612041Y-105052142D01*
X96472318Y-104950627D01*
X96429653Y-104895297D01*
X96423674Y-104825684D01*
X96456280Y-104763889D01*
X96472313Y-104749994D01*
X96612365Y-104648242D01*
X96768242Y-104492365D01*
X96897815Y-104314022D01*
X96997895Y-104117606D01*
X97066015Y-103907951D01*
X97100500Y-103690222D01*
X97100500Y-103469778D01*
X97066015Y-103252049D01*
X97016775Y-103100501D01*
X96997896Y-103042396D01*
X96997895Y-103042393D01*
X96916884Y-102883403D01*
X96897815Y-102845978D01*
X96845331Y-102773739D01*
X96768247Y-102667641D01*
X96768243Y-102667636D01*
X96612363Y-102511756D01*
X96612358Y-102511752D01*
X96472319Y-102410008D01*
X96429653Y-102354678D01*
X96423674Y-102285065D01*
X96456279Y-102223270D01*
X96472319Y-102209372D01*
X96612035Y-102107862D01*
X96612041Y-102107857D01*
X96767857Y-101952041D01*
X96897386Y-101773760D01*
X96997432Y-101577410D01*
X97065526Y-101367838D01*
X97065526Y-101367835D01*
X97077855Y-101290000D01*
X95490748Y-101290000D01*
X95512518Y-101252292D01*
X95550000Y-101112409D01*
X95550000Y-100967591D01*
X95512518Y-100827708D01*
X95490748Y-100790000D01*
X97077855Y-100790000D01*
X97065526Y-100712164D01*
X97065526Y-100712161D01*
X96997432Y-100502589D01*
X96897386Y-100306239D01*
X96767857Y-100127958D01*
X96659851Y-100019952D01*
X96626366Y-99958629D01*
X96631350Y-99888937D01*
X96673222Y-99833004D01*
X96682425Y-99826739D01*
X96818656Y-99742712D01*
X96942712Y-99618656D01*
X97034814Y-99469334D01*
X97089999Y-99302797D01*
X97100500Y-99200009D01*
X97100499Y-97799992D01*
X97100312Y-97798166D01*
X97089999Y-97697203D01*
X97089998Y-97697200D01*
X97049828Y-97575976D01*
X97034814Y-97530666D01*
X96942712Y-97381344D01*
X96818656Y-97257288D01*
X96669334Y-97165186D01*
X96502797Y-97110001D01*
X96502795Y-97110000D01*
X96400010Y-97099500D01*
X93599998Y-97099500D01*
X93599981Y-97099501D01*
X93497203Y-97110000D01*
X93497200Y-97110001D01*
X93330668Y-97165185D01*
X93330659Y-97165189D01*
X93223900Y-97231039D01*
X93158804Y-97249500D01*
X91841196Y-97249500D01*
X91776100Y-97231039D01*
X91669340Y-97165189D01*
X91669335Y-97165187D01*
X91669334Y-97165186D01*
X91502797Y-97110001D01*
X91502795Y-97110000D01*
X91400010Y-97099500D01*
X88599998Y-97099500D01*
X88599981Y-97099501D01*
X88497203Y-97110000D01*
X88497200Y-97110001D01*
X88330668Y-97165185D01*
X88330663Y-97165187D01*
X88181342Y-97257289D01*
X88057289Y-97381342D01*
X87965187Y-97530663D01*
X87965186Y-97530666D01*
X87910001Y-97697203D01*
X87910001Y-97697204D01*
X87910000Y-97697204D01*
X87899500Y-97799983D01*
X85090000Y-97799983D01*
X85090000Y-86401577D01*
X89749500Y-86401577D01*
X89749500Y-89098422D01*
X89780290Y-89292826D01*
X89841117Y-89480029D01*
X89913346Y-89621786D01*
X89930476Y-89655405D01*
X90046172Y-89814646D01*
X90185354Y-89953828D01*
X90344595Y-90069524D01*
X90427455Y-90111743D01*
X90519970Y-90158882D01*
X90519972Y-90158882D01*
X90519975Y-90158884D01*
X90601432Y-90185351D01*
X90707173Y-90219709D01*
X90901578Y-90250500D01*
X90901583Y-90250500D01*
X91098422Y-90250500D01*
X91292826Y-90219709D01*
X91480025Y-90158884D01*
X91655405Y-90069524D01*
X91814646Y-89953828D01*
X91953828Y-89814646D01*
X92069524Y-89655405D01*
X92158884Y-89480025D01*
X92219709Y-89292826D01*
X92229107Y-89233489D01*
X92250500Y-89098422D01*
X92250500Y-88901577D01*
X93749500Y-88901577D01*
X93749500Y-89098422D01*
X93780290Y-89292826D01*
X93841117Y-89480030D01*
X93913346Y-89621786D01*
X93930476Y-89655405D01*
X94046172Y-89814646D01*
X94185354Y-89953828D01*
X94344595Y-90069524D01*
X94427454Y-90111742D01*
X94519969Y-90158882D01*
X94519971Y-90158882D01*
X94519974Y-90158884D01*
X94601431Y-90185351D01*
X94707173Y-90219709D01*
X94901578Y-90250500D01*
X94901583Y-90250500D01*
X95098422Y-90250500D01*
X95292826Y-90219709D01*
X95480026Y-90158884D01*
X95655405Y-90069524D01*
X95814646Y-89953828D01*
X96481655Y-89286819D01*
X96542978Y-89253334D01*
X96569336Y-89250500D01*
X97430664Y-89250500D01*
X97497703Y-89270185D01*
X97518345Y-89286819D01*
X99713181Y-91481655D01*
X99746666Y-91542978D01*
X99749500Y-91569336D01*
X99749500Y-109098422D01*
X99780290Y-109292826D01*
X99841117Y-109480030D01*
X99878610Y-109553613D01*
X99930476Y-109655405D01*
X100046172Y-109814646D01*
X101302855Y-111071329D01*
X101462095Y-111187024D01*
X101637474Y-111276384D01*
X101789964Y-111325931D01*
X101789966Y-111325932D01*
X101824666Y-111337207D01*
X101824669Y-111337207D01*
X101824674Y-111337209D01*
X101914713Y-111351469D01*
X102019078Y-111368000D01*
X102019083Y-111368000D01*
X102019084Y-111368000D01*
X102215917Y-111368000D01*
X116706057Y-111368000D01*
X116773096Y-111387685D01*
X116793738Y-111404319D01*
X116825830Y-111436411D01*
X116825838Y-111436418D01*
X117007882Y-111576107D01*
X117007885Y-111576108D01*
X117007888Y-111576111D01*
X117206612Y-111690844D01*
X117206617Y-111690846D01*
X117206623Y-111690849D01*
X117297980Y-111728690D01*
X117418613Y-111778658D01*
X117640262Y-111838048D01*
X117867766Y-111868000D01*
X117867773Y-111868000D01*
X118097227Y-111868000D01*
X118097234Y-111868000D01*
X118324738Y-111838048D01*
X118546387Y-111778658D01*
X118758388Y-111690844D01*
X118918259Y-111598543D01*
X126779499Y-111598543D01*
X126817947Y-111791829D01*
X126817950Y-111791839D01*
X126893364Y-111973907D01*
X126893371Y-111973920D01*
X127002860Y-112137781D01*
X127002863Y-112137785D01*
X127142214Y-112277136D01*
X127142218Y-112277139D01*
X127306079Y-112386628D01*
X127306092Y-112386635D01*
X127488160Y-112462049D01*
X127488165Y-112462051D01*
X127488169Y-112462051D01*
X127488170Y-112462052D01*
X127681456Y-112500500D01*
X127681459Y-112500500D01*
X132098543Y-112500500D01*
X132228582Y-112474632D01*
X132291835Y-112462051D01*
X132473914Y-112386632D01*
X132637782Y-112277139D01*
X132777139Y-112137782D01*
X132886632Y-111973914D01*
X132962051Y-111791835D01*
X133000500Y-111598541D01*
X133000500Y-111401459D01*
X133000500Y-111401456D01*
X132962052Y-111208170D01*
X132962051Y-111208169D01*
X132962051Y-111208165D01*
X132913981Y-111092112D01*
X132886635Y-111026092D01*
X132886628Y-111026079D01*
X132777139Y-110862218D01*
X132777136Y-110862214D01*
X132637785Y-110722863D01*
X132637781Y-110722860D01*
X132473920Y-110613371D01*
X132473907Y-110613364D01*
X132291839Y-110537950D01*
X132291829Y-110537947D01*
X132098543Y-110499500D01*
X132098541Y-110499500D01*
X127681459Y-110499500D01*
X127681457Y-110499500D01*
X127488170Y-110537947D01*
X127488160Y-110537950D01*
X127306092Y-110613364D01*
X127306079Y-110613371D01*
X127142218Y-110722860D01*
X127142214Y-110722863D01*
X127002863Y-110862214D01*
X127002860Y-110862218D01*
X126893371Y-111026079D01*
X126893364Y-111026092D01*
X126817950Y-111208160D01*
X126817947Y-111208170D01*
X126779500Y-111401456D01*
X126779500Y-111401459D01*
X126779500Y-111598541D01*
X126779500Y-111598543D01*
X126779499Y-111598543D01*
X118918259Y-111598543D01*
X118957112Y-111576111D01*
X119139161Y-111436419D01*
X119139165Y-111436414D01*
X119139170Y-111436411D01*
X119301411Y-111274170D01*
X119301414Y-111274165D01*
X119301419Y-111274161D01*
X119441111Y-111092112D01*
X119555844Y-110893388D01*
X119643658Y-110681387D01*
X119703048Y-110459738D01*
X119733000Y-110232234D01*
X119733000Y-110002766D01*
X119703048Y-109775262D01*
X119643658Y-109553613D01*
X119555844Y-109341612D01*
X119441111Y-109142888D01*
X119441108Y-109142885D01*
X119441107Y-109142882D01*
X119301418Y-108960838D01*
X119301411Y-108960830D01*
X119139170Y-108798589D01*
X119139161Y-108798581D01*
X118957117Y-108658892D01*
X118758390Y-108544157D01*
X118758376Y-108544150D01*
X118546387Y-108456342D01*
X118450554Y-108430664D01*
X118324738Y-108396952D01*
X118286715Y-108391946D01*
X118097241Y-108367000D01*
X118097234Y-108367000D01*
X117867766Y-108367000D01*
X117867758Y-108367000D01*
X117651215Y-108395509D01*
X117640262Y-108396952D01*
X117546576Y-108422054D01*
X117418612Y-108456342D01*
X117206623Y-108544150D01*
X117206609Y-108544157D01*
X117007882Y-108658892D01*
X116825838Y-108798581D01*
X116793738Y-108830681D01*
X116732415Y-108864166D01*
X116706057Y-108867000D01*
X102686836Y-108867000D01*
X102619797Y-108847315D01*
X102599155Y-108830681D01*
X102286819Y-108518345D01*
X102253334Y-108457022D01*
X102250500Y-108430664D01*
X102250500Y-105360443D01*
X102270185Y-105293404D01*
X102322989Y-105247649D01*
X102392147Y-105237705D01*
X102455703Y-105266730D01*
X102462181Y-105272762D01*
X102625830Y-105436411D01*
X102625838Y-105436418D01*
X102807882Y-105576107D01*
X102807885Y-105576108D01*
X102807888Y-105576111D01*
X103006612Y-105690844D01*
X103006617Y-105690846D01*
X103006623Y-105690849D01*
X103097980Y-105728690D01*
X103218613Y-105778658D01*
X103440262Y-105838048D01*
X103667766Y-105868000D01*
X103667773Y-105868000D01*
X103897227Y-105868000D01*
X103897234Y-105868000D01*
X104124738Y-105838048D01*
X104346387Y-105778658D01*
X104558388Y-105690844D01*
X104757112Y-105576111D01*
X104939161Y-105436419D01*
X104939165Y-105436414D01*
X104939170Y-105436411D01*
X105101411Y-105274170D01*
X105101414Y-105274165D01*
X105101419Y-105274161D01*
X105241111Y-105092112D01*
X105355844Y-104893388D01*
X105443658Y-104681387D01*
X105503048Y-104459738D01*
X105533000Y-104232234D01*
X105533000Y-104002766D01*
X105532999Y-104002758D01*
X114232000Y-104002758D01*
X114232000Y-104232241D01*
X114251720Y-104382018D01*
X114261952Y-104459738D01*
X114315295Y-104658818D01*
X114321342Y-104681387D01*
X114409150Y-104893376D01*
X114409157Y-104893390D01*
X114425023Y-104920871D01*
X114521787Y-105088472D01*
X114523892Y-105092117D01*
X114663581Y-105274161D01*
X114663589Y-105274170D01*
X114825830Y-105436411D01*
X114825838Y-105436418D01*
X115007882Y-105576107D01*
X115007885Y-105576108D01*
X115007888Y-105576111D01*
X115206612Y-105690844D01*
X115206617Y-105690846D01*
X115206623Y-105690849D01*
X115297980Y-105728690D01*
X115418613Y-105778658D01*
X115640262Y-105838048D01*
X115867766Y-105868000D01*
X115867773Y-105868000D01*
X116097227Y-105868000D01*
X116097234Y-105868000D01*
X116324738Y-105838048D01*
X116546387Y-105778658D01*
X116758388Y-105690844D01*
X116957112Y-105576111D01*
X117139161Y-105436419D01*
X117139165Y-105436414D01*
X117139170Y-105436411D01*
X117301411Y-105274170D01*
X117301414Y-105274165D01*
X117301419Y-105274161D01*
X117441111Y-105092112D01*
X117555844Y-104893388D01*
X117643658Y-104681387D01*
X117703048Y-104459738D01*
X117733000Y-104232234D01*
X117733000Y-104002766D01*
X117703048Y-103775262D01*
X117643658Y-103553613D01*
X117571244Y-103378790D01*
X117555849Y-103341623D01*
X117555846Y-103341617D01*
X117555844Y-103341612D01*
X117441111Y-103142888D01*
X117441108Y-103142885D01*
X117441107Y-103142882D01*
X117301418Y-102960838D01*
X117301411Y-102960830D01*
X117139170Y-102798589D01*
X117139161Y-102798581D01*
X116957117Y-102658892D01*
X116758390Y-102544157D01*
X116758376Y-102544150D01*
X116546387Y-102456342D01*
X116324738Y-102396952D01*
X116286715Y-102391946D01*
X116097241Y-102367000D01*
X116097234Y-102367000D01*
X115867766Y-102367000D01*
X115867758Y-102367000D01*
X115651215Y-102395509D01*
X115640262Y-102396952D01*
X115591536Y-102410008D01*
X115418612Y-102456342D01*
X115206623Y-102544150D01*
X115206609Y-102544157D01*
X115007882Y-102658892D01*
X114825838Y-102798581D01*
X114663581Y-102960838D01*
X114523892Y-103142882D01*
X114409157Y-103341609D01*
X114409150Y-103341623D01*
X114321342Y-103553612D01*
X114287054Y-103681576D01*
X114263535Y-103769356D01*
X114261953Y-103775259D01*
X114261951Y-103775270D01*
X114232000Y-104002758D01*
X105532999Y-104002758D01*
X105503048Y-103775262D01*
X105443658Y-103553613D01*
X105371244Y-103378790D01*
X105355849Y-103341623D01*
X105355846Y-103341617D01*
X105355844Y-103341612D01*
X105241111Y-103142888D01*
X105241108Y-103142885D01*
X105241107Y-103142882D01*
X105101418Y-102960838D01*
X105101411Y-102960830D01*
X104939170Y-102798589D01*
X104939161Y-102798581D01*
X104757117Y-102658892D01*
X104558390Y-102544157D01*
X104558376Y-102544150D01*
X104346387Y-102456342D01*
X104124738Y-102396952D01*
X104086715Y-102391946D01*
X103897241Y-102367000D01*
X103897234Y-102367000D01*
X103667766Y-102367000D01*
X103667758Y-102367000D01*
X103451215Y-102395509D01*
X103440262Y-102396952D01*
X103391536Y-102410008D01*
X103218612Y-102456342D01*
X103006623Y-102544150D01*
X103006609Y-102544157D01*
X102807882Y-102658892D01*
X102625838Y-102798581D01*
X102462181Y-102962238D01*
X102400858Y-102995723D01*
X102331166Y-102990739D01*
X102275233Y-102948867D01*
X102250816Y-102883403D01*
X102250500Y-102874557D01*
X102250500Y-98067483D01*
X114232000Y-98067483D01*
X114232000Y-100167501D01*
X114232001Y-100167518D01*
X114242500Y-100270296D01*
X114242501Y-100270299D01*
X114254411Y-100306239D01*
X114297686Y-100436834D01*
X114389788Y-100586156D01*
X114513844Y-100710212D01*
X114663166Y-100802314D01*
X114829703Y-100857499D01*
X114932491Y-100868000D01*
X117032508Y-100867999D01*
X117135297Y-100857499D01*
X117301834Y-100802314D01*
X117451156Y-100710212D01*
X117575212Y-100586156D01*
X117667314Y-100436834D01*
X117722499Y-100270297D01*
X117733000Y-100167509D01*
X117732999Y-99421153D01*
X124699500Y-99421153D01*
X124699500Y-99578846D01*
X124730261Y-99733489D01*
X124730263Y-99733497D01*
X124740061Y-99757151D01*
X124749500Y-99804604D01*
X124749500Y-104695396D01*
X124740062Y-104742844D01*
X124731346Y-104763889D01*
X124730262Y-104766506D01*
X124730260Y-104766511D01*
X124699500Y-104921153D01*
X124699500Y-105078846D01*
X124730261Y-105233489D01*
X124730264Y-105233501D01*
X124790602Y-105379172D01*
X124790609Y-105379185D01*
X124878210Y-105510288D01*
X124878213Y-105510292D01*
X124989707Y-105621786D01*
X124989711Y-105621789D01*
X125120814Y-105709390D01*
X125120827Y-105709397D01*
X125220060Y-105750500D01*
X125266503Y-105769737D01*
X125421153Y-105800499D01*
X125421156Y-105800500D01*
X125421158Y-105800500D01*
X125578844Y-105800500D01*
X125578845Y-105800499D01*
X125685999Y-105779185D01*
X125733488Y-105769739D01*
X125733489Y-105769738D01*
X125733497Y-105769737D01*
X125757155Y-105759937D01*
X125804604Y-105750500D01*
X138137770Y-105750500D01*
X138204809Y-105770185D01*
X138225451Y-105786819D01*
X138503927Y-106065295D01*
X138530806Y-106105521D01*
X138540606Y-106129179D01*
X138540607Y-106129181D01*
X138628207Y-106260284D01*
X138628213Y-106260292D01*
X138739707Y-106371786D01*
X138739711Y-106371789D01*
X138870814Y-106459390D01*
X138870827Y-106459397D01*
X138974804Y-106502465D01*
X139016503Y-106519737D01*
X139171153Y-106550499D01*
X139171156Y-106550500D01*
X139171158Y-106550500D01*
X139328844Y-106550500D01*
X139328845Y-106550499D01*
X139483497Y-106519737D01*
X139629179Y-106459394D01*
X139760289Y-106371789D01*
X139871789Y-106260289D01*
X139959394Y-106129179D01*
X139962854Y-106120827D01*
X139985855Y-106065295D01*
X140019737Y-105983497D01*
X140050500Y-105828842D01*
X140050500Y-105671158D01*
X140050500Y-105671155D01*
X140050499Y-105671153D01*
X140019737Y-105516503D01*
X140004138Y-105478844D01*
X139959397Y-105370827D01*
X139959390Y-105370814D01*
X139871789Y-105239711D01*
X139871786Y-105239707D01*
X139760292Y-105128213D01*
X139760284Y-105128207D01*
X139629181Y-105040607D01*
X139629179Y-105040606D01*
X139605521Y-105030806D01*
X139565295Y-105003927D01*
X138978421Y-104417052D01*
X138978414Y-104417046D01*
X138904729Y-104367812D01*
X138904729Y-104367813D01*
X138855491Y-104334913D01*
X138718917Y-104278343D01*
X138718907Y-104278340D01*
X138573920Y-104249500D01*
X138573918Y-104249500D01*
X126374500Y-104249500D01*
X126307461Y-104229815D01*
X126261706Y-104177011D01*
X126250500Y-104125500D01*
X126250500Y-99804604D01*
X126259939Y-99757151D01*
X126262694Y-99750500D01*
X126269737Y-99733497D01*
X126300500Y-99578842D01*
X126300500Y-99421158D01*
X126300500Y-99421155D01*
X126300499Y-99421153D01*
X126299288Y-99415066D01*
X126269737Y-99266503D01*
X126242198Y-99200018D01*
X126209397Y-99120827D01*
X126209390Y-99120814D01*
X126121789Y-98989711D01*
X126121786Y-98989707D01*
X126010292Y-98878213D01*
X126010288Y-98878210D01*
X125879185Y-98790609D01*
X125879172Y-98790602D01*
X125733501Y-98730264D01*
X125733489Y-98730261D01*
X125578845Y-98699500D01*
X125578842Y-98699500D01*
X125421158Y-98699500D01*
X125421155Y-98699500D01*
X125266510Y-98730261D01*
X125266498Y-98730264D01*
X125120827Y-98790602D01*
X125120814Y-98790609D01*
X124989711Y-98878210D01*
X124989707Y-98878213D01*
X124878213Y-98989707D01*
X124878210Y-98989711D01*
X124790609Y-99120814D01*
X124790602Y-99120827D01*
X124730264Y-99266498D01*
X124730261Y-99266510D01*
X124699500Y-99421153D01*
X117732999Y-99421153D01*
X117732999Y-98989711D01*
X117732999Y-98067498D01*
X117732998Y-98067481D01*
X117722499Y-97964703D01*
X117722498Y-97964700D01*
X117689854Y-97866187D01*
X117667314Y-97798166D01*
X117575212Y-97648844D01*
X117451156Y-97524788D01*
X117321581Y-97444866D01*
X117301836Y-97432687D01*
X117301831Y-97432685D01*
X117300362Y-97432198D01*
X117135297Y-97377501D01*
X117135295Y-97377500D01*
X117032510Y-97367000D01*
X114932498Y-97367000D01*
X114932481Y-97367001D01*
X114829703Y-97377500D01*
X114829700Y-97377501D01*
X114663168Y-97432685D01*
X114663163Y-97432687D01*
X114513842Y-97524789D01*
X114389789Y-97648842D01*
X114297687Y-97798163D01*
X114297685Y-97798168D01*
X114275146Y-97866186D01*
X114242501Y-97964703D01*
X114242501Y-97964704D01*
X114242500Y-97964704D01*
X114232000Y-98067483D01*
X102250500Y-98067483D01*
X102250500Y-90901577D01*
X102219709Y-90707173D01*
X102196790Y-90636637D01*
X102196789Y-90636634D01*
X102158884Y-90519974D01*
X102158882Y-90519971D01*
X102158882Y-90519969D01*
X102069523Y-90344594D01*
X101953828Y-90185354D01*
X99814646Y-88046172D01*
X98814646Y-87046172D01*
X98754892Y-87002758D01*
X102032000Y-87002758D01*
X102032000Y-87232241D01*
X102056844Y-87420939D01*
X102061952Y-87459738D01*
X102093866Y-87578844D01*
X102121342Y-87681387D01*
X102209150Y-87893376D01*
X102209157Y-87893390D01*
X102323892Y-88092117D01*
X102463581Y-88274161D01*
X102463589Y-88274170D01*
X102625830Y-88436411D01*
X102625838Y-88436418D01*
X102807882Y-88576107D01*
X102807885Y-88576108D01*
X102807888Y-88576111D01*
X103006612Y-88690844D01*
X103006617Y-88690846D01*
X103006623Y-88690849D01*
X103097980Y-88728690D01*
X103218613Y-88778658D01*
X103440262Y-88838048D01*
X103667766Y-88868000D01*
X103667773Y-88868000D01*
X103897227Y-88868000D01*
X103897234Y-88868000D01*
X104124738Y-88838048D01*
X104346387Y-88778658D01*
X104558388Y-88690844D01*
X104757112Y-88576111D01*
X104939161Y-88436419D01*
X104939165Y-88436414D01*
X104939170Y-88436411D01*
X105101411Y-88274170D01*
X105101414Y-88274165D01*
X105101419Y-88274161D01*
X105241111Y-88092112D01*
X105355844Y-87893388D01*
X105443658Y-87681387D01*
X105503048Y-87459738D01*
X105533000Y-87232234D01*
X105533000Y-87002766D01*
X105503048Y-86775262D01*
X105443658Y-86553613D01*
X105380685Y-86401583D01*
X105355849Y-86341623D01*
X105355846Y-86341617D01*
X105355844Y-86341612D01*
X105241111Y-86142888D01*
X105241108Y-86142885D01*
X105241107Y-86142882D01*
X105101418Y-85960838D01*
X105101411Y-85960830D01*
X104939170Y-85798589D01*
X104939161Y-85798581D01*
X104757117Y-85658892D01*
X104558390Y-85544157D01*
X104558376Y-85544150D01*
X104346387Y-85456342D01*
X104124738Y-85396952D01*
X104086715Y-85391946D01*
X103897241Y-85367000D01*
X103897234Y-85367000D01*
X103667766Y-85367000D01*
X103667758Y-85367000D01*
X103451215Y-85395509D01*
X103440262Y-85396952D01*
X103346576Y-85422054D01*
X103218612Y-85456342D01*
X103006623Y-85544150D01*
X103006609Y-85544157D01*
X102807882Y-85658892D01*
X102625838Y-85798581D01*
X102463581Y-85960838D01*
X102323892Y-86142882D01*
X102209157Y-86341609D01*
X102209150Y-86341623D01*
X102121342Y-86553612D01*
X102061953Y-86775259D01*
X102061951Y-86775270D01*
X102032000Y-87002758D01*
X98754892Y-87002758D01*
X98655405Y-86930476D01*
X98639649Y-86922448D01*
X98480030Y-86841117D01*
X98292826Y-86780290D01*
X98098422Y-86749500D01*
X98098417Y-86749500D01*
X95901583Y-86749500D01*
X95901578Y-86749500D01*
X95738926Y-86775262D01*
X95738925Y-86775262D01*
X95707178Y-86780289D01*
X95707177Y-86780290D01*
X95519972Y-86841117D01*
X95344594Y-86930476D01*
X95274153Y-86981655D01*
X95185355Y-87046171D01*
X95185353Y-87046173D01*
X95185352Y-87046173D01*
X94046174Y-88185351D01*
X94046174Y-88185352D01*
X94046172Y-88185354D01*
X94028709Y-88209390D01*
X93930476Y-88344594D01*
X93841117Y-88519969D01*
X93780290Y-88707173D01*
X93749500Y-88901577D01*
X92250500Y-88901577D01*
X92250500Y-87069336D01*
X92270185Y-87002297D01*
X92286819Y-86981655D01*
X94481655Y-84786819D01*
X94542978Y-84753334D01*
X94569336Y-84750500D01*
X105430664Y-84750500D01*
X105497703Y-84770185D01*
X105518345Y-84786819D01*
X107213181Y-86481655D01*
X107246666Y-86542978D01*
X107249500Y-86569336D01*
X107249500Y-92098422D01*
X107280290Y-92292826D01*
X107341117Y-92480030D01*
X107378610Y-92553613D01*
X107430476Y-92655405D01*
X107546172Y-92814646D01*
X108802855Y-94071329D01*
X108962095Y-94187024D01*
X109044954Y-94229242D01*
X109137469Y-94276382D01*
X109137471Y-94276382D01*
X109137474Y-94276384D01*
X109237818Y-94308987D01*
X109324673Y-94337209D01*
X109519078Y-94368000D01*
X109519083Y-94368000D01*
X109519084Y-94368000D01*
X109715917Y-94368000D01*
X116706057Y-94368000D01*
X116773096Y-94387685D01*
X116793738Y-94404319D01*
X116825830Y-94436411D01*
X116825838Y-94436418D01*
X117007882Y-94576107D01*
X117007885Y-94576108D01*
X117007888Y-94576111D01*
X117206612Y-94690844D01*
X117206617Y-94690846D01*
X117206623Y-94690849D01*
X117297980Y-94728690D01*
X117418613Y-94778658D01*
X117640262Y-94838048D01*
X117867766Y-94868000D01*
X117867773Y-94868000D01*
X118097227Y-94868000D01*
X118097234Y-94868000D01*
X118324738Y-94838048D01*
X118546387Y-94778658D01*
X118758388Y-94690844D01*
X118957112Y-94576111D01*
X119139161Y-94436419D01*
X119139165Y-94436414D01*
X119139170Y-94436411D01*
X119301411Y-94274170D01*
X119301414Y-94274165D01*
X119301419Y-94274161D01*
X119441111Y-94092112D01*
X119555844Y-93893388D01*
X119643658Y-93681387D01*
X119703048Y-93459738D01*
X119733000Y-93232234D01*
X119733000Y-93002766D01*
X119703048Y-92775262D01*
X119643658Y-92553613D01*
X119583026Y-92407235D01*
X119555849Y-92341623D01*
X119555846Y-92341617D01*
X119555844Y-92341612D01*
X119441111Y-92142888D01*
X119441108Y-92142885D01*
X119441107Y-92142882D01*
X119301418Y-91960838D01*
X119301411Y-91960830D01*
X119139170Y-91798589D01*
X119139161Y-91798581D01*
X118957117Y-91658892D01*
X118758390Y-91544157D01*
X118758376Y-91544150D01*
X118546387Y-91456342D01*
X118450554Y-91430664D01*
X118324738Y-91396952D01*
X118286715Y-91391946D01*
X118097241Y-91367000D01*
X118097234Y-91367000D01*
X117867766Y-91367000D01*
X117867758Y-91367000D01*
X117651215Y-91395509D01*
X117640262Y-91396952D01*
X117613921Y-91404010D01*
X117418612Y-91456342D01*
X117206623Y-91544150D01*
X117206609Y-91544157D01*
X117007882Y-91658892D01*
X116825838Y-91798581D01*
X116793738Y-91830681D01*
X116732415Y-91864166D01*
X116706057Y-91867000D01*
X110186836Y-91867000D01*
X110119797Y-91847315D01*
X110099155Y-91830681D01*
X109786819Y-91518345D01*
X109753334Y-91457022D01*
X109750500Y-91430664D01*
X109750500Y-87002758D01*
X114232000Y-87002758D01*
X114232000Y-87232241D01*
X114256844Y-87420939D01*
X114261952Y-87459738D01*
X114293866Y-87578844D01*
X114321342Y-87681387D01*
X114409150Y-87893376D01*
X114409157Y-87893390D01*
X114523892Y-88092117D01*
X114663581Y-88274161D01*
X114663589Y-88274170D01*
X114825830Y-88436411D01*
X114825838Y-88436418D01*
X115007882Y-88576107D01*
X115007885Y-88576108D01*
X115007888Y-88576111D01*
X115206612Y-88690844D01*
X115206617Y-88690846D01*
X115206623Y-88690849D01*
X115297980Y-88728690D01*
X115418613Y-88778658D01*
X115640262Y-88838048D01*
X115867766Y-88868000D01*
X115867773Y-88868000D01*
X116097227Y-88868000D01*
X116097234Y-88868000D01*
X116324738Y-88838048D01*
X116546387Y-88778658D01*
X116758388Y-88690844D01*
X116957112Y-88576111D01*
X117139161Y-88436419D01*
X117139165Y-88436414D01*
X117139170Y-88436411D01*
X117301411Y-88274170D01*
X117301414Y-88274165D01*
X117301419Y-88274161D01*
X117441111Y-88092112D01*
X117555844Y-87893388D01*
X117643658Y-87681387D01*
X117703048Y-87459738D01*
X117733000Y-87232234D01*
X117733000Y-87002766D01*
X117703048Y-86775262D01*
X117643658Y-86553613D01*
X117580685Y-86401583D01*
X117555849Y-86341623D01*
X117555846Y-86341617D01*
X117555844Y-86341612D01*
X117441111Y-86142888D01*
X117441108Y-86142885D01*
X117441107Y-86142882D01*
X117301418Y-85960838D01*
X117301411Y-85960830D01*
X117139170Y-85798589D01*
X117139161Y-85798581D01*
X116957117Y-85658892D01*
X116758390Y-85544157D01*
X116758376Y-85544150D01*
X116546387Y-85456342D01*
X116324738Y-85396952D01*
X116286715Y-85391946D01*
X116097241Y-85367000D01*
X116097234Y-85367000D01*
X115867766Y-85367000D01*
X115867758Y-85367000D01*
X115651215Y-85395509D01*
X115640262Y-85396952D01*
X115546576Y-85422054D01*
X115418612Y-85456342D01*
X115206623Y-85544150D01*
X115206609Y-85544157D01*
X115007882Y-85658892D01*
X114825838Y-85798581D01*
X114663581Y-85960838D01*
X114523892Y-86142882D01*
X114409157Y-86341609D01*
X114409150Y-86341623D01*
X114321342Y-86553612D01*
X114261953Y-86775259D01*
X114261951Y-86775270D01*
X114232000Y-87002758D01*
X109750500Y-87002758D01*
X109750500Y-85901577D01*
X109732586Y-85788483D01*
X109719709Y-85707174D01*
X109719708Y-85707170D01*
X109719708Y-85707169D01*
X109660391Y-85524612D01*
X109659329Y-85520847D01*
X109626462Y-85456342D01*
X109569524Y-85344595D01*
X109453828Y-85185354D01*
X106814646Y-82546172D01*
X106655405Y-82430476D01*
X106480030Y-82341117D01*
X106292826Y-82280290D01*
X106098422Y-82249500D01*
X106098417Y-82249500D01*
X93901583Y-82249500D01*
X93901578Y-82249500D01*
X93707173Y-82280290D01*
X93519969Y-82341117D01*
X93344594Y-82430476D01*
X93185352Y-82546173D01*
X90046174Y-85685351D01*
X90046174Y-85685352D01*
X90046172Y-85685354D01*
X90030319Y-85707174D01*
X89930476Y-85844594D01*
X89841117Y-86019970D01*
X89830941Y-86051290D01*
X89780290Y-86207173D01*
X89749500Y-86401577D01*
X85090000Y-86401577D01*
X85090000Y-69792135D01*
X90149500Y-69792135D01*
X90149500Y-71587870D01*
X90149501Y-71587876D01*
X90155908Y-71647483D01*
X90206202Y-71782328D01*
X90206206Y-71782335D01*
X90292452Y-71897544D01*
X90292455Y-71897547D01*
X90407664Y-71983793D01*
X90407671Y-71983797D01*
X90539082Y-72032810D01*
X90595016Y-72074681D01*
X90619433Y-72140145D01*
X90604582Y-72208418D01*
X90583431Y-72236673D01*
X90469889Y-72350215D01*
X90344951Y-72522179D01*
X90248444Y-72711585D01*
X90182753Y-72913760D01*
X90149500Y-73123713D01*
X90149500Y-73336286D01*
X90162941Y-73421153D01*
X90182754Y-73546243D01*
X90243594Y-73733489D01*
X90248444Y-73748414D01*
X90344951Y-73937820D01*
X90469890Y-74109786D01*
X90620213Y-74260109D01*
X90792182Y-74385050D01*
X90800946Y-74389516D01*
X90851742Y-74437491D01*
X90868536Y-74505312D01*
X90845998Y-74571447D01*
X90800946Y-74610484D01*
X90792182Y-74614949D01*
X90620213Y-74739890D01*
X90469890Y-74890213D01*
X90344951Y-75062179D01*
X90248444Y-75251585D01*
X90182753Y-75453760D01*
X90149500Y-75663713D01*
X90149500Y-75876286D01*
X90181581Y-76078842D01*
X90182754Y-76086243D01*
X90230601Y-76233501D01*
X90248444Y-76288414D01*
X90344951Y-76477820D01*
X90469890Y-76649786D01*
X90620213Y-76800109D01*
X90792179Y-76925048D01*
X90792181Y-76925049D01*
X90792184Y-76925051D01*
X90801493Y-76929794D01*
X90852290Y-76977766D01*
X90869087Y-77045587D01*
X90846552Y-77111722D01*
X90801505Y-77150760D01*
X90792446Y-77155376D01*
X90792440Y-77155380D01*
X90738282Y-77194727D01*
X90738282Y-77194728D01*
X91370591Y-77827037D01*
X91307007Y-77844075D01*
X91192993Y-77909901D01*
X91099901Y-78002993D01*
X91034075Y-78117007D01*
X91017037Y-78180591D01*
X90384728Y-77548282D01*
X90384727Y-77548282D01*
X90345380Y-77602439D01*
X90248904Y-77791782D01*
X90183242Y-77993869D01*
X90183242Y-77993872D01*
X90150000Y-78203753D01*
X90150000Y-78416246D01*
X90183242Y-78626127D01*
X90183242Y-78626130D01*
X90248904Y-78828217D01*
X90345375Y-79017550D01*
X90384728Y-79071716D01*
X91017037Y-78439408D01*
X91034075Y-78502993D01*
X91099901Y-78617007D01*
X91192993Y-78710099D01*
X91307007Y-78775925D01*
X91370590Y-78792962D01*
X90738282Y-79425269D01*
X90738282Y-79425270D01*
X90792449Y-79464624D01*
X90981782Y-79561095D01*
X91183870Y-79626757D01*
X91393754Y-79660000D01*
X91606246Y-79660000D01*
X91816127Y-79626757D01*
X91816130Y-79626757D01*
X92018217Y-79561095D01*
X92207554Y-79464622D01*
X92261716Y-79425270D01*
X92261717Y-79425270D01*
X91629408Y-78792962D01*
X91692993Y-78775925D01*
X91807007Y-78710099D01*
X91900099Y-78617007D01*
X91965925Y-78502993D01*
X91982962Y-78439408D01*
X92615270Y-79071717D01*
X92615270Y-79071716D01*
X92654622Y-79017554D01*
X92751095Y-78828217D01*
X92816757Y-78626130D01*
X92816757Y-78626127D01*
X92850000Y-78416246D01*
X92850000Y-78203753D01*
X92816757Y-77993872D01*
X92816757Y-77993869D01*
X92751095Y-77791782D01*
X92654624Y-77602449D01*
X92615270Y-77548282D01*
X92615269Y-77548282D01*
X91982962Y-78180590D01*
X91965925Y-78117007D01*
X91900099Y-78002993D01*
X91807007Y-77909901D01*
X91692993Y-77844075D01*
X91629409Y-77827037D01*
X92261716Y-77194728D01*
X92207547Y-77155373D01*
X92207547Y-77155372D01*
X92198500Y-77150763D01*
X92147706Y-77102788D01*
X92130912Y-77034966D01*
X92153451Y-76968832D01*
X92198508Y-76929793D01*
X92207816Y-76925051D01*
X92287007Y-76867515D01*
X92379786Y-76800109D01*
X92379788Y-76800106D01*
X92379792Y-76800104D01*
X92530104Y-76649792D01*
X92530106Y-76649788D01*
X92530109Y-76649786D01*
X92655048Y-76477820D01*
X92655047Y-76477820D01*
X92655051Y-76477816D01*
X92751557Y-76288412D01*
X92817246Y-76086243D01*
X92850500Y-75876287D01*
X92850500Y-75663713D01*
X92817246Y-75453757D01*
X92751557Y-75251588D01*
X92655051Y-75062184D01*
X92655049Y-75062181D01*
X92655048Y-75062179D01*
X92530109Y-74890213D01*
X92379786Y-74739890D01*
X92207820Y-74614951D01*
X92207115Y-74614591D01*
X92199054Y-74610485D01*
X92148259Y-74562512D01*
X92131463Y-74494692D01*
X92153999Y-74428556D01*
X92199054Y-74389515D01*
X92207816Y-74385051D01*
X92229789Y-74369086D01*
X92379786Y-74260109D01*
X92379788Y-74260106D01*
X92379792Y-74260104D01*
X92530104Y-74109792D01*
X92530106Y-74109788D01*
X92530109Y-74109786D01*
X92655048Y-73937820D01*
X92655047Y-73937820D01*
X92655051Y-73937816D01*
X92751557Y-73748412D01*
X92817246Y-73546243D01*
X92850500Y-73336287D01*
X92850500Y-73123713D01*
X92817246Y-72913757D01*
X92751557Y-72711588D01*
X92655051Y-72522184D01*
X92655049Y-72522181D01*
X92655048Y-72522179D01*
X92530109Y-72350213D01*
X92416569Y-72236673D01*
X92383084Y-72175350D01*
X92388068Y-72105658D01*
X92429940Y-72049725D01*
X92460915Y-72032810D01*
X92592331Y-71983796D01*
X92707546Y-71897546D01*
X92793796Y-71782331D01*
X92844091Y-71647483D01*
X92850500Y-71587873D01*
X92850500Y-71564500D01*
X92870185Y-71497461D01*
X92922989Y-71451706D01*
X92974500Y-71440500D01*
X112827770Y-71440500D01*
X112894809Y-71460185D01*
X112915451Y-71476819D01*
X113521586Y-72082954D01*
X113551058Y-72102645D01*
X113595270Y-72132186D01*
X113644505Y-72165084D01*
X113644506Y-72165084D01*
X113644507Y-72165085D01*
X113644509Y-72165086D01*
X113781082Y-72221656D01*
X113781087Y-72221658D01*
X113781091Y-72221658D01*
X113781092Y-72221659D01*
X113926079Y-72250500D01*
X113926082Y-72250500D01*
X113926083Y-72250500D01*
X114073917Y-72250500D01*
X122637770Y-72250500D01*
X122704809Y-72270185D01*
X122725451Y-72286819D01*
X125213181Y-74774548D01*
X125246666Y-74835871D01*
X125249500Y-74862229D01*
X125249500Y-85348918D01*
X125249500Y-85348920D01*
X125249499Y-85348920D01*
X125278340Y-85493907D01*
X125278343Y-85493917D01*
X125334914Y-85630492D01*
X125367812Y-85679727D01*
X125367813Y-85679730D01*
X125417046Y-85753414D01*
X125417052Y-85753421D01*
X131616427Y-91952795D01*
X131643307Y-91993023D01*
X131653104Y-92016675D01*
X131653109Y-92016685D01*
X131740710Y-92147788D01*
X131740713Y-92147792D01*
X131852207Y-92259286D01*
X131852211Y-92259289D01*
X131983314Y-92346890D01*
X131983327Y-92346897D01*
X132128998Y-92407235D01*
X132129003Y-92407237D01*
X132283653Y-92437999D01*
X132283656Y-92438000D01*
X132283658Y-92438000D01*
X132441344Y-92438000D01*
X132441345Y-92437999D01*
X132595997Y-92407237D01*
X132741679Y-92346894D01*
X132872789Y-92259289D01*
X132984289Y-92147789D01*
X133071894Y-92016679D01*
X133076759Y-92004935D01*
X133092339Y-91967320D01*
X133132237Y-91870997D01*
X133163000Y-91716342D01*
X133163000Y-91558658D01*
X133163000Y-91558655D01*
X133162999Y-91558653D01*
X133135649Y-91421158D01*
X133132237Y-91404003D01*
X133075286Y-91266510D01*
X133071897Y-91258327D01*
X133071890Y-91258314D01*
X132984289Y-91127211D01*
X132984286Y-91127207D01*
X132872792Y-91015713D01*
X132872788Y-91015710D01*
X132741685Y-90928109D01*
X132741675Y-90928104D01*
X132718023Y-90918307D01*
X132677795Y-90891427D01*
X128207521Y-86421153D01*
X140699500Y-86421153D01*
X140699500Y-86578846D01*
X140730261Y-86733489D01*
X140730264Y-86733501D01*
X140790602Y-86879172D01*
X140790609Y-86879185D01*
X140878602Y-87010874D01*
X140899480Y-87077551D01*
X140899500Y-87079765D01*
X140899500Y-87413330D01*
X140899499Y-87413348D01*
X140899499Y-87579054D01*
X140899498Y-87579054D01*
X140899499Y-87579057D01*
X140940423Y-87731785D01*
X140960468Y-87766503D01*
X140999809Y-87834645D01*
X141019479Y-87868715D01*
X141138349Y-87987585D01*
X141138355Y-87987590D01*
X155863181Y-102712416D01*
X155896666Y-102773739D01*
X155899500Y-102800097D01*
X155899500Y-105920234D01*
X155879815Y-105987273D01*
X155878602Y-105989125D01*
X155790609Y-106120814D01*
X155790602Y-106120827D01*
X155730264Y-106266498D01*
X155730261Y-106266510D01*
X155699500Y-106421153D01*
X155699500Y-106578846D01*
X155730261Y-106733489D01*
X155730264Y-106733501D01*
X155790602Y-106879172D01*
X155790609Y-106879185D01*
X155878210Y-107010288D01*
X155878213Y-107010292D01*
X155989707Y-107121786D01*
X155989711Y-107121789D01*
X156120814Y-107209390D01*
X156120827Y-107209397D01*
X156258669Y-107266492D01*
X156266503Y-107269737D01*
X156421153Y-107300499D01*
X156421156Y-107300500D01*
X156421158Y-107300500D01*
X156578844Y-107300500D01*
X156578845Y-107300499D01*
X156733497Y-107269737D01*
X156879179Y-107209394D01*
X156909174Y-107189351D01*
X156975850Y-107168473D01*
X157025517Y-107177891D01*
X157062851Y-107193356D01*
X157217501Y-107224118D01*
X157217504Y-107224119D01*
X157217506Y-107224119D01*
X157375192Y-107224119D01*
X157375193Y-107224118D01*
X157529845Y-107193356D01*
X157675527Y-107133013D01*
X157806637Y-107045408D01*
X157918137Y-106933908D01*
X158005742Y-106802798D01*
X158066085Y-106657116D01*
X158096848Y-106502461D01*
X158096848Y-106344777D01*
X158096848Y-106344774D01*
X158096847Y-106344772D01*
X158092815Y-106324500D01*
X158066085Y-106190122D01*
X158057641Y-106169737D01*
X158005745Y-106044446D01*
X158005738Y-106044433D01*
X157917746Y-105912744D01*
X157896868Y-105846066D01*
X157896848Y-105843853D01*
X157896848Y-102385407D01*
X157896849Y-102385394D01*
X157896849Y-102217293D01*
X157896849Y-102217291D01*
X157855925Y-102064563D01*
X157826987Y-102014443D01*
X157776868Y-101927632D01*
X157665064Y-101815828D01*
X157665063Y-101815827D01*
X157660733Y-101811497D01*
X157660722Y-101811487D01*
X144770388Y-88921153D01*
X147179500Y-88921153D01*
X147179500Y-89078846D01*
X147210261Y-89233489D01*
X147210264Y-89233501D01*
X147270602Y-89379172D01*
X147270609Y-89379185D01*
X147358210Y-89510288D01*
X147358213Y-89510292D01*
X147469707Y-89621786D01*
X147469711Y-89621789D01*
X147600814Y-89709390D01*
X147600827Y-89709397D01*
X147688230Y-89745599D01*
X147746503Y-89769737D01*
X147813580Y-89783079D01*
X147875488Y-89815461D01*
X147877068Y-89817014D01*
X150065325Y-92005272D01*
X150065332Y-92005278D01*
X150129229Y-92047972D01*
X150129232Y-92047973D01*
X150129236Y-92047976D01*
X150171873Y-92076465D01*
X150290256Y-92125501D01*
X150290260Y-92125501D01*
X150290261Y-92125502D01*
X150415928Y-92150500D01*
X150415931Y-92150500D01*
X154225500Y-92150500D01*
X154292539Y-92170185D01*
X154338294Y-92222989D01*
X154349500Y-92274500D01*
X154349500Y-96495064D01*
X154329815Y-96562103D01*
X154328603Y-96563954D01*
X154290608Y-96620817D01*
X154290602Y-96620828D01*
X154230264Y-96766498D01*
X154230261Y-96766510D01*
X154199500Y-96921153D01*
X154199500Y-97078846D01*
X154230261Y-97233489D01*
X154230264Y-97233501D01*
X154290602Y-97379172D01*
X154290609Y-97379185D01*
X154378210Y-97510288D01*
X154378213Y-97510292D01*
X154489707Y-97621786D01*
X154489711Y-97621789D01*
X154620814Y-97709390D01*
X154620827Y-97709397D01*
X154766498Y-97769735D01*
X154766503Y-97769737D01*
X154909409Y-97798163D01*
X154921153Y-97800499D01*
X154921156Y-97800500D01*
X154921158Y-97800500D01*
X155078844Y-97800500D01*
X155078845Y-97800499D01*
X155233497Y-97769737D01*
X155379179Y-97709394D01*
X155510289Y-97621789D01*
X155621789Y-97510289D01*
X155709394Y-97379179D01*
X155710090Y-97377500D01*
X155742532Y-97299176D01*
X155769737Y-97233497D01*
X155800500Y-97078842D01*
X155800500Y-96921158D01*
X155800500Y-96921155D01*
X155800499Y-96921153D01*
X155792148Y-96879172D01*
X155769737Y-96766503D01*
X155769735Y-96766498D01*
X155709397Y-96620828D01*
X155709396Y-96620827D01*
X155709394Y-96620821D01*
X155671396Y-96563953D01*
X155650520Y-96497276D01*
X155650500Y-96495064D01*
X155650500Y-92004935D01*
X155670185Y-91937896D01*
X155671366Y-91936090D01*
X155709394Y-91879179D01*
X155769737Y-91733497D01*
X155800500Y-91578842D01*
X155800500Y-91421158D01*
X155800500Y-91421155D01*
X155800499Y-91421153D01*
X155769738Y-91266510D01*
X155769737Y-91266503D01*
X155769735Y-91266498D01*
X155709397Y-91120827D01*
X155709390Y-91120814D01*
X155621789Y-90989711D01*
X155621786Y-90989707D01*
X155510292Y-90878213D01*
X155510288Y-90878210D01*
X155379185Y-90790609D01*
X155379172Y-90790602D01*
X155233501Y-90730264D01*
X155233489Y-90730261D01*
X155078845Y-90699500D01*
X155078842Y-90699500D01*
X154921158Y-90699500D01*
X154921155Y-90699500D01*
X154766510Y-90730261D01*
X154766498Y-90730264D01*
X154620827Y-90790602D01*
X154620820Y-90790606D01*
X154591928Y-90809911D01*
X154563955Y-90828602D01*
X154497279Y-90849480D01*
X154495065Y-90849500D01*
X150800808Y-90849500D01*
X150733769Y-90829815D01*
X150713127Y-90813181D01*
X148797015Y-88897069D01*
X148763530Y-88835746D01*
X148763093Y-88833652D01*
X148749737Y-88766503D01*
X148718398Y-88690844D01*
X148689397Y-88620827D01*
X148689390Y-88620814D01*
X148601789Y-88489711D01*
X148601786Y-88489707D01*
X148490292Y-88378213D01*
X148490288Y-88378210D01*
X148359185Y-88290609D01*
X148359172Y-88290602D01*
X148213501Y-88230264D01*
X148213489Y-88230261D01*
X148058845Y-88199500D01*
X148058842Y-88199500D01*
X147901158Y-88199500D01*
X147901155Y-88199500D01*
X147746510Y-88230261D01*
X147746498Y-88230264D01*
X147600827Y-88290602D01*
X147600814Y-88290609D01*
X147469711Y-88378210D01*
X147469707Y-88378213D01*
X147358213Y-88489707D01*
X147358210Y-88489711D01*
X147270609Y-88620814D01*
X147270602Y-88620827D01*
X147210264Y-88766498D01*
X147210261Y-88766510D01*
X147179500Y-88921153D01*
X144770388Y-88921153D01*
X143136819Y-87287584D01*
X143122115Y-87260656D01*
X143105523Y-87234838D01*
X143104631Y-87228637D01*
X143103334Y-87226261D01*
X143100500Y-87199903D01*
X143100500Y-87079765D01*
X143120185Y-87012726D01*
X143121398Y-87010874D01*
X143209390Y-86879185D01*
X143209390Y-86879184D01*
X143209394Y-86879179D01*
X143269737Y-86733497D01*
X143300500Y-86578842D01*
X143300500Y-86421158D01*
X143300500Y-86421155D01*
X143300499Y-86421153D01*
X143284677Y-86341612D01*
X143269737Y-86266503D01*
X143269735Y-86266498D01*
X143209397Y-86120827D01*
X143209390Y-86120814D01*
X143121789Y-85989711D01*
X143121786Y-85989707D01*
X143010292Y-85878213D01*
X143010288Y-85878210D01*
X142879185Y-85790609D01*
X142879172Y-85790602D01*
X142733501Y-85730264D01*
X142733489Y-85730261D01*
X142578845Y-85699500D01*
X142578842Y-85699500D01*
X142421158Y-85699500D01*
X142421155Y-85699500D01*
X142266510Y-85730261D01*
X142266498Y-85730264D01*
X142120827Y-85790602D01*
X142120814Y-85790609D01*
X142068891Y-85825304D01*
X142002214Y-85846182D01*
X141934833Y-85827698D01*
X141931109Y-85825304D01*
X141879185Y-85790609D01*
X141879172Y-85790602D01*
X141733501Y-85730264D01*
X141733489Y-85730261D01*
X141578845Y-85699500D01*
X141578842Y-85699500D01*
X141421158Y-85699500D01*
X141421155Y-85699500D01*
X141266510Y-85730261D01*
X141266498Y-85730264D01*
X141120827Y-85790602D01*
X141120814Y-85790609D01*
X140989711Y-85878210D01*
X140989707Y-85878213D01*
X140878213Y-85989707D01*
X140878210Y-85989711D01*
X140790609Y-86120814D01*
X140790602Y-86120827D01*
X140730264Y-86266498D01*
X140730261Y-86266510D01*
X140699500Y-86421153D01*
X128207521Y-86421153D01*
X126786819Y-85000451D01*
X126753334Y-84939128D01*
X126750500Y-84912770D01*
X126750500Y-74874500D01*
X126770185Y-74807461D01*
X126822989Y-74761706D01*
X126874500Y-74750500D01*
X127695396Y-74750500D01*
X127742844Y-74759937D01*
X127766503Y-74769737D01*
X127766508Y-74769738D01*
X127766511Y-74769739D01*
X127921153Y-74800499D01*
X127921156Y-74800500D01*
X127921158Y-74800500D01*
X128078844Y-74800500D01*
X128078845Y-74800499D01*
X128233497Y-74769737D01*
X128379179Y-74709394D01*
X128510289Y-74621789D01*
X128520895Y-74611181D01*
X128582216Y-74577696D01*
X128651908Y-74582678D01*
X128696259Y-74611180D01*
X135449453Y-81364374D01*
X135449463Y-81364385D01*
X135453793Y-81368715D01*
X135453794Y-81368716D01*
X135565598Y-81480520D01*
X135565600Y-81480521D01*
X135565604Y-81480524D01*
X135674668Y-81543491D01*
X135702530Y-81559577D01*
X135814333Y-81589534D01*
X135855256Y-81600500D01*
X135855257Y-81600500D01*
X139320234Y-81600500D01*
X139387273Y-81620185D01*
X139389125Y-81621398D01*
X139520814Y-81709390D01*
X139520827Y-81709397D01*
X139658683Y-81766498D01*
X139666503Y-81769737D01*
X139821153Y-81800499D01*
X139821156Y-81800500D01*
X139821158Y-81800500D01*
X139978844Y-81800500D01*
X139978845Y-81800499D01*
X140133497Y-81769737D01*
X140279179Y-81709394D01*
X140410289Y-81621789D01*
X140521789Y-81510289D01*
X140609394Y-81379179D01*
X140669737Y-81233497D01*
X140700500Y-81078842D01*
X140700500Y-80978017D01*
X140720185Y-80910978D01*
X140738930Y-80888274D01*
X140746688Y-80880876D01*
X140760289Y-80871789D01*
X140843744Y-80788333D01*
X140844798Y-80787329D01*
X140874581Y-80771974D01*
X140904009Y-80755906D01*
X140905538Y-80756015D01*
X140906901Y-80755313D01*
X140940273Y-80758499D01*
X140973701Y-80760890D01*
X140974927Y-80761808D01*
X140976454Y-80761954D01*
X141002796Y-80782670D01*
X141029635Y-80802761D01*
X141030171Y-80804198D01*
X141031375Y-80805145D01*
X141042335Y-80836811D01*
X141054052Y-80868225D01*
X141053922Y-80870290D01*
X141054228Y-80871172D01*
X141053742Y-80873172D01*
X141051986Y-80901260D01*
X141048029Y-80921155D01*
X141048029Y-81078846D01*
X141077585Y-81227432D01*
X141071358Y-81297023D01*
X141028495Y-81352201D01*
X141024860Y-81354725D01*
X140989707Y-81378213D01*
X140878213Y-81489707D01*
X140878210Y-81489711D01*
X140790609Y-81620814D01*
X140790602Y-81620827D01*
X140730264Y-81766498D01*
X140730261Y-81766510D01*
X140699500Y-81921153D01*
X140699500Y-82078846D01*
X140730261Y-82233489D01*
X140730264Y-82233501D01*
X140790602Y-82379172D01*
X140790609Y-82379185D01*
X140878210Y-82510288D01*
X140878213Y-82510292D01*
X140989707Y-82621786D01*
X140989711Y-82621789D01*
X141120814Y-82709390D01*
X141120827Y-82709397D01*
X141215799Y-82748735D01*
X141266503Y-82769737D01*
X141331147Y-82782595D01*
X141421849Y-82800638D01*
X141483760Y-82833023D01*
X141485339Y-82834574D01*
X142515139Y-83864374D01*
X142515149Y-83864385D01*
X142519479Y-83868715D01*
X142519480Y-83868716D01*
X142631284Y-83980520D01*
X142631286Y-83980521D01*
X142631290Y-83980524D01*
X142768209Y-84059573D01*
X142768216Y-84059577D01*
X142880019Y-84089534D01*
X142920942Y-84100500D01*
X142920943Y-84100500D01*
X150699903Y-84100500D01*
X150766942Y-84120185D01*
X150787584Y-84136819D01*
X158146023Y-91495258D01*
X158179508Y-91556581D01*
X158182342Y-91582939D01*
X158182342Y-96578842D01*
X158182340Y-96710421D01*
X158187916Y-96731234D01*
X158188423Y-96745286D01*
X158183125Y-96766072D01*
X158182613Y-96787519D01*
X158179067Y-96797203D01*
X158164574Y-96832192D01*
X158164574Y-96832193D01*
X158133813Y-96986840D01*
X158133813Y-97144533D01*
X158164574Y-97299176D01*
X158164577Y-97299188D01*
X158224915Y-97444859D01*
X158224922Y-97444872D01*
X158312523Y-97575975D01*
X158312526Y-97575979D01*
X158424020Y-97687473D01*
X158424024Y-97687476D01*
X158555127Y-97775077D01*
X158555140Y-97775084D01*
X158616501Y-97800500D01*
X158700816Y-97835424D01*
X158855466Y-97866186D01*
X158855469Y-97866187D01*
X158855471Y-97866187D01*
X159013157Y-97866187D01*
X159013158Y-97866186D01*
X159167810Y-97835424D01*
X159313492Y-97775081D01*
X159444602Y-97687476D01*
X159556102Y-97575976D01*
X159643707Y-97444866D01*
X159643708Y-97444863D01*
X159643710Y-97444860D01*
X159693019Y-97325815D01*
X159736859Y-97271411D01*
X159760128Y-97258706D01*
X159763552Y-97257288D01*
X159788724Y-97246860D01*
X159879173Y-97209397D01*
X159879176Y-97209395D01*
X159879179Y-97209394D01*
X160010289Y-97121789D01*
X160121789Y-97010289D01*
X160209394Y-96879179D01*
X160269737Y-96733497D01*
X160291958Y-96621786D01*
X160300500Y-96578844D01*
X160300500Y-96421155D01*
X160300499Y-96421153D01*
X160269738Y-96266510D01*
X160269737Y-96266503D01*
X160256062Y-96233489D01*
X160209397Y-96120827D01*
X160209390Y-96120814D01*
X160121790Y-95989712D01*
X160121784Y-95989705D01*
X160053232Y-95921153D01*
X166199500Y-95921153D01*
X166199500Y-96078846D01*
X166230261Y-96233489D01*
X166230264Y-96233501D01*
X166290602Y-96379172D01*
X166290609Y-96379185D01*
X166378210Y-96510288D01*
X166378213Y-96510292D01*
X166489707Y-96621786D01*
X166489711Y-96621789D01*
X166620814Y-96709390D01*
X166620827Y-96709397D01*
X166738937Y-96758319D01*
X166766503Y-96769737D01*
X166855899Y-96787519D01*
X166921153Y-96800499D01*
X166921156Y-96800500D01*
X166921158Y-96800500D01*
X167078844Y-96800500D01*
X167078845Y-96800499D01*
X167233497Y-96769737D01*
X167379179Y-96709394D01*
X167510289Y-96621789D01*
X167621789Y-96510289D01*
X167709394Y-96379179D01*
X167769737Y-96233497D01*
X167800500Y-96078842D01*
X167800500Y-95921158D01*
X167800500Y-95921155D01*
X167800499Y-95921153D01*
X167774531Y-95790606D01*
X167769737Y-95766503D01*
X167758251Y-95738772D01*
X167709397Y-95620827D01*
X167709390Y-95620814D01*
X167621789Y-95489711D01*
X167621786Y-95489707D01*
X167510292Y-95378213D01*
X167510288Y-95378210D01*
X167379185Y-95290609D01*
X167379172Y-95290602D01*
X167233501Y-95230264D01*
X167233489Y-95230261D01*
X167078845Y-95199500D01*
X167078842Y-95199500D01*
X166921158Y-95199500D01*
X166921155Y-95199500D01*
X166766510Y-95230261D01*
X166766498Y-95230264D01*
X166620827Y-95290602D01*
X166620814Y-95290609D01*
X166489711Y-95378210D01*
X166489707Y-95378213D01*
X166378213Y-95489707D01*
X166378210Y-95489711D01*
X166290609Y-95620814D01*
X166290602Y-95620827D01*
X166230264Y-95766498D01*
X166230261Y-95766510D01*
X166199500Y-95921153D01*
X160053232Y-95921153D01*
X160010292Y-95878213D01*
X160010288Y-95878210D01*
X159879185Y-95790609D01*
X159879173Y-95790603D01*
X159859887Y-95782614D01*
X159805484Y-95738772D01*
X159783421Y-95672477D01*
X159783342Y-95668054D01*
X159783342Y-91038101D01*
X159783342Y-91038099D01*
X159742419Y-90885372D01*
X159738284Y-90878210D01*
X159663366Y-90748446D01*
X159663363Y-90748442D01*
X159663362Y-90748440D01*
X159551558Y-90636636D01*
X159551557Y-90636635D01*
X159547227Y-90632305D01*
X159547216Y-90632295D01*
X151653275Y-82738355D01*
X151653273Y-82738352D01*
X151534402Y-82619481D01*
X151534397Y-82619477D01*
X151407429Y-82546173D01*
X151407428Y-82546172D01*
X151397472Y-82540423D01*
X151336378Y-82524053D01*
X151244742Y-82499499D01*
X151086628Y-82499499D01*
X151079032Y-82499499D01*
X151079016Y-82499500D01*
X144248626Y-82499500D01*
X144181587Y-82479815D01*
X144160945Y-82463181D01*
X142683103Y-80985339D01*
X142674968Y-80971117D01*
X142664386Y-80961341D01*
X142654082Y-80934603D01*
X142650754Y-80928785D01*
X142649029Y-80922133D01*
X142649029Y-80921158D01*
X142618266Y-80766503D01*
X142578771Y-80671153D01*
X144949500Y-80671153D01*
X144949500Y-80828846D01*
X144980261Y-80983489D01*
X144980264Y-80983501D01*
X145040602Y-81129172D01*
X145040609Y-81129185D01*
X145128210Y-81260288D01*
X145128213Y-81260292D01*
X145239707Y-81371786D01*
X145239711Y-81371789D01*
X145370814Y-81459390D01*
X145370827Y-81459397D01*
X145516498Y-81519735D01*
X145516503Y-81519737D01*
X145581147Y-81532595D01*
X145671849Y-81550638D01*
X145733760Y-81583023D01*
X145735339Y-81584574D01*
X146015139Y-81864374D01*
X146015149Y-81864385D01*
X146019479Y-81868715D01*
X146019480Y-81868716D01*
X146131284Y-81980520D01*
X146194989Y-82017299D01*
X146218095Y-82030639D01*
X146218097Y-82030641D01*
X146256151Y-82052611D01*
X146268215Y-82059577D01*
X146420943Y-82100500D01*
X146579057Y-82100500D01*
X162699903Y-82100500D01*
X162766942Y-82120185D01*
X162787584Y-82136819D01*
X163363181Y-82712416D01*
X163396666Y-82773739D01*
X163399500Y-82800097D01*
X163399500Y-84413330D01*
X163399499Y-84413348D01*
X163399499Y-84579054D01*
X163399498Y-84579054D01*
X163399499Y-84579057D01*
X163440423Y-84731785D01*
X163468428Y-84780291D01*
X163519477Y-84868712D01*
X163519481Y-84868717D01*
X163638349Y-84987585D01*
X163638355Y-84987590D01*
X165726448Y-87075683D01*
X165759933Y-87137006D01*
X165754949Y-87206698D01*
X165753329Y-87210814D01*
X165730263Y-87266502D01*
X165730260Y-87266511D01*
X165699500Y-87421153D01*
X165699500Y-87578846D01*
X165730261Y-87733489D01*
X165730264Y-87733501D01*
X165790602Y-87879172D01*
X165790609Y-87879185D01*
X165878210Y-88010288D01*
X165878213Y-88010292D01*
X165989707Y-88121786D01*
X165989711Y-88121789D01*
X166120814Y-88209390D01*
X166120827Y-88209397D01*
X166266498Y-88269735D01*
X166266503Y-88269737D01*
X166421153Y-88300499D01*
X166421156Y-88300500D01*
X166421158Y-88300500D01*
X166578844Y-88300500D01*
X166578845Y-88300499D01*
X166733497Y-88269737D01*
X166879179Y-88209394D01*
X167010289Y-88121789D01*
X167121789Y-88010289D01*
X167209394Y-87879179D01*
X167269737Y-87733497D01*
X167300500Y-87578842D01*
X167300500Y-87421158D01*
X167300500Y-87421155D01*
X167300499Y-87421153D01*
X167273930Y-87287584D01*
X167269737Y-87266503D01*
X167255545Y-87232241D01*
X167209397Y-87120827D01*
X167209390Y-87120814D01*
X167121399Y-86989126D01*
X167102533Y-86928875D01*
X167101562Y-86929003D01*
X167100827Y-86923428D01*
X167100521Y-86922448D01*
X167100507Y-86920997D01*
X167100501Y-86920945D01*
X167100501Y-86920943D01*
X167059577Y-86768215D01*
X167019904Y-86699500D01*
X166980520Y-86631284D01*
X166868716Y-86519480D01*
X166864385Y-86515149D01*
X166864374Y-86515139D01*
X164636819Y-84287584D01*
X164603334Y-84226261D01*
X164600500Y-84199903D01*
X164600500Y-82589060D01*
X164600501Y-82589047D01*
X164600501Y-82420944D01*
X164596297Y-82405255D01*
X164559577Y-82268216D01*
X164549017Y-82249925D01*
X164480524Y-82131290D01*
X164480518Y-82131282D01*
X164161417Y-81812181D01*
X164127932Y-81750858D01*
X164132916Y-81681166D01*
X164174788Y-81625233D01*
X164240252Y-81600816D01*
X164249098Y-81600500D01*
X170149903Y-81600500D01*
X170216942Y-81620185D01*
X170237584Y-81636819D01*
X170863181Y-82262416D01*
X170896666Y-82323739D01*
X170899500Y-82350097D01*
X170899500Y-82911611D01*
X170926598Y-83082701D01*
X170980127Y-83247445D01*
X171058768Y-83401788D01*
X171160586Y-83541928D01*
X171283072Y-83664414D01*
X171423212Y-83766232D01*
X171577555Y-83844873D01*
X171742299Y-83898402D01*
X171913389Y-83925500D01*
X171913390Y-83925500D01*
X172086610Y-83925500D01*
X172086611Y-83925500D01*
X172257701Y-83898402D01*
X172422445Y-83844873D01*
X172576788Y-83766232D01*
X172716928Y-83664414D01*
X172824836Y-83556505D01*
X172886155Y-83523023D01*
X172955847Y-83528007D01*
X173011781Y-83569878D01*
X173018053Y-83579093D01*
X173057682Y-83643343D01*
X173181654Y-83767315D01*
X173330875Y-83859356D01*
X173330880Y-83859358D01*
X173497302Y-83914505D01*
X173497309Y-83914506D01*
X173600019Y-83924999D01*
X173749999Y-83924999D01*
X173750000Y-83924998D01*
X173750000Y-82830330D01*
X173769745Y-82850075D01*
X173855255Y-82899444D01*
X173950630Y-82925000D01*
X174049370Y-82925000D01*
X174144745Y-82899444D01*
X174230255Y-82850075D01*
X174250000Y-82830330D01*
X174250000Y-83924999D01*
X174399972Y-83924999D01*
X174399986Y-83924998D01*
X174502697Y-83914505D01*
X174669119Y-83859358D01*
X174669124Y-83859356D01*
X174818345Y-83767315D01*
X174942315Y-83643345D01*
X175034356Y-83494124D01*
X175034358Y-83494119D01*
X175089505Y-83327697D01*
X175089506Y-83327690D01*
X175099999Y-83224986D01*
X175100000Y-83224973D01*
X175100000Y-82800000D01*
X174280330Y-82800000D01*
X174300075Y-82780255D01*
X174349444Y-82694745D01*
X174375000Y-82599370D01*
X174375000Y-82500630D01*
X174349444Y-82405255D01*
X174300075Y-82319745D01*
X174280330Y-82300000D01*
X175099999Y-82300000D01*
X175099999Y-81875028D01*
X175099998Y-81875013D01*
X175089505Y-81772302D01*
X175034358Y-81605880D01*
X175034356Y-81605875D01*
X174942315Y-81456654D01*
X174818345Y-81332684D01*
X174669124Y-81240643D01*
X174669119Y-81240641D01*
X174502697Y-81185494D01*
X174502690Y-81185493D01*
X174399986Y-81175000D01*
X174250000Y-81175000D01*
X174250000Y-82269670D01*
X174230255Y-82249925D01*
X174144745Y-82200556D01*
X174049370Y-82175000D01*
X173950630Y-82175000D01*
X173855255Y-82200556D01*
X173769745Y-82249925D01*
X173750000Y-82269670D01*
X173750000Y-81175000D01*
X173600027Y-81175000D01*
X173600012Y-81175001D01*
X173497302Y-81185494D01*
X173330880Y-81240641D01*
X173330875Y-81240643D01*
X173181654Y-81332684D01*
X173057684Y-81456654D01*
X173018053Y-81520907D01*
X172966105Y-81567631D01*
X172897142Y-81578853D01*
X172833060Y-81551010D01*
X172824833Y-81543491D01*
X172716930Y-81435588D01*
X172716928Y-81435586D01*
X172576788Y-81333768D01*
X172422445Y-81255127D01*
X172257701Y-81201598D01*
X172257699Y-81201597D01*
X172257698Y-81201597D01*
X172126271Y-81180781D01*
X172086611Y-81174500D01*
X171913389Y-81174500D01*
X171881192Y-81179599D01*
X171742301Y-81201597D01*
X171742297Y-81201598D01*
X171632316Y-81237333D01*
X171562475Y-81239328D01*
X171506318Y-81207083D01*
X170937590Y-80638355D01*
X170937588Y-80638352D01*
X170818717Y-80519481D01*
X170818716Y-80519480D01*
X170731904Y-80469360D01*
X170731904Y-80469359D01*
X170731900Y-80469358D01*
X170681785Y-80440423D01*
X170529057Y-80399499D01*
X170370943Y-80399499D01*
X170363347Y-80399499D01*
X170363331Y-80399500D01*
X148182940Y-80399500D01*
X148115901Y-80379815D01*
X148095263Y-80363185D01*
X148010289Y-80278211D01*
X148010288Y-80278210D01*
X148010287Y-80278209D01*
X147879185Y-80190609D01*
X147879172Y-80190602D01*
X147733501Y-80130264D01*
X147733489Y-80130261D01*
X147578845Y-80099500D01*
X147578842Y-80099500D01*
X147421158Y-80099500D01*
X147421155Y-80099500D01*
X147266510Y-80130261D01*
X147266498Y-80130264D01*
X147120827Y-80190602D01*
X147120814Y-80190609D01*
X146989711Y-80278210D01*
X146989707Y-80278213D01*
X146878213Y-80389707D01*
X146878210Y-80389711D01*
X146790609Y-80520814D01*
X146790604Y-80520824D01*
X146764624Y-80583546D01*
X146720783Y-80637949D01*
X146654488Y-80660014D01*
X146586789Y-80642735D01*
X146539179Y-80591597D01*
X146528446Y-80560284D01*
X146524286Y-80539375D01*
X146519737Y-80516503D01*
X146510455Y-80494093D01*
X146459397Y-80370827D01*
X146459390Y-80370814D01*
X146371789Y-80239711D01*
X146371786Y-80239707D01*
X146260292Y-80128213D01*
X146260288Y-80128210D01*
X146129185Y-80040609D01*
X146129172Y-80040602D01*
X145983501Y-79980264D01*
X145983489Y-79980261D01*
X145828845Y-79949500D01*
X145828842Y-79949500D01*
X145671158Y-79949500D01*
X145671155Y-79949500D01*
X145516510Y-79980261D01*
X145516498Y-79980264D01*
X145370827Y-80040602D01*
X145370814Y-80040609D01*
X145239711Y-80128210D01*
X145239707Y-80128213D01*
X145128213Y-80239707D01*
X145128210Y-80239711D01*
X145040609Y-80370814D01*
X145040602Y-80370827D01*
X144980264Y-80516498D01*
X144980261Y-80516510D01*
X144949500Y-80671153D01*
X142578771Y-80671153D01*
X142561385Y-80629179D01*
X142557926Y-80620827D01*
X142557919Y-80620814D01*
X142470318Y-80489711D01*
X142470315Y-80489707D01*
X142358821Y-80378213D01*
X142358817Y-80378210D01*
X142227714Y-80290609D01*
X142227701Y-80290602D01*
X142082030Y-80230264D01*
X142082018Y-80230261D01*
X141927374Y-80199500D01*
X141927371Y-80199500D01*
X141769687Y-80199500D01*
X141769684Y-80199500D01*
X141615039Y-80230261D01*
X141615027Y-80230264D01*
X141469356Y-80290602D01*
X141469343Y-80290609D01*
X141338240Y-80378210D01*
X141255841Y-80460609D01*
X141194517Y-80494093D01*
X141124826Y-80489109D01*
X141068892Y-80447237D01*
X141044476Y-80381772D01*
X141046543Y-80348733D01*
X141050500Y-80328841D01*
X141050500Y-80171155D01*
X141050499Y-80171153D01*
X141024531Y-80040606D01*
X141019737Y-80016503D01*
X141019735Y-80016498D01*
X140959397Y-79870827D01*
X140959390Y-79870814D01*
X140871789Y-79739711D01*
X140871786Y-79739707D01*
X140760292Y-79628213D01*
X140760288Y-79628210D01*
X140629185Y-79540609D01*
X140629172Y-79540602D01*
X140483501Y-79480264D01*
X140483489Y-79480261D01*
X140328845Y-79449500D01*
X140328842Y-79449500D01*
X140171158Y-79449500D01*
X140171155Y-79449500D01*
X140016510Y-79480261D01*
X140016498Y-79480264D01*
X139870827Y-79540602D01*
X139870814Y-79540609D01*
X139739125Y-79628602D01*
X139672447Y-79649480D01*
X139670234Y-79649500D01*
X136050097Y-79649500D01*
X135983058Y-79629815D01*
X135962416Y-79613181D01*
X134078337Y-77729102D01*
X134044852Y-77667779D01*
X134049836Y-77598087D01*
X134078337Y-77553740D01*
X134121789Y-77510289D01*
X134209394Y-77379179D01*
X134269737Y-77233497D01*
X134300500Y-77078842D01*
X134300500Y-76921158D01*
X134300500Y-76921155D01*
X134300499Y-76921153D01*
X134269737Y-76766503D01*
X134209394Y-76620821D01*
X134174694Y-76568889D01*
X134153816Y-76502215D01*
X134172300Y-76434835D01*
X134174676Y-76431136D01*
X134209394Y-76379179D01*
X134269737Y-76233497D01*
X134300500Y-76078842D01*
X134300500Y-75921158D01*
X134300500Y-75921155D01*
X134300499Y-75921153D01*
X134269737Y-75766503D01*
X134269735Y-75766498D01*
X134209397Y-75620827D01*
X134209390Y-75620814D01*
X134121789Y-75489711D01*
X134121786Y-75489707D01*
X134120885Y-75488806D01*
X134120563Y-75488217D01*
X134117924Y-75485001D01*
X134118533Y-75484500D01*
X134087400Y-75427483D01*
X134092384Y-75357791D01*
X134134256Y-75301858D01*
X134184372Y-75279508D01*
X134233497Y-75269737D01*
X134379179Y-75209394D01*
X134510289Y-75121789D01*
X134621789Y-75010289D01*
X134709394Y-74879179D01*
X134769737Y-74733497D01*
X134800500Y-74578842D01*
X134800500Y-74421158D01*
X134800500Y-74421155D01*
X134800499Y-74421153D01*
X134794206Y-74389516D01*
X134769737Y-74266503D01*
X134767089Y-74260109D01*
X134709397Y-74120827D01*
X134709390Y-74120814D01*
X134621789Y-73989711D01*
X134621786Y-73989707D01*
X134510292Y-73878213D01*
X134510288Y-73878210D01*
X134379185Y-73790609D01*
X134379172Y-73790602D01*
X134233501Y-73730264D01*
X134233489Y-73730261D01*
X134078845Y-73699500D01*
X134078842Y-73699500D01*
X133921158Y-73699500D01*
X133921155Y-73699500D01*
X133766510Y-73730261D01*
X133766498Y-73730264D01*
X133620827Y-73790602D01*
X133620814Y-73790609D01*
X133489711Y-73878210D01*
X133489707Y-73878213D01*
X133378213Y-73989707D01*
X133378210Y-73989711D01*
X133290609Y-74120814D01*
X133290602Y-74120827D01*
X133230264Y-74266498D01*
X133230261Y-74266510D01*
X133199500Y-74421153D01*
X133199500Y-74550903D01*
X133179815Y-74617942D01*
X133127011Y-74663697D01*
X133057853Y-74673641D01*
X132994297Y-74644616D01*
X132987819Y-74638584D01*
X131770388Y-73421153D01*
X165199500Y-73421153D01*
X165199500Y-73578846D01*
X165230261Y-73733489D01*
X165230264Y-73733501D01*
X165290602Y-73879172D01*
X165290609Y-73879185D01*
X165378210Y-74010288D01*
X165378213Y-74010292D01*
X165489707Y-74121786D01*
X165489711Y-74121789D01*
X165620814Y-74209390D01*
X165620827Y-74209397D01*
X165758683Y-74266498D01*
X165766503Y-74269737D01*
X165921153Y-74300499D01*
X165921156Y-74300500D01*
X165921158Y-74300500D01*
X166078844Y-74300500D01*
X166078845Y-74300499D01*
X166233497Y-74269737D01*
X166379179Y-74209394D01*
X166510289Y-74121789D01*
X166621789Y-74010289D01*
X166709394Y-73879179D01*
X166769737Y-73733497D01*
X166800500Y-73578842D01*
X166800500Y-73421158D01*
X166800500Y-73421155D01*
X166800499Y-73421153D01*
X166772092Y-73278342D01*
X166769737Y-73266503D01*
X166752450Y-73224767D01*
X166709397Y-73120827D01*
X166709390Y-73120814D01*
X166621789Y-72989711D01*
X166621786Y-72989707D01*
X166510292Y-72878213D01*
X166510288Y-72878210D01*
X166379185Y-72790609D01*
X166379172Y-72790602D01*
X166233501Y-72730264D01*
X166233489Y-72730261D01*
X166078845Y-72699500D01*
X166078842Y-72699500D01*
X165921158Y-72699500D01*
X165921155Y-72699500D01*
X165766510Y-72730261D01*
X165766498Y-72730264D01*
X165620827Y-72790602D01*
X165620814Y-72790609D01*
X165489711Y-72878210D01*
X165489707Y-72878213D01*
X165378213Y-72989707D01*
X165378210Y-72989711D01*
X165290609Y-73120814D01*
X165290602Y-73120827D01*
X165230264Y-73266498D01*
X165230261Y-73266510D01*
X165199500Y-73421153D01*
X131770388Y-73421153D01*
X125987590Y-67638355D01*
X125987588Y-67638352D01*
X125868717Y-67519481D01*
X125868716Y-67519480D01*
X125781904Y-67469360D01*
X125781904Y-67469359D01*
X125781900Y-67469358D01*
X125731785Y-67440423D01*
X125579057Y-67399499D01*
X125420943Y-67399499D01*
X125413347Y-67399499D01*
X125413331Y-67399500D01*
X122554499Y-67399500D01*
X122545813Y-67396949D01*
X122536852Y-67398238D01*
X122512811Y-67387259D01*
X122487460Y-67379815D01*
X122481532Y-67372974D01*
X122473296Y-67369213D01*
X122459006Y-67346978D01*
X122441705Y-67327011D01*
X122439417Y-67316496D01*
X122435522Y-67310435D01*
X122430499Y-67275500D01*
X122430499Y-67102135D01*
X151339500Y-67102135D01*
X151339500Y-68897870D01*
X151339501Y-68897876D01*
X151345908Y-68957483D01*
X151396202Y-69092328D01*
X151396206Y-69092335D01*
X151482452Y-69207544D01*
X151482455Y-69207547D01*
X151597664Y-69293793D01*
X151597671Y-69293797D01*
X151618354Y-69301511D01*
X151732517Y-69344091D01*
X151792127Y-69350500D01*
X151915500Y-69350499D01*
X151982539Y-69370183D01*
X152028294Y-69422987D01*
X152039500Y-69474499D01*
X152039500Y-70435931D01*
X152039500Y-70564069D01*
X152039500Y-70564071D01*
X152039499Y-70564071D01*
X152064497Y-70689738D01*
X152064499Y-70689744D01*
X152113533Y-70808124D01*
X152113538Y-70808133D01*
X152184723Y-70914668D01*
X152184726Y-70914672D01*
X152275327Y-71005273D01*
X152275331Y-71005276D01*
X152381866Y-71076461D01*
X152381872Y-71076464D01*
X152381873Y-71076465D01*
X152500256Y-71125501D01*
X152500260Y-71125501D01*
X152500261Y-71125502D01*
X152625928Y-71150500D01*
X152625931Y-71150500D01*
X157735065Y-71150500D01*
X157802104Y-71170185D01*
X157803909Y-71171366D01*
X157860821Y-71209394D01*
X157860823Y-71209395D01*
X157860827Y-71209397D01*
X158006498Y-71269735D01*
X158006503Y-71269737D01*
X158161153Y-71300499D01*
X158161156Y-71300500D01*
X158161158Y-71300500D01*
X158318844Y-71300500D01*
X158318845Y-71300499D01*
X158473497Y-71269737D01*
X158619179Y-71209394D01*
X158750289Y-71121789D01*
X158861789Y-71010289D01*
X158949394Y-70879179D01*
X159009737Y-70733497D01*
X159040500Y-70578842D01*
X159040500Y-70421158D01*
X159040500Y-70421155D01*
X159040499Y-70421153D01*
X159009738Y-70266510D01*
X159009737Y-70266503D01*
X159009735Y-70266498D01*
X158949397Y-70120827D01*
X158949390Y-70120814D01*
X158861789Y-69989711D01*
X158861786Y-69989707D01*
X158750292Y-69878213D01*
X158750288Y-69878210D01*
X158619185Y-69790609D01*
X158619172Y-69790602D01*
X158473501Y-69730264D01*
X158473489Y-69730261D01*
X158318845Y-69699500D01*
X158318842Y-69699500D01*
X158161158Y-69699500D01*
X158161155Y-69699500D01*
X158006510Y-69730261D01*
X158006498Y-69730264D01*
X157860827Y-69790602D01*
X157860820Y-69790606D01*
X157831928Y-69809911D01*
X157803955Y-69828602D01*
X157737279Y-69849480D01*
X157735065Y-69849500D01*
X153464500Y-69849500D01*
X153397461Y-69829815D01*
X153351706Y-69777011D01*
X153340500Y-69725500D01*
X153340500Y-69474499D01*
X153360185Y-69407460D01*
X153412989Y-69361705D01*
X153464500Y-69350499D01*
X153587871Y-69350499D01*
X153587872Y-69350499D01*
X153647483Y-69344091D01*
X153782331Y-69293796D01*
X153897546Y-69207546D01*
X153983796Y-69092331D01*
X154032810Y-68960916D01*
X154074681Y-68904984D01*
X154140145Y-68880566D01*
X154208418Y-68895417D01*
X154236673Y-68916569D01*
X154350213Y-69030109D01*
X154522179Y-69155048D01*
X154522181Y-69155049D01*
X154522184Y-69155051D01*
X154711588Y-69251557D01*
X154913757Y-69317246D01*
X155123713Y-69350500D01*
X155123714Y-69350500D01*
X155336286Y-69350500D01*
X155336287Y-69350500D01*
X155546243Y-69317246D01*
X155748412Y-69251557D01*
X155937816Y-69155051D01*
X156024138Y-69092335D01*
X156109786Y-69030109D01*
X156109788Y-69030106D01*
X156109792Y-69030104D01*
X156260104Y-68879792D01*
X156260106Y-68879788D01*
X156260109Y-68879786D01*
X156385048Y-68707820D01*
X156385047Y-68707820D01*
X156385051Y-68707816D01*
X156389514Y-68699054D01*
X156437488Y-68648259D01*
X156505308Y-68631463D01*
X156571444Y-68653999D01*
X156610486Y-68699056D01*
X156614951Y-68707820D01*
X156739890Y-68879786D01*
X156890213Y-69030109D01*
X157062179Y-69155048D01*
X157062181Y-69155049D01*
X157062184Y-69155051D01*
X157251588Y-69251557D01*
X157453757Y-69317246D01*
X157663713Y-69350500D01*
X157663714Y-69350500D01*
X157876286Y-69350500D01*
X157876287Y-69350500D01*
X158086243Y-69317246D01*
X158288412Y-69251557D01*
X158477816Y-69155051D01*
X158564138Y-69092335D01*
X158649786Y-69030109D01*
X158649788Y-69030106D01*
X158649792Y-69030104D01*
X158800104Y-68879792D01*
X158800106Y-68879788D01*
X158800109Y-68879786D01*
X158885890Y-68761717D01*
X158925051Y-68707816D01*
X158929793Y-68698508D01*
X158977763Y-68647711D01*
X159045583Y-68630911D01*
X159111719Y-68653445D01*
X159150763Y-68698500D01*
X159155373Y-68707547D01*
X159194728Y-68761716D01*
X159827037Y-68129408D01*
X159844075Y-68192993D01*
X159909901Y-68307007D01*
X160002993Y-68400099D01*
X160117007Y-68465925D01*
X160180590Y-68482962D01*
X159548282Y-69115269D01*
X159548282Y-69115270D01*
X159602449Y-69154624D01*
X159791782Y-69251095D01*
X159993870Y-69316757D01*
X160203754Y-69350000D01*
X160416246Y-69350000D01*
X160626127Y-69316757D01*
X160626130Y-69316757D01*
X160828217Y-69251095D01*
X161017554Y-69154622D01*
X161071716Y-69115270D01*
X161071717Y-69115270D01*
X160439408Y-68482962D01*
X160502993Y-68465925D01*
X160617007Y-68400099D01*
X160710099Y-68307007D01*
X160775925Y-68192993D01*
X160792962Y-68129409D01*
X161425270Y-68761717D01*
X161425270Y-68761716D01*
X161464622Y-68707554D01*
X161561095Y-68518217D01*
X161626757Y-68316130D01*
X161626757Y-68316127D01*
X161660000Y-68106246D01*
X161660000Y-67893753D01*
X161626757Y-67683872D01*
X161626757Y-67683869D01*
X161561095Y-67481782D01*
X161464624Y-67292449D01*
X161425270Y-67238282D01*
X161425269Y-67238282D01*
X160792962Y-67870590D01*
X160775925Y-67807007D01*
X160710099Y-67692993D01*
X160617007Y-67599901D01*
X160502993Y-67534075D01*
X160439409Y-67517037D01*
X161071716Y-66884728D01*
X161017550Y-66845375D01*
X160828217Y-66748904D01*
X160626129Y-66683242D01*
X160416246Y-66650000D01*
X160203754Y-66650000D01*
X159993872Y-66683242D01*
X159993869Y-66683242D01*
X159791782Y-66748904D01*
X159602439Y-66845380D01*
X159548282Y-66884727D01*
X159548282Y-66884728D01*
X160180591Y-67517037D01*
X160117007Y-67534075D01*
X160002993Y-67599901D01*
X159909901Y-67692993D01*
X159844075Y-67807007D01*
X159827037Y-67870591D01*
X159194728Y-67238282D01*
X159194727Y-67238282D01*
X159155380Y-67292440D01*
X159155376Y-67292446D01*
X159150760Y-67301505D01*
X159102781Y-67352297D01*
X159034959Y-67369087D01*
X158968826Y-67346543D01*
X158929794Y-67301493D01*
X158925051Y-67292184D01*
X158925049Y-67292181D01*
X158925048Y-67292179D01*
X158800109Y-67120213D01*
X158649786Y-66969890D01*
X158477820Y-66844951D01*
X158288414Y-66748444D01*
X158288413Y-66748443D01*
X158288412Y-66748443D01*
X158086243Y-66682754D01*
X158086241Y-66682753D01*
X158086240Y-66682753D01*
X157924957Y-66657208D01*
X157876287Y-66649500D01*
X157663713Y-66649500D01*
X157615042Y-66657208D01*
X157453760Y-66682753D01*
X157251585Y-66748444D01*
X157062179Y-66844951D01*
X156890213Y-66969890D01*
X156739890Y-67120213D01*
X156614949Y-67292182D01*
X156610484Y-67300946D01*
X156562509Y-67351742D01*
X156494688Y-67368536D01*
X156428553Y-67345998D01*
X156389516Y-67300946D01*
X156385050Y-67292182D01*
X156260109Y-67120213D01*
X156109786Y-66969890D01*
X155937820Y-66844951D01*
X155748414Y-66748444D01*
X155748413Y-66748443D01*
X155748412Y-66748443D01*
X155546243Y-66682754D01*
X155546241Y-66682753D01*
X155546240Y-66682753D01*
X155384957Y-66657208D01*
X155336287Y-66649500D01*
X155123713Y-66649500D01*
X155075042Y-66657208D01*
X154913760Y-66682753D01*
X154711585Y-66748444D01*
X154522179Y-66844951D01*
X154350215Y-66969889D01*
X154236673Y-67083431D01*
X154175350Y-67116915D01*
X154105658Y-67111931D01*
X154049725Y-67070059D01*
X154032810Y-67039082D01*
X153983797Y-66907671D01*
X153983793Y-66907664D01*
X153897547Y-66792455D01*
X153897544Y-66792452D01*
X153782335Y-66706206D01*
X153782328Y-66706202D01*
X153647482Y-66655908D01*
X153647483Y-66655908D01*
X153587883Y-66649501D01*
X153587881Y-66649500D01*
X153587873Y-66649500D01*
X153587864Y-66649500D01*
X151792129Y-66649500D01*
X151792123Y-66649501D01*
X151732516Y-66655908D01*
X151597671Y-66706202D01*
X151597664Y-66706206D01*
X151482455Y-66792452D01*
X151482452Y-66792455D01*
X151396206Y-66907664D01*
X151396202Y-66907671D01*
X151345908Y-67042517D01*
X151339501Y-67102116D01*
X151339500Y-67102135D01*
X122430499Y-67102135D01*
X122430499Y-67102130D01*
X122430498Y-67102122D01*
X122430497Y-67102116D01*
X122424091Y-67042517D01*
X122422810Y-67039083D01*
X122373797Y-66907671D01*
X122373793Y-66907664D01*
X122287547Y-66792455D01*
X122287544Y-66792452D01*
X122172335Y-66706206D01*
X122172328Y-66706202D01*
X122037482Y-66655908D01*
X122037483Y-66655908D01*
X121977883Y-66649501D01*
X121977881Y-66649500D01*
X121977873Y-66649500D01*
X121977864Y-66649500D01*
X120182129Y-66649500D01*
X120182123Y-66649501D01*
X120122516Y-66655908D01*
X119987671Y-66706202D01*
X119987664Y-66706206D01*
X119872455Y-66792452D01*
X119872452Y-66792455D01*
X119786206Y-66907664D01*
X119786203Y-66907669D01*
X119737189Y-67039083D01*
X119695317Y-67095016D01*
X119629853Y-67119433D01*
X119561580Y-67104581D01*
X119533326Y-67083430D01*
X119419786Y-66969890D01*
X119247820Y-66844951D01*
X119058414Y-66748444D01*
X119058413Y-66748443D01*
X119058412Y-66748443D01*
X118856243Y-66682754D01*
X118856241Y-66682753D01*
X118856240Y-66682753D01*
X118694957Y-66657208D01*
X118646287Y-66649500D01*
X118433713Y-66649500D01*
X118385042Y-66657208D01*
X118223760Y-66682753D01*
X118021585Y-66748444D01*
X117832179Y-66844951D01*
X117660213Y-66969890D01*
X117509890Y-67120213D01*
X117384949Y-67292182D01*
X117380484Y-67300946D01*
X117332509Y-67351742D01*
X117264688Y-67368536D01*
X117198553Y-67345998D01*
X117159516Y-67300946D01*
X117155050Y-67292182D01*
X117030109Y-67120213D01*
X116879786Y-66969890D01*
X116707820Y-66844951D01*
X116518414Y-66748444D01*
X116518413Y-66748443D01*
X116518412Y-66748443D01*
X116316243Y-66682754D01*
X116316241Y-66682753D01*
X116316240Y-66682753D01*
X116154957Y-66657208D01*
X116106287Y-66649500D01*
X115893713Y-66649500D01*
X115845042Y-66657208D01*
X115683760Y-66682753D01*
X115481585Y-66748444D01*
X115292179Y-66844951D01*
X115120213Y-66969890D01*
X114969890Y-67120213D01*
X114844949Y-67292182D01*
X114840484Y-67300946D01*
X114792509Y-67351742D01*
X114724688Y-67368536D01*
X114658553Y-67345998D01*
X114619516Y-67300946D01*
X114615050Y-67292182D01*
X114490109Y-67120213D01*
X114339786Y-66969890D01*
X114167820Y-66844951D01*
X113978414Y-66748444D01*
X113978413Y-66748443D01*
X113978412Y-66748443D01*
X113776243Y-66682754D01*
X113776241Y-66682753D01*
X113776240Y-66682753D01*
X113614957Y-66657208D01*
X113566287Y-66649500D01*
X113353713Y-66649500D01*
X113305042Y-66657208D01*
X113143760Y-66682753D01*
X112941585Y-66748444D01*
X112752179Y-66844951D01*
X112580213Y-66969890D01*
X112429890Y-67120213D01*
X112304949Y-67292182D01*
X112300202Y-67301499D01*
X112252227Y-67352293D01*
X112184405Y-67369087D01*
X112118271Y-67346548D01*
X112079234Y-67301495D01*
X112074626Y-67292452D01*
X112035270Y-67238282D01*
X112035269Y-67238282D01*
X111402962Y-67870590D01*
X111385925Y-67807007D01*
X111320099Y-67692993D01*
X111227007Y-67599901D01*
X111112993Y-67534075D01*
X111049409Y-67517037D01*
X111681716Y-66884728D01*
X111627550Y-66845375D01*
X111438217Y-66748904D01*
X111236129Y-66683242D01*
X111026246Y-66650000D01*
X110813754Y-66650000D01*
X110603872Y-66683242D01*
X110603869Y-66683242D01*
X110401782Y-66748904D01*
X110212439Y-66845380D01*
X110158282Y-66884727D01*
X110158282Y-66884728D01*
X110790591Y-67517037D01*
X110727007Y-67534075D01*
X110612993Y-67599901D01*
X110519901Y-67692993D01*
X110454075Y-67807007D01*
X110437037Y-67870591D01*
X109804728Y-67238282D01*
X109804727Y-67238282D01*
X109765380Y-67292439D01*
X109668904Y-67481782D01*
X109603242Y-67683869D01*
X109603242Y-67683872D01*
X109570000Y-67893753D01*
X109570000Y-68106246D01*
X109603242Y-68316127D01*
X109603242Y-68316130D01*
X109668904Y-68518217D01*
X109765375Y-68707550D01*
X109804728Y-68761716D01*
X110437037Y-68129408D01*
X110454075Y-68192993D01*
X110519901Y-68307007D01*
X110612993Y-68400099D01*
X110727007Y-68465925D01*
X110790590Y-68482962D01*
X110158282Y-69115269D01*
X110158282Y-69115270D01*
X110212449Y-69154624D01*
X110401782Y-69251095D01*
X110603870Y-69316757D01*
X110813754Y-69350000D01*
X111026246Y-69350000D01*
X111236127Y-69316757D01*
X111236130Y-69316757D01*
X111438217Y-69251095D01*
X111627554Y-69154622D01*
X111681716Y-69115270D01*
X111681717Y-69115270D01*
X111049408Y-68482962D01*
X111112993Y-68465925D01*
X111227007Y-68400099D01*
X111320099Y-68307007D01*
X111385925Y-68192993D01*
X111402962Y-68129408D01*
X112035270Y-68761717D01*
X112035270Y-68761716D01*
X112074622Y-68707555D01*
X112079232Y-68698507D01*
X112127205Y-68647709D01*
X112195025Y-68630912D01*
X112261161Y-68653447D01*
X112300204Y-68698504D01*
X112304949Y-68707817D01*
X112429890Y-68879786D01*
X112580213Y-69030109D01*
X112752179Y-69155048D01*
X112752181Y-69155049D01*
X112752184Y-69155051D01*
X112941588Y-69251557D01*
X113143757Y-69317246D01*
X113353713Y-69350500D01*
X113353714Y-69350500D01*
X113566286Y-69350500D01*
X113566287Y-69350500D01*
X113776243Y-69317246D01*
X113818523Y-69303507D01*
X113888362Y-69301511D01*
X113944522Y-69333757D01*
X115148584Y-70537819D01*
X115182069Y-70599142D01*
X115177085Y-70668834D01*
X115135213Y-70724767D01*
X115069749Y-70749184D01*
X115060903Y-70749500D01*
X114362230Y-70749500D01*
X114295191Y-70729815D01*
X114274549Y-70713181D01*
X113668413Y-70107045D01*
X113619179Y-70074150D01*
X113586355Y-70052218D01*
X113545495Y-70024916D01*
X113545494Y-70024915D01*
X113545492Y-70024914D01*
X113545490Y-70024913D01*
X113408917Y-69968343D01*
X113408907Y-69968340D01*
X113263920Y-69939500D01*
X113263918Y-69939500D01*
X92974499Y-69939500D01*
X92907460Y-69919815D01*
X92861705Y-69867011D01*
X92850499Y-69815500D01*
X92850499Y-69792129D01*
X92850498Y-69792123D01*
X92850497Y-69792116D01*
X92844091Y-69732517D01*
X92843250Y-69730263D01*
X92793797Y-69597671D01*
X92793793Y-69597664D01*
X92707547Y-69482455D01*
X92707544Y-69482452D01*
X92592335Y-69396206D01*
X92592328Y-69396202D01*
X92457482Y-69345908D01*
X92457483Y-69345908D01*
X92397883Y-69339501D01*
X92397881Y-69339500D01*
X92397873Y-69339500D01*
X92397864Y-69339500D01*
X90602129Y-69339500D01*
X90602123Y-69339501D01*
X90542516Y-69345908D01*
X90407671Y-69396202D01*
X90407664Y-69396206D01*
X90292455Y-69482452D01*
X90292452Y-69482455D01*
X90206206Y-69597664D01*
X90206202Y-69597671D01*
X90155908Y-69732517D01*
X90149663Y-69790609D01*
X90149501Y-69792123D01*
X90149500Y-69792135D01*
X85090000Y-69792135D01*
X85090000Y-66524000D01*
X85109685Y-66456961D01*
X85162489Y-66411206D01*
X85214000Y-66400000D01*
X179876000Y-66400000D01*
X179943039Y-66419685D01*
G37*
%TD.AperFunction*%
%TD*%
M02*
