M48
; DRILL file KiCad 10.0.1 date 2026-05-07T12:10:56
; FORMAT={-:-/ absolute / metric / decimal}
; #@! TF.CreationDate,2026-05-07T12:10:56+08:00
; #@! TF.GenerationSoftware,Kicad,Pcbnew,10.0.1
; #@! TF.FileFunction,Plated,1,4,PTH
FMAT,2
METRIC
; #@! TA.AperFunction,Plated,PTH,ViaDrill
T1C0.300
; #@! TA.AperFunction,Plated,PTH,ComponentDrill
T2C0.600
; #@! TA.AperFunction,Plated,PTH,ComponentDrill
T3C0.750
; #@! TA.AperFunction,Plated,PTH,ComponentDrill
T4C1.000
; #@! TA.AperFunction,Plated,PTH,ComponentDrill
T5C1.100
; #@! TA.AperFunction,Plated,PTH,ComponentDrill
T6C1.300
; #@! TA.AperFunction,Plated,PTH,ViaDrill
T7C3.000
%
G90
G05
T1
X91.0Y-89.0
X95.0Y-89.0
X97.0Y-88.0
X98.0Y-120.25
X98.0Y-123.5
X98.0Y-126.5
X99.0Y-89.0
X101.5Y-120.25
X101.5Y-126.5
X105.25Y-120.25
X105.25Y-123.5
X105.25Y-126.5
X120.78Y-87.44
X121.0Y-104.5
X122.5Y-124.5
X125.5Y-99.5
X125.5Y-105.0
X125.5Y-124.5
X127.67Y-111.39
X128.0Y-74.0
X129.0Y-124.5
X130.5Y-117.0
X130.5Y-118.5
X131.5Y-83.0
X131.5Y-85.0
X132.0Y-111.5
X132.35Y-72.09
X132.362Y-91.638
X132.5Y-80.5
X132.5Y-121.0
X132.5Y-124.5
X133.5Y-76.0
X133.5Y-77.0
X134.0Y-69.5
X134.0Y-74.5
X134.0Y-80.5
X134.5Y-109.22
X135.0Y-92.5
X135.924Y-79.576
X136.0Y-132.0
X136.0Y-133.0
X136.0Y-134.0
X136.5Y-92.5
X136.96Y-109.22
X138.5Y-79.5
X139.25Y-105.75
X139.5Y-117.5
X139.825Y-71.5
X139.825Y-73.475
X139.825Y-75.45
X139.9Y-81.0
X140.25Y-80.25
X141.5Y-82.0
X141.5Y-86.5
X141.8Y-71.5
X141.8Y-73.475
X141.8Y-75.45
X141.849Y-81.0
X142.0Y-105.5
X142.0Y-126.6
X142.0Y-127.4
X142.5Y-86.5
X143.0Y-126.6
X143.0Y-127.4
X143.775Y-71.5
X143.775Y-73.475
X143.775Y-75.45
X144.0Y-100.5
X144.1Y-125.0
X144.1Y-125.8
X144.1Y-126.6
X144.1Y-127.4
X145.1Y-125.0
X145.1Y-125.8
X145.1Y-126.6
X145.1Y-127.4
X145.75Y-80.75
X146.1Y-126.6
X146.1Y-127.4
X146.52Y-122.88
X147.1Y-126.6
X147.1Y-127.4
X147.5Y-80.9
X147.58Y-124.93
X147.98Y-89.0
X149.0Y-71.5
X149.0Y-78.5
X149.0Y-108.0
X149.0Y-126.52
X150.24Y-115.08
X150.49Y-126.5
X150.85Y-129.72
X151.5Y-129.72
X152.15Y-129.726
X153.0Y-125.99
X153.5Y-129.72
X154.5Y-121.5
X154.5Y-122.5
X154.5Y-123.5
X154.5Y-126.5
X154.5Y-127.5
X154.5Y-128.5
X155.0Y-91.5
X155.0Y-97.0
X155.5Y-121.5
X155.5Y-122.5
X155.5Y-123.5
X155.5Y-126.5
X155.5Y-127.5
X155.5Y-128.5
X156.5Y-106.5
X156.5Y-121.5
X156.5Y-122.5
X156.5Y-123.5
X156.5Y-126.5
X156.5Y-127.5
X156.5Y-128.5
X157.296Y-106.424
X157.5Y-121.5
X157.5Y-122.5
X157.5Y-123.5
X157.5Y-126.5
X157.5Y-127.5
X157.5Y-128.5
X158.24Y-70.5
X158.5Y-126.5
X158.5Y-127.5
X158.5Y-128.5
X158.934Y-97.066
X159.5Y-96.5
X160.0Y-102.0
X163.5Y-108.0
X164.0Y-118.5
X164.0Y-123.0
X164.259Y-107.747
X164.4Y-105.4
X164.6Y-117.934
X165.0Y-104.149
X165.0Y-107.0
X166.0Y-73.5
X166.5Y-87.5
X167.0Y-96.0
X168.5Y-117.5
X169.0Y-126.0
X170.5Y-117.5
X170.62Y-119.55
X172.1Y-117.0
X172.1Y-121.0
X172.5Y-126.5
X172.742Y-119.426
X173.0Y-125.0
X173.0Y-130.97
X173.3Y-121.7
X173.825Y-126.5
X175.0Y-99.0
X177.5Y-127.5
X178.5Y-127.5
X179.5Y-127.5
T3
X172.0Y-82.55
X174.0Y-82.55
T4
X91.5Y-70.69
X91.5Y-73.23
X91.5Y-75.77
X91.5Y-78.31
X110.92Y-68.0
X113.46Y-68.0
X116.0Y-68.0
X118.54Y-68.0
X121.08Y-68.0
X152.69Y-68.0
X155.23Y-68.0
X157.77Y-68.0
X160.31Y-68.0
T5
X90.0Y-98.5
X90.0Y-101.04
X90.0Y-103.58
X90.0Y-106.12
X95.0Y-98.5
X95.0Y-101.04
X95.0Y-103.58
X95.0Y-106.12
T6
X103.782Y-87.117
X103.782Y-104.117
X115.983Y-87.117
X115.983Y-99.117
X115.983Y-104.117
X115.983Y-116.117
X117.983Y-93.117
X117.983Y-110.117
T7
X101.5Y-123.5
X101.5Y-131.5
T2
G00X168.68Y-129.445
M15
G01X168.68Y-130.544
M16
G05
G00X168.68Y-133.874
M15
G01X168.68Y-134.475
M16
G05
G00X177.32Y-129.445
M15
G01X177.32Y-130.544
M16
G05
G00X177.32Y-133.874
M15
G01X177.32Y-134.475
M16
G05
M30
