%TF.GenerationSoftware,KiCad,Pcbnew,10.0.1*%
%TF.CreationDate,2026-05-07T12:10:43+08:00*%
%TF.ProjectId,EnvDaqBox,456e7644-6171-4426-9f78-2e6b69636164,v0.0.1*%
%TF.SameCoordinates,Original*%
%TF.FileFunction,Copper,L2,Inr*%
%TF.FilePolarity,Positive*%
%FSLAX46Y46*%
G04 Gerber Fmt 4.6, Leading zero omitted, Abs format (unit mm)*
G04 Created by KiCad (PCBNEW 10.0.1) date 2026-05-07 12:10:43*
%MOMM*%
%LPD*%
G01*
G04 APERTURE LIST*
G04 Aperture macros list*
%AMRoundRect*
0 Rectangle with rounded corners*
0 $1 Rounding radius*
0 $2 $3 $4 $5 $6 $7 $8 $9 X,Y pos of 4 corners*
0 Add a 4 corners polygon primitive as box body*
4,1,4,$2,$3,$4,$5,$6,$7,$8,$9,$2,$3,0*
0 Add four circle primitives for the rounded corners*
1,1,$1+$1,$2,$3*
1,1,$1+$1,$4,$5*
1,1,$1+$1,$6,$7*
1,1,$1+$1,$8,$9*
0 Add four rect primitives between the rounded corners*
20,1,$1+$1,$2,$3,$4,$5,0*
20,1,$1+$1,$4,$5,$6,$7,0*
20,1,$1+$1,$6,$7,$8,$9,0*
20,1,$1+$1,$8,$9,$2,$3,0*%
G04 Aperture macros list end*
%TA.AperFunction,Conductor*%
%ADD10C,0.200000*%
%TD*%
%TA.AperFunction,ComponentPad*%
%ADD11C,2.500000*%
%TD*%
%TA.AperFunction,ComponentPad*%
%ADD12RoundRect,0.250000X1.000000X1.000000X-1.000000X1.000000X-1.000000X-1.000000X1.000000X-1.000000X0*%
%TD*%
%TA.AperFunction,ComponentPad*%
%ADD13RoundRect,0.250000X-1.350000X0.650000X-1.350000X-0.650000X1.350000X-0.650000X1.350000X0.650000X0*%
%TD*%
%TA.AperFunction,ComponentPad*%
%ADD14O,3.200000X1.800000*%
%TD*%
%TA.AperFunction,ComponentPad*%
%ADD15O,1.000000X2.100000*%
%TD*%
%TA.AperFunction,ComponentPad*%
%ADD16O,1.000000X1.600000*%
%TD*%
%TA.AperFunction,ComponentPad*%
%ADD17R,1.700000X1.700000*%
%TD*%
%TA.AperFunction,ComponentPad*%
%ADD18C,1.700000*%
%TD*%
%TA.AperFunction,ComponentPad*%
%ADD19RoundRect,0.250000X0.350000X0.625000X-0.350000X0.625000X-0.350000X-0.625000X0.350000X-0.625000X0*%
%TD*%
%TA.AperFunction,ComponentPad*%
%ADD20O,1.200000X1.750000*%
%TD*%
%TA.AperFunction,ViaPad*%
%ADD21C,0.600000*%
%TD*%
%TA.AperFunction,Conductor*%
%ADD22C,0.300000*%
%TD*%
G04 APERTURE END LIST*
D10*
%TO.N,GNDA*%
X153000000Y-129000000D02*
X149000000Y-129000000D01*
X149000000Y-122500000D01*
X153000000Y-122500000D01*
X153000000Y-129000000D01*
%TA.AperFunction,Conductor*%
G36*
X153000000Y-129000000D02*
G01*
X149000000Y-129000000D01*
X149000000Y-122500000D01*
X153000000Y-122500000D01*
X153000000Y-129000000D01*
G37*
%TD.AperFunction*%
%TD*%
D11*
%TO.N,Net-(F5-Pad1)*%
%TO.C,K1*%
X117982500Y-93117500D03*
%TO.N,VCC_12V*%
X103782500Y-87117500D03*
D12*
%TO.N,VCC_5V*%
X115982500Y-99117500D03*
D11*
%TO.N,Net-(D3-A)*%
X115982500Y-87117500D03*
%TD*%
D13*
%TO.N,/QO1*%
%TO.C,J1*%
X95000000Y-98500000D03*
X90000000Y-98500000D03*
D14*
%TO.N,GND*%
X95000000Y-101040000D03*
X90000000Y-101040000D03*
%TO.N,/QO2*%
X95000000Y-103580000D03*
X90000000Y-103580000D03*
%TO.N,GND*%
X95000000Y-106120000D03*
X90000000Y-106120000D03*
%TD*%
D11*
%TO.N,Net-(F4-Pad1)*%
%TO.C,K2*%
X117982500Y-110117500D03*
%TO.N,VCC_12V*%
X103782500Y-104117500D03*
D12*
%TO.N,VCC_5V*%
X115982500Y-116117500D03*
D11*
%TO.N,Net-(D4-A)*%
X115982500Y-104117500D03*
%TD*%
D15*
%TO.N,GND*%
%TO.C,P1*%
X168680000Y-129994500D03*
D16*
X168680000Y-134174500D03*
D15*
X177320000Y-129994500D03*
D16*
X177320000Y-134174500D03*
%TD*%
D17*
%TO.N,/TMS*%
%TO.C,J3*%
X121080000Y-68000000D03*
D18*
%TO.N,/TDI*%
X118540000Y-68000000D03*
%TO.N,/TDO{slash}I2C_SCL*%
X116000000Y-68000000D03*
%TO.N,/TCK{slash}I2C_SDA*%
X113460000Y-68000000D03*
%TO.N,GND*%
X110920000Y-68000000D03*
%TD*%
D19*
%TO.N,GND*%
%TO.C,J2*%
X174000000Y-82550000D03*
D20*
%TO.N,Net-(J2-Pin_2)*%
X172000000Y-82550000D03*
%TD*%
D17*
%TO.N,VCC_3V3*%
%TO.C,J4*%
X152690000Y-68000000D03*
D18*
%TO.N,Net-(J4-Pin_2)*%
X155230000Y-68000000D03*
%TO.N,Net-(J4-Pin_3)*%
X157770000Y-68000000D03*
%TO.N,GND*%
X160310000Y-68000000D03*
%TD*%
D17*
%TO.N,VCC_3V3*%
%TO.C,J5*%
X91500000Y-70690000D03*
D18*
%TO.N,/TCK{slash}I2C_SDA*%
X91500000Y-73230000D03*
%TO.N,/TDO{slash}I2C_SCL*%
X91500000Y-75770000D03*
%TO.N,GND*%
X91500000Y-78310000D03*
%TD*%
D21*
%TO.N,VCC_12V*%
X127670000Y-111390000D03*
X132000000Y-111500000D03*
%TO.N,GND*%
X138500000Y-79500000D03*
X177500000Y-127500000D03*
X154500000Y-126500000D03*
X145100000Y-125000000D03*
X132500000Y-121000000D03*
X105250000Y-123500000D03*
X139825000Y-71500000D03*
X145100000Y-125800000D03*
X158500000Y-126500000D03*
X135000000Y-92500000D03*
X101500000Y-126500000D03*
X178500000Y-127500000D03*
X165000000Y-107000000D03*
X144100000Y-127400000D03*
X143775000Y-75450000D03*
X154500000Y-122500000D03*
X147100000Y-127400000D03*
X157500000Y-121500000D03*
X134000000Y-80500000D03*
X136960000Y-109220000D03*
X170500000Y-117500000D03*
X101500000Y-120250000D03*
X141800000Y-73475000D03*
X160000000Y-102000000D03*
X156500000Y-121500000D03*
X131500000Y-85000000D03*
X155500000Y-123500000D03*
X98000000Y-126500000D03*
X132500000Y-80500000D03*
X134500000Y-109220000D03*
X121000000Y-104500000D03*
X156500000Y-127500000D03*
X149000000Y-78500000D03*
X142000000Y-127400000D03*
X141800000Y-75450000D03*
X158500000Y-127500000D03*
X156500000Y-128500000D03*
X154500000Y-128500000D03*
X155500000Y-126500000D03*
X136500000Y-92500000D03*
X129000000Y-124500000D03*
X141800000Y-71500000D03*
X144000000Y-100500000D03*
X142000000Y-105500000D03*
X122500000Y-124500000D03*
X157500000Y-127500000D03*
X157500000Y-128500000D03*
X155500000Y-127500000D03*
X153500000Y-129720001D03*
X144100000Y-125000000D03*
X179500000Y-127500000D03*
X156500000Y-126500000D03*
X142000000Y-126600000D03*
X149000000Y-71500000D03*
X146100000Y-127400000D03*
X154500000Y-127500000D03*
X147100000Y-126600000D03*
X145100000Y-127400000D03*
X143000000Y-127400000D03*
X105250000Y-126500000D03*
X143775000Y-73475000D03*
X172100000Y-117000000D03*
X154500000Y-123500000D03*
X139825000Y-75450000D03*
X157500000Y-123500000D03*
X130500000Y-117000000D03*
X156500000Y-123500000D03*
X170620000Y-119550000D03*
X154500000Y-121500000D03*
X98000000Y-123500000D03*
X134000000Y-69500000D03*
X125500000Y-124500000D03*
X139500000Y-117500000D03*
X144100000Y-125800000D03*
X105250000Y-120250000D03*
X98000000Y-120250000D03*
X175000000Y-99000000D03*
X157500000Y-126500000D03*
X156500000Y-122500000D03*
X145100000Y-126600000D03*
X155500000Y-128500000D03*
X120780000Y-87440000D03*
X135924265Y-79575735D03*
X130500000Y-118500000D03*
X132500000Y-124500000D03*
X158500000Y-128500000D03*
X155500000Y-122500000D03*
X146100000Y-126600000D03*
X139825000Y-73475000D03*
X155500000Y-121500000D03*
X157500000Y-122500000D03*
X132350000Y-72090000D03*
X143000000Y-126600000D03*
X143775000Y-71500000D03*
X144100000Y-126600000D03*
X131500000Y-83000000D03*
%TO.N,Net-(C10-Pad1)*%
X136000000Y-132000000D03*
X136000000Y-134000000D03*
X136000000Y-133000000D03*
X146520000Y-122880000D03*
%TO.N,Net-(U6-EN)*%
X134000000Y-74500000D03*
X166000000Y-73500000D03*
%TO.N,Net-(D6-K)*%
X145750000Y-80750000D03*
X166500000Y-87500000D03*
%TO.N,VCC_5V*%
X139250000Y-105750000D03*
X167000000Y-96000000D03*
X125500000Y-99500000D03*
X125500000Y-105000000D03*
%TO.N,VBUS*%
X169000000Y-126000000D03*
X164000000Y-123000000D03*
X173000000Y-130970000D03*
X172742436Y-119426090D03*
%TO.N,GNDA*%
X149000000Y-126520000D03*
X150490000Y-126500000D03*
X153000000Y-125990000D03*
%TO.N,/ESP32USB_N*%
X141500000Y-82000000D03*
X158934313Y-97065687D03*
%TO.N,/ESP32USB_P*%
X159500000Y-96500000D03*
X141848529Y-81000000D03*
%TO.N,VCC_3V3*%
X132362500Y-91637500D03*
X155000000Y-91500000D03*
X158240000Y-70500000D03*
X155000000Y-97000000D03*
X128000000Y-74000000D03*
X147980000Y-89000000D03*
%TO.N,Net-(U4-PG)*%
X147580000Y-124930000D03*
X149000000Y-108000000D03*
%TO.N,/TCK{slash}I2C_SDA*%
X139900000Y-81000000D03*
%TO.N,/TDO{slash}I2C_SCL*%
X140250000Y-80250000D03*
%TO.N,Net-(J2-Pin_2)*%
X147500000Y-80900000D03*
%TO.N,Net-(U4-EN)*%
X150240000Y-115080000D03*
%TO.N,Net-(U1-CFG2{slash}SCL)*%
X142500000Y-86500000D03*
%TO.N,Net-(U1-CFG3{slash}SDA)*%
X141500000Y-86500000D03*
%TD*%
%TO.N,VCC_5V*%
D22*
X145000000Y-104500000D02*
X147000000Y-104500000D01*
X145000000Y-104500000D02*
X140500000Y-104500000D01*
X165000000Y-99500000D02*
X167000000Y-97500000D01*
X152000000Y-99500000D02*
X165000000Y-99500000D01*
X167000000Y-97500000D02*
X167000000Y-96000000D01*
X140500000Y-104500000D02*
X139250000Y-105750000D01*
X147000000Y-104500000D02*
X152000000Y-99500000D01*
%TO.N,GNDA*%
D10*
X149000000Y-126520000D02*
X149500000Y-126020000D01*
X153000000Y-125990000D02*
X151000000Y-125990000D01*
X149500000Y-126020000D02*
X150010000Y-126020000D01*
X150010000Y-126020000D02*
X150490000Y-126500000D01*
X151000000Y-125990000D02*
X150490000Y-126500000D01*
%TO.N,VCC_3V3*%
D22*
X147980000Y-89000000D02*
X151120000Y-89000000D01*
X152690000Y-87430000D02*
X152690000Y-68000000D01*
X151120000Y-89000000D02*
X152690000Y-87430000D01*
%TD*%
M02*
