%TF.GenerationSoftware,KiCad,Pcbnew,10.0.1*%
%TF.CreationDate,2026-05-06T20:33:46+08:00*%
%TF.ProjectId,EnvDaqBox,456e7644-6171-4426-9f78-2e6b69636164,v0.0.1*%
%TF.SameCoordinates,Original*%
%TF.FileFunction,Drillmap*%
%TF.FilePolarity,Positive*%
%FSLAX45Y45*%
G04 Gerber Fmt 4.5, Leading zero omitted, Abs format (unit mm)*
G04 Created by KiCad (PCBNEW 10.0.1) date 2026-05-06 20:33:46*
%MOMM*%
%LPD*%
G01*
G04 APERTURE LIST*
%ADD10C,0.100000*%
%ADD11C,0.200000*%
G04 APERTURE END LIST*
D10*
X8450000Y-6575000D02*
X18075000Y-6575000D01*
X18075000Y-13675000D01*
X8450000Y-13675000D01*
X8450000Y-6575000D01*
D11*
D10*
X14885000Y-12587000D02*
X14915000Y-12617000D01*
X14915000Y-12587000D02*
X14885000Y-12617000D01*
X15034000Y-12635000D02*
X15064000Y-12665000D01*
X15064000Y-12635000D02*
X15034000Y-12665000D01*
X15285000Y-12584000D02*
X15315000Y-12614000D01*
X15315000Y-12584000D02*
X15285000Y-12614000D01*
D11*
X8705777Y-13991484D02*
X8705777Y-13791484D01*
X8705777Y-13791484D02*
X8753396Y-13791484D01*
X8753396Y-13791484D02*
X8781967Y-13801008D01*
X8781967Y-13801008D02*
X8801015Y-13820055D01*
X8801015Y-13820055D02*
X8810539Y-13839103D01*
X8810539Y-13839103D02*
X8820063Y-13877198D01*
X8820063Y-13877198D02*
X8820063Y-13905769D01*
X8820063Y-13905769D02*
X8810539Y-13943865D01*
X8810539Y-13943865D02*
X8801015Y-13962912D01*
X8801015Y-13962912D02*
X8781967Y-13981960D01*
X8781967Y-13981960D02*
X8753396Y-13991484D01*
X8753396Y-13991484D02*
X8705777Y-13991484D01*
X8905777Y-13991484D02*
X8905777Y-13858150D01*
X8905777Y-13896246D02*
X8915301Y-13877198D01*
X8915301Y-13877198D02*
X8924824Y-13867674D01*
X8924824Y-13867674D02*
X8943872Y-13858150D01*
X8943872Y-13858150D02*
X8962920Y-13858150D01*
X9029586Y-13991484D02*
X9029586Y-13858150D01*
X9029586Y-13791484D02*
X9020063Y-13801008D01*
X9020063Y-13801008D02*
X9029586Y-13810531D01*
X9029586Y-13810531D02*
X9039110Y-13801008D01*
X9039110Y-13801008D02*
X9029586Y-13791484D01*
X9029586Y-13791484D02*
X9029586Y-13810531D01*
X9153396Y-13991484D02*
X9134348Y-13981960D01*
X9134348Y-13981960D02*
X9124824Y-13962912D01*
X9124824Y-13962912D02*
X9124824Y-13791484D01*
X9258158Y-13991484D02*
X9239110Y-13981960D01*
X9239110Y-13981960D02*
X9229586Y-13962912D01*
X9229586Y-13962912D02*
X9229586Y-13791484D01*
X9486729Y-13991484D02*
X9486729Y-13791484D01*
X9486729Y-13791484D02*
X9553396Y-13934341D01*
X9553396Y-13934341D02*
X9620063Y-13791484D01*
X9620063Y-13791484D02*
X9620063Y-13991484D01*
X9801015Y-13991484D02*
X9801015Y-13886722D01*
X9801015Y-13886722D02*
X9791491Y-13867674D01*
X9791491Y-13867674D02*
X9772444Y-13858150D01*
X9772444Y-13858150D02*
X9734348Y-13858150D01*
X9734348Y-13858150D02*
X9715301Y-13867674D01*
X9801015Y-13981960D02*
X9781967Y-13991484D01*
X9781967Y-13991484D02*
X9734348Y-13991484D01*
X9734348Y-13991484D02*
X9715301Y-13981960D01*
X9715301Y-13981960D02*
X9705777Y-13962912D01*
X9705777Y-13962912D02*
X9705777Y-13943865D01*
X9705777Y-13943865D02*
X9715301Y-13924817D01*
X9715301Y-13924817D02*
X9734348Y-13915293D01*
X9734348Y-13915293D02*
X9781967Y-13915293D01*
X9781967Y-13915293D02*
X9801015Y-13905769D01*
X9896253Y-13858150D02*
X9896253Y-14058150D01*
X9896253Y-13867674D02*
X9915301Y-13858150D01*
X9915301Y-13858150D02*
X9953396Y-13858150D01*
X9953396Y-13858150D02*
X9972444Y-13867674D01*
X9972444Y-13867674D02*
X9981967Y-13877198D01*
X9981967Y-13877198D02*
X9991491Y-13896246D01*
X9991491Y-13896246D02*
X9991491Y-13953388D01*
X9991491Y-13953388D02*
X9981967Y-13972436D01*
X9981967Y-13972436D02*
X9972444Y-13981960D01*
X9972444Y-13981960D02*
X9953396Y-13991484D01*
X9953396Y-13991484D02*
X9915301Y-13991484D01*
X9915301Y-13991484D02*
X9896253Y-13981960D01*
X10077205Y-13972436D02*
X10086729Y-13981960D01*
X10086729Y-13981960D02*
X10077205Y-13991484D01*
X10077205Y-13991484D02*
X10067682Y-13981960D01*
X10067682Y-13981960D02*
X10077205Y-13972436D01*
X10077205Y-13972436D02*
X10077205Y-13991484D01*
X10077205Y-13867674D02*
X10086729Y-13877198D01*
X10086729Y-13877198D02*
X10077205Y-13886722D01*
X10077205Y-13886722D02*
X10067682Y-13877198D01*
X10067682Y-13877198D02*
X10077205Y-13867674D01*
X10077205Y-13867674D02*
X10077205Y-13886722D01*
D10*
X8415000Y-14305000D02*
X8445000Y-14335000D01*
X8445000Y-14305000D02*
X8415000Y-14335000D01*
D11*
X8743872Y-14211484D02*
X8762920Y-14211484D01*
X8762920Y-14211484D02*
X8781967Y-14221008D01*
X8781967Y-14221008D02*
X8791491Y-14230531D01*
X8791491Y-14230531D02*
X8801015Y-14249579D01*
X8801015Y-14249579D02*
X8810539Y-14287674D01*
X8810539Y-14287674D02*
X8810539Y-14335293D01*
X8810539Y-14335293D02*
X8801015Y-14373388D01*
X8801015Y-14373388D02*
X8791491Y-14392436D01*
X8791491Y-14392436D02*
X8781967Y-14401960D01*
X8781967Y-14401960D02*
X8762920Y-14411484D01*
X8762920Y-14411484D02*
X8743872Y-14411484D01*
X8743872Y-14411484D02*
X8724824Y-14401960D01*
X8724824Y-14401960D02*
X8715301Y-14392436D01*
X8715301Y-14392436D02*
X8705777Y-14373388D01*
X8705777Y-14373388D02*
X8696253Y-14335293D01*
X8696253Y-14335293D02*
X8696253Y-14287674D01*
X8696253Y-14287674D02*
X8705777Y-14249579D01*
X8705777Y-14249579D02*
X8715301Y-14230531D01*
X8715301Y-14230531D02*
X8724824Y-14221008D01*
X8724824Y-14221008D02*
X8743872Y-14211484D01*
X8896253Y-14392436D02*
X8905777Y-14401960D01*
X8905777Y-14401960D02*
X8896253Y-14411484D01*
X8896253Y-14411484D02*
X8886729Y-14401960D01*
X8886729Y-14401960D02*
X8896253Y-14392436D01*
X8896253Y-14392436D02*
X8896253Y-14411484D01*
X8972444Y-14211484D02*
X9096253Y-14211484D01*
X9096253Y-14211484D02*
X9029586Y-14287674D01*
X9029586Y-14287674D02*
X9058158Y-14287674D01*
X9058158Y-14287674D02*
X9077205Y-14297198D01*
X9077205Y-14297198D02*
X9086729Y-14306722D01*
X9086729Y-14306722D02*
X9096253Y-14325769D01*
X9096253Y-14325769D02*
X9096253Y-14373388D01*
X9096253Y-14373388D02*
X9086729Y-14392436D01*
X9086729Y-14392436D02*
X9077205Y-14401960D01*
X9077205Y-14401960D02*
X9058158Y-14411484D01*
X9058158Y-14411484D02*
X9001015Y-14411484D01*
X9001015Y-14411484D02*
X8981967Y-14401960D01*
X8981967Y-14401960D02*
X8972444Y-14392436D01*
X9220063Y-14211484D02*
X9239110Y-14211484D01*
X9239110Y-14211484D02*
X9258158Y-14221008D01*
X9258158Y-14221008D02*
X9267682Y-14230531D01*
X9267682Y-14230531D02*
X9277205Y-14249579D01*
X9277205Y-14249579D02*
X9286729Y-14287674D01*
X9286729Y-14287674D02*
X9286729Y-14335293D01*
X9286729Y-14335293D02*
X9277205Y-14373388D01*
X9277205Y-14373388D02*
X9267682Y-14392436D01*
X9267682Y-14392436D02*
X9258158Y-14401960D01*
X9258158Y-14401960D02*
X9239110Y-14411484D01*
X9239110Y-14411484D02*
X9220063Y-14411484D01*
X9220063Y-14411484D02*
X9201015Y-14401960D01*
X9201015Y-14401960D02*
X9191491Y-14392436D01*
X9191491Y-14392436D02*
X9181967Y-14373388D01*
X9181967Y-14373388D02*
X9172444Y-14335293D01*
X9172444Y-14335293D02*
X9172444Y-14287674D01*
X9172444Y-14287674D02*
X9181967Y-14249579D01*
X9181967Y-14249579D02*
X9191491Y-14230531D01*
X9191491Y-14230531D02*
X9201015Y-14221008D01*
X9201015Y-14221008D02*
X9220063Y-14211484D01*
X9410539Y-14211484D02*
X9429586Y-14211484D01*
X9429586Y-14211484D02*
X9448634Y-14221008D01*
X9448634Y-14221008D02*
X9458158Y-14230531D01*
X9458158Y-14230531D02*
X9467682Y-14249579D01*
X9467682Y-14249579D02*
X9477205Y-14287674D01*
X9477205Y-14287674D02*
X9477205Y-14335293D01*
X9477205Y-14335293D02*
X9467682Y-14373388D01*
X9467682Y-14373388D02*
X9458158Y-14392436D01*
X9458158Y-14392436D02*
X9448634Y-14401960D01*
X9448634Y-14401960D02*
X9429586Y-14411484D01*
X9429586Y-14411484D02*
X9410539Y-14411484D01*
X9410539Y-14411484D02*
X9391491Y-14401960D01*
X9391491Y-14401960D02*
X9381967Y-14392436D01*
X9381967Y-14392436D02*
X9372444Y-14373388D01*
X9372444Y-14373388D02*
X9362920Y-14335293D01*
X9362920Y-14335293D02*
X9362920Y-14287674D01*
X9362920Y-14287674D02*
X9372444Y-14249579D01*
X9372444Y-14249579D02*
X9381967Y-14230531D01*
X9381967Y-14230531D02*
X9391491Y-14221008D01*
X9391491Y-14221008D02*
X9410539Y-14211484D01*
X9562920Y-14411484D02*
X9562920Y-14278150D01*
X9562920Y-14297198D02*
X9572444Y-14287674D01*
X9572444Y-14287674D02*
X9591491Y-14278150D01*
X9591491Y-14278150D02*
X9620063Y-14278150D01*
X9620063Y-14278150D02*
X9639110Y-14287674D01*
X9639110Y-14287674D02*
X9648634Y-14306722D01*
X9648634Y-14306722D02*
X9648634Y-14411484D01*
X9648634Y-14306722D02*
X9658158Y-14287674D01*
X9658158Y-14287674D02*
X9677205Y-14278150D01*
X9677205Y-14278150D02*
X9705777Y-14278150D01*
X9705777Y-14278150D02*
X9724825Y-14287674D01*
X9724825Y-14287674D02*
X9734348Y-14306722D01*
X9734348Y-14306722D02*
X9734348Y-14411484D01*
X9829586Y-14411484D02*
X9829586Y-14278150D01*
X9829586Y-14297198D02*
X9839110Y-14287674D01*
X9839110Y-14287674D02*
X9858158Y-14278150D01*
X9858158Y-14278150D02*
X9886729Y-14278150D01*
X9886729Y-14278150D02*
X9905777Y-14287674D01*
X9905777Y-14287674D02*
X9915301Y-14306722D01*
X9915301Y-14306722D02*
X9915301Y-14411484D01*
X9915301Y-14306722D02*
X9924825Y-14287674D01*
X9924825Y-14287674D02*
X9943872Y-14278150D01*
X9943872Y-14278150D02*
X9972444Y-14278150D01*
X9972444Y-14278150D02*
X9991491Y-14287674D01*
X9991491Y-14287674D02*
X10001015Y-14306722D01*
X10001015Y-14306722D02*
X10001015Y-14411484D01*
X10391491Y-14201960D02*
X10220063Y-14459103D01*
X10648634Y-14211484D02*
X10667682Y-14211484D01*
X10667682Y-14211484D02*
X10686729Y-14221008D01*
X10686729Y-14221008D02*
X10696253Y-14230531D01*
X10696253Y-14230531D02*
X10705777Y-14249579D01*
X10705777Y-14249579D02*
X10715301Y-14287674D01*
X10715301Y-14287674D02*
X10715301Y-14335293D01*
X10715301Y-14335293D02*
X10705777Y-14373388D01*
X10705777Y-14373388D02*
X10696253Y-14392436D01*
X10696253Y-14392436D02*
X10686729Y-14401960D01*
X10686729Y-14401960D02*
X10667682Y-14411484D01*
X10667682Y-14411484D02*
X10648634Y-14411484D01*
X10648634Y-14411484D02*
X10629587Y-14401960D01*
X10629587Y-14401960D02*
X10620063Y-14392436D01*
X10620063Y-14392436D02*
X10610539Y-14373388D01*
X10610539Y-14373388D02*
X10601015Y-14335293D01*
X10601015Y-14335293D02*
X10601015Y-14287674D01*
X10601015Y-14287674D02*
X10610539Y-14249579D01*
X10610539Y-14249579D02*
X10620063Y-14230531D01*
X10620063Y-14230531D02*
X10629587Y-14221008D01*
X10629587Y-14221008D02*
X10648634Y-14211484D01*
X10801015Y-14392436D02*
X10810539Y-14401960D01*
X10810539Y-14401960D02*
X10801015Y-14411484D01*
X10801015Y-14411484D02*
X10791491Y-14401960D01*
X10791491Y-14401960D02*
X10801015Y-14392436D01*
X10801015Y-14392436D02*
X10801015Y-14411484D01*
X10934348Y-14211484D02*
X10953396Y-14211484D01*
X10953396Y-14211484D02*
X10972444Y-14221008D01*
X10972444Y-14221008D02*
X10981968Y-14230531D01*
X10981968Y-14230531D02*
X10991491Y-14249579D01*
X10991491Y-14249579D02*
X11001015Y-14287674D01*
X11001015Y-14287674D02*
X11001015Y-14335293D01*
X11001015Y-14335293D02*
X10991491Y-14373388D01*
X10991491Y-14373388D02*
X10981968Y-14392436D01*
X10981968Y-14392436D02*
X10972444Y-14401960D01*
X10972444Y-14401960D02*
X10953396Y-14411484D01*
X10953396Y-14411484D02*
X10934348Y-14411484D01*
X10934348Y-14411484D02*
X10915301Y-14401960D01*
X10915301Y-14401960D02*
X10905777Y-14392436D01*
X10905777Y-14392436D02*
X10896253Y-14373388D01*
X10896253Y-14373388D02*
X10886729Y-14335293D01*
X10886729Y-14335293D02*
X10886729Y-14287674D01*
X10886729Y-14287674D02*
X10896253Y-14249579D01*
X10896253Y-14249579D02*
X10905777Y-14230531D01*
X10905777Y-14230531D02*
X10915301Y-14221008D01*
X10915301Y-14221008D02*
X10934348Y-14211484D01*
X11191491Y-14411484D02*
X11077206Y-14411484D01*
X11134348Y-14411484D02*
X11134348Y-14211484D01*
X11134348Y-14211484D02*
X11115301Y-14240055D01*
X11115301Y-14240055D02*
X11096253Y-14259103D01*
X11096253Y-14259103D02*
X11077206Y-14268627D01*
X11381967Y-14411484D02*
X11267682Y-14411484D01*
X11324825Y-14411484D02*
X11324825Y-14211484D01*
X11324825Y-14211484D02*
X11305777Y-14240055D01*
X11305777Y-14240055D02*
X11286729Y-14259103D01*
X11286729Y-14259103D02*
X11267682Y-14268627D01*
X11496253Y-14297198D02*
X11477206Y-14287674D01*
X11477206Y-14287674D02*
X11467682Y-14278150D01*
X11467682Y-14278150D02*
X11458158Y-14259103D01*
X11458158Y-14259103D02*
X11458158Y-14249579D01*
X11458158Y-14249579D02*
X11467682Y-14230531D01*
X11467682Y-14230531D02*
X11477206Y-14221008D01*
X11477206Y-14221008D02*
X11496253Y-14211484D01*
X11496253Y-14211484D02*
X11534348Y-14211484D01*
X11534348Y-14211484D02*
X11553396Y-14221008D01*
X11553396Y-14221008D02*
X11562920Y-14230531D01*
X11562920Y-14230531D02*
X11572444Y-14249579D01*
X11572444Y-14249579D02*
X11572444Y-14259103D01*
X11572444Y-14259103D02*
X11562920Y-14278150D01*
X11562920Y-14278150D02*
X11553396Y-14287674D01*
X11553396Y-14287674D02*
X11534348Y-14297198D01*
X11534348Y-14297198D02*
X11496253Y-14297198D01*
X11496253Y-14297198D02*
X11477206Y-14306722D01*
X11477206Y-14306722D02*
X11467682Y-14316246D01*
X11467682Y-14316246D02*
X11458158Y-14335293D01*
X11458158Y-14335293D02*
X11458158Y-14373388D01*
X11458158Y-14373388D02*
X11467682Y-14392436D01*
X11467682Y-14392436D02*
X11477206Y-14401960D01*
X11477206Y-14401960D02*
X11496253Y-14411484D01*
X11496253Y-14411484D02*
X11534348Y-14411484D01*
X11534348Y-14411484D02*
X11553396Y-14401960D01*
X11553396Y-14401960D02*
X11562920Y-14392436D01*
X11562920Y-14392436D02*
X11572444Y-14373388D01*
X11572444Y-14373388D02*
X11572444Y-14335293D01*
X11572444Y-14335293D02*
X11562920Y-14316246D01*
X11562920Y-14316246D02*
X11553396Y-14306722D01*
X11553396Y-14306722D02*
X11534348Y-14297198D01*
X11648634Y-14211484D02*
X11648634Y-14249579D01*
X11724825Y-14211484D02*
X11724825Y-14249579D01*
X12020063Y-14487674D02*
X12010539Y-14478150D01*
X12010539Y-14478150D02*
X11991491Y-14449579D01*
X11991491Y-14449579D02*
X11981968Y-14430531D01*
X11981968Y-14430531D02*
X11972444Y-14401960D01*
X11972444Y-14401960D02*
X11962920Y-14354341D01*
X11962920Y-14354341D02*
X11962920Y-14316246D01*
X11962920Y-14316246D02*
X11972444Y-14268627D01*
X11972444Y-14268627D02*
X11981968Y-14240055D01*
X11981968Y-14240055D02*
X11991491Y-14221008D01*
X11991491Y-14221008D02*
X12010539Y-14192436D01*
X12010539Y-14192436D02*
X12020063Y-14182912D01*
X12077206Y-14211484D02*
X12201015Y-14211484D01*
X12201015Y-14211484D02*
X12134348Y-14287674D01*
X12134348Y-14287674D02*
X12162920Y-14287674D01*
X12162920Y-14287674D02*
X12181968Y-14297198D01*
X12181968Y-14297198D02*
X12191491Y-14306722D01*
X12191491Y-14306722D02*
X12201015Y-14325769D01*
X12201015Y-14325769D02*
X12201015Y-14373388D01*
X12201015Y-14373388D02*
X12191491Y-14392436D01*
X12191491Y-14392436D02*
X12181968Y-14401960D01*
X12181968Y-14401960D02*
X12162920Y-14411484D01*
X12162920Y-14411484D02*
X12105777Y-14411484D01*
X12105777Y-14411484D02*
X12086729Y-14401960D01*
X12086729Y-14401960D02*
X12077206Y-14392436D01*
X12439110Y-14411484D02*
X12439110Y-14211484D01*
X12524825Y-14411484D02*
X12524825Y-14306722D01*
X12524825Y-14306722D02*
X12515301Y-14287674D01*
X12515301Y-14287674D02*
X12496253Y-14278150D01*
X12496253Y-14278150D02*
X12467682Y-14278150D01*
X12467682Y-14278150D02*
X12448634Y-14287674D01*
X12448634Y-14287674D02*
X12439110Y-14297198D01*
X12648634Y-14411484D02*
X12629587Y-14401960D01*
X12629587Y-14401960D02*
X12620063Y-14392436D01*
X12620063Y-14392436D02*
X12610539Y-14373388D01*
X12610539Y-14373388D02*
X12610539Y-14316246D01*
X12610539Y-14316246D02*
X12620063Y-14297198D01*
X12620063Y-14297198D02*
X12629587Y-14287674D01*
X12629587Y-14287674D02*
X12648634Y-14278150D01*
X12648634Y-14278150D02*
X12677206Y-14278150D01*
X12677206Y-14278150D02*
X12696253Y-14287674D01*
X12696253Y-14287674D02*
X12705777Y-14297198D01*
X12705777Y-14297198D02*
X12715301Y-14316246D01*
X12715301Y-14316246D02*
X12715301Y-14373388D01*
X12715301Y-14373388D02*
X12705777Y-14392436D01*
X12705777Y-14392436D02*
X12696253Y-14401960D01*
X12696253Y-14401960D02*
X12677206Y-14411484D01*
X12677206Y-14411484D02*
X12648634Y-14411484D01*
X12829587Y-14411484D02*
X12810539Y-14401960D01*
X12810539Y-14401960D02*
X12801015Y-14382912D01*
X12801015Y-14382912D02*
X12801015Y-14211484D01*
X12981968Y-14401960D02*
X12962920Y-14411484D01*
X12962920Y-14411484D02*
X12924825Y-14411484D01*
X12924825Y-14411484D02*
X12905777Y-14401960D01*
X12905777Y-14401960D02*
X12896253Y-14382912D01*
X12896253Y-14382912D02*
X12896253Y-14306722D01*
X12896253Y-14306722D02*
X12905777Y-14287674D01*
X12905777Y-14287674D02*
X12924825Y-14278150D01*
X12924825Y-14278150D02*
X12962920Y-14278150D01*
X12962920Y-14278150D02*
X12981968Y-14287674D01*
X12981968Y-14287674D02*
X12991491Y-14306722D01*
X12991491Y-14306722D02*
X12991491Y-14325769D01*
X12991491Y-14325769D02*
X12896253Y-14344817D01*
X13067682Y-14401960D02*
X13086730Y-14411484D01*
X13086730Y-14411484D02*
X13124825Y-14411484D01*
X13124825Y-14411484D02*
X13143872Y-14401960D01*
X13143872Y-14401960D02*
X13153396Y-14382912D01*
X13153396Y-14382912D02*
X13153396Y-14373388D01*
X13153396Y-14373388D02*
X13143872Y-14354341D01*
X13143872Y-14354341D02*
X13124825Y-14344817D01*
X13124825Y-14344817D02*
X13096253Y-14344817D01*
X13096253Y-14344817D02*
X13077206Y-14335293D01*
X13077206Y-14335293D02*
X13067682Y-14316246D01*
X13067682Y-14316246D02*
X13067682Y-14306722D01*
X13067682Y-14306722D02*
X13077206Y-14287674D01*
X13077206Y-14287674D02*
X13096253Y-14278150D01*
X13096253Y-14278150D02*
X13124825Y-14278150D01*
X13124825Y-14278150D02*
X13143872Y-14287674D01*
X13220063Y-14487674D02*
X13229587Y-14478150D01*
X13229587Y-14478150D02*
X13248634Y-14449579D01*
X13248634Y-14449579D02*
X13258158Y-14430531D01*
X13258158Y-14430531D02*
X13267682Y-14401960D01*
X13267682Y-14401960D02*
X13277206Y-14354341D01*
X13277206Y-14354341D02*
X13277206Y-14316246D01*
X13277206Y-14316246D02*
X13267682Y-14268627D01*
X13267682Y-14268627D02*
X13258158Y-14240055D01*
X13258158Y-14240055D02*
X13248634Y-14221008D01*
X13248634Y-14221008D02*
X13229587Y-14192436D01*
X13229587Y-14192436D02*
X13220063Y-14182912D01*
M02*
